<svg width="23" height="23" viewBox="0 0 23 23" fill="none" xmlns="http://www.w3.org/2000/svg">
<path d="M1.91602 11.4998C1.91602 9.60444 2.47807 7.7516 3.5311 6.17563C4.58413 4.59966 6.08084 3.37134 7.83197 2.646C9.58309 1.92066 11.51 1.73087 13.369 2.10065C15.228 2.47042 16.9355 3.38315 18.2758 4.7234C19.616 6.06365 20.5288 7.77124 20.8985 9.63023C21.2683 11.4892 21.0785 13.4161 20.3532 15.1672C19.6279 16.9184 18.3995 18.4151 16.8236 19.4681C15.2476 20.5211 13.3948 21.0832 11.4993 21.0832C8.95855 21.0804 6.52261 20.0698 4.72599 18.2732C2.92937 16.4766 1.91881 14.0406 1.91602 11.4998H1.91602ZM3.30368 11.4998C3.30368 13.1208 3.78435 14.7053 4.6849 16.0531C5.58545 17.4009 6.86544 18.4513 8.363 19.0716C9.86057 19.692 11.5084 19.8543 13.0982 19.538C14.688 19.2218 16.1484 18.4412 17.2946 17.2951C18.4407 16.1489 19.2213 14.6885 19.5375 13.0987C19.8538 11.5089 19.6915 9.86106 19.0712 8.3635C18.4508 6.86593 17.4004 5.58595 16.0526 4.68539C14.7048 3.78484 13.1203 3.30417 11.4993 3.30417C9.3265 3.30671 7.24338 4.171 5.70694 5.70743C4.1705 7.24387 3.30622 9.32699 3.30368 11.4998ZM7.8481 14.9997C7.78349 14.9122 7.74066 14.8106 7.72316 14.7033C7.70566 14.5959 7.714 14.486 7.74747 14.3825L9.22043 9.67901C9.25391 9.57123 9.3131 9.4732 9.39291 9.3934C9.47271 9.31359 9.57073 9.2544 9.67852 9.22092L14.3858 7.74797C14.4541 7.72654 14.5252 7.71555 14.5967 7.71538C14.7055 7.71649 14.8125 7.74308 14.9092 7.793C15.0059 7.84293 15.0896 7.91481 15.1535 8.00288C15.2179 8.09027 15.2607 8.19167 15.2783 8.29878C15.296 8.40589 15.288 8.51566 15.2551 8.61909L13.7792 13.3207C13.7454 13.4275 13.6864 13.5246 13.6072 13.6038C13.528 13.6831 13.4308 13.7421 13.324 13.7759L8.61668 15.2527C8.54843 15.274 8.47736 15.285 8.40585 15.2853C8.29705 15.2844 8.18995 15.2582 8.09311 15.2086C7.99626 15.159 7.91236 15.0875 7.8481 14.9997ZM10.4356 10.4361L9.46672 13.5315L12.5631 12.5636L13.531 9.46722L10.4356 10.4361Z" fill="#936EE3"/>
</svg>
