<svg width="22" height="22" viewBox="0 0 22 22" fill="none" xmlns="http://www.w3.org/2000/svg">
<path d="M11.4233 1.69287C8.59758 1.69287 6.29883 3.89614 6.29883 6.60455C6.29883 9.31295 8.59758 11.5162 11.4233 11.5162C14.2491 11.5162 16.5479 9.31295 16.5479 6.60455C16.5479 3.89614 14.2491 1.69287 11.4233 1.69287ZM11.4233 10.0716C9.42879 10.0716 7.80603 8.51626 7.80603 6.60455C7.80603 4.69283 9.42879 3.13748 11.4233 3.13748C13.4179 3.13748 15.0407 4.69283 15.0407 6.60455C15.0407 8.51626 13.4179 10.0716 11.4233 10.0716Z" fill="#936EE3"/>
<path d="M11.4232 13.2495C6.91565 13.2495 3.38477 16.75 3.38477 21.219H4.89197C4.89197 17.4991 7.69991 14.6941 11.4232 14.6941C15.1465 14.6941 17.9545 17.4993 17.9545 21.219H19.4617C19.4617 16.7501 15.9308 13.2495 11.4232 13.2495Z" fill="#936EE3"/>
</svg>
