<?xml version="1.0" encoding="UTF-8"?>
<svg xmlns="http://www.w3.org/2000/svg" xmlns:xlink="http://www.w3.org/1999/xlink" viewBox="0 0 384 384" width="384px" height="384px">
<g id="surface174996788">
<path style=" stroke:none;fill-rule:nonzero;fill:rgb(100%,100%,100%);fill-opacity:1;" d="M 192 32 C 103.632812 32 32 103.632812 32 192 C 32 280.367188 103.632812 352 192 352 C 280.367188 352 352 280.367188 352 192 C 352 103.632812 280.367188 32 192 32 Z M 283.3125 155.3125 L 171.3125 267.3125 C 168.191406 270.433594 164.097656 272 160 272 C 155.902344 272 151.808594 270.433594 148.6875 267.3125 L 100.6875 219.3125 C 94.433594 213.054688 94.433594 202.945312 100.6875 196.6875 C 106.945312 190.433594 117.054688 190.433594 123.3125 196.6875 L 160 233.375 L 260.6875 132.6875 C 266.945312 126.433594 277.054688 126.433594 283.3125 132.6875 C 289.566406 138.945312 289.566406 149.054688 283.3125 155.3125 Z M 283.3125 155.3125 "/>
</g>
</svg>
