<svg width="28" height="28" viewBox="0 0 28 28" fill="none" xmlns="http://www.w3.org/2000/svg">
<path d="M18.1071 13.1071H15.0714C14.9728 13.1071 14.8929 13.0272 14.8929 12.9286V9.89286C14.8929 9.39978 14.4931 9 14 9C13.5069 9 13.1071 9.39978 13.1071 9.89286V12.9286C13.1071 13.0272 13.0272 13.1071 12.9286 13.1071H9.89286C9.39978 13.1071 9 13.5069 9 14C9 14.4931 9.39978 14.8929 9.89286 14.8929H12.9286C13.0272 14.8929 13.1071 14.9728 13.1071 15.0714V18.1071C13.1071 18.6002 13.5069 19 14 19C14.4931 19 14.8929 18.6002 14.8929 18.1071V15.0714C14.8929 14.9728 14.9728 14.8929 15.0714 14.8929H18.1071C18.6002 14.8929 19 14.4931 19 14C19 13.5069 18.6002 13.1071 18.1071 13.1071Z" fill="#936EE3"/>
<circle cx="14" cy="14" r="13.5" stroke="#936EE3" stroke-dasharray="3 3"/>
</svg>
