<svg width="60" height="60" viewBox="0 0 60 60" fill="none" xmlns="http://www.w3.org/2000/svg">
<path d="M0.6315 18.831C1.63125 9.1875 9.19425 1.67325 18.837 0.6645C22.533 0.27825 26.4307 0 30 0C33.57 0 37.467 0.2775 41.1623 0.6645C50.8057 1.67325 58.3687 9.18675 59.3685 18.831C59.7382 22.392 60 26.154 60 29.6587C60 33.2865 59.7195 37.2525 59.3295 41.0107C58.3223 50.7292 50.733 58.3433 41.0145 59.3512C37.3628 59.7293 33.522 60 30 60C26.478 60 22.6372 59.73 18.9855 59.3512C9.267 58.3425 1.67775 50.7292 0.6705 41.01C0.2805 37.2525 0 33.2865 0 29.6587C0 26.154 0.2625 22.3913 0.6315 18.831Z" fill="#7F54DF"/>
<path fill-rule="evenodd" clip-rule="evenodd" d="M30.4126 17.4988C29.8201 19.389 29.8819 21.4313 30.5875 23.2801C31.3662 25.2542 32.848 26.8497 34.7315 27.7421C35.0544 27.901 35.4042 28.3845 35.1957 28.8058C35.0832 28.9863 34.9102 29.1183 34.7094 29.1768C34.5086 29.2354 34.2939 29.2164 34.1058 29.1236C31.8841 28.0607 30.1401 26.1688 29.2286 23.8327C28.455 21.814 28.3347 19.5932 28.8855 17.4988H24.9904C22.7771 17.4988 20.3687 19.0253 18.9358 20.6554C17.3382 22.4372 16.4583 24.7747 16.4736 27.1965V41.439H21.5863V34.0345C21.5641 33.3945 21.7308 32.7624 22.0645 32.2213C22.3982 31.6802 22.8835 31.2553 23.4565 31.0023C23.8505 30.8306 24.2732 30.7391 24.7011 30.7329C25.1307 30.7301 25.5565 30.8171 25.9524 30.9885C26.5142 31.2522 26.9851 31.6843 27.3033 32.228C27.6215 32.7716 27.772 33.4014 27.7351 34.0345V41.4666H32.868V34.3384C32.8475 33.6845 33.0136 33.0386 33.3459 32.4802C33.6781 31.9219 34.1621 31.4754 34.7382 31.1957C35.1374 31.0091 35.571 30.9125 36.0097 30.9125C36.4527 30.9124 36.8906 31.009 37.2946 31.1957C37.8732 31.5066 38.3511 31.9837 38.67 32.5687C38.989 33.1538 39.1352 33.8215 39.0908 34.4904V35.4781C39.6531 35.6144 40.2285 35.6862 40.8062 35.6922C42.1111 35.6886 43.4018 35.4137 44.6004 34.8841C45.7831 34.3781 46.8506 33.6254 47.7354 32.6738C47.8847 32.5306 48.0797 32.448 48.284 32.4417C48.4883 32.4353 48.6879 32.5056 48.8454 32.6393C48.9546 32.7994 49.0086 32.9923 48.9989 33.1875C48.9891 33.3828 48.9162 33.569 48.7915 33.7168C47.7664 34.8134 46.532 35.681 45.1655 36.2655L44.5937 36.5004V42.406C44.5937 42.5507 44.5377 42.6895 44.438 42.7918C44.3384 42.8942 44.2032 42.9516 44.0623 42.9516H38.1557C38.0153 42.9499 37.8811 42.8918 37.7818 42.7898C37.6825 42.6879 37.626 42.5501 37.6242 42.406V37.6953C38.0823 37.9226 38.5822 38.0474 39.0908 38.0614V41.4459H43.1272V36.9217C42.3687 37.0878 41.5952 37.1711 40.8197 37.1704C39.4602 37.134 38.1199 36.8316 36.8708 36.2794C35.9804 35.9041 35.1341 35.4268 34.348 34.8565V42.4543C34.3489 42.5257 34.336 42.5965 34.31 42.6626C34.2841 42.7288 34.2456 42.789 34.1967 42.8398C34.1479 42.8905 34.0898 42.9308 34.0257 42.9583C33.9616 42.9858 33.8928 43 33.8233 43H26.8C26.659 43 26.5239 42.9425 26.4242 42.8402C26.3245 42.7378 26.2685 42.5991 26.2685 42.4543V34.0345C26.2993 33.6961 26.2297 33.356 26.0688 33.0589C25.9079 32.7619 25.6633 32.5217 25.3671 32.3699C25.1541 32.2782 24.9253 32.2312 24.6944 32.2318C24.4636 32.2394 24.2359 32.2885 24.0216 32.3768C23.7207 32.5228 23.4694 32.7582 23.3002 33.0525C23.1311 33.3469 23.052 33.6866 23.0731 34.0276V42.3991C23.0713 42.5426 23.0145 42.6796 22.9151 42.7805C22.8156 42.8813 22.6814 42.9378 22.5416 42.9378H15.5116C15.3748 42.9342 15.2447 42.8759 15.1492 42.7752C15.0537 42.6746 15.0003 42.5396 15.0003 42.3991V27.2034C14.9794 24.4074 15.9914 21.7072 17.8325 19.647C19.5547 17.7061 22.3533 16 24.9769 16H34.5095C37.1399 16 39.7501 17.5817 41.5059 19.5088C43.3969 21.4998 44.4813 24.1537 44.5399 26.934V33.7168C44.0892 34.0006 43.596 34.206 43.0801 34.3246V26.934C43.0211 24.5362 42.0787 22.2505 40.443 20.538C38.963 18.9217 36.7295 17.4988 34.5095 17.4988H30.4126ZM37.6377 34.9808V34.4628C37.6784 34.0808 37.6105 33.6949 37.4422 33.3517C37.2738 33.0084 37.0123 32.7226 36.6891 32.5288C36.4803 32.4232 36.2489 32.3733 36.0164 32.3837C35.7345 32.3849 35.4576 32.4597 35.2116 32.6011C34.9656 32.7425 34.7588 32.9458 34.6104 33.1919C35.4557 33.8927 36.3962 34.4628 37.4022 34.8841L37.6242 34.9808H37.6377ZM38.0548 23.287C38.2789 23.2857 38.4983 23.3527 38.6852 23.4797C38.8721 23.6067 39.018 23.7878 39.1043 24.0002C39.1907 24.2125 39.2137 24.4464 39.1703 24.6721C39.1269 24.8978 39.0191 25.1052 38.8606 25.2679C38.7022 25.4306 38.5002 25.5413 38.2803 25.5858C38.0605 25.6304 37.8327 25.6068 37.6259 25.5182C37.4191 25.4295 37.2427 25.2797 37.119 25.0878C36.9953 24.8959 36.93 24.6706 36.9313 24.4405C36.9331 24.1352 37.052 23.8428 37.2623 23.6269C37.4726 23.411 37.7574 23.2888 38.0548 23.287ZM38.371 23.6393C38.471 23.6393 38.5688 23.6699 38.652 23.7271C38.7351 23.7843 38.7997 23.8657 38.8377 23.9607C38.8757 24.0558 38.8853 24.1603 38.8653 24.261C38.8452 24.3616 38.7965 24.4539 38.7253 24.5261C38.654 24.5983 38.5635 24.647 38.4652 24.6662C38.3669 24.6854 38.2652 24.6742 38.1732 24.6339C38.0811 24.5936 38.0028 24.5262 37.9482 24.4401C37.8935 24.354 37.8651 24.2532 37.8664 24.1504C37.8664 24.0827 37.8795 24.0157 37.9049 23.9532C37.9304 23.8907 37.9676 23.8341 38.0146 23.7865C38.0615 23.739 38.1172 23.7015 38.1784 23.6762C38.2396 23.6509 38.305 23.6384 38.371 23.6393Z" fill="white"/>
</svg>
