<svg width="18" height="22" viewBox="0 0 18 22" fill="none" xmlns="http://www.w3.org/2000/svg">
<path d="M17.6228 17.1447C17.2996 17.9133 16.917 18.6208 16.4739 19.2713C15.8697 20.158 15.3751 20.7718 14.9939 21.1127C14.4029 21.6722 13.7697 21.9587 13.0918 21.975C12.605 21.975 12.018 21.8324 11.3348 21.5432C10.6492 21.2553 10.0192 21.1127 9.44321 21.1127C8.83908 21.1127 8.19113 21.2553 7.49812 21.5432C6.80402 21.8324 6.24487 21.9832 5.81735 21.9981C5.16719 22.0266 4.51913 21.7319 3.87227 21.1127C3.45938 20.742 2.94298 20.1064 2.32432 19.2061C1.66057 18.2446 1.11488 17.1297 0.687366 15.8587C0.229518 14.4858 0 13.1563 0 11.8692C0 10.3948 0.309456 9.12322 0.929286 8.05761C1.41642 7.20168 2.06447 6.52648 2.87557 6.03083C3.68665 5.53516 4.56305 5.28257 5.50685 5.26643C6.02327 5.26643 6.70046 5.43087 7.54204 5.75407C8.38123 6.07836 8.92006 6.24281 9.15631 6.24281C9.33293 6.24281 9.93154 6.05051 10.9463 5.66716C11.9059 5.31164 12.7158 5.16441 13.3793 5.22242C15.1772 5.37179 16.5279 6.10143 17.4262 7.41597C15.8183 8.41898 15.0229 9.8238 15.0387 11.626C15.0532 13.0297 15.5479 14.1979 16.52 15.1254C16.9606 15.5559 17.4526 15.8886 18 16.1249C17.8813 16.4793 17.756 16.8188 17.6228 17.1447V17.1447ZM13.4994 0.440131C13.4994 1.54037 13.1089 2.56768 12.3306 3.51854C11.3915 4.64894 10.2555 5.30212 9.02362 5.19905C9.00712 5.06073 8.99883 4.9215 8.99881 4.78214C8.99881 3.7259 9.44545 2.59551 10.2386 1.67128C10.6346 1.20331 11.1382 0.814216 11.7489 0.503822C12.3583 0.19806 12.9348 0.028964 13.4769 0C13.4928 0.147081 13.4994 0.29418 13.4994 0.440112V0.440131Z" fill="#33312E"/>
</svg>
