<svg width="24" height="24" viewBox="0 0 24 24" fill="none" xmlns="http://www.w3.org/2000/svg">
<g clip-path="url(#clip0)">
<path d="M24 12.0003C24 10.5325 23.736 9.12639 23.2536 7.82645L12 7.30469L0.746391 7.8264C0.264047 9.12639 0 10.5325 0 12.0003C0 13.4682 0.264047 14.8743 0.746391 16.1742L12 16.696L23.2536 16.1743C23.736 14.8743 24 13.4682 24 12.0003Z" fill="#D80027"/>
<path d="M11.9997 24.0019C17.1593 24.0019 21.5578 20.7454 23.2533 16.1758H0.746094C2.44161 20.7454 6.84013 24.0019 11.9997 24.0019Z" fill="#6DA544"/>
<path d="M0.746094 7.82611H23.2534C21.5578 3.2565 17.1593 0 11.9997 0C6.84013 0 2.44161 3.2565 0.746094 7.82611Z" fill="#338AF3"/>
<path d="M12.2595 15.3895C10.3866 15.3895 8.86818 13.8711 8.86818 11.9982C8.86818 10.1252 10.3866 8.60684 12.2595 8.60684C12.8435 8.60684 13.393 8.7545 13.8727 9.01447C13.1201 8.27849 12.0909 7.82422 10.9551 7.82422C8.64993 7.82422 6.78125 9.69294 6.78125 11.9981C6.78125 14.3033 8.64997 16.172 10.9551 16.172C12.0909 16.172 13.1201 15.7177 13.8727 14.9818C13.393 15.2418 12.8435 15.3895 12.2595 15.3895Z" fill="#F0F0F0"/>
<path d="M14.8674 9.64844L15.3166 10.9118L16.5275 10.336L15.9519 11.547L17.2152 11.9963L15.9519 12.4455L16.5275 13.6565L15.3166 13.0808L14.8674 14.3441L14.4182 13.0808L13.2072 13.6565L13.7829 12.4455L12.5195 11.9963L13.7829 11.547L13.2072 10.336L14.4182 10.9118L14.8674 9.64844Z" fill="#F0F0F0"/>
</g>
<defs>
<clipPath id="clip0">
<rect width="24" height="24" fill="white"/>
</clipPath>
</defs>
</svg>
