<svg width="22" height="22" viewBox="0 0 22 22" fill="none" xmlns="http://www.w3.org/2000/svg">
<g clip-path="url(#clip0_12144_89540)">
<path d="M21.0846 17.4161H19.2513V15.5828C19.2513 15.3397 19.1547 15.1065 18.9828 14.9346C18.8109 14.7627 18.5777 14.6661 18.3346 14.6661C18.0915 14.6661 17.8584 14.7627 17.6864 14.9346C17.5145 15.1065 17.418 15.3397 17.418 15.5828V17.4161H15.5846C15.3415 17.4161 15.1084 17.5127 14.9365 17.6846C14.7645 17.8565 14.668 18.0897 14.668 18.3328C14.668 18.5759 14.7645 18.8091 14.9365 18.981C15.1084 19.1529 15.3415 19.2495 15.5846 19.2495H17.418V21.0828C17.418 21.3259 17.5145 21.5591 17.6864 21.731C17.8584 21.9029 18.0915 21.9995 18.3346 21.9995C18.5777 21.9995 18.8109 21.9029 18.9828 21.731C19.1547 21.5591 19.2513 21.3259 19.2513 21.0828V19.2495H21.0846C21.3277 19.2495 21.5609 19.1529 21.7328 18.981C21.9047 18.8091 22.0013 18.5759 22.0013 18.3328C22.0013 18.0897 21.9047 17.8565 21.7328 17.6846C21.5609 17.5127 21.3277 17.4161 21.0846 17.4161Z" fill="#936EE3"/>
<path d="M19.25 5.5H16.5C16.5 4.04131 15.9205 2.64236 14.8891 1.61091C13.8576 0.579463 12.4587 0 11 0C9.54131 0 8.14236 0.579463 7.11091 1.61091C6.07946 2.64236 5.5 4.04131 5.5 5.5H2.75C2.02065 5.5 1.32118 5.78973 0.805456 6.30546C0.289731 6.82118 0 7.52065 0 8.25L0 17.4167C0.00145554 18.6318 0.484808 19.7967 1.34403 20.656C2.20326 21.5152 3.3682 21.9985 4.58333 22H12.8333C13.0764 22 13.3096 21.9034 13.4815 21.7315C13.6534 21.5596 13.75 21.3264 13.75 21.0833C13.75 20.8402 13.6534 20.6071 13.4815 20.4352C13.3096 20.2632 13.0764 20.1667 12.8333 20.1667H4.58333C3.85399 20.1667 3.15451 19.8769 2.63879 19.3612C2.12306 18.8455 1.83333 18.146 1.83333 17.4167V8.25C1.83333 8.00688 1.92991 7.77373 2.10182 7.60182C2.27373 7.42991 2.50688 7.33333 2.75 7.33333H5.5V9.16667C5.5 9.40978 5.59658 9.64294 5.76849 9.81485C5.94039 9.98676 6.17355 10.0833 6.41667 10.0833C6.65978 10.0833 6.89294 9.98676 7.06485 9.81485C7.23676 9.64294 7.33333 9.40978 7.33333 9.16667V7.33333H14.6667V9.16667C14.6667 9.40978 14.7632 9.64294 14.9352 9.81485C15.1071 9.98676 15.3402 10.0833 15.5833 10.0833C15.8264 10.0833 16.0596 9.98676 16.2315 9.81485C16.4034 9.64294 16.5 9.40978 16.5 9.16667V7.33333H19.25C19.4931 7.33333 19.7263 7.42991 19.8982 7.60182C20.0701 7.77373 20.1667 8.00688 20.1667 8.25V12.8333C20.1667 13.0764 20.2632 13.3096 20.4352 13.4815C20.6071 13.6534 20.8402 13.75 21.0833 13.75C21.3264 13.75 21.5596 13.6534 21.7315 13.4815C21.9034 13.3096 22 13.0764 22 12.8333V8.25C22 7.52065 21.7103 6.82118 21.1945 6.30546C20.6788 5.78973 19.9793 5.5 19.25 5.5ZM7.33333 5.5C7.33333 4.52754 7.71964 3.59491 8.40728 2.90728C9.09491 2.21964 10.0275 1.83333 11 1.83333C11.9725 1.83333 12.9051 2.21964 13.5927 2.90728C14.2804 3.59491 14.6667 4.52754 14.6667 5.5H7.33333Z" fill="#936EE3"/>
</g>
<defs>
<clipPath id="clip0_12144_89540">
<rect width="22" height="22" fill="white"/>
</clipPath>
</defs>
</svg>
