<svg width="22" height="22" viewBox="0 0 22 22" fill="none" xmlns="http://www.w3.org/2000/svg">
<g clip-path="url(#clip0)">
<path d="M20.625 7.5C20.142 7.5 19.75 7.10888 19.75 6.625V3.125C19.75 2.642 19.3571 2.25 18.875 2.25H15.375C14.892 2.25 14.5 1.85888 14.5 1.375C14.5 0.891125 14.892 0.5 15.375 0.5H18.875C20.3223 0.5 21.5 1.67775 21.5 3.125V6.625C21.5 7.10888 21.108 7.5 20.625 7.5Z" fill="#363853"/>
<path d="M18.875 21.5H15.375C14.892 21.5 14.5 21.1089 14.5 20.625C14.5 20.1411 14.892 19.75 15.375 19.75H18.875C19.3571 19.75 19.75 19.358 19.75 18.875V15.375C19.75 14.8911 20.142 14.5 20.625 14.5C21.108 14.5 21.5 14.8911 21.5 15.375V18.875C21.5 20.3223 20.3223 21.5 18.875 21.5Z" fill="#363853"/>
<path d="M6.625 21.5H3.125C1.67775 21.5 0.5 20.3223 0.5 18.875V15.375C0.5 14.8911 0.892 14.5 1.375 14.5C1.858 14.5 2.25 14.8911 2.25 15.375V18.875C2.25 19.358 2.64288 19.75 3.125 19.75H6.625C7.108 19.75 7.5 20.1411 7.5 20.625C7.5 21.1089 7.108 21.5 6.625 21.5Z" fill="#363853"/>
<path d="M1.375 7.5C0.892 7.5 0.5 7.10888 0.5 6.625V3.125C0.5 1.67775 1.67775 0.5 3.125 0.5H6.625C7.108 0.5 7.5 0.891125 7.5 1.375C7.5 1.85888 7.108 2.25 6.625 2.25H3.125C2.64288 2.25 2.25 2.642 2.25 3.125V6.625C2.25 7.10888 1.858 7.5 1.375 7.5Z" fill="#363853"/>
<path d="M16.25 10.125C15.767 10.125 15.375 9.73388 15.375 9.25V6.625H6.625V9.25C6.625 9.73388 6.233 10.125 5.75 10.125C5.267 10.125 4.875 9.73388 4.875 9.25V6.625C4.875 5.65988 5.65988 4.875 6.625 4.875H15.375C16.3401 4.875 17.125 5.65988 17.125 6.625V9.25C17.125 9.73388 16.733 10.125 16.25 10.125Z" fill="#363853"/>
<path d="M18.875 12.75C18.875 13.2339 18.483 13.625 18 13.625H17.125V15.375C17.125 16.3401 16.3401 17.125 15.375 17.125H6.625C5.65987 17.125 4.875 16.3401 4.875 15.375V13.625H4C3.517 13.625 3.125 13.2339 3.125 12.75C3.125 12.2661 3.517 11.875 4 11.875H18C18.483 11.875 18.875 12.2661 18.875 12.75Z" fill="#363853"/>
</g>
<defs>
<clipPath id="clip0">
<rect width="21" height="21" fill="white" transform="translate(0.5 0.5)"/>
</clipPath>
</defs>
</svg>
