<svg width="28" height="28" viewBox="0 0 28 28" fill="none" xmlns="http://www.w3.org/2000/svg">
<g clip-path="url(#clip0)">
<path d="M26.8327 9.33333C26.1887 9.33333 25.666 8.81183 25.666 8.16667V3.5C25.666 2.856 25.1422 2.33333 24.4994 2.33333H19.8327C19.1887 2.33333 18.666 1.81183 18.666 1.16667C18.666 0.5215 19.1887 0 19.8327 0H24.4994C26.429 0 27.9994 1.57033 27.9994 3.5V8.16667C27.9994 8.81183 27.4767 9.33333 26.8327 9.33333Z" fill="white"/>
<path d="M24.4994 28H19.8327C19.1887 28 18.666 27.4785 18.666 26.8333C18.666 26.1881 19.1887 25.6666 19.8327 25.6666H24.4994C25.1422 25.6666 25.666 25.144 25.666 24.5V19.8333C25.666 19.1881 26.1887 18.6666 26.8327 18.6666C27.4767 18.6666 27.9994 19.1881 27.9994 19.8333V24.5C27.9994 26.4296 26.429 28 24.4994 28Z" fill="white"/>
<path d="M8.16667 28H3.5C1.57033 28 0 26.4296 0 24.5V19.8333C0 19.1881 0.522667 18.6666 1.16667 18.6666C1.81067 18.6666 2.33333 19.1881 2.33333 19.8333V24.5C2.33333 25.144 2.85717 25.6666 3.5 25.6666H8.16667C8.81067 25.6666 9.33333 26.1881 9.33333 26.8333C9.33333 27.4785 8.81067 28 8.16667 28Z" fill="white"/>
<path d="M1.16667 9.33333C0.522667 9.33333 0 8.81183 0 8.16667V3.5C0 1.57033 1.57033 0 3.5 0H8.16667C8.81067 0 9.33333 0.5215 9.33333 1.16667C9.33333 1.81183 8.81067 2.33333 8.16667 2.33333H3.5C2.85717 2.33333 2.33333 2.856 2.33333 3.5V8.16667C2.33333 8.81183 1.81067 9.33333 1.16667 9.33333Z" fill="white"/>
<path d="M21.0007 12.8334C20.3567 12.8334 19.834 12.3119 19.834 11.6667V8.16671H8.16732V11.6667C8.16732 12.3119 7.64465 12.8334 7.00065 12.8334C6.35665 12.8334 5.83398 12.3119 5.83398 11.6667V8.16671C5.83398 6.87987 6.88048 5.83337 8.16732 5.83337H19.834C21.1208 5.83337 22.1673 6.87987 22.1673 8.16671V11.6667C22.1673 12.3119 21.6447 12.8334 21.0007 12.8334Z" fill="white"/>
<path d="M24.5 16.3333C24.5 16.9785 23.9773 17.5 23.3333 17.5H22.1667V19.8333C22.1667 21.1201 21.1202 22.1666 19.8333 22.1666H8.16667C6.87983 22.1666 5.83333 21.1201 5.83333 19.8333V17.5H4.66667C4.02267 17.5 3.5 16.9785 3.5 16.3333C3.5 15.6881 4.02267 15.1666 4.66667 15.1666H23.3333C23.9773 15.1666 24.5 15.6881 24.5 16.3333Z" fill="white"/>
</g>
<defs>
<clipPath id="clip0">
<rect width="28" height="28" fill="white"/>
</clipPath>
</defs>
</svg>
