<svg width="22" height="22" viewBox="0 0 22 22" fill="none" xmlns="http://www.w3.org/2000/svg">
<g clip-path="url(#clip0_12144_89530)">
<path d="M21.0833 17.4164V15.583C21.08 13.0689 20.1384 10.6466 18.443 8.7902C16.7475 6.93382 14.4202 5.77709 11.9167 5.54646V4.32913C12.2662 4.12734 12.5393 3.81586 12.6938 3.443C12.8482 3.07014 12.8753 2.65674 12.7709 2.26691C12.6664 1.87709 12.4362 1.53262 12.1161 1.28693C11.7959 1.04125 11.4036 0.908081 11 0.908081C10.5964 0.908081 10.2041 1.04125 9.88394 1.28693C9.56376 1.53262 9.33359 1.87709 9.22914 2.26691C9.12468 2.65674 9.15178 3.07014 9.30622 3.443C9.46066 3.81586 9.73382 4.12734 10.0833 4.32913V5.54646C7.57982 5.77709 5.25252 6.93382 3.55704 8.7902C1.86156 10.6466 0.919995 13.0689 0.916667 15.583V17.4164C0.673552 17.4164 0.440394 17.513 0.268485 17.6849C0.0965771 17.8568 0 18.0899 0 18.333C0 18.5762 0.0965771 18.8093 0.268485 18.9812C0.440394 19.1531 0.673552 19.2497 0.916667 19.2497H21.0833C21.3265 19.2497 21.5596 19.1531 21.7315 18.9812C21.9034 18.8093 22 18.5762 22 18.333C22 18.0899 21.9034 17.8568 21.7315 17.6849C21.5596 17.513 21.3265 17.4164 21.0833 17.4164ZM2.75 15.583C3.18358 4.64354 18.8201 4.65179 19.25 15.583V17.4164H2.75V15.583Z" fill="#936EE3"/>
</g>
<defs>
<clipPath id="clip0_12144_89530">
<rect width="22" height="22" fill="white"/>
</clipPath>
</defs>
</svg>
