<svg width="18" height="20" viewBox="0 0 18 20" fill="none" xmlns="http://www.w3.org/2000/svg">
<path d="M15.8906 1.5625H15.0469V0H13.6406V1.5625H4.35938V0H2.95312V1.5625H2.10938C0.946266 1.5625 0 2.61391 0 3.90625V17.6562C0 18.9486 0.946266 20 2.10938 20H15.8906C17.0537 20 18 18.9486 18 17.6562V3.90625C18 2.61391 17.0537 1.5625 15.8906 1.5625ZM16.5938 17.6562C16.5938 18.087 16.2783 18.4375 15.8906 18.4375H2.10938C1.72167 18.4375 1.40625 18.087 1.40625 17.6562V7.34375H16.5938V17.6562ZM16.5938 5.78125H1.40625V3.90625C1.40625 3.47547 1.72167 3.125 2.10938 3.125H2.95312V4.6875H4.35938V3.125H13.6406V4.6875H15.0469V3.125H15.8906C16.2783 3.125 16.5938 3.47547 16.5938 3.90625V5.78125Z" fill="#936EE3"/>
<path d="M4.07812 8.98438H2.67188V10.5469H4.07812V8.98438Z" fill="#936EE3"/>
<path d="M6.89062 8.98438H5.48438V10.5469H6.89062V8.98438Z" fill="#936EE3"/>
<path d="M9.70312 8.98438H8.29688V10.5469H9.70312V8.98438Z" fill="#936EE3"/>
<path d="M12.5156 8.98438H11.1094V10.5469H12.5156V8.98438Z" fill="#936EE3"/>
<path d="M15.3281 8.98438H13.9219V10.5469H15.3281V8.98438Z" fill="#936EE3"/>
<path d="M4.07812 12.1094H2.67188V13.6719H4.07812V12.1094Z" fill="#936EE3"/>
<path d="M6.89062 12.1094H5.48438V13.6719H6.89062V12.1094Z" fill="#936EE3"/>
<path d="M9.70312 12.1094H8.29688V13.6719H9.70312V12.1094Z" fill="#936EE3"/>
<path d="M12.5156 12.1094H11.1094V13.6719H12.5156V12.1094Z" fill="#936EE3"/>
<path d="M4.07812 15.2344H2.67188V16.7969H4.07812V15.2344Z" fill="#936EE3"/>
<path d="M6.89062 15.2344H5.48438V16.7969H6.89062V15.2344Z" fill="#936EE3"/>
<path d="M9.70312 15.2344H8.29688V16.7969H9.70312V15.2344Z" fill="#936EE3"/>
<path d="M12.5156 15.2344H11.1094V16.7969H12.5156V15.2344Z" fill="#936EE3"/>
<path d="M15.3281 12.1094H13.9219V13.6719H15.3281V12.1094Z" fill="#936EE3"/>
</svg>
