<svg width="22" height="22" viewBox="0 0 22 22" fill="none" xmlns="http://www.w3.org/2000/svg">
<g clip-path="url(#clip0_12144_89525)">
<path d="M19.1583 3.9335C18.8355 3.05003 18.2492 2.28698 17.4787 1.74746C16.7082 1.20795 15.7906 0.91798 14.85 0.916748H7.15C6.20939 0.91798 5.29183 1.20795 4.52133 1.74746C3.75083 2.28698 3.16453 3.05003 2.84167 3.9335L0.366671 10.7416C0.12325 11.4121 -0.000847671 12.1201 4.35771e-06 12.8334V13.7501C0.00163999 14.4585 0.168151 15.1568 0.486356 15.7897C0.80456 16.4226 1.26572 16.9727 1.83334 17.3966C1.83334 17.4039 1.83334 17.4094 1.83334 17.4167V19.2501C1.83334 19.9794 2.12307 20.6789 2.63879 21.1946C3.15452 21.7104 3.85399 22.0001 4.58334 22.0001C5.31268 22.0001 6.01216 21.7104 6.52788 21.1946C7.04361 20.6789 7.33334 19.9794 7.33334 19.2501V18.3334H14.6667V19.2501C14.6667 19.9794 14.9564 20.6789 15.4721 21.1946C15.9879 21.7104 16.6873 22.0001 17.4167 22.0001C18.146 22.0001 18.8455 21.7104 19.3612 21.1946C19.8769 20.6789 20.1667 19.9794 20.1667 19.2501V17.4167C20.1667 17.4094 20.1667 17.4039 20.1667 17.3966C20.7343 16.9727 21.1954 16.4226 21.5137 15.7897C21.8319 15.1568 21.9984 14.4585 22 13.7501V12.8334C22.0009 12.1204 21.8768 11.4127 21.6333 10.7425L19.1583 3.9335ZM4.56684 4.5605C4.76065 4.03082 5.1122 3.57329 5.57408 3.24958C6.03596 2.92587 6.58598 2.75154 7.15 2.75008H14.85C15.4143 2.75116 15.9648 2.92532 16.427 3.24906C16.8893 3.57279 17.2411 4.03053 17.435 4.5605L19.4407 10.0834H2.55842L4.56684 4.5605ZM5.5 19.2501C5.5 19.4932 5.40343 19.7264 5.23152 19.8983C5.05961 20.0702 4.82645 20.1667 4.58334 20.1667C4.34022 20.1667 4.10707 20.0702 3.93516 19.8983C3.76325 19.7264 3.66667 19.4932 3.66667 19.2501V18.2417C3.96837 18.303 4.27548 18.3337 4.58334 18.3334H5.5V19.2501ZM18.3333 19.2501C18.3333 19.4932 18.2368 19.7264 18.0649 19.8983C17.8929 20.0702 17.6598 20.1667 17.4167 20.1667C17.1736 20.1667 16.9404 20.0702 16.7685 19.8983C16.5966 19.7264 16.5 19.4932 16.5 19.2501V18.3334H17.4167C17.7245 18.3337 18.0316 18.303 18.3333 18.2417V19.2501ZM20.1667 13.7501C20.1667 14.4794 19.8769 15.1789 19.3612 15.6946C18.8455 16.2104 18.146 16.5001 17.4167 16.5001H4.58334C3.85399 16.5001 3.15452 16.2104 2.63879 15.6946C2.12307 15.1789 1.83334 14.4794 1.83334 13.7501V12.8334C1.83707 12.5247 1.87426 12.2174 1.94425 11.9167H3.66667V12.8334C3.66667 13.0765 3.76325 13.3097 3.93516 13.4816C4.10707 13.6535 4.34022 13.7501 4.58334 13.7501C4.82645 13.7501 5.05961 13.6535 5.23152 13.4816C5.40343 13.3097 5.5 13.0765 5.5 12.8334V11.9167H16.5V12.8334C16.5 13.0765 16.5966 13.3097 16.7685 13.4816C16.9404 13.6535 17.1736 13.7501 17.4167 13.7501C17.6598 13.7501 17.8929 13.6535 18.0649 13.4816C18.2368 13.3097 18.3333 13.0765 18.3333 12.8334V11.9167H20.0558C20.1258 12.2174 20.163 12.5247 20.1667 12.8334V13.7501Z" fill="#936EE3"/>
</g>
<defs>
<clipPath id="clip0_12144_89525">
<rect width="22" height="22" fill="white"/>
</clipPath>
</defs>
</svg>
