<svg width="48" height="48" viewBox="0 0 48 48" fill="none" xmlns="http://www.w3.org/2000/svg">
<path d="M0.5052 15.0648C1.305 7.35 7.3554 1.3386 15.0696 0.5316C18.0264 0.2226 21.1446 0 24 0C26.856 0 29.9736 0.222 32.9298 0.5316C40.6446 1.3386 46.695 7.3494 47.4948 15.0648C47.7906 17.9136 48 20.9232 48 23.727C48 26.6292 47.7756 29.802 47.4636 32.8086C46.6578 40.5834 40.5864 46.6746 32.8116 47.481C29.8902 47.7834 26.8176 48 24 48C21.1824 48 18.1098 47.784 15.1884 47.481C7.4136 46.674 1.3422 40.5834 0.5364 32.808C0.2244 29.802 0 26.6292 0 23.727C0 20.9232 0.21 17.913 0.5052 15.0648Z" fill="#457DD7"/>
<path d="M34.7988 11.7319C33.0555 13.8231 31.2766 15.9142 29.5334 18.0054C29.2843 18.319 29.142 18.563 29.0709 18.807C29.0709 18.8767 29.0353 18.9812 29.0709 19.0509C29.1064 19.2949 29.2488 19.5737 29.5334 19.8874C29.5334 19.8874 25.4776 16.3324 27.1853 14.1019C27.8612 13.3003 28.5372 12.4987 29.1776 11.6971C29.5334 11.244 30.0314 11.0349 30.6363 11C31.917 11 33.1978 11 34.4786 11C34.692 11 34.9055 11 34.9766 11.2091C35.0478 11.4182 34.9411 11.5576 34.7988 11.7319Z" fill="#1768C9"/>
<path d="M34.7275 26.8929H30.4227C29.2843 26.649 28.7862 25.6731 28.1102 24.9063C26.7227 23.2683 25.3352 21.5954 23.9121 19.9573C23.6631 19.6785 23.4141 19.3996 23.4141 18.9814C23.4141 18.7026 23.4852 18.4586 23.6631 18.2495C24.6593 17.0645 25.6554 15.8447 26.6516 14.6597C26.6516 14.6597 26.6516 14.6248 26.6871 14.6248C26.8295 14.4506 26.9718 14.2763 27.1496 14.1021C25.442 16.3326 29.4977 19.8876 29.4977 19.8876C31.241 21.9787 32.9843 24.035 34.7275 26.1262C35.0477 26.5096 35.0477 26.6141 34.7275 26.8929Z" fill="#2873EF"/>
<path d="M21.814 33.8984C21.814 33.9332 21.814 33.9332 21.814 33.8984C21.138 34.7 20.4621 35.5016 19.8217 36.3032C19.4659 36.7563 18.9678 36.9654 18.363 37.0003C17.0823 37.0003 15.8015 37.0003 14.5207 37.0003C14.3073 37.0003 14.0938 37.0003 14.0226 36.7912C13.9515 36.582 14.0582 36.4426 14.2005 36.3032C15.9438 34.2121 17.7227 32.1209 19.4659 30.0298C19.715 29.7161 19.8573 29.4721 19.9284 29.2281C19.9284 29.1584 19.964 29.0539 19.9284 28.9842C19.8928 28.7402 19.7505 28.4614 19.4659 28.1477C19.4659 28.1129 23.5573 31.6678 21.814 33.8984Z" fill="#1768C9"/>
<path d="M25.55 29.019C25.55 29.2978 25.4789 29.5417 25.301 29.7509C24.3048 30.9358 23.3087 32.1557 22.3125 33.3407C22.3125 33.3407 22.3125 33.3755 22.277 33.3755C22.1346 33.5498 21.9923 33.724 21.8145 33.8983C23.5221 31.6677 19.4664 28.1128 19.4664 28.1128C17.7231 26.0216 15.9798 23.9653 14.2366 21.8742C13.9519 21.4908 13.9519 21.3862 14.2721 21.1074H18.5769C19.7154 21.3514 20.2135 22.3273 20.8894 23.094C22.3125 24.7321 23.7 26.405 25.0875 28.0779C25.301 28.3568 25.5856 28.6007 25.55 29.019Z" fill="#2873EF"/>
<path d="M34.7988 11.7319C33.0555 13.8231 31.2766 15.9142 29.5334 18.0054C29.2843 18.319 29.142 18.563 29.0709 18.807C29.0709 18.8767 29.0353 18.9812 29.0709 19.0509C29.1064 19.2949 29.2488 19.5737 29.5334 19.8874C29.5334 19.8874 25.4776 16.3324 27.1853 14.1019C27.8612 13.3003 28.5372 12.4987 29.1776 11.6971C29.5334 11.244 30.0314 11.0349 30.6363 11C31.917 11 33.1978 11 34.4786 11C34.692 11 34.9055 11 34.9766 11.2091C35.0478 11.4182 34.9411 11.5576 34.7988 11.7319Z" fill="#9DBCEF"/>
<path d="M34.7275 26.8929H30.4227C29.2843 26.649 28.7862 25.6731 28.1102 24.9063C26.7227 23.2683 25.3352 21.5954 23.9121 19.9573C23.6631 19.6785 23.4141 19.3996 23.4141 18.9814C23.4141 18.7026 23.4852 18.4586 23.6631 18.2495C24.6593 17.0645 25.6554 15.8447 26.6516 14.6597C26.6516 14.6597 26.6516 14.6248 26.6871 14.6248C26.8295 14.4506 26.9718 14.2763 27.1496 14.1021C25.442 16.3326 29.4977 19.8876 29.4977 19.8876C31.241 21.9787 32.9843 24.035 34.7275 26.1262C35.0477 26.5096 35.0477 26.6141 34.7275 26.8929Z" fill="white"/>
<path d="M21.814 33.8984C21.814 33.9332 21.814 33.9332 21.814 33.8984C21.138 34.7 20.4621 35.5016 19.8217 36.3032C19.4659 36.7563 18.9678 36.9654 18.363 37.0003C17.0823 37.0003 15.8015 37.0003 14.5207 37.0003C14.3073 37.0003 14.0938 37.0003 14.0226 36.7912C13.9515 36.582 14.0582 36.4426 14.2005 36.3032C15.9438 34.2121 17.7227 32.1209 19.4659 30.0298C19.715 29.7161 19.8573 29.4721 19.9284 29.2281C19.9284 29.1584 19.964 29.0539 19.9284 28.9842C19.8928 28.7402 19.7505 28.4614 19.4659 28.1477C19.4659 28.1129 23.5573 31.6678 21.814 33.8984Z" fill="white"/>
<path d="M25.55 29.019C25.55 29.2978 25.4789 29.5417 25.301 29.7509C24.3048 30.9358 23.3087 32.1557 22.3125 33.3407C22.3125 33.3407 22.3125 33.3755 22.277 33.3755C22.1346 33.5498 21.9923 33.724 21.8145 33.8983C23.5221 31.6677 19.4664 28.1128 19.4664 28.1128C17.7231 26.0216 15.9798 23.9653 14.2366 21.8742C13.9519 21.4908 13.9519 21.3862 14.2721 21.1074H18.5769C19.7154 21.3514 20.2135 22.3273 20.8894 23.094C22.3125 24.7321 23.7 26.405 25.0875 28.0779C25.301 28.3568 25.5856 28.6007 25.55 29.019Z" fill="#9DBCEF"/>
</svg>
