<svg width="24" height="24" viewBox="0 0 24 24" fill="none" xmlns="http://www.w3.org/2000/svg">
<g clip-path="url(#clip0)">
<path d="M3.77122 5.4457L3.00587 6.42864L3.46504 6.71862L3.98901 5.58269H4.0046L4.48797 6.71062L4.99553 6.42023L4.22239 5.45431V5.43791L5.43809 5.58269V5.03514L4.22239 5.19653V5.18013L4.98774 4.1734L4.50437 3.89941L4.01321 5.02734H3.9968L3.49785 3.90782L3.00587 4.18919L3.76343 5.17233V5.18792L2.5791 5.03514V5.58269L3.77122 5.42991V5.4457Z" fill="#363853"/>
<path d="M13.6875 5.4457L12.9221 6.42864L13.3813 6.71862L13.9053 5.58269H13.9208L14.4042 6.71062L14.9118 6.42023L14.1386 5.45431V5.43791L15.3543 5.58269V5.03514L14.1386 5.19653V5.18013L14.904 4.1734L14.4206 3.89941L13.9288 5.02734H13.9131L13.4133 3.90782L12.9221 4.18919L13.6797 5.17233V5.18792L12.4954 5.03514V5.58269L13.6875 5.42991V5.4457Z" fill="#363853"/>
<path d="M8.72935 5.4457L7.964 6.42864L8.42317 6.71862L8.94714 5.58269H8.96273L9.4461 6.71062L9.95366 6.42023L9.18052 5.45431V5.43791L10.3962 5.58269V5.03514L9.18052 5.19653V5.18013L9.94587 4.1734L9.4625 3.89941L8.97073 5.02734H8.95493L8.45516 3.90782L7.964 4.18919L8.72156 5.17233V5.18792L7.53723 5.03514V5.58269L8.72935 5.42991V5.4457Z" fill="#363853"/>
<path d="M23.52 1.5293H0.480088C0.214717 1.5293 0 1.74422 0 2.00938V8.60941C0 8.87437 0.214717 9.0893 0.480088 9.0893H13.9029C13.7177 9.54539 13.6135 10.0427 13.6135 10.5644V12.5814H12.8016C12.0947 12.5814 11.5201 13.1562 11.5201 13.8629V21.1879C11.5201 21.8944 12.0947 22.4694 12.8016 22.4694H22.2961C23.003 22.4694 23.5776 21.8944 23.5776 21.1879V13.8629C23.5776 13.1562 23.003 12.5814 22.2961 12.5814H21.4838V10.5644C21.4838 10.0427 21.3794 9.54539 21.1942 9.0893H23.52C23.7854 9.0893 24.0001 8.87437 24.0001 8.60941V2.00938C24.0001 1.74422 23.7854 1.5293 23.52 1.5293V1.5293ZM22.6177 13.8629V21.1879C22.6177 21.3653 22.4733 21.5094 22.2961 21.5094H12.8016C12.6244 21.5094 12.48 21.3653 12.48 21.1879V13.8629C12.48 13.6855 12.6244 13.5413 12.8016 13.5413H22.2961C22.4733 13.5413 22.6177 13.6855 22.6177 13.8629V13.8629ZM14.5735 12.5814V10.5644C14.5735 8.92421 15.9079 7.58936 17.5485 7.58936C19.1892 7.58936 20.5238 8.92421 20.5238 10.5644V12.5814H14.5735ZM23.0399 8.12933H20.6337C19.9125 7.21734 18.7989 6.62938 17.5485 6.62938C16.2984 6.62938 15.1848 7.21734 14.4633 8.12933H0.959971V2.48927H23.0399V8.12933Z" fill="#363853"/>
</g>
<defs>
<clipPath id="clip0">
<rect width="24" height="24" fill="white"/>
</clipPath>
</defs>
</svg>
