<svg width="30" height="31" viewBox="0 0 30 31" fill="none" xmlns="http://www.w3.org/2000/svg">
<g clip-path="url(#clip0)">
<path d="M15 0.149475C6.72914 0.149475 0 6.90737 0 15.2136C0 23.5198 6.72914 30.2777 15 30.2777C23.2709 30.2777 30 23.5198 30 15.2136C30 6.90737 23.2709 0.149475 15 0.149475ZM23.5668 10.8959L12.7588 21.7502C12.5146 21.9954 12.1948 22.1179 11.875 22.1179C11.5552 22.1179 11.2354 21.9954 10.9913 21.7502L5.1832 15.9172C4.93904 15.6722 4.93904 15.2747 5.1832 15.0296L6.06686 14.1421C6.31102 13.897 6.70664 13.897 6.9508 14.1421L11.875 19.0875L21.7992 9.12074C22.0434 8.87565 22.439 8.87565 22.6832 9.12074L23.5668 10.0082C23.811 10.2534 23.811 10.6508 23.5668 10.8959Z" fill="#4BB543"/>
</g>
<defs>
<clipPath id="clip0">
<rect width="30" height="30.1282" fill="white" transform="translate(0 0.149475)"/>
</clipPath>
</defs>
</svg>
