<svg width="30" height="30" viewBox="0 0 30 30" fill="none" xmlns="http://www.w3.org/2000/svg">
<g clip-path="url(#clip0)">
<path d="M25.6117 4.38832C19.7607 -1.46265 10.24 -1.46322 4.38844 4.38832C-1.4631 10.2399 -1.46253 19.76 4.38844 25.6116C10.2394 31.4631 19.7602 31.4631 25.6117 25.6116C31.4627 19.76 31.4627 10.2393 25.6117 4.38832ZM20.918 20.9179C20.4672 21.3687 19.7365 21.3687 19.2857 20.9179L15.0001 16.6322L10.5107 21.1216C10.0599 21.5724 9.32919 21.5724 8.8784 21.1216C8.42762 20.6708 8.42762 19.9401 8.8784 19.4893L13.3678 14.9999L9.08215 10.7143C8.63136 10.2635 8.63136 9.53223 9.08215 9.08203C9.53293 8.63124 10.2637 8.63124 10.7144 9.08203L15.0001 13.3677L19.0814 9.28635C19.5322 8.83557 20.2629 8.83557 20.7137 9.28635C21.1645 9.73714 21.1645 10.4679 20.7137 10.9186L16.6324 14.9999L20.918 19.2856C21.3688 19.7364 21.3688 20.4671 20.918 20.9179Z" fill="#FF3333"/>
</g>
<defs>
<clipPath id="clip0">
<rect width="30" height="30" fill="white"/>
</clipPath>
</defs>
</svg>
