<svg width="24" height="30" viewBox="0 0 24 30" fill="none" xmlns="http://www.w3.org/2000/svg">
<path d="M0.312967 11.3333C0.188147 11.1668 0.0978357 10.9776 0.0471889 10.7766C-0.00345797 10.5756 -0.0134485 10.3668 0.0177878 10.162C0.0808724 9.74838 0.308053 9.37643 0.649352 9.12795C0.990651 8.87947 1.41811 8.7748 1.8377 8.83699C2.25728 8.89917 2.63462 9.1231 2.88671 9.45953C3.47789 10.2416 3.93993 11.1108 4.25572 12.0351C4.58403 12.994 4.75052 13.9995 4.74856 15.0116C4.74967 16.021 4.58318 17.0239 4.25572 17.9804C3.93993 18.9046 3.47789 19.7739 2.88671 20.5559C2.63462 20.8923 2.25728 21.1163 1.8377 21.1784C1.41811 21.2406 0.990652 21.136 0.649352 20.8875C0.308053 20.639 0.0808724 20.267 0.0177879 19.8535C-0.0452967 19.4399 0.0608823 19.0185 0.312967 18.6821C0.70359 18.1697 1.00983 17.5998 1.22043 16.9933C1.44434 16.3557 1.56062 15.6863 1.56463 15.0116C1.56732 14.3407 1.45899 13.674 1.24389 13.0375C1.02758 12.4242 0.713315 11.8489 0.312967 11.3333V11.3333ZM5.78901 8.39539C7.0342 10.3834 7.68999 12.6752 7.68216 15.0116C7.69282 17.3437 7.04256 19.6325 5.80466 21.62C5.69422 21.7962 5.62007 21.9922 5.58645 22.1966C5.55282 22.401 5.56038 22.61 5.60869 22.8116C5.657 23.0132 5.74511 23.2034 5.86799 23.3714C5.99088 23.5394 6.14613 23.6819 6.32488 23.7907C6.50364 23.8996 6.70239 23.9727 6.9098 24.0058C7.11721 24.039 7.32921 24.0315 7.5337 23.9839C7.73819 23.9363 7.93116 23.8494 8.1016 23.7283C8.27203 23.6072 8.4166 23.4541 8.52703 23.2779C10.0782 20.793 10.8912 17.9291 10.8739 15.0116C10.8923 12.0914 10.0792 9.22479 8.52703 6.73749C8.4166 6.56129 8.27203 6.40825 8.1016 6.28712C7.93116 6.16599 7.73819 6.07914 7.5337 6.03153C7.32921 5.98391 7.11721 5.97646 6.9098 6.0096C6.70239 6.04275 6.50364 6.11583 6.32488 6.22469C6.14613 6.33355 5.99088 6.47605 5.86799 6.64405C5.74511 6.81206 5.657 7.00227 5.60869 7.20384C5.56038 7.40541 5.55282 7.61438 5.58645 7.81882C5.62007 8.02327 5.69422 8.21919 5.80466 8.39539H5.78901ZM11.6171 5.42659C13.3456 8.3446 14.2555 11.6634 14.2534 15.0424C14.2545 18.4189 13.3446 21.7349 11.6171 24.6505C11.5108 24.8293 11.4412 25.0269 11.4123 25.2321C11.3835 25.4374 11.3959 25.6462 11.449 25.8467C11.502 26.0472 11.5946 26.2354 11.7214 26.4006C11.8482 26.5659 12.0068 26.7048 12.1882 26.8097C12.3695 26.9145 12.57 26.983 12.7782 27.0115C12.9864 27.0399 13.1982 27.0276 13.4016 26.9754C13.605 26.9231 13.796 26.8318 13.9636 26.7068C14.1313 26.5818 14.2723 26.4255 14.3786 26.2467C16.3982 22.8517 17.4597 18.9858 17.453 15.0501C17.4663 11.1 16.4075 7.21823 14.3864 3.80724C14.1686 3.44526 13.8137 3.1834 13.4 3.07928C12.9863 2.97516 12.5476 3.0373 12.1803 3.25204C11.8131 3.46678 11.5475 3.81652 11.4418 4.22433C11.3362 4.63214 11.3992 5.0646 11.6171 5.42659V5.42659ZM17.4217 2.41923C19.645 6.26472 20.81 10.6163 20.8012 15.0424C20.809 19.466 19.6441 23.8148 17.4217 27.6579C17.319 27.8376 17.2532 28.0356 17.228 28.2404C17.2029 28.4452 17.2189 28.6529 17.2752 28.8516C17.3315 29.0503 17.427 29.2361 17.5561 29.3984C17.6853 29.5608 17.8456 29.6965 18.028 29.7977C18.2103 29.899 18.4111 29.9639 18.6189 29.9886C18.8267 30.0134 19.0374 29.9976 19.239 29.9421C19.4406 29.8866 19.6291 29.7925 19.7938 29.6652C19.9585 29.5379 20.0961 29.3799 20.1988 29.2001C22.6955 24.8794 24.0059 19.9917 24.0008 15.0193C24.0124 10.0339 22.7017 5.13205 20.1988 0.799889C19.9914 0.436879 19.6461 0.169979 19.239 0.0579043C18.8319 -0.0541703 18.3962 -0.00223905 18.028 0.202274C17.6597 0.406787 17.3889 0.747128 17.2752 1.14843C17.1615 1.54973 17.2142 1.97911 17.4217 2.34212" fill="white"/>
</svg>
