<svg width="19" height="22" viewBox="0 0 19 22" fill="none" xmlns="http://www.w3.org/2000/svg">
<path d="M3.51852 11C3.51852 11.4674 3.12481 11.8462 2.63889 11.8462H0.87963C0.393712 11.8462 0 11.4674 0 11C0 10.5326 0.393712 10.1538 0.87963 10.1538H2.63889C3.12486 10.1538 3.51852 10.5326 3.51852 11ZM3.51852 5.58462C3.51852 5.11719 3.12481 4.73846 2.63889 4.73846H0.87963C0.393712 4.73846 0 5.11719 0 5.58462C0 6.05204 0.393712 6.43077 0.87963 6.43077H2.63889C3.12486 6.43077 3.51852 6.05204 3.51852 5.58462ZM3.51852 16.4154C3.51852 15.9479 3.12481 15.5693 2.63889 15.5693H0.87963C0.393712 15.5693 0 15.9479 0 16.4154C0 16.8829 0.393712 17.2616 0.87963 17.2616H2.63889C3.12486 17.2616 3.51852 16.8828 3.51852 16.4154ZM19 2.70769V19.2923C19 20.7877 17.7397 22 16.1853 22H3.87047C2.31601 22 1.05566 20.7877 1.05566 19.2923V17.9385H2.63899C3.51195 17.9385 4.22233 17.2551 4.22233 16.4154C4.22233 15.5757 3.51195 14.8922 2.63899 14.8922H1.05556V12.523H2.63889C3.51184 12.523 4.22222 11.8396 4.22222 10.9999C4.22222 10.1602 3.51184 9.47682 2.63889 9.47682H1.05556V7.10759H2.63889C3.51184 7.10759 4.22222 6.42425 4.22222 5.58452C4.22222 4.74478 3.51184 4.06144 2.63889 4.06144H1.05556V2.70769C1.05556 1.21239 2.31591 0 3.87037 0H16.1852C17.7396 0 19 1.21234 19 2.70769ZM7.84138 8.02627C7.84138 9.46811 9.05667 10.6371 10.5556 10.6371C12.0545 10.6371 13.2697 9.46811 13.2697 8.02627C13.2697 6.58442 12.0545 5.41534 10.5556 5.41534C9.05672 5.41538 7.84138 6.58442 7.84138 8.02627ZM14.7778 14.4086C14.7778 12.8067 13.4274 11.5076 11.762 11.5076H9.34943C7.68377 11.5076 6.33333 12.8067 6.33333 14.4086V15.5692H14.7778V14.4086Z" fill="#363853" fill-opacity="0.5"/>
</svg>
