<svg width="20" height="20" viewBox="0 0 20 20" fill="none" xmlns="http://www.w3.org/2000/svg">
<g clip-path="url(#clip0)">
<path d="M14.2857 3.57227H2.14286C0.959388 3.57227 0 4.53165 0 5.71512V17.858C0 19.0414 0.959388 20.0008 2.14286 20.0008H14.2857C15.4692 20.0008 16.4285 19.0414 16.4285 17.858V5.71512C16.4285 4.53165 15.4692 3.57227 14.2857 3.57227ZM15 17.858C15 18.2525 14.6802 18.5723 14.2857 18.5723H2.14286C1.74835 18.5723 1.42856 18.2525 1.42856 17.858V5.71512C1.42856 5.32062 1.74835 5.00082 2.14286 5.00082H14.2857C14.6802 5.00082 15 5.32062 15 5.71512V17.858Z" fill="#936EE3"/>
<path d="M17.8571 0H5.00003C3.81656 0 2.85718 0.959388 2.85718 2.14286C2.85718 2.53736 3.17697 2.85715 3.57148 2.85715C3.96598 2.85715 4.28573 2.53736 4.28573 2.14286C4.28573 1.74835 4.60553 1.42856 5.00003 1.42856H17.8571C18.2516 1.42856 18.5714 1.74835 18.5714 2.14286V15C18.5714 15.3945 18.2516 15.7143 17.8571 15.7143C17.4626 15.7143 17.1428 16.0341 17.1428 16.4286C17.1428 16.8231 17.4626 17.1429 17.8571 17.1429C19.0406 17.1429 20 16.1835 20 15V2.14286C20 0.959388 19.0406 0 17.8571 0Z" fill="#936EE3"/>
</g>
<defs>
<clipPath id="clip0">
<rect width="20" height="20" fill="white"/>
</clipPath>
</defs>
</svg>
