<svg width="20" height="20" viewBox="0 0 20 20" fill="none" xmlns="http://www.w3.org/2000/svg">
<path d="M18.5154 0H7.46012C6.67221 0 6.03125 0.641 6.03125 1.42887V4.78252C6.33495 4.78252 12.2952 4.78252 12.5331 4.78252C14.0403 4.78252 15.2664 6.00865 15.2664 7.51578C15.2664 7.79791 15.2664 13.8415 15.2664 13.9131H18.5154C19.3033 13.9131 19.9443 13.2721 19.9443 12.4842V1.42887C19.9443 0.641 19.3033 0 18.5154 0Z" fill="white"/>
<path d="M12.535 6.08691H1.47969C0.691825 6.08691 0.0507812 6.72791 0.0507812 7.51583V18.5711C0.0508247 19.359 0.691781 20 1.47969 20H12.535C13.3229 20 13.9639 19.359 13.9639 18.5712V7.51583C13.964 6.72791 13.3229 6.08691 12.535 6.08691Z" fill="white"/>
</svg>
