<svg width="20" height="20" viewBox="0 0 20 20" fill="none" xmlns="http://www.w3.org/2000/svg">
<path d="M18.8281 11.1719C18.4321 11.1719 15.1362 11.1719 15.3125 11.1719C14.0199 11.1719 12.9688 12.223 12.9688 13.5156C12.9688 14.8082 14.0198 15.8594 15.3125 15.8594C15.7085 15.8594 19.0044 15.8594 18.8281 15.8594C19.4741 15.8594 20 15.3336 20 14.6875C20 14.5573 20 12.217 20 12.3438C20 11.6977 19.4742 11.1719 18.8281 11.1719ZM15.3125 14.1016C14.9889 14.1016 14.7266 13.8392 14.7266 13.5156C14.7266 13.1921 14.9888 12.9297 15.3125 12.9297C15.6361 12.9297 15.8984 13.192 15.8984 13.5156C15.8984 13.8392 15.6361 14.1016 15.3125 14.1016Z" fill="white"/>
<path d="M8.82812 5.85938C10.4434 5.85938 11.7578 4.54508 11.7578 2.92969C11.7578 1.31441 10.4435 0 8.82812 0C7.21285 0 5.89844 1.3143 5.89844 2.92969C5.89844 4.54496 7.21273 5.85938 8.82812 5.85938ZM8.82812 2.34375C9.15168 2.34375 9.41406 2.60602 9.41406 2.92969C9.41406 3.25324 9.15172 3.51562 8.82812 3.51562C8.50457 3.51562 8.24219 3.25328 8.24219 2.92969C8.24219 2.60613 8.50445 2.34375 8.82812 2.34375Z" fill="white"/>
<path d="M17.0722 5.27105C17.0722 4.94879 16.8109 4.6875 16.4886 4.6875H12.5202C12.3149 5.11625 12.0411 5.51781 11.6914 5.85938H17.0722C17.0722 5.74137 17.0722 5.15305 17.0722 5.27105Z" fill="white"/>
<path d="M11.7969 13.5156C11.7969 11.5771 13.3738 10 15.3125 10C15.4705 10 18.4068 10 18.2422 10V7.61721C18.2422 7.28904 17.9844 7.03127 17.6562 7.03127C17.4569 7.03127 0.865508 7.03127 0.585937 7.03127C0.385508 7.03127 0.191055 6.99146 0 6.92334V18.2422C0 19.2148 0.785117 20 1.75781 20H17.6562C17.9843 20 18.2422 19.7422 18.2422 19.4141V17.0313C18.0842 17.0313 15.1478 17.0313 15.3125 17.0313C13.3739 17.0313 11.7969 15.4543 11.7969 13.5156Z" fill="white"/>
<path d="M0.585938 4.6875C0.257773 4.6875 0 4.94527 0 5.27344C0 5.60152 0.257773 5.85938 0.585938 5.85938H5.96676C5.61711 5.51781 5.3432 5.11625 5.13801 4.6875H0.585938Z" fill="white"/>
</svg>
