<svg width="22" height="22" viewBox="0 0 22 22" fill="none" xmlns="http://www.w3.org/2000/svg">
<g clip-path="url(#clip0_12144_89556)">
<path d="M15.582 12.8334C15.582 13.0765 15.4855 13.3096 15.3135 13.4815C15.1416 13.6534 14.9085 13.75 14.6654 13.75H7.33203C7.08892 13.75 6.85576 13.6534 6.68385 13.4815C6.51194 13.3096 6.41536 13.0765 6.41536 12.8334C6.41536 12.5902 6.51194 12.3571 6.68385 12.1852C6.85576 12.0133 7.08892 11.9167 7.33203 11.9167H14.6654C14.9085 11.9167 15.1416 12.0133 15.3135 12.1852C15.4855 12.3571 15.582 12.5902 15.582 12.8334ZM11.9154 15.5834H7.33203C7.08892 15.5834 6.85576 15.6799 6.68385 15.8518C6.51194 16.0237 6.41536 16.2569 6.41536 16.5C6.41536 16.7431 6.51194 16.9763 6.68385 17.1482C6.85576 17.3201 7.08892 17.4167 7.33203 17.4167H11.9154C12.1585 17.4167 12.3916 17.3201 12.5635 17.1482C12.7355 16.9763 12.832 16.7431 12.832 16.5C12.832 16.2569 12.7355 16.0237 12.5635 15.8518C12.3916 15.6799 12.1585 15.5834 11.9154 15.5834ZM20.1654 9.61127V17.4167C20.1639 18.6318 19.6806 19.7968 18.8213 20.656C17.9621 21.5152 16.7972 21.9986 15.582 22H6.41536C5.20024 21.9986 4.03529 21.5152 3.17607 20.656C2.31684 19.7968 1.83349 18.6318 1.83203 17.4167V4.58335C1.83349 3.36823 2.31684 2.20328 3.17607 1.34406C4.03529 0.48483 5.20024 0.00147666 6.41536 2.11279e-05H10.5541C11.3971 -0.00214855 12.2321 0.16281 13.011 0.485359C13.7898 0.807907 14.497 1.28165 15.0916 1.87919L18.2853 5.07469C18.8832 5.66891 19.3572 6.37586 19.6799 7.15458C20.0026 7.9333 20.1676 8.76832 20.1654 9.61127ZM13.7954 3.17535C13.507 2.89592 13.1831 2.65553 12.832 2.46035V6.41669C12.832 6.6598 12.9286 6.89296 13.1005 7.06487C13.2724 7.23678 13.5056 7.33335 13.7487 7.33335H17.705C17.5097 6.98244 17.269 6.65882 16.9891 6.37085L13.7954 3.17535ZM18.332 9.61127C18.332 9.46002 18.3027 9.31519 18.2889 9.16669H13.7487C13.0194 9.16669 12.3199 8.87696 11.8042 8.36123C11.2884 7.84551 10.9987 7.14603 10.9987 6.41669V1.87644C10.8502 1.86269 10.7044 1.83335 10.5541 1.83335H6.41536C5.68602 1.83335 4.98655 2.12309 4.47082 2.63881C3.9551 3.15454 3.66536 3.85401 3.66536 4.58335V17.4167C3.66536 18.146 3.9551 18.8455 4.47082 19.3612C4.98655 19.877 5.68602 20.1667 6.41536 20.1667H15.582C16.3114 20.1667 17.0109 19.877 17.5266 19.3612C18.0423 18.8455 18.332 18.146 18.332 17.4167V9.61127Z" fill="#936EE3"/>
</g>
<defs>
<clipPath id="clip0_12144_89556">
<rect width="22" height="22" fill="white"/>
</clipPath>
</defs>
</svg>
