<svg width="51" height="40" viewBox="0 0 51 40" fill="none" xmlns="http://www.w3.org/2000/svg">
<path fill-rule="evenodd" clip-rule="evenodd" d="M23.0933 2.22165C22.2063 5.02336 22.2988 8.05055 23.3552 10.7909C24.521 13.7169 26.7393 16.0818 29.5591 17.4047C30.0425 17.6401 30.5662 18.3568 30.254 18.9813C30.0856 19.2489 29.8266 19.4445 29.5261 19.5312C29.2255 19.618 28.9041 19.5899 28.6225 19.4523C25.2963 17.8768 22.6854 15.0726 21.3208 11.6099C20.1627 8.61768 19.9826 5.326 20.8071 2.22165H14.9759C11.6624 2.22165 8.05689 4.48426 5.91171 6.90043C3.52006 9.54143 2.20278 13.0062 2.22562 16.5959V37.7067H9.87979V26.7315C9.84648 25.7828 10.096 24.8459 10.5956 24.0439C11.0953 23.2418 11.8217 22.612 12.6796 22.237C13.2694 21.9825 13.9022 21.8469 14.5428 21.8377C15.186 21.8336 15.8234 21.9625 16.4161 22.2165C17.2571 22.6074 17.9622 23.2479 18.4385 24.0537C18.9149 24.8596 19.1402 25.7931 19.0849 26.7315V37.7476H26.7693V27.182C26.7386 26.2126 26.9873 25.2553 27.4847 24.4277C27.9821 23.6 28.7066 22.9383 29.5692 22.5237C30.1668 22.247 30.8159 22.1039 31.4726 22.1039C32.1358 22.1038 32.7915 22.2469 33.3962 22.5237C34.2624 22.9845 34.9779 23.6916 35.4554 24.5588C35.9329 25.426 36.1518 26.4157 36.0853 27.4072V28.8713C36.9272 29.0732 37.7885 29.1797 38.6535 29.1886C40.607 29.1832 42.5392 28.7757 44.3337 27.9908C46.1042 27.2407 47.7024 26.1251 49.0269 24.7146C49.2504 24.5023 49.5424 24.3799 49.8483 24.3705C50.1541 24.3611 50.4528 24.4652 50.6886 24.6634C50.8522 24.9007 50.9331 25.1867 50.9185 25.4761C50.9039 25.7654 50.7946 26.0415 50.6081 26.2606C49.0734 27.8859 47.2254 29.172 45.1796 30.0384L44.3236 30.3865V39.14C44.3236 39.3545 44.2398 39.5602 44.0905 39.7119C43.9413 39.8636 43.739 39.9488 43.528 39.9488H34.6854C34.4752 39.9462 34.2743 39.8601 34.1257 39.709C33.977 39.5579 33.8923 39.3537 33.8897 39.14V32.1577C34.5755 32.4945 35.3239 32.6795 36.0853 32.7003V37.7169H42.128V31.011C40.9925 31.2572 39.8346 31.3807 38.6736 31.3796C36.6383 31.3256 34.6318 30.8774 32.7617 30.0589C31.4287 29.5027 30.1618 28.7952 28.985 27.9498V39.2117C28.9864 39.3174 28.967 39.4223 28.9281 39.5204C28.8893 39.6185 28.8316 39.7077 28.7585 39.783C28.6854 39.8582 28.5984 39.918 28.5024 39.9587C28.4065 39.9995 28.3035 40.0205 28.1995 40.0205H17.685C17.474 40.0205 17.2717 39.9353 17.1224 39.7836C16.9732 39.6319 16.8894 39.4262 16.8894 39.2117V26.7315C16.9355 26.2299 16.8312 25.7258 16.5904 25.2854C16.3495 24.8451 15.9833 24.4891 15.5399 24.2641C15.221 24.1282 14.8785 24.0586 14.5327 24.0594C14.1872 24.0707 13.8464 24.1435 13.5256 24.2744C13.075 24.4907 12.6988 24.8397 12.4456 25.2759C12.1924 25.7122 12.0739 26.2157 12.1055 26.7213V39.1298C12.1029 39.3425 12.0179 39.5456 11.869 39.6951C11.7201 39.8445 11.5192 39.9284 11.3099 39.9283H0.785426C0.580593 39.923 0.385919 39.8365 0.242927 39.6873C0.0999342 39.5381 0.0199407 39.3381 0.0200081 39.1298V16.6061C-0.0113383 12.4618 1.50378 8.45948 4.26002 5.40568C6.83827 2.52879 11.0279 0 14.9557 0H29.2267C33.1646 0 37.0723 2.34451 39.7009 5.20092C42.5319 8.15208 44.1553 12.0857 44.243 16.2068V26.2606C43.5683 26.6813 42.8299 26.9857 42.0575 27.1615V16.2068C41.9692 12.6526 40.5584 9.26475 38.1096 6.72639C35.8939 4.33069 32.5503 2.22165 29.2267 2.22165H23.0933ZM33.9099 28.1341V27.3663C33.9708 26.8001 33.8692 26.228 33.6172 25.7193C33.3652 25.2106 32.9736 24.787 32.4898 24.4996C32.1772 24.3431 31.8308 24.2692 31.4827 24.2846C31.0607 24.2864 30.6461 24.3973 30.2779 24.6068C29.9096 24.8164 29.5999 25.1177 29.3778 25.4825C30.6432 26.5213 32.0513 27.3663 33.5574 27.9908L33.8897 28.1341H33.9099ZM34.5343 10.8011C34.8698 10.7991 35.1983 10.8985 35.4781 11.0867C35.7579 11.2749 35.9763 11.5435 36.1056 11.8582C36.2349 12.1729 36.2693 12.5195 36.2043 12.8541C36.1393 13.1887 35.978 13.4961 35.7407 13.7373C35.5035 13.9785 35.2011 14.1425 34.872 14.2085C34.5428 14.2746 34.2018 14.2396 33.8922 14.1082C33.5826 13.9767 33.3185 13.7547 33.1333 13.4703C32.9482 13.1859 32.8504 12.8519 32.8524 12.5109C32.855 12.0583 33.0331 11.6249 33.3479 11.3049C33.6628 10.9848 34.089 10.8038 34.5343 10.8011ZM35.0076 11.3233C35.1575 11.3233 35.3039 11.3686 35.4283 11.4534C35.5527 11.5383 35.6495 11.6588 35.7064 11.7997C35.7633 11.9406 35.7776 12.0955 35.7477 12.2447C35.7177 12.3939 35.6447 12.5307 35.5381 12.6377C35.4314 12.7447 35.2959 12.817 35.1487 12.8454C35.0016 12.8739 34.8494 12.8572 34.7115 12.7975C34.5737 12.7379 34.4564 12.6378 34.3747 12.5102C34.2929 12.3826 34.2503 12.2332 34.2523 12.0809C34.2523 11.9805 34.2719 11.8812 34.31 11.7886C34.3481 11.696 34.4039 11.612 34.4741 11.5415C34.5444 11.471 34.6278 11.4154 34.7193 11.378C34.8109 11.3405 34.9089 11.3219 35.0076 11.3233Z" fill="#743C8C"/>
</svg>
