<svg width="40" height="40" viewBox="0 0 40 40" fill="none" xmlns="http://www.w3.org/2000/svg">
<g clip-path="url(#clip0_12144:93940)">
<path d="M11.6667 10.0013H38.3333C38.7754 10.0013 39.1993 9.8257 39.5118 9.51314C39.8244 9.20058 40 8.77666 40 8.33463C40 7.89261 39.8244 7.46868 39.5118 7.15612C39.1993 6.84356 38.7754 6.66797 38.3333 6.66797H11.6667C11.2246 6.66797 10.8007 6.84356 10.4882 7.15612C10.1756 7.46868 10 7.89261 10 8.33463C10 8.77666 10.1756 9.20058 10.4882 9.51314C10.8007 9.8257 11.2246 10.0013 11.6667 10.0013Z" fill="#936EE3"/>
<path d="M38.3333 18.332H11.6667C11.2246 18.332 10.8007 18.5076 10.4882 18.8202C10.1756 19.1328 10 19.5567 10 19.9987C10 20.4407 10.1756 20.8647 10.4882 21.1772C10.8007 21.4898 11.2246 21.6654 11.6667 21.6654H38.3333C38.7754 21.6654 39.1993 21.4898 39.5118 21.1772C39.8244 20.8647 40 20.4407 40 19.9987C40 19.5567 39.8244 19.1328 39.5118 18.8202C39.1993 18.5076 38.7754 18.332 38.3333 18.332Z" fill="#936EE3"/>
<path d="M38.3333 30H11.6667C11.2246 30 10.8007 30.1756 10.4882 30.4882C10.1756 30.8007 10 31.2246 10 31.6667C10 32.1087 10.1756 32.5326 10.4882 32.8452C10.8007 33.1578 11.2246 33.3334 11.6667 33.3334H38.3333C38.7754 33.3334 39.1993 33.1578 39.5118 32.8452C39.8244 32.5326 40 32.1087 40 31.6667C40 31.2246 39.8244 30.8007 39.5118 30.4882C39.1993 30.1756 38.7754 30 38.3333 30Z" fill="#936EE3"/>
<path d="M3.33333 11.6667C5.17428 11.6667 6.66667 10.1743 6.66667 8.33333C6.66667 6.49238 5.17428 5 3.33333 5C1.49238 5 0 6.49238 0 8.33333C0 10.1743 1.49238 11.6667 3.33333 11.6667Z" fill="#936EE3"/>
<path d="M3.33333 23.3346C5.17428 23.3346 6.66667 21.8422 6.66667 20.0013C6.66667 18.1603 5.17428 16.668 3.33333 16.668C1.49238 16.668 0 18.1603 0 20.0013C0 21.8422 1.49238 23.3346 3.33333 23.3346Z" fill="#936EE3"/>
<path d="M3.33333 34.9987C5.17428 34.9987 6.66667 33.5063 6.66667 31.6654C6.66667 29.8244 5.17428 28.332 3.33333 28.332C1.49238 28.332 0 29.8244 0 31.6654C0 33.5063 1.49238 34.9987 3.33333 34.9987Z" fill="#936EE3"/>
</g>
<defs>
<clipPath id="clip0_12144:93940">
<rect width="40" height="40" fill="white"/>
</clipPath>
</defs>
</svg>
