<svg width="24" height="24" viewBox="0 0 24 24" fill="none" xmlns="http://www.w3.org/2000/svg">
<path d="M12 24C18.6274 24 24 18.6274 24 12C24 5.37258 18.6274 0 12 0C5.37258 0 0 5.37258 0 12C0 18.6274 5.37258 24 12 24Z" fill="#1977F3"/>
<path d="M16.6711 15.4695L17.2027 12H13.8749V9.74881C13.8749 8.80042 14.3389 7.87397 15.8307 7.87397H17.3444V4.9208C17.3444 4.9208 15.9708 4.68623 14.6579 4.68623C11.9173 4.68623 10.1252 6.34676 10.1252 9.35562V12H7.0775V15.4695H10.1252V23.8548C10.7361 23.951 11.3621 24 12 24C12.6379 24 13.264 23.9494 13.8749 23.8548V15.4695H16.6711Z" fill="white"/>
</svg>
