<svg width="44" height="45" viewBox="0 0 44 45" fill="none" xmlns="http://www.w3.org/2000/svg">
<path d="M2.26442 12.968V8.062C2.25416 7.41503 2.37402 6.7726 2.61688 6.17286C2.85975 5.57312 3.22066 5.02831 3.6782 4.57077C4.13573 4.11324 4.68054 3.75233 5.28028 3.50946C5.88002 3.2666 6.52246 3.14674 7.16942 3.157H12.0744C12.3746 3.157 12.6626 3.03774 12.8749 2.82545C13.0872 2.61315 13.2064 2.32523 13.2064 2.025C13.2064 1.72478 13.0872 1.43685 12.8749 1.22456C12.6626 1.01226 12.3746 0.893001 12.0744 0.893001H7.16942C6.22511 0.882691 5.28825 1.06108 4.41381 1.41771C3.53937 1.77433 2.74497 2.30201 2.0772 2.96978C1.40943 3.63754 0.881755 4.43195 0.52513 5.30639C0.168504 6.18083 -0.00988689 7.11769 0.000422655 8.062V12.967C0.000422655 13.2672 0.119687 13.5552 0.331978 13.7674C0.544269 13.9797 0.832197 14.099 1.13242 14.099C1.43265 14.099 1.72058 13.9797 1.93287 13.7674C2.14516 13.5552 2.26442 13.2672 2.26442 12.967V12.968Z" fill="white"/>
<path d="M41.7356 12.968V8.063C41.7458 7.41603 41.626 6.7736 41.3831 6.17386C41.1403 5.57412 40.7793 5.0293 40.3218 4.57177C39.8643 4.11424 39.3195 3.75332 38.7197 3.51046C38.12 3.26759 37.4775 3.14773 36.8306 3.158L31.9256 3.158C31.6254 3.158 31.3374 3.03873 31.1251 2.82644C30.9128 2.61415 30.7936 2.32622 30.7936 2.026C30.7936 1.72577 30.9128 1.43784 31.1251 1.22555C31.3374 1.01326 31.6254 0.893998 31.9256 0.893998L36.8306 0.893998C37.7749 0.883689 38.7117 1.06208 39.5862 1.4187C40.4606 1.77533 41.255 2.30301 41.9228 2.97077C42.5906 3.63854 43.1182 4.43295 43.4749 5.30739C43.8315 6.18183 44.0099 7.11869 43.9996 8.063V12.968C43.9996 13.2682 43.8803 13.5562 43.668 13.7684C43.4557 13.9807 43.1678 14.1 42.8676 14.1C42.5674 14.1 42.2794 13.9807 42.0671 13.7684C41.8548 13.5562 41.7356 13.2682 41.7356 12.968Z" fill="white"/>
<path d="M2.26442 32.818V37.723C2.25416 38.37 2.37402 39.0124 2.61688 39.6121C2.85975 40.2119 3.22066 40.7567 3.6782 41.2142C4.13573 41.6718 4.68054 42.0327 5.28028 42.2755C5.88002 42.5184 6.52246 42.6383 7.16942 42.628H12.0744C12.3746 42.628 12.6626 42.7473 12.8749 42.9596C13.0872 43.1719 13.2064 43.4598 13.2064 43.76C13.2064 44.0602 13.0872 44.3482 12.8749 44.5604C12.6626 44.7727 12.3746 44.892 12.0744 44.892H7.16942C6.22511 44.9023 5.28825 44.7239 4.41381 44.3673C3.53937 44.0107 2.74497 43.483 2.0772 42.8152C1.40943 42.1475 0.881755 41.3531 0.52513 40.4786C0.168504 39.6042 -0.00988689 38.6673 0.000422655 37.723V32.818C0.000422655 32.5178 0.119687 32.2299 0.331978 32.0176C0.544269 31.8053 0.832197 31.686 1.13242 31.686C1.43265 31.686 1.72058 31.8053 1.93287 32.0176C2.14516 32.2299 2.26442 32.5178 2.26442 32.818Z" fill="white"/>
<path d="M41.7356 32.818V37.724C41.7458 38.371 41.626 39.0134 41.3831 39.6131C41.1403 40.2129 40.7793 40.7577 40.3218 41.2152C39.8643 41.6728 39.3195 42.0337 38.7197 42.2765C38.12 42.5194 37.4775 42.6393 36.8306 42.629H31.9256C31.6254 42.629 31.3374 42.7483 31.1251 42.9606C30.9128 43.1728 30.7936 43.4608 30.7936 43.761C30.7936 44.0612 30.9128 44.3492 31.1251 44.5614C31.3374 44.7737 31.6254 44.893 31.9256 44.893H36.8306C37.7749 44.9033 38.7117 44.7249 39.5862 44.3683C40.4606 44.0117 41.255 43.484 41.9228 42.8162C42.5906 42.1485 43.1182 41.3541 43.4749 40.4796C43.8315 39.6052 44.0099 38.6683 43.9996 37.724V32.819C43.9996 32.5188 43.8803 32.2308 43.668 32.0186C43.4557 31.8063 43.1678 31.687 42.8676 31.687C42.5674 31.687 42.2794 31.8063 42.0671 32.0186C41.8548 32.2308 41.7356 32.5188 41.7356 32.819V32.818Z" fill="white"/>
<path d="M11.9655 17.509V20.655C11.9566 20.9564 12.0672 21.2491 12.2733 21.4692C12.4794 21.6894 12.7641 21.819 13.0655 21.83C13.3668 21.819 13.6516 21.6894 13.8577 21.4692C14.0637 21.2491 14.1744 20.9564 14.1655 20.655V17.509C14.1755 17.2069 14.0653 16.9132 13.8591 16.6922C13.6529 16.4712 13.3675 16.341 13.0655 16.33C12.7634 16.341 12.478 16.4712 12.2718 16.6922C12.0656 16.9132 11.9555 17.2069 11.9655 17.509Z" fill="white"/>
<path d="M30.1041 17.509V20.655C30.0952 20.9564 30.2059 21.2491 30.412 21.4692C30.618 21.6894 30.9028 21.819 31.2041 21.83C31.5055 21.819 31.7902 21.6894 31.9963 21.4692C32.2024 21.2491 32.3131 20.9564 32.3041 20.655V17.509C32.3141 17.2069 32.204 16.9132 31.9978 16.6922C31.7916 16.4712 31.5062 16.341 31.2041 16.33C30.9021 16.341 30.6167 16.4712 30.4105 16.6922C30.2043 16.9132 30.0941 17.2069 30.1041 17.509Z" fill="white"/>
<path d="M14.2586 33.388C16.3449 35.3675 19.1241 36.45 21.9996 36.403C24.8751 36.45 27.6544 35.3675 29.7406 33.388C29.8567 33.2855 29.9509 33.1607 30.0179 33.0211C30.0849 32.8815 30.1233 32.7299 30.1307 32.5752C30.1381 32.4206 30.1145 32.266 30.0612 32.1206C30.0079 31.9753 29.926 31.842 29.8204 31.7288C29.7147 31.6156 29.5874 31.5248 29.4461 31.4616C29.3047 31.3984 29.1522 31.3641 28.9973 31.3609C28.8425 31.3576 28.6887 31.3854 28.5448 31.4427C28.4009 31.4999 28.2699 31.5853 28.1596 31.694C26.5022 33.2732 24.2875 34.1331 21.9986 34.086C19.7098 34.1331 17.4951 33.2732 15.8376 31.694C15.7273 31.5853 15.5964 31.4999 15.4525 31.4427C15.3086 31.3854 15.1547 31.3576 14.9999 31.3609C14.8451 31.3641 14.6925 31.3984 14.5512 31.4616C14.4098 31.5248 14.2826 31.6156 14.1769 31.7288C14.0713 31.842 13.9894 31.9753 13.9361 32.1206C13.8828 32.266 13.8591 32.4206 13.8666 32.5752C13.874 32.7299 13.9123 32.8815 13.9793 33.0211C14.0463 33.1607 14.1406 33.2855 14.2566 33.388H14.2586Z" fill="white"/>
<path d="M22.001 17.487V25.597C22.0166 25.7022 22.0073 25.8097 21.9738 25.9107C21.9403 26.0117 21.8836 26.1034 21.8082 26.1785C21.7329 26.2536 21.6409 26.31 21.5398 26.343C21.4387 26.3761 21.3312 26.385 21.226 26.369H20.457C20.1556 26.3779 19.8696 26.5038 19.6595 26.7201C19.4495 26.9364 19.332 27.226 19.332 27.5275C19.332 27.829 19.4495 28.1186 19.6595 28.3349C19.8696 28.5512 20.1556 28.6771 20.457 28.686H21.226C21.636 28.7019 22.0449 28.6328 22.427 28.4832C22.8092 28.3337 23.1563 28.1067 23.4466 27.8167C23.7369 27.5267 23.9641 27.1798 24.1141 26.7979C24.264 26.4159 24.3335 26.0071 24.318 25.597V17.487C24.3091 17.1856 24.1832 16.8996 23.9669 16.6896C23.7506 16.4795 23.461 16.362 23.1595 16.362C22.858 16.362 22.5684 16.4795 22.3521 16.6896C22.1358 16.8996 22.0098 17.1856 22.001 17.487Z" fill="white"/>
</svg>
