<svg width="143" height="143" viewBox="0 0 143 143" fill="none" xmlns="http://www.w3.org/2000/svg">
<path d="M1.50507 44.8806C3.88781 21.8969 21.913 3.98791 44.8948 1.58372C53.7036 0.663162 62.9933 0 71.5 0C80.0085 0 89.2963 0.661375 98.1034 1.58372C121.087 3.98791 139.112 21.8951 141.495 44.8806C142.376 53.3676 143 62.3337 143 70.6867C143 79.3328 142.331 88.7851 141.402 97.7423C139.001 120.905 120.914 139.051 97.7512 141.454C89.0479 142.355 79.8941 143 71.5 143C63.1059 143 53.9521 142.357 45.2488 141.454C22.0863 139.05 3.99864 120.905 1.59802 97.7405C0.668525 88.7851 0 79.3328 0 70.6867C0 62.3337 0.625625 53.3658 1.50507 44.8806Z" fill="white"/>
<path fill-rule="evenodd" clip-rule="evenodd" d="M69.4307 42.305C64.49 44.2521 60.3922 48.6403 60.3922 54.256C60.3922 55.5285 60.6084 56.7827 61.0283 57.9808C63.054 63.7642 69.072 67.0287 74.8389 67.4074C75.7322 67.4662 76.413 68.2546 76.3552 69.1623C76.2973 70.0706 75.522 70.7629 74.6292 70.7041C67.547 70.2388 60.4359 66.1371 57.9674 59.0884C57.423 57.5344 57.1429 55.905 57.1429 54.2549C57.1429 49.3987 59.5028 45.2231 63.0228 42.3039H57.6365C45.3269 42.3039 35.2493 52.5511 35.2493 65.0678V99.6955H47.8472V80.0607C47.8472 77.076 50.1918 74.561 53.1571 74.561C56.1224 74.561 58.4675 77.076 58.4675 80.0607V99.6955H69.2107V80.0607C69.2107 77.0643 71.5749 74.561 74.5403 74.561C77.5051 74.561 79.8698 77.0643 79.8698 80.0607V99.6955H90.3711V89.9469C90.3711 89.037 91.1011 88.2947 91.996 88.2947C92.8909 88.2947 93.6209 89.037 93.6209 89.9469V101.348C93.6209 102.258 92.8909 103 91.996 103H78.2454C77.3505 103 76.6205 102.258 76.6205 101.348V80.0612C76.6205 78.8909 75.712 77.866 74.5408 77.866C73.3696 77.866 72.4611 78.8909 72.4611 80.0612V101.348C72.4611 102.258 71.7311 103 70.8362 103H56.8432C55.9483 103 55.2183 102.258 55.2183 101.348V80.0612C55.2183 78.8998 54.3266 77.866 53.1576 77.866C51.9887 77.866 51.097 78.8998 51.097 80.0612V101.348C51.097 102.258 50.367 103 49.4721 103H33.6249C32.73 103 32 102.258 32 101.348V65.0678C32 50.7273 43.5332 39 57.6365 39H77.3647C91.468 39 103.001 50.7278 103.001 65.0678V72.781C103.001 73.7154 103.428 75.5931 104.498 75.8529C104.555 75.8668 104.613 75.874 104.671 75.874C104.723 75.874 104.775 75.8679 104.825 75.8557C105.895 75.6031 106.331 73.6499 106.331 72.7222V63.8891C106.331 62.9792 107.061 62.2369 107.956 62.2369H114.807C115.689 62.2369 116.411 62.9531 116.432 63.8486C116.598 70.7768 116.56 78.7621 112.405 84.6288C107.76 91.185 100.485 92.9833 94.1855 87.7673C91.4429 85.4965 89.3168 82.3625 87.7164 79.1568C86.2569 78.7593 84.827 78.2014 83.433 77.4691C82.638 77.0516 82.3241 76.0511 82.7352 75.2433C83.1458 74.435 84.1297 74.1157 84.9242 74.5338C86.2744 75.2428 87.6618 75.758 89.0781 76.0994C89.1584 76.1116 89.2376 76.1305 89.3146 76.1549C91.7885 76.7157 94.3493 76.7523 96.9553 76.3703C97.841 76.2404 98.6676 76.8695 98.7954 77.77C98.9231 78.6705 98.3045 79.5111 97.4189 79.641C95.5297 79.918 93.6575 79.9991 91.8169 79.8597C93.0236 81.8673 94.4901 83.7594 96.2374 85.2062C101.075 89.2119 106.23 87.694 109.767 82.6984C113.082 78.0187 113.313 71.2837 113.217 65.5419H109.581V72.7233C109.581 75.5953 107.905 79.1791 104.67 79.1791C101.442 79.1791 99.7514 75.6647 99.7514 72.7822V65.0689C99.7514 52.5522 89.6738 42.305 77.3642 42.305H69.4307Z" fill="#7F54DF"/>
<path fill-rule="evenodd" clip-rule="evenodd" d="M86.1313 56.8351C86.8185 56.8351 87.3764 57.3775 87.3764 58.0457C87.3764 58.7138 86.8185 59.2568 86.1313 59.2568C85.4435 59.2568 84.8856 58.7144 84.8856 58.0457C84.8856 57.3775 85.4435 56.8351 86.1313 56.8351ZM85.3586 56.0117C86.9006 56.0117 88.1508 57.2277 88.1508 58.7264C88.1508 60.2256 86.9006 61.4416 85.3586 61.4416C83.8166 61.4416 82.5664 60.2256 82.5664 58.7264C82.5664 57.2277 83.8171 56.0117 85.3586 56.0117Z" fill="#7F54DF"/>
</svg>
