<svg width="27" height="20" viewBox="0 0 27 20" fill="none" xmlns="http://www.w3.org/2000/svg">
<path fill-rule="evenodd" clip-rule="evenodd" d="M12.2394 1.11026C11.7689 2.51039 11.818 4.02322 12.3783 5.39268C12.9967 6.85496 14.1734 8.03679 15.6691 8.69788C15.9256 8.81555 16.2034 9.1737 16.0377 9.4858C15.9484 9.6195 15.811 9.71726 15.6516 9.76061C15.4922 9.80397 15.3217 9.78994 15.1723 9.72116C13.408 8.93384 12.023 7.53244 11.2991 5.802C10.6848 4.30663 10.5893 2.66164 11.0267 1.11026H7.93352C6.17591 1.11026 4.26338 2.24098 3.12548 3.44845C1.85684 4.76827 1.15809 6.4998 1.17021 8.29368V18.8437H5.23033V13.3589C5.21266 12.8848 5.34502 12.4166 5.61004 12.0158C5.87507 11.615 6.2604 11.3002 6.71548 11.1128C7.02831 10.9856 7.36398 10.9178 7.7038 10.9133C8.045 10.9112 8.38307 10.9756 8.69746 11.1026C9.14361 11.2979 9.5176 11.618 9.77028 12.0207C10.023 12.4234 10.1425 12.8899 10.1132 13.3589V18.8642H14.1893V13.584C14.173 13.0996 14.3049 12.6212 14.5688 12.2076C14.8326 11.794 15.217 11.4633 15.6745 11.2561C15.9915 11.1178 16.3358 11.0463 16.6842 11.0463C17.0359 11.0462 17.3837 11.1177 17.7045 11.2561C18.164 11.4864 18.5435 11.8398 18.7968 12.2731C19.0501 12.7065 19.1662 13.2011 19.1309 13.6966V14.4282C19.5775 14.5292 20.0344 14.5824 20.4932 14.5869C21.5294 14.5841 22.5544 14.3805 23.5062 13.9882C24.4454 13.6134 25.2931 13.0559 25.9957 12.351C26.1143 12.2449 26.2692 12.1837 26.4314 12.179C26.5937 12.1743 26.7521 12.2263 26.8772 12.3254C26.9639 12.444 27.0069 12.5869 26.9991 12.7315C26.9914 12.8761 26.9334 13.0141 26.8345 13.1236C26.0204 13.9358 25.0402 14.5785 23.955 15.0115L23.5009 15.1855V19.56C23.5009 19.6672 23.4564 19.77 23.3773 19.8458C23.2981 19.9216 23.1908 19.9642 23.0788 19.9642H18.3883C18.2768 19.9629 18.1703 19.9198 18.0914 19.8443C18.0126 19.7688 17.9677 19.6668 17.9663 19.56V16.0706C18.3301 16.239 18.727 16.3314 19.1309 16.3418V18.8488H22.3363V15.4976C21.7339 15.6206 21.1197 15.6823 20.5039 15.6818C19.4242 15.6548 18.3599 15.4308 17.368 15.0217C16.6609 14.7438 15.9888 14.3902 15.3646 13.9678V19.5958C15.3653 19.6486 15.3551 19.7011 15.3344 19.7501C15.3138 19.7991 15.2832 19.8437 15.2445 19.8813C15.2057 19.9189 15.1595 19.9488 15.1086 19.9691C15.0577 19.9895 15.0031 20 14.9479 20H9.37059C9.25866 20 9.15131 19.9574 9.07216 19.8816C8.99302 19.8058 8.94855 19.703 8.94855 19.5958V13.3589C8.97298 13.1082 8.91769 12.8563 8.78993 12.6363C8.66217 12.4162 8.46793 12.2383 8.23269 12.1259C8.06354 12.0579 7.88188 12.0231 7.69846 12.0235C7.5152 12.0292 7.33439 12.0656 7.16423 12.131C6.92524 12.2391 6.72566 12.4135 6.59136 12.6315C6.45705 12.8495 6.39421 13.1012 6.41097 13.3538V19.5549C6.40957 19.6612 6.36448 19.7627 6.28549 19.8374C6.20649 19.9121 6.09995 19.954 5.98893 19.954H0.406265C0.297613 19.9513 0.194349 19.9081 0.118499 19.8335C0.0426494 19.759 0.000217212 19.659 0.000252947 19.5549V8.2988C-0.0163746 6.22771 0.787311 4.22757 2.24935 2.70146C3.61697 1.26375 5.83935 0 7.92283 0H15.4928C17.5817 0 19.6545 1.17166 21.0488 2.59913C22.5505 4.07396 23.4116 6.03975 23.4581 8.09926V13.1236C23.1003 13.3338 22.7086 13.4859 22.2989 13.5738V8.09926C22.252 6.32309 21.5037 4.63001 20.2047 3.36147C19.0294 2.16424 17.2558 1.11026 15.4928 1.11026H12.2394ZM17.977 14.0599V13.6761C18.0093 13.3932 17.9554 13.1073 17.8217 12.8531C17.688 12.5988 17.4803 12.3871 17.2237 12.2435C17.0579 12.1653 16.8742 12.1284 16.6895 12.1361C16.4656 12.137 16.2457 12.1924 16.0504 12.2971C15.8551 12.4018 15.6908 12.5524 15.573 12.7347C16.2442 13.2539 16.9911 13.6762 17.79 13.9882L17.9663 14.0599H17.977ZM18.3082 5.3978C18.4862 5.39679 18.6604 5.44647 18.8088 5.54053C18.9572 5.63459 19.0731 5.76878 19.1417 5.92605C19.2103 6.08332 19.2285 6.25657 19.194 6.42378C19.1596 6.59099 19.074 6.74462 18.9482 6.86514C18.8223 6.98565 18.6619 7.06762 18.4873 7.10063C18.3127 7.13363 18.1318 7.11618 17.9676 7.05048C17.8034 6.98479 17.6633 6.87383 17.5651 6.7317C17.4669 6.58956 17.415 6.42267 17.416 6.25224C17.4174 6.02604 17.5119 5.80949 17.6789 5.64954C17.8459 5.48959 18.072 5.39914 18.3082 5.3978ZM18.5593 5.65874C18.6388 5.65874 18.7164 5.68138 18.7824 5.72378C18.8484 5.76617 18.8998 5.82641 18.9299 5.89682C18.9601 5.96724 18.9677 6.04466 18.9518 6.11923C18.9359 6.1938 18.8972 6.26216 18.8407 6.31562C18.7841 6.36908 18.7122 6.40521 18.6341 6.41944C18.5561 6.43366 18.4753 6.42533 18.4022 6.3955C18.3291 6.36567 18.2669 6.31569 18.2235 6.25191C18.1802 6.18814 18.1576 6.11345 18.1586 6.03735C18.1586 5.9872 18.169 5.93754 18.1892 5.89127C18.2094 5.845 18.239 5.80303 18.2763 5.7678C18.3136 5.73258 18.3578 5.7048 18.4064 5.68607C18.4549 5.66735 18.5069 5.65806 18.5593 5.65874Z" fill="white"/>
</svg>
