<svg width="22" height="22" viewBox="0 0 22 22" fill="none" xmlns="http://www.w3.org/2000/svg">
<path d="M21.1826 0H0.902344C0.427673 0 0.0429688 0.384705 0.0429688 0.859375C0.0429688 3.25253 1.06885 5.53726 2.85759 7.12728L6.62122 10.4725C7.27381 11.0525 7.6481 11.8861 7.6481 12.7594V21.1396C7.6481 21.8244 8.41349 22.235 8.984 21.8545L14.0541 18.4746C14.2932 18.3151 14.4368 18.0469 14.4368 17.7595V12.7594C14.4368 11.8861 14.8111 11.0525 15.4637 10.4725L19.2272 7.12728C21.0159 5.53726 22.0418 3.25253 22.0418 0.859375C22.0418 0.384705 21.6571 0 21.1826 0ZM18.0853 5.84258L14.3219 9.18793C13.3027 10.094 12.7181 11.3956 12.7181 12.7592V17.2996L9.36669 19.5338V12.7594C9.36669 11.3956 8.78208 10.094 7.76291 9.18793L3.99945 5.84274C2.79331 4.77037 2.02339 3.30104 1.81728 1.71858H20.2675C20.0614 3.30104 19.2916 4.77037 18.0853 5.84258Z" fill="#363853"/>
</svg>
