<svg width="24" height="24" viewBox="0 0 24 24" fill="none" xmlns="http://www.w3.org/2000/svg">
<path d="M0 17.0664L0 18.4727H16.9688V19.8789H21.1875V18.4727H24V17.0664H21.1875V15.6602H16.9688V17.0664H0ZM19.7812 17.0664V18.4727H18.375V17.0664H19.7812Z" fill="#363853"/>
<path d="M0 5.76953L0 7.17578L10.4062 7.17578V8.58203L14.625 8.58203V7.17578L24 7.17578V5.76953L14.625 5.76953V4.36328H10.4062V5.76953H0ZM13.2188 5.76953V7.17578H11.8125V5.76953H13.2188Z" fill="#363853"/>
<path d="M0 11.4414L0 12.8477H2.51494V14.2539H6.73369V12.8477L24 12.8477V11.4414L6.73369 11.4414V10.0352H2.51494L2.51494 11.4414H0ZM5.32744 11.4414V12.8477H3.92119V11.4414H5.32744Z" fill="#363853"/>
</svg>
