<svg width="44" height="44" viewBox="0 0 44 44" fill="none" xmlns="http://www.w3.org/2000/svg">
<path d="M26.5619 0.648586C23.4796 -0.120252 20.2363 -0.230115 17.0803 0.451188C16.8364 0.50384 16.6814 0.744242 16.734 0.98814C16.7867 1.23204 17.0271 1.38707 17.271 1.33442C20.2934 0.681954 23.4067 0.789536 26.3681 1.53176C33.4501 3.30676 39.3449 8.63141 41.5901 15.5869C42.4584 18.2767 42.8273 21.141 42.9011 24.1427C42.9073 24.3921 43.1144 24.5894 43.3639 24.5832C43.6133 24.5771 43.8106 24.3699 43.8044 24.1205C43.7296 21.0775 43.3564 18.1396 42.4666 15.361C40.135 8.07915 33.9739 2.49745 26.5619 0.648586Z" fill="white"/>
<path d="M14.7876 2.0155C15.0281 1.94914 15.1693 1.70036 15.103 1.45983C15.0366 1.2193 14.7878 1.0781 14.5473 1.14446C11.2468 2.05496 6.60406 5.20107 3.73477 9.40402C3.73365 9.40566 3.73254 9.4073 3.73145 9.40895C1.21203 13.2057 -0.367293 17.9771 0.073649 22.6069C0.0740688 22.6113 0.0745534 22.6158 0.0751027 22.6201C0.180778 23.4656 0.358183 24.3094 0.535795 25.1542C0.909881 26.9336 1.28489 28.7173 0.992591 30.5294C0.952856 30.7757 1.12034 31.0076 1.36667 31.0473C1.613 31.0871 1.8449 30.9196 1.88464 30.6733C2.19018 28.7791 1.81079 26.9315 1.43132 25.0835C1.25582 24.2288 1.08031 23.3741 0.972529 22.5147C0.557813 18.1398 2.05159 13.5758 4.4827 9.91103C7.24284 5.86939 11.7124 2.86386 14.7876 2.0155Z" fill="white"/>
<path d="M20.7162 3.0249C26.3884 2.67852 32.0595 4.99341 35.8681 9.42834C36.0306 9.61763 36.0089 9.90287 35.8196 10.0654C35.6304 10.228 35.3451 10.2063 35.1826 10.017C31.5608 5.79958 26.1642 3.59661 20.7686 3.92696C20.7666 3.92708 20.7647 3.92719 20.7628 3.92728C13.9393 4.25745 7.54905 8.88641 5.19859 15.3727C5.11358 15.6073 4.8545 15.7286 4.61991 15.6436C4.38532 15.5586 4.26406 15.2995 4.34907 15.0649C6.82519 8.2318 13.5354 3.37357 20.7162 3.0249Z" fill="white"/>
<path d="M37.2444 11.4021C37.1053 11.1949 36.8246 11.1398 36.6175 11.2789C36.4104 11.418 36.3552 11.6987 36.4943 11.9058C38.6057 15.0497 39.4787 18.4707 39.8238 22.5305C39.8449 22.7792 40.0636 22.9636 40.3122 22.9424C40.5608 22.9213 40.7453 22.7026 40.7241 22.454C40.3715 18.3055 39.4712 14.7177 37.2444 11.4021Z" fill="white"/>
<path d="M40.4221 24.3721C40.6711 24.3566 40.8856 24.5458 40.9012 24.7949C41.0714 27.5192 41.073 30.6014 40.7716 32.8792C40.7389 33.1266 40.5119 33.3006 40.2645 33.2678C40.0171 33.2351 39.8431 33.008 39.8759 32.7607C40.1663 30.5653 40.1679 27.5484 39.9993 24.8512C39.9838 24.6022 40.173 24.3877 40.4221 24.3721Z" fill="white"/>
<path d="M4.51634 17.561C4.5749 17.3184 4.42576 17.0743 4.18321 17.0158C3.94066 16.9572 3.69657 17.1064 3.638 17.3489C3.3064 18.7223 3.13426 20.1332 3.12744 21.5454C3.12041 23.0009 3.39181 24.4217 3.66331 25.8431C3.88541 27.0058 4.10758 28.1688 4.17747 29.3516C4.26927 30.9052 3.94247 32.4612 3.37775 33.942C3.28885 34.1752 3.40577 34.4363 3.63891 34.5252C3.87205 34.6141 4.13312 34.4971 4.22203 34.264C4.81894 32.6987 5.18076 31.0126 5.07947 29.2983C5.01007 28.1236 4.78791 26.9673 4.56585 25.8115C4.29488 24.4011 4.02404 22.9913 4.031 21.5498C4.03748 20.2079 4.20108 18.8667 4.51634 17.561Z" fill="white"/>
<path d="M16.3711 7.52127C16.4641 7.75281 16.3518 8.01589 16.1202 8.10888C11.4365 9.98983 7.9192 14.2345 7.20167 19.2398C6.90189 21.331 7.22576 23.4024 7.54954 25.4732C7.73189 26.6394 7.9142 27.8055 7.98508 28.9748C8.13878 31.5102 7.84998 34.2952 6.1999 36.8291C6.06374 37.0382 5.78386 37.0973 5.57477 36.9611C5.36568 36.825 5.30656 36.5451 5.44272 36.336C6.94611 34.0274 7.23068 31.463 7.08316 29.0294C7.01124 27.843 6.83006 26.6635 6.649 25.4847C6.32415 23.3697 5.99966 21.2571 6.30723 19.1116C7.07336 13.7672 10.8193 9.26396 15.7835 7.27038C16.0151 7.1774 16.2781 7.28972 16.3711 7.52127Z" fill="white"/>
<path d="M32.2316 10.0934C28.5365 6.63259 23.181 5.42469 18.3137 6.49227C18.07 6.54572 17.9158 6.78663 17.9692 7.03036C18.0227 7.27408 18.2636 7.42832 18.5073 7.37486C23.1163 6.36395 28.1591 7.51713 31.6139 10.7529C34.5258 13.4803 36.2168 17.4488 36.6594 21.7785C36.6848 22.0268 36.9066 22.2074 37.1548 22.182C37.403 22.1567 37.5837 21.9349 37.5583 21.6866C37.0987 17.1907 35.3363 13.0014 32.2316 10.0934Z" fill="white"/>
<path d="M37.4637 23.8383C37.712 23.8128 37.9338 23.9933 37.9593 24.2415C38.3884 28.4192 38.2035 32.9315 37.5557 37.2966C37.5191 37.5434 37.2893 37.7138 37.0425 37.6772C36.7957 37.6406 36.6253 37.4108 36.6619 37.164C37.3007 32.8595 37.4805 28.4239 37.0605 24.3338C37.035 24.0856 37.2155 23.8638 37.4637 23.8383Z" fill="white"/>
<path d="M21.7126 9.18178C14.7895 9.18178 9.16443 14.7051 9.16443 21.5338C9.16443 22.2632 9.22916 22.978 9.35256 23.6729C9.39618 23.9186 9.6307 24.0824 9.87637 24.0388C10.122 23.9952 10.2858 23.7607 10.2422 23.515C10.128 22.8715 10.068 22.2097 10.068 21.5338C10.068 15.218 15.2746 10.0854 21.7126 10.0854C24.622 10.0854 27.2802 11.134 29.3205 12.8667C29.5107 13.0282 29.7958 13.0049 29.9573 12.8148C30.1188 12.6246 30.0956 12.3395 29.9054 12.1779C27.7068 10.3108 24.8428 9.18178 21.7126 9.18178Z" fill="white"/>
<path d="M30.9177 13.8624C31.0978 13.6897 31.3838 13.6957 31.5565 13.8758C33.5503 15.955 34.1885 19.2228 34.6108 21.9652C35.0865 25.0543 35.1591 28.0679 35.1591 29.4652C35.1591 29.7147 34.9569 29.917 34.7073 29.917C34.4578 29.917 34.2556 29.7147 34.2556 29.4652C34.2556 28.0905 34.1836 25.1279 33.7178 22.1027C33.3257 19.5567 32.7605 16.4369 30.9043 14.5012C30.7316 14.3211 30.7376 14.0351 30.9177 13.8624Z" fill="white"/>
<path d="M35.0444 32.0526C35.0642 31.8038 34.8787 31.5861 34.63 31.5663C34.3812 31.5465 34.1635 31.732 34.1437 31.9808C33.9218 34.7637 33.6319 37.5436 33.0436 40.1115C32.9879 40.3547 33.1399 40.597 33.3831 40.6527C33.6263 40.7084 33.8687 40.5564 33.9244 40.3132C34.5282 37.6777 34.822 34.8429 35.0444 32.0526Z" fill="white"/>
<path d="M10.0798 25.3358C10.3246 25.2876 10.5621 25.4469 10.6103 25.6917C11.5656 30.5427 10.9057 34.9494 8.37601 38.8095C8.23925 39.0182 7.95919 39.0765 7.7505 38.9397C7.54181 38.803 7.4835 38.5229 7.62026 38.3142C10.0004 34.6823 10.641 30.524 9.72379 25.8663C9.67558 25.6215 9.83496 25.384 10.0798 25.3358Z" fill="white"/>
<path d="M21.7126 12.1213C17.2186 12.1213 12.8099 15.6001 12.3599 19.9721C12.1629 21.8862 12.4397 23.7716 12.7165 25.6577C12.9583 27.3047 13.2001 28.9523 13.1267 30.62C12.9586 34.4368 11.8388 37.5874 9.91451 40.1824C9.76589 40.3828 9.80789 40.6657 10.0083 40.8144C10.2087 40.963 10.4917 40.921 10.6403 40.7206C12.6812 37.9683 13.8541 34.6404 14.0294 30.6597C14.1025 28.9995 13.8599 27.3572 13.6175 25.716C13.3403 23.8392 13.0633 21.9638 13.2588 20.0646C13.6541 16.2239 17.6073 13.0249 21.7126 13.0249C23.6274 13.0249 28.5815 14.0617 30.1574 19.1953C31.1449 22.4123 31.4143 26.7661 31.1751 30.9958C30.9359 35.225 30.1919 39.27 29.1914 41.8638C29.1017 42.0966 29.2176 42.3581 29.4504 42.4479C29.6832 42.5377 29.9447 42.4218 30.0345 42.189C31.0812 39.4753 31.8351 35.3279 32.0772 31.0469C32.3193 26.7664 32.0532 22.2921 31.0212 18.9302C29.2719 13.2317 23.7883 12.1213 21.7126 12.1213Z" fill="white"/>
<path d="M14.76 38.8102C14.969 38.9465 15.0279 39.2264 14.8916 39.4354C14.6114 39.8649 14.365 40.3144 14.1185 40.7638C13.872 41.2132 13.6255 41.6628 13.3453 42.0924C13.209 42.3014 12.9291 42.3603 12.7201 42.224C12.5111 42.0877 12.4522 41.8077 12.5885 41.5987C12.8687 41.1692 13.1151 40.7198 13.3616 40.2703C13.608 39.8209 13.8545 39.3714 14.1347 38.9418C14.2711 38.7328 14.551 38.6739 14.76 38.8102Z" fill="white"/>
<path d="M18.6285 16.8111C18.8359 16.6724 18.8916 16.3918 18.7528 16.1844C18.6141 15.977 18.3335 15.9213 18.1261 16.0601C16.3371 17.2567 15.2395 18.9021 15.2395 21.3127C15.2395 22.748 15.4938 23.9213 15.7546 25.1246C16.1449 26.9253 16.4096 28.7222 16.362 30.5717C16.3043 32.8177 15.8648 34.8701 15.0201 36.8252C14.9211 37.0543 15.0266 37.3202 15.2556 37.4191C15.4847 37.5181 15.7506 37.4127 15.8495 37.1836C16.7427 35.1164 17.2047 32.9495 17.2653 30.595C17.3147 28.673 17.0427 26.8051 16.6379 24.9335C16.3765 23.7249 16.1431 22.6459 16.1431 21.3127C16.1431 19.2473 17.0517 17.8658 18.6285 16.8111Z" fill="white"/>
<path d="M20.3918 15.2237C22.2666 14.8415 24.2841 15.3138 25.769 16.5157C28.4214 18.6625 28.7742 22.5777 29.06 25.7503L29.0746 25.9119C29.444 30.0014 29.0211 33.9737 28.1694 37.9628C28.1173 38.2068 27.8772 38.3624 27.6332 38.3103C27.3892 38.2582 27.2336 38.0181 27.2857 37.7741C28.1247 33.8448 28.5336 29.9671 28.1747 25.9932C28.1628 25.8616 28.151 25.7282 28.139 25.5931L28.1388 25.5912C27.8849 22.7242 27.5669 19.1334 25.2005 17.218C23.931 16.1905 22.1898 15.7794 20.5723 16.1091C20.3278 16.1589 20.0892 16.0012 20.0394 15.7567C19.9896 15.5122 20.1474 15.2736 20.3918 15.2237Z" fill="white"/>
<path d="M27.5308 40.2109C27.5924 39.9691 27.4463 39.7231 27.2045 39.6616C26.9627 39.6 26.7167 39.7461 26.6552 39.9879C26.382 41.0608 25.9612 42.0291 25.4276 42.9207C25.2994 43.1348 25.3691 43.4122 25.5832 43.5404C25.7973 43.6685 26.0747 43.5988 26.2029 43.3847C26.778 42.4239 27.2345 41.3748 27.5308 40.2109Z" fill="white"/>
<path d="M25.3215 33.6546C25.5693 33.6839 25.7464 33.9086 25.7171 34.1563C25.2904 37.7621 24.3271 40.9779 22.7814 43.7671C22.6605 43.9854 22.3855 44.0642 22.1673 43.9433C21.949 43.8223 21.8702 43.5474 21.9911 43.3291C23.4704 40.6598 24.4044 37.5608 24.8198 34.0502C24.8491 33.8024 25.0738 33.6253 25.3215 33.6546Z" fill="white"/>
<path d="M25.2284 21.0757C24.9152 19.4021 23.4788 18.1219 21.735 18.1219C19.3737 18.1219 17.7169 20.5021 18.3008 22.7165C19.2886 26.6254 19.4508 30.3928 18.782 34.0213L18.7816 34.0239C18.2012 37.2817 17.0868 40.2124 15.5667 42.6959C15.4364 42.9087 15.5033 43.1868 15.7161 43.3171C15.929 43.4474 16.2071 43.3804 16.3373 43.1676C17.9196 40.5826 19.072 37.545 19.6709 34.1837C20.3652 30.4152 20.1932 26.5158 19.1762 22.4928L19.175 22.4881C18.7371 20.8316 19.9577 19.0255 21.735 19.0255C23.0176 19.0255 24.1006 19.969 24.3397 21.2389C24.9973 25.0533 25.3398 28.5905 25.096 31.636C25.076 31.8847 25.2615 32.1025 25.5102 32.1224C25.759 32.1423 25.9767 31.9568 25.9967 31.7081C26.2494 28.5514 25.8926 24.9271 25.2296 21.082C25.2292 21.0799 25.2288 21.0778 25.2284 21.0757Z" fill="white"/>
<path d="M20.3869 40.643C20.6088 40.7571 20.6963 41.0294 20.5822 41.2514L19.3851 43.581C19.2711 43.8029 18.9987 43.8904 18.7768 43.7764C18.5549 43.6623 18.4674 43.39 18.5814 43.168L19.7786 40.8384C19.8926 40.6165 20.165 40.529 20.3869 40.643Z" fill="white"/>
<path d="M22.071 21.5113C22.014 21.2684 21.7708 21.1178 21.5279 21.1749C21.285 21.2319 21.1343 21.4751 21.1914 21.718C22.715 28.2034 22.5057 33.8983 20.6499 38.7495C20.5608 38.9826 20.6774 39.2438 20.9105 39.3329C21.1435 39.4221 21.4047 39.3054 21.4939 39.0724C23.4288 34.0141 23.6255 28.1285 22.071 21.5113Z" fill="white"/>
</svg>
