<svg width="38" height="26" viewBox="0 0 38 26" fill="none" xmlns="http://www.w3.org/2000/svg">
<path d="M34.6025 4.59806C29.5834 -3.91983 22.0225 2.00617 22.0225 2.00617C21.5322 2.38899 20.628 2.70373 20.0136 2.70519L17.9884 2.70666C17.374 2.70739 16.4698 2.39265 15.9802 2.00983C15.9802 2.00983 8.4186 -3.91763 3.39881 4.60025C-1.61958 13.1152 0.402799 22.3885 0.402799 22.3885C0.757105 24.659 1.9249 26.1742 4.12867 25.9839C6.32608 25.7943 11.0957 19.8691 11.0957 19.8691C11.4897 19.3808 12.3153 18.9819 12.9282 18.9819L25.0695 18.9797C25.6832 18.9797 26.508 19.3786 26.9013 19.8669C26.9013 19.8669 31.6717 25.7921 33.8726 25.9817C36.0736 26.172 37.2442 24.6554 37.5964 22.3863C37.5957 22.3863 39.6216 13.1145 34.6025 4.59806ZM14.4375 11.5312H11.8341V14.1231C11.8341 14.1231 11.2828 14.5579 10.4296 14.5469C9.57789 14.5338 9.19241 14.0726 9.19241 14.0726V11.532H6.73353C6.73353 11.532 6.4267 11.207 6.3445 10.3513C6.26372 9.49564 6.68393 8.80393 6.68393 8.80393H9.28807V6.11469C9.28807 6.11469 9.82378 5.81824 10.594 5.84094C11.365 5.86582 11.9298 6.1652 11.9298 6.1652L11.9191 8.8032H14.378C14.378 8.8032 14.8074 9.37267 14.8429 10.0607C14.8783 10.7495 14.4375 11.5312 14.4375 11.5312ZM26.3791 14.4855C25.2389 14.4855 24.3198 13.5332 24.3198 12.3569C24.3198 11.1784 25.2389 10.2283 26.3791 10.2283C27.5142 10.2283 28.4404 11.1784 28.4404 12.3569C28.4404 13.5339 27.5142 14.4855 26.3791 14.4855ZM26.3791 8.62899C25.2389 8.62899 24.3198 7.67744 24.3198 6.50117C24.3198 5.3227 25.2389 4.37261 26.3791 4.37261C27.5142 4.37261 28.4404 5.3227 28.4404 6.50117C28.4404 7.67817 27.5142 8.62899 26.3791 8.62899ZM31.5108 11.7728C30.3707 11.7728 29.4516 10.8212 29.4516 9.64423C29.4516 8.4665 30.3707 7.51567 31.5108 7.51567C32.646 7.51567 33.5722 8.4665 33.5722 9.64423C33.5722 10.8212 32.646 11.7728 31.5108 11.7728Z" fill="white"/>
</svg>
