<svg width="26" height="26" viewBox="0 0 26 26" fill="none" xmlns="http://www.w3.org/2000/svg">
<g clip-path="url(#clip0)">
<path d="M20.1328 13.627H23.1795V20.922H20.1328V13.627Z" fill="white"/>
<path d="M14.3633 13.627H17.4102V20.922H14.3633V13.627Z" fill="white"/>
<path d="M8.58984 13.627H11.6367V20.922H8.58984V13.627Z" fill="white"/>
<path d="M2.82422 13.627H5.8709V20.922H2.82422V13.627Z" fill="white"/>
<path d="M24.1954 11.3418V10.5801H1.80859V11.3418C1.80859 11.7625 2.14958 12.1035 2.57031 12.1035H23.4337C23.8542 12.1035 24.1954 11.7625 24.1954 11.3418Z" fill="white"/>
<path d="M25.2371 22.4453H0.761719C0.340988 22.4453 0 22.7863 0 23.207V25.2383C0 25.659 0.340988 26 0.761719 26H25.2371C25.6578 26 25.9988 25.659 25.9988 25.2383V23.207C25.9988 22.7863 25.6578 22.4453 25.2371 22.4453Z" fill="white"/>
<path d="M0.76165 9.05652H25.2382C25.579 9.05652 25.8783 8.83018 25.9712 8.50229C26.0638 8.17439 25.9277 7.82468 25.6375 7.64615L13.3992 0.113068C13.1545 -0.0376892 12.8456 -0.0376892 12.6006 0.113068L0.362343 7.64615C0.0721366 7.82487 -0.0639412 8.17439 0.0288931 8.50229C0.121728 8.83018 0.421059 9.05652 0.76165 9.05652ZM12.4822 4.48026H13.5179C13.9386 4.48026 14.2796 4.82124 14.2796 5.24197C14.2796 5.6627 13.9386 6.00369 13.5179 6.00369H12.4822C12.0615 6.00369 11.7205 5.6627 11.7205 5.24197C11.7205 4.82124 12.0615 4.48026 12.4822 4.48026Z" fill="white"/>
</g>
<defs>
<clipPath id="clip0">
<rect width="26" height="26" fill="white"/>
</clipPath>
</defs>
</svg>
