<svg width="33" height="33" viewBox="0 0 33 33" fill="none" xmlns="http://www.w3.org/2000/svg">
<g clip-path="url(#clip0)">
<path d="M31.0664 25.3792V10.33L32.4656 9.63044C32.7932 9.46615 33 9.13196 33 8.76561C33 8.39926 32.7932 8.06507 32.4656 7.90078L16.9324 0.101949C16.6605 -0.0339829 16.3395 -0.0339829 16.0676 0.101949L0.534381 7.90078C0.206766 8.06507 0 8.39926 0 8.76561C0 9.13196 0.206766 9.46615 0.534381 9.63044L16.0676 17.3648C16.2035 17.4328 16.3518 17.4668 16.5 17.4668C16.6482 17.4668 16.7965 17.4328 16.9324 17.3648L29.1328 11.2968V25.3792C28.0099 25.7797 27.1992 26.8428 27.1992 28.1016V32.0332C27.1992 32.5676 27.6316 33 28.166 33H32.0332C32.5676 33 33 32.5676 33 32.0332V28.1016C33 26.8428 32.1893 25.7797 31.0664 25.3792ZM20.7996 9.63044C19.4532 10.3036 17.9766 10.6397 16.5 10.6397C15.0234 10.6397 13.5468 10.3036 12.2004 9.63044C11.7227 9.39158 11.5291 8.81092 11.768 8.33319C12.0068 7.85644 12.5875 7.66475 13.0652 7.90078C15.216 8.97708 17.784 8.97708 19.9348 7.90078C20.4115 7.66475 20.9913 7.85644 21.232 8.33319C21.4709 8.81092 21.2773 9.39158 20.7996 9.63044Z" fill="white"/>
<path d="M17.7992 19.0946C17.3989 19.2947 16.9504 19.4005 16.502 19.4005C16.0535 19.4005 15.605 19.2947 15.2047 19.0946L5.86719 14.4258V23.2677C5.86719 23.6491 6.09187 23.9946 6.43934 24.1504C6.62438 24.2326 11.0194 26.168 16.502 26.168C21.9845 26.168 26.444 24.2326 26.629 24.1504C26.9765 23.9946 27.2012 23.6491 27.2012 23.2677V14.4258L17.7992 19.0946Z" fill="white"/>
</g>
<defs>
<clipPath id="clip0">
<rect width="33" height="33" fill="white"/>
</clipPath>
</defs>
</svg>
