<svg width="18" height="12" viewBox="0 0 18 12" fill="none" xmlns="http://www.w3.org/2000/svg">
<path d="M17.8901 5.73486L12.2651 0.109877C12.1574 0.0029319 11.9974 -0.029658 11.8564 0.0285606C11.7162 0.0864276 11.625 0.223396 11.625 0.374989V1.12498C11.625 1.22457 11.6646 1.31981 11.7349 1.39012L15.5947 5.24999H0.375012C0.16773 5.25002 0 5.41772 0 5.625L0 6.37498C0 6.58226 0.16773 6.74999 0.375012 6.74999H15.5947L11.7349 10.6099C11.6646 10.6802 11.625 10.7754 11.625 10.875V11.625C11.625 11.7766 11.7162 11.9136 11.8564 11.9714C11.903 11.9908 11.9516 12 12 12C12.0974 12 12.1933 11.9619 12.2651 11.8901L17.8901 6.26515C18.0366 6.11866 18.0366 5.88135 17.8901 5.73486Z" fill="#009A44"/>
</svg>
