<svg width="22" height="22" viewBox="0 0 22 22" fill="none" xmlns="http://www.w3.org/2000/svg">
<path d="M7.8969 20.5041V17.1924C7.89733 16.9904 7.93755 16.7905 8.01526 16.6041C8.09298 16.4177 8.20667 16.2484 8.34983 16.106C8.49299 15.9635 8.66283 15.8507 8.84962 15.7739C9.03642 15.6971 9.23652 15.6578 9.43848 15.6584H12.552C12.9606 15.6581 13.3527 15.8193 13.6429 16.1069C13.786 16.2487 13.8996 16.4174 13.9771 16.6034C14.0547 16.7893 14.0946 16.9888 14.0947 17.1902V20.5031C14.0934 20.6774 14.1269 20.8502 14.1931 21.0114C14.2593 21.1727 14.3569 21.3192 14.4803 21.4423C14.6043 21.5661 14.7514 21.6643 14.9133 21.7312C15.0752 21.7981 15.2487 21.8325 15.4239 21.8323H17.5483C18.539 21.8351 19.4905 21.4457 20.1949 20.749C20.542 20.406 20.8177 19.9976 21.006 19.5474C21.1944 19.0972 21.2917 18.6142 21.2923 18.1262V8.68931C21.291 8.29566 21.203 7.90714 21.0344 7.55138C20.8659 7.19562 20.6211 6.88137 20.3173 6.63098L13.0958 0.899063C12.485 0.412488 11.7237 0.153985 10.9429 0.168024C10.1621 0.182062 9.41065 0.467763 8.81773 0.97598L1.75657 6.62881C1.43927 6.87233 1.1805 7.18378 0.999225 7.54032C0.817955 7.89687 0.718784 8.28946 0.708984 8.68931L0.708984 18.1143C0.710547 18.6044 0.808635 19.0893 0.997648 19.5415C1.18666 19.9936 1.4629 20.4041 1.81057 20.7494C2.15825 21.0948 2.57056 21.3683 3.02395 21.5543C3.47734 21.7403 3.96293 21.8351 4.45298 21.8334H6.52865C6.88085 21.8348 7.21932 21.6969 7.47019 21.4497C7.72105 21.2025 7.86393 20.8661 7.86765 20.5139L7.8969 20.5041Z" fill="white"/>
</svg>
