<svg width="26" height="26" viewBox="0 0 26 26" fill="none" xmlns="http://www.w3.org/2000/svg">
<path d="M7.57425 4.12145V21.8792C7.57425 23.958 5.95893 25.6491 3.9733 25.6491H3.60108C1.61545 25.6493 0 23.9581 0 21.8792V4.12145C0 2.04286 1.61545 0.351562 3.60108 0.351562H3.9733C5.95893 0.351562 7.57425 2.04286 7.57425 4.12145ZM26 5.26175V20.5169C26 22.1499 24.6714 23.4786 23.0382 23.4786H9.50229C9.1496 23.4786 8.86382 23.1928 8.86382 22.8401V3.16069C8.86382 2.808 9.1496 2.52222 9.50229 2.52222H23.2603C24.771 2.52222 26 3.75114 26 5.26175ZM14.1216 19.2433C14.1216 18.7924 13.7561 18.4269 13.3053 18.4269C12.8544 18.4269 12.4889 18.7924 12.4889 19.2433C12.4889 19.6941 12.8544 20.0596 13.3053 20.0596C13.7561 20.0596 14.1216 19.6941 14.1216 19.2433ZM14.1216 15.5731C14.1216 15.1222 13.7561 14.7568 13.3053 14.7568C12.8544 14.7568 12.4889 15.1222 12.4889 15.5731C12.4889 16.024 12.8544 16.3894 13.3053 16.3894C13.7561 16.3894 14.1216 16.024 14.1216 15.5731ZM14.1216 11.9029C14.1216 11.4521 13.7561 11.0866 13.3053 11.0866C12.8544 11.0866 12.4889 11.4521 12.4889 11.9029C12.4889 12.3538 12.8544 12.7193 13.3053 12.7193C13.7561 12.7193 14.1216 12.3538 14.1216 11.9029ZM18.256 19.2433C18.256 18.7924 17.8906 18.4269 17.4397 18.4269C16.9888 18.4269 16.6234 18.7924 16.6234 19.2433C16.6234 19.6941 16.9888 20.0596 17.4397 20.0596C17.8906 20.0596 18.256 19.6941 18.256 19.2433ZM18.256 15.5731C18.256 15.1222 17.8906 14.7568 17.4397 14.7568C16.9888 14.7568 16.6234 15.1222 16.6234 15.5731C16.6234 16.024 16.9888 16.3894 17.4397 16.3894C17.8906 16.3894 18.256 16.024 18.256 15.5731ZM18.256 11.9029C18.256 11.4521 17.8906 11.0866 17.4397 11.0866C16.9888 11.0866 16.6234 11.4521 16.6234 11.9029C16.6234 12.3538 16.9888 12.7193 17.4397 12.7193C17.8906 12.7193 18.256 12.3538 18.256 11.9029ZM22.3905 19.2433C22.3905 18.7924 22.025 18.4269 21.5742 18.4269C21.1233 18.4269 20.7578 18.7924 20.7578 19.2433C20.7578 19.6941 21.1233 20.0596 21.5742 20.0596C22.025 20.0596 22.3905 19.6941 22.3905 19.2433ZM22.3905 15.5731C22.3905 15.1222 22.025 14.7568 21.5742 14.7568C21.1233 14.7568 20.7578 15.1222 20.7578 15.5731C20.7578 16.024 21.1233 16.3894 21.5742 16.3894C22.025 16.3894 22.3905 16.024 22.3905 15.5731ZM22.3905 11.9029C22.3905 11.4521 22.025 11.0866 21.5742 11.0866C21.1233 11.0866 20.7578 11.4521 20.7578 11.9029C20.7578 12.3538 21.1233 12.7193 21.5742 12.7193C22.025 12.7193 22.3905 12.3538 22.3905 11.9029ZM23.8808 6.06852C23.8808 5.32636 23.2769 4.72263 22.5349 4.72263H11.6215C11.2688 4.72263 10.983 5.00841 10.983 5.36109V7.79965C10.983 8.15234 11.2688 8.43812 11.6215 8.43812H23.2423C23.595 8.43812 23.8808 8.15234 23.8808 7.79965V6.06852Z" fill="white"/>
</svg>
