<svg width="23" height="23" viewBox="0 0 23 23" fill="none" xmlns="http://www.w3.org/2000/svg">
<path d="M8.53789 20.6364V17.4375C8.53982 17.0451 8.69688 16.6695 8.97479 16.3926C9.2527 16.1156 9.62889 15.9599 10.0212 15.9593H13.0275C13.2225 15.9584 13.4159 15.9959 13.5965 16.0696C13.7771 16.1434 13.9414 16.252 14.08 16.3893C14.2186 16.5265 14.3288 16.6897 14.4043 16.8696C14.4799 17.0494 14.5192 17.2424 14.5202 17.4375V17.4375V20.6416C14.5204 20.9754 14.6514 21.2958 14.885 21.5342C15.1187 21.7725 15.4365 21.9098 15.7702 21.9166H17.7743C18.2473 21.9194 18.7161 21.8289 19.1541 21.6504C19.592 21.4719 19.9905 21.2088 20.3268 20.8762C20.663 20.5437 20.9305 20.1481 21.1138 19.7121C21.2971 19.2761 21.3927 18.8083 21.3952 18.3354V18.3354V9.24789C21.3887 8.86369 21.2951 8.48597 21.1216 8.14315C20.948 7.80034 20.6989 7.50136 20.3931 7.26872L13.5389 1.79684C12.9541 1.33451 12.2303 1.08301 11.4848 1.08301C10.7392 1.08301 10.0155 1.33451 9.4306 1.79684L2.6056 7.27393C2.29814 7.50598 2.04794 7.80541 1.87423 8.14922C1.70052 8.49303 1.60791 8.87208 1.60352 9.25726L1.60352 18.3343C1.60584 18.8071 1.70125 19.2748 1.88431 19.7107C2.06738 20.1465 2.3345 20.5421 2.67044 20.8748C3.00638 21.2074 3.40454 21.4706 3.84221 21.6494C4.27987 21.8282 4.74846 21.919 5.22122 21.9166H7.22852C7.39746 21.9175 7.5649 21.885 7.7213 21.8211C7.8777 21.7572 8.01997 21.6631 8.14001 21.5443C8.26005 21.4254 8.3555 21.284 8.42091 21.1283C8.48632 20.9725 8.5204 20.8054 8.52122 20.6364V20.6364" stroke="white" stroke-width="1.5" stroke-miterlimit="10" stroke-linecap="round" stroke-linejoin="round"/>
</svg>
