<svg width="30" height="30" viewBox="0 0 30 30" fill="none" xmlns="http://www.w3.org/2000/svg">
<path d="M13.5938 17.3437V19.6875H16.4063V17.3437C16.4063 17.0951 16.505 16.8567 16.6808 16.6808C16.8567 16.505 17.0951 16.4062 17.3438 16.4062H19.6875V13.5937H17.3438C17.0951 13.5937 16.8567 13.495 16.6808 13.3192C16.505 13.1433 16.4063 12.9049 16.4063 12.6562V10.3125H13.5938V12.6562C13.5938 12.9049 13.495 13.1433 13.3192 13.3192C13.1433 13.495 12.9049 13.5937 12.6563 13.5937H10.3125V16.4062H12.6563C12.9049 16.4062 13.1433 16.505 13.3192 16.6808C13.495 16.8567 13.5938 17.0951 13.5938 17.3437Z" fill="white"/>
<path d="M15 5.33203C12.5692 6.82874 9.85696 7.81057 7.0313 8.21672V14.8594C7.02559 16.6883 7.5323 18.4824 8.494 20.0381C9.45571 21.5938 10.834 22.8491 12.4725 23.6616L15 24.9253L17.5275 23.6597C19.1659 22.8473 20.5439 21.5924 21.5056 20.037C22.4673 18.4816 22.9742 16.688 22.9688 14.8594V8.21766C20.1432 7.81081 17.431 6.8287 15 5.33203ZM20.625 16.4063C20.625 16.6549 20.5263 16.8933 20.3505 17.0692C20.1746 17.245 19.9362 17.3438 19.6875 17.3438H17.3438V19.6875C17.3438 19.9361 17.245 20.1746 17.0692 20.3504C16.8934 20.5262 16.6549 20.625 16.4063 20.625H13.5938C13.3452 20.625 13.1067 20.5262 12.9309 20.3504C12.7551 20.1746 12.6563 19.9361 12.6563 19.6875V17.3438H10.3125C10.0639 17.3438 9.82545 17.245 9.64964 17.0692C9.47382 16.8933 9.37505 16.6549 9.37505 16.4063V13.5938C9.37505 13.3451 9.47382 13.1067 9.64964 12.9308C9.82545 12.755 10.0639 12.6563 10.3125 12.6563H12.6563V10.3125C12.6563 10.0639 12.7551 9.8254 12.9309 9.64959C13.1067 9.47377 13.3452 9.375 13.5938 9.375H16.4063C16.6549 9.375 16.8934 9.47377 17.0692 9.64959C17.245 9.8254 17.3438 10.0639 17.3438 10.3125V12.6563H19.6875C19.9362 12.6563 20.1746 12.755 20.3505 12.9308C20.5263 13.1067 20.625 13.3451 20.625 13.5938V16.4063Z" fill="white"/>
<path d="M15.8776 2.55469L15.0001 1.96875L14.1399 2.54438C11.2018 4.512 7.75468 5.58237 4.21881 5.625V14.8594C4.21127 17.211 4.86269 19.5178 6.09922 21.5181C7.33576 23.5184 9.10795 25.1323 11.2149 26.1769L15.0001 28.0697L18.7852 26.1769C20.8922 25.1323 22.6644 23.5184 23.9009 21.5181C25.1374 19.5178 25.7889 17.211 25.7813 14.8594V5.625C22.2524 5.58207 18.8119 4.51546 15.8776 2.55469ZM23.9063 14.8594C23.9126 16.8626 23.3576 18.8276 22.3043 20.5315C21.251 22.2355 19.7414 23.6103 17.9466 24.5002L15.0001 25.9734L12.0535 24.5002C10.2588 23.6103 8.74917 22.2355 7.69582 20.5315C6.64248 18.8276 6.08751 16.8626 6.09381 14.8594V7.39313L6.50444 7.34203C9.43828 6.9785 12.2548 5.9681 14.7507 4.38375L15.0001 4.22531L15.2504 4.38375C17.7456 5.96817 20.5615 6.97889 23.4947 7.34297L23.9054 7.39453L23.9063 14.8594Z" fill="white"/>
</svg>
