<svg width="26" height="26" viewBox="0 0 26 26" fill="none" xmlns="http://www.w3.org/2000/svg">
<g clip-path="url(#clip0)">
<path d="M13 0C5.82833 0 0 5.82833 0 13C0 20.1717 5.82833 26 13 26C13.8125 26 14.6033 25.9242 15.3833 25.7833L14.495 23.1183C14.365 23.2483 14.2242 23.3567 14.0833 23.4542V21.8725L12.0683 15.8383C11.96 15.5242 11.9167 15.1992 11.9167 14.885V17.0842C10.8875 17.1275 9.88 17.2142 8.92667 17.3767C8.73167 16.3583 8.60167 15.2533 8.5475 14.0617H11.9167V14.885C11.9167 14.1158 12.22 13.3683 12.7942 12.7942C13.3467 12.2308 14.0942 11.9167 14.8958 11.9167C15.2208 11.9167 15.535 11.9708 15.8492 12.0683L21.8183 14.0617H23.7792C23.7575 14.2783 23.7358 14.4842 23.6925 14.69L25.7833 15.3833C25.9242 14.6033 26 13.8125 26 13C26 5.82833 20.1717 0 13 0V0ZM11.9167 19.2508V23.4542C10.985 22.8258 10.0967 21.4392 9.46833 19.4783C10.2592 19.3592 11.0717 19.2833 11.9167 19.2508ZM3.9 7.13917C4.76667 7.55083 5.74167 7.8975 6.80333 8.17917C6.57583 9.33833 6.435 10.5842 6.38083 11.895H2.22083C2.39417 10.1617 3.00083 8.5475 3.9 7.13917ZM2.22083 14.0617H6.38083C6.435 15.3942 6.57583 16.6508 6.80333 17.8208C5.74167 18.1025 4.76667 18.4492 3.9 18.8608C2.99 17.4525 2.39417 15.8167 2.22083 14.0617ZM8.60167 22.8908C7.35583 22.3383 6.24 21.5583 5.2975 20.605C5.915 20.3342 6.5975 20.1067 7.32333 19.9225C7.67 21.0383 8.10333 22.0458 8.60167 22.8908ZM7.32333 6.0775C6.5975 5.89333 5.915 5.66583 5.2975 5.395C6.24 4.44167 7.35583 3.66167 8.60167 3.10917C8.10333 3.95417 7.67 4.96167 7.32333 6.0775ZM11.9167 11.895H8.5475C8.60167 10.725 8.73167 9.63083 8.92667 8.62333C9.88 8.78583 10.8875 8.8725 11.9167 8.91583V11.895ZM11.9167 6.74917C11.0717 6.71667 10.2592 6.64083 9.46833 6.52167C10.0967 4.56083 10.985 3.17417 11.9167 2.54583V6.74917ZM14.0833 2.54583C15.015 3.17417 15.9033 4.56083 16.5317 6.52167C15.7408 6.64083 14.9283 6.71667 14.0833 6.74917V2.54583ZM14.0833 11.895V8.91583C15.1125 8.8725 16.12 8.78583 17.0733 8.62333C17.2683 9.63083 17.3983 10.725 17.4525 11.895H14.0833ZM17.3983 3.10917C18.6442 3.66167 19.76 4.44167 20.7025 5.395C20.085 5.66583 19.4025 5.89333 18.6767 6.0775C18.33 4.96167 17.8967 3.95417 17.3983 3.10917ZM19.6192 11.895C19.565 10.5842 19.4242 9.33833 19.1967 8.17917C20.2583 7.8975 21.2333 7.55083 22.1 7.13917C22.9992 8.5475 23.6058 10.1617 23.7792 11.895H19.6192Z" fill="white"/>
<path d="M18.3251 26.0001C18.3196 26.0001 18.3131 26.0001 18.3066 26.0001C17.9643 25.9925 17.6631 25.7704 17.5548 25.4443L14.1239 15.1526C14.0264 14.8601 14.1022 14.5384 14.32 14.3206C14.5377 14.1018 14.8595 14.026 15.152 14.1246L25.4436 17.5555C25.7686 17.6638 25.9907 17.965 25.9994 18.3073C26.007 18.6496 25.799 18.9616 25.4783 19.0841L20.8601 20.8607L19.0834 25.479C18.9621 25.7942 18.6598 26.0001 18.3251 26.0001Z" fill="white"/>
</g>
<defs>
<clipPath id="clip0">
<rect width="26" height="26" fill="white"/>
</clipPath>
</defs>
</svg>
