<svg width="18" height="18" viewBox="0 0 18 18" fill="none" xmlns="http://www.w3.org/2000/svg">
<g clip-path="url(#clip0_11453:92631)">
<path d="M9.00002 2.25C4.9773 2.25 1.37263 4.88951 0.0300805 8.8183C-0.0100268 8.9364 -0.0100268 9.06384 0.0300805 9.18194C1.37263 13.1107 4.9773 15.7502 9.00002 15.7502C13.0227 15.7502 16.6274 13.1107 17.97 9.18194C18.0101 9.06384 18.0101 8.9364 17.97 8.8183C16.6274 4.88951 13.0227 2.25 9.00002 2.25ZM9.00002 14.6252C5.52061 14.6252 2.39328 12.3724 1.15893 9.00012C2.39328 5.6278 5.52057 3.37503 9.00002 3.37503C12.4794 3.37503 15.6068 5.6278 16.8411 9.00012C15.6068 12.3724 12.4794 14.6252 9.00002 14.6252Z" fill="#191C1F"/>
<path d="M9.00006 5.625C7.13896 5.625 5.625 7.13896 5.625 9.00006C5.625 10.8612 7.13896 12.3751 9.00006 12.3751C10.8612 12.3751 12.3751 10.8612 12.3751 9.00006C12.3751 7.13892 10.8612 5.625 9.00006 5.625ZM9.00006 11.2501C7.75912 11.2501 6.75003 10.241 6.75003 9.00006C6.75003 7.75912 7.75915 6.75003 9.00006 6.75003C10.241 6.75003 11.2501 7.75915 11.2501 9.00006C11.2501 10.241 10.241 11.2501 9.00006 11.2501Z" fill="#191C1F"/>
<line x1="16" y1="2.70711" x2="2.70711" y2="16" stroke="black" stroke-linecap="round"/>
</g>
<defs>
<clipPath id="clip0_11453:92631">
<rect width="18" height="18" fill="white"/>
</clipPath>
</defs>
</svg>
