<svg width="24" height="24" viewBox="0 0 24 24" fill="none" xmlns="http://www.w3.org/2000/svg">
<path d="M20.7822 0H3.21495C2.88505 0 2.61768 0.267373 2.61768 0.597273V23.4028C2.61768 23.6399 2.75789 23.8545 2.97511 23.9497C3.19255 24.0449 3.44546 24.0027 3.61974 23.8419L5.69783 21.9255C5.92344 21.716 6.27154 21.7132 6.50042 21.919L7.86248 23.1348C8.54467 23.7449 9.5773 23.7421 10.256 23.1282L11.5982 21.9171C11.8255 21.7111 12.1717 21.7111 12.3987 21.9171L13.7412 23.1282C14.4199 23.7423 15.4525 23.7451 16.1345 23.1348L17.4968 21.919C17.7256 21.7132 18.0737 21.716 18.2994 21.9255L20.3772 23.8419C20.5517 24.0027 20.8046 24.0449 21.0218 23.9497C21.2391 23.8545 21.3795 23.6399 21.3795 23.4028V0.597273C21.3795 0.267373 21.1119 0 20.7822 0ZM20.185 22.0394L19.1092 21.0473C18.4323 20.4193 17.3883 20.4106 16.7012 21.0275L15.3391 22.2433C15.1116 22.4467 14.7675 22.4458 14.5412 22.2412L13.199 21.0301C12.5179 20.4127 11.4797 20.4127 10.7984 21.0301L9.45598 22.2414C9.22967 22.4458 8.88554 22.4467 8.6583 22.2435L7.296 21.0277C6.60914 20.4106 5.56508 20.4193 4.88825 21.0473L3.81245 22.0396V1.19478H20.185V22.0396V22.0394Z" fill="#363853"/>
<path d="M8.00596 9.3049H15.6718C16.0017 9.3049 16.2691 9.03753 16.2691 8.70763C16.2691 8.37772 16.0017 8.11035 15.6718 8.11035H8.00596C7.67606 8.11035 7.40869 8.37772 7.40869 8.70763C7.40869 9.03753 7.67606 9.3049 8.00596 9.3049Z" fill="#363853"/>
<path d="M8.00596 13.4563H15.6718C16.0017 13.4563 16.2691 13.1889 16.2691 12.859C16.2691 12.5291 16.0017 12.2617 15.6718 12.2617H8.00596C7.67606 12.2617 7.40869 12.5291 7.40869 12.859C7.40869 13.1889 7.67606 13.4563 8.00596 13.4563Z" fill="#363853"/>
</svg>
