<svg width="512" height="512" viewBox="0 0 512 512" fill="none" xmlns="http://www.w3.org/2000/svg">
<rect width="512" height="512" rx="150" fill="white"/>
<path d="M82.6274 347.127L97.4325 361.162L97.5588 361.25L106.124 365.924C106.212 365.974 106.312 366.001 106.414 366H117.316C117.465 366.002 117.609 365.948 117.72 365.848L123.948 360.391C124.012 360.334 124.063 360.264 124.098 360.186C124.133 360.107 124.15 360.022 124.15 359.936V350.588C124.151 350.483 124.124 350.379 124.07 350.287C124.017 350.196 123.94 350.121 123.847 350.071L116.861 346.18L107.008 340.129V332.941L115.383 325.362L144.678 298.998L141.684 336.453C141.671 336.52 141.671 336.588 141.684 336.655L144.804 349.11C144.818 349.187 144.85 349.26 144.896 349.323C144.941 349.387 145.001 349.439 145.069 349.477L155.175 355.717C155.263 355.771 155.363 355.801 155.466 355.806L195.889 357.334L196.256 357.877L197.241 357.208L206.336 353.418C206.412 353.387 206.48 353.341 206.537 353.283C206.593 353.224 206.637 353.154 206.665 353.077L209.002 346.849C209.059 346.707 209.059 346.549 209.002 346.407L205.881 338.613C205.838 338.501 205.762 338.405 205.662 338.337C205.563 338.27 205.446 338.234 205.326 338.234H199.123L183.838 337.463L179.48 330.92L182.537 318.717C182.537 318.717 182.537 318.717 182.537 318.654L185.695 297.861L192.302 292.72L203.671 295.006H203.898L226.472 294.223L240.823 294.981L243.791 305.377L240.684 351.245C240.672 351.38 240.708 351.514 240.785 351.624L245.838 358.901L246.141 359.621L246.318 359.545C246.352 359.581 246.396 359.608 246.444 359.621L260.466 365.861C260.545 365.873 260.626 365.873 260.706 365.861H286.539L302.127 362.741C302.253 362.715 302.368 362.649 302.454 362.554C302.54 362.458 302.594 362.338 302.608 362.21L303.378 354.416C303.389 354.34 303.383 354.262 303.361 354.188C303.339 354.114 303.302 354.045 303.252 353.987L297.024 346.192C296.967 346.123 296.896 346.067 296.815 346.027C296.735 345.988 296.646 345.967 296.557 345.965H288.838L280.627 343.729L277.709 337.173L283.09 318.717L298.894 279.557L308.456 303.116L308.57 303.293L326.432 322.848L338.875 343.06L346.644 354.707C346.701 354.788 346.776 354.855 346.864 354.901C346.952 354.947 347.05 354.971 347.149 354.972H394.672C394.769 354.974 394.865 354.952 394.951 354.908C395.037 354.864 395.11 354.799 395.165 354.719L400.622 346.925C400.686 346.825 400.72 346.709 400.72 346.59C400.72 346.472 400.686 346.355 400.622 346.256L395.165 337.691C395.117 337.614 395.053 337.549 394.976 337.501C394.899 337.452 394.813 337.422 394.723 337.413L375.774 335.379L375.623 335.24C375.516 335.152 375.382 335.103 375.244 335.103C375.105 335.103 374.971 335.152 374.865 335.24L374.738 335.329L373.235 335.177L359.34 312.098L344.673 276.386L343.132 257.981L349.069 248.342L364.127 249.858L374.751 257.159L374.65 257.753L375.837 257.943L376.456 258.372L376.608 258.448L405.435 267.796H405.587L421.175 268.579C421.285 268.58 421.393 268.554 421.491 268.503L441.703 257.602C441.842 257.52 441.946 257.389 441.993 257.235C442.05 257.089 442.05 256.927 441.993 256.78L426.556 228.155L431.129 215.94C431.18 215.806 431.18 215.658 431.129 215.523L424.118 196.802L424.043 196.65L406.155 172.573L403.073 165.625L402.972 165.474L398.298 160.029C398.206 159.916 398.075 159.839 397.931 159.814L387.068 158.261C386.987 158.249 386.905 158.255 386.827 158.277C386.749 158.298 386.676 158.336 386.613 158.387L379.981 163.541L379.425 163.288L379.311 163.541L369.925 161.431L340.328 154.382L318.55 147.371H318.411L286.463 145.009C286.375 144.997 286.286 144.997 286.198 145.009L265.228 153.599L242.768 156.694L194.538 152.803L168.831 150.466C168.719 150.434 168.601 150.434 168.49 150.466L146.673 162.227L146.56 162.303L122.407 183.336C122.371 183.359 122.341 183.389 122.318 183.424L109.85 199.846C109.812 199.894 109.786 199.951 109.774 200.011L97.3062 234.232C97.2808 234.314 97.2808 234.402 97.3062 234.484L98.86 255.441L94.2239 284.837L77.9028 305.769L70.1087 316.671C70.0191 316.799 69.9828 316.958 70.0076 317.113L72.3446 332.701C72.3613 332.795 72.3956 332.885 72.4457 332.966L72.8878 333.585L72.812 333.977L73.2415 334.065L82.6274 346.988V347.127ZM116.255 347.216L122.95 350.942V359.671L117.088 364.8H106.983V341.481L116.255 347.216ZM199.136 339.51H204.959L207.839 346.698L205.667 352.471L196.685 356.26H196.571L184.722 338.84L199.136 339.51ZM195.055 356.096L155.655 354.606L145.966 348.643L183.269 338.752L195.055 356.096ZM182.562 337.691L145.65 347.506L142.884 336.453L145.89 298.897L178.431 331.438L182.562 337.691ZM184.71 297.078C184.59 297.172 184.509 297.307 184.482 297.457L181.375 318.464L178.52 329.833L146.699 298L190.078 292.947L184.71 297.078ZM240.62 293.793L226.409 293.048L203.885 293.831L192.264 291.545H192.074L147.621 296.737L179.202 273.998L245.219 229.393L240.62 293.793ZM188.828 226.488L179.164 189.778L244.777 228.231L179.77 272.078L188.84 226.766C188.855 226.673 188.851 226.579 188.828 226.488ZM187.628 226.665L178.545 272.141L127.877 218.012L177.812 189.336L187.628 226.665ZM288.598 347.216H296.266L302.165 354.593L301.458 361.705L286.842 364.623L281.069 345.144L288.598 347.216ZM285.617 364.737H260.832L247.796 358.938L279.806 345.119L285.617 364.737ZM279.389 343.982L246.722 358.092L241.795 351.132L244.865 306.704L276.572 337.653L279.389 343.982ZM298.641 277.523C298.572 277.553 298.51 277.596 298.458 277.65C298.406 277.705 298.365 277.769 298.338 277.839L281.916 318.363L276.736 336.049L244.84 304.922L241.795 294.362L246.419 229.002L340.808 257.93L298.641 277.523ZM394.369 338.626L399.422 346.622L394.647 353.507L377.24 336.794L394.369 338.626ZM375.105 336.567H375.269L393.232 353.81H350.648L375.105 336.567ZM372.389 336.036C372.438 336.116 372.504 336.183 372.583 336.233C372.662 336.284 372.751 336.316 372.844 336.327H373.286L348.564 353.822H347.516L339.936 342.453L327.468 322.241L327.392 322.153L310.68 303.924L358.506 312.893L372.389 336.036ZM343.486 276.563C343.474 276.621 343.474 276.681 343.486 276.74L357.874 311.554L309.416 302.472L299.626 278.369L341.995 258.701L343.486 276.563ZM349.057 247.016L320.116 198.76L378.49 233.183L377.139 241.798L349.057 247.016ZM374.953 255.858L364.683 248.797C364.603 248.736 364.506 248.701 364.405 248.696L353.036 247.546L377.037 243.1L374.953 255.858ZM405.738 266.608L377.075 257.311L376.052 256.616L378.124 243.327L418.8 267.265L405.738 266.608ZM440.654 256.831L431.357 261.884L435.146 246.649L440.654 256.831ZM425.331 227.991C425.294 228.068 425.275 228.152 425.275 228.238C425.275 228.323 425.294 228.407 425.331 228.484L434.249 244.994L430.018 262.339L430.27 262.402L421.175 267.253L378.225 241.988L379.577 233.322L429.462 216.685L425.331 227.991ZM423.019 197.32L429.79 215.359L379.488 232.173L359.807 168L374.663 174.923L376.962 187.012C376.974 187.109 377.013 187.201 377.073 187.279C377.133 187.357 377.212 187.417 377.303 187.454L385.867 191.345C385.951 191.363 386.037 191.363 386.12 191.345C386.27 191.34 386.413 191.282 386.524 191.181L405.473 173.71L423.019 197.32ZM379.993 164.905C380.105 164.893 380.21 164.849 380.297 164.779L387.068 159.486L397.502 160.977L401.961 166.194L404.867 172.725L386.044 190.094L378.124 186.481L375.875 174.506L379.993 164.905ZM339.999 155.532L369.61 162.543L378.73 164.653L374.94 173.622L327.342 151.464L339.999 155.532ZM318.966 148.887L358.392 167.255L378.111 231.566L318.966 196.688V148.887ZM265.91 154.622L286.514 146.272L317.766 148.559V197.029C317.764 197.141 317.795 197.251 317.855 197.345L348.046 247.673L342.248 257.096L246.633 227.789L265.91 154.622ZM123.24 184.17L147.242 163.212L168.843 151.641L194.436 154.003L242.743 157.894C242.785 157.9 242.827 157.9 242.869 157.894L264.534 154.9L245.585 227.284L178.798 188.124L169.349 152.475L168.186 152.778L177.496 188.149L127.03 217.102L111.113 200.112L123.24 184.17ZM98.481 234.522L110.558 201.274L125.956 217.696L99.1252 233.133L99.719 234.181L126.841 218.631L178.027 273.304L145.082 297.052L114.6 324.389L106.869 331.425L100.022 255.429L98.481 234.522ZM73.5068 332.373L71.2582 317.176L78.8376 306.489L95.2597 285.443C95.3217 285.366 95.3649 285.275 95.386 285.178L99.3021 260.355L105.871 333.408V339.725L73.9489 332.992L73.5068 332.373ZM105.833 340.887V364.32L98.2536 360.164L83.5369 346.268L75.0479 334.495L105.833 340.887Z" fill="white" stroke="#936EE3" stroke-width="3"/>
</svg>
