<svg width="376" height="225" viewBox="0 0 376 225" fill="none" xmlns="http://www.w3.org/2000/svg">
<path d="M14.6274 204.127L29.4325 218.162L29.5588 218.25L38.1236 222.924C38.2121 222.974 38.3123 223.001 38.4141 223H49.3158C49.4648 223.002 49.6091 222.948 49.7201 222.848L55.9478 217.391C56.0118 217.334 56.0629 217.264 56.0977 217.186C56.1326 217.107 56.1504 217.022 56.15 216.936V207.588C56.1513 207.483 56.1238 207.379 56.0704 207.287C56.017 207.196 55.9397 207.121 55.8468 207.071L48.8611 203.18L39.0078 197.129V189.941L47.3831 182.362L76.6776 155.998L73.6837 193.453C73.6711 193.52 73.6711 193.588 73.6837 193.655L76.8039 206.11C76.8184 206.187 76.8497 206.26 76.8955 206.323C76.9414 206.387 77.0007 206.439 77.0692 206.477L87.1751 212.717C87.2629 212.771 87.3628 212.801 87.4656 212.806L127.889 214.334L128.256 214.877L129.241 214.208L138.336 210.418C138.412 210.387 138.48 210.341 138.537 210.283C138.593 210.224 138.637 210.154 138.665 210.077L141.002 203.849C141.059 203.707 141.059 203.549 141.002 203.407L137.881 195.613C137.838 195.501 137.762 195.405 137.662 195.337C137.563 195.27 137.446 195.234 137.326 195.234H131.123L115.838 194.463L111.48 187.92L114.537 175.717C114.537 175.717 114.537 175.717 114.537 175.654L117.695 154.861L124.302 149.72L135.671 152.006H135.898L158.472 151.223L172.823 151.981L175.791 162.377L172.684 208.245C172.672 208.38 172.708 208.514 172.785 208.624L177.838 215.901L178.141 216.621L178.318 216.545C178.352 216.581 178.396 216.608 178.444 216.621L192.466 222.861C192.545 222.873 192.626 222.873 192.706 222.861H218.539L234.127 219.741C234.253 219.715 234.368 219.649 234.454 219.554C234.54 219.458 234.594 219.338 234.608 219.21L235.378 211.416C235.389 211.34 235.383 211.262 235.361 211.188C235.339 211.114 235.302 211.045 235.252 210.987L229.024 203.192C228.967 203.123 228.896 203.067 228.815 203.027C228.735 202.988 228.646 202.967 228.557 202.965H220.838L212.627 200.729L209.709 194.173L215.09 175.717L230.894 136.557L240.456 160.116L240.57 160.293L258.432 179.848L270.875 200.06L278.644 211.707C278.701 211.788 278.776 211.855 278.864 211.901C278.952 211.947 279.05 211.971 279.149 211.972H326.672C326.769 211.974 326.865 211.952 326.951 211.908C327.037 211.864 327.11 211.799 327.165 211.719L332.622 203.925C332.686 203.825 332.72 203.709 332.72 203.59C332.72 203.472 332.686 203.355 332.622 203.256L327.165 194.691C327.117 194.614 327.053 194.549 326.976 194.501C326.899 194.452 326.813 194.422 326.723 194.413L307.774 192.379L307.623 192.24C307.516 192.152 307.382 192.103 307.244 192.103C307.105 192.103 306.971 192.152 306.865 192.24L306.738 192.329L305.235 192.177L291.34 169.098L276.673 133.386L275.132 114.981L281.069 105.342L296.127 106.858L306.751 114.159L306.65 114.753L307.837 114.943L308.456 115.372L308.608 115.448L337.435 124.796H337.587L353.175 125.579C353.285 125.58 353.393 125.554 353.491 125.503L373.703 114.602C373.842 114.52 373.946 114.389 373.993 114.235C374.05 114.089 374.05 113.927 373.993 113.78L358.556 85.1555L363.129 72.94C363.18 72.8056 363.18 72.6575 363.129 72.5231L356.118 53.8019L356.043 53.6504L338.155 29.573L335.073 22.6252L334.972 22.4737L330.298 17.0291C330.206 16.9157 330.075 16.8394 329.931 16.8143L319.068 15.2606C318.987 15.2494 318.905 15.2549 318.827 15.2766C318.749 15.2983 318.676 15.3359 318.613 15.3869L311.981 20.5409L311.425 20.2883L311.311 20.5409L301.925 18.4313L272.328 11.3824L250.55 4.37146H250.411L218.463 2.00921C218.375 1.99693 218.286 1.99693 218.198 2.00921L197.228 10.5992L174.768 13.6942L126.538 9.80338L100.831 7.46639C100.719 7.43445 100.601 7.43445 100.49 7.46639L78.6735 19.2271L78.5598 19.3029L54.4067 40.3358C54.3712 40.3585 54.341 40.3887 54.3183 40.4243L41.8501 56.8463C41.8124 56.8944 41.7864 56.9507 41.7743 57.0106L29.3062 91.2317C29.2808 91.314 29.2808 91.402 29.3062 91.4843L30.86 112.441L26.2239 141.837L9.90285 162.769L2.10867 173.671C2.01906 173.799 1.98284 173.958 2.00761 174.113L4.3446 189.701C4.36128 189.795 4.39557 189.885 4.44566 189.966L4.88779 190.585L4.812 190.977L5.2415 191.065L14.6274 203.988V204.127ZM48.2547 204.216L54.9499 207.942V216.671L49.0885 221.8H38.9826V198.481L48.2547 204.216ZM131.136 196.51H136.959L139.839 203.698L137.667 209.471L128.685 213.26H128.571L116.722 195.84L131.136 196.51ZM127.055 213.096L87.6551 211.606L77.9661 205.643L115.269 195.752L127.055 213.096ZM114.562 194.691L77.6503 204.506L74.8838 193.453L77.8903 155.897L110.431 188.438L114.562 194.691ZM116.71 154.078C116.59 154.172 116.509 154.307 116.482 154.457L113.375 175.464L110.52 186.833L78.6988 155L122.078 149.947L116.71 154.078ZM172.62 150.793L158.409 150.048L135.885 150.831L124.264 148.545H124.074L79.6209 153.737L111.202 130.998L177.219 86.3935L172.62 150.793ZM120.828 83.488L111.164 46.7783L176.777 85.2313L111.77 129.078L120.84 83.7659C120.855 83.6734 120.851 83.5788 120.828 83.488ZM119.628 83.6649L110.545 129.141L59.8765 75.0117L109.812 46.3362L119.628 83.6649ZM220.598 204.216H228.266L234.165 211.593L233.458 218.705L218.842 221.623L213.069 202.144L220.598 204.216ZM217.617 221.737H192.832L179.796 215.938L211.806 202.119L217.617 221.737ZM211.389 200.982L178.722 215.092L173.795 208.132L176.865 163.704L208.572 194.653L211.389 200.982ZM230.641 134.523C230.572 134.553 230.51 134.596 230.458 134.65C230.406 134.705 230.365 134.769 230.338 134.839L213.916 175.363L208.736 193.049L176.84 161.922L173.795 151.362L178.419 86.0019L272.808 114.93L230.641 134.523ZM326.369 195.626L331.422 203.622L326.647 210.507L309.24 193.794L326.369 195.626ZM307.105 193.567H307.269L325.232 210.81H282.648L307.105 193.567ZM304.389 193.036C304.438 193.116 304.504 193.183 304.583 193.233C304.662 193.284 304.751 193.316 304.844 193.327H305.286L280.564 210.822H279.516L271.936 199.453L259.468 179.241L259.392 179.153L242.68 160.924L290.506 169.893L304.389 193.036ZM275.486 133.563C275.474 133.621 275.474 133.681 275.486 133.74L289.874 168.554L241.416 159.472L231.626 135.369L273.995 115.701L275.486 133.563ZM281.057 104.016L252.116 55.76L310.49 90.1832L309.139 98.7985L281.057 104.016ZM306.953 112.858L296.683 105.797C296.603 105.736 296.506 105.701 296.405 105.696L285.036 104.546L309.037 100.1L306.953 112.858ZM337.738 123.608L309.075 114.311L308.052 113.616L310.124 100.327L350.8 124.265L337.738 123.608ZM372.654 113.831L363.357 118.884L367.146 103.649L372.654 113.831ZM357.331 84.9913C357.294 85.0681 357.275 85.1523 357.275 85.2376C357.275 85.3229 357.294 85.4071 357.331 85.4839L366.249 101.994L362.018 119.339L362.27 119.402L353.175 124.253L310.225 98.9879L311.577 90.3221L361.462 73.6853L357.331 84.9913ZM355.019 54.3199L361.79 72.3589L311.488 89.1726L291.807 25.0001L306.663 31.9227L308.962 44.0119C308.974 44.1091 309.013 44.2012 309.073 44.2789C309.133 44.3565 309.212 44.4169 309.303 44.454L317.867 48.3448C317.951 48.3633 318.037 48.3633 318.12 48.3448C318.27 48.3398 318.413 48.2816 318.524 48.1805L337.473 30.71L355.019 54.3199ZM311.993 21.9052C312.105 21.8931 312.21 21.8493 312.297 21.7789L319.068 16.4859L329.502 17.9765L333.961 23.1937L336.867 29.7246L318.044 47.0941L310.124 43.4813L307.875 31.5058L311.993 21.9052ZM271.999 12.532L301.61 19.5429L310.73 21.6525L306.94 30.6215L259.342 8.46435L271.999 12.532ZM250.966 5.88735L290.392 24.2548L310.111 88.5662L250.966 53.6882V5.88735ZM197.91 11.6224L218.514 3.27244L249.766 5.5589V54.0293C249.764 54.141 249.795 54.2508 249.855 54.3451L280.046 104.673L274.248 114.096L178.633 84.7891L197.91 11.6224ZM55.2404 41.1696L79.2419 20.2125L100.843 8.6412L126.436 11.0035L174.743 14.8942C174.785 14.9005 174.827 14.9005 174.869 14.8942L196.534 11.9004L177.585 84.2839L110.798 45.1235L101.349 9.47494L100.186 9.77812L109.496 45.1488L59.0301 74.1022L43.1134 57.1116L55.2404 41.1696ZM30.481 91.5222L42.5575 58.2738L57.9564 74.6959L31.1252 90.1326L31.719 91.1811L58.8407 75.6307L110.027 130.304L77.0818 154.052L46.5999 181.389L38.8689 188.425L32.0221 112.429L30.481 91.5222ZM5.50678 189.373L3.25822 174.176L10.8376 163.489L27.2597 142.443C27.3217 142.366 27.3649 142.275 27.386 142.178L31.3021 117.355L37.8709 190.408V196.725L5.94891 189.992L5.50678 189.373ZM37.833 197.887V221.32L30.2536 217.164L15.5369 203.268L7.04793 191.495L37.833 197.887Z" fill="white" stroke="#936EE3" stroke-width="3"/>
</svg>
