<svg width="26" height="26" viewBox="0 0 26 26" fill="none" xmlns="http://www.w3.org/2000/svg">
<g clip-path="url(#clip0)">
<path d="M15.0723 15.9507C19.435 15.9507 22.9844 12.3729 22.9844 7.97537C22.9844 3.57779 19.435 0 15.0723 0C10.7095 0 7.16016 3.57774 7.16016 7.97532C7.16016 12.3729 10.7095 15.9507 15.0723 15.9507ZM12.5299 10.464C12.76 10.1122 13.2319 10.0135 13.5837 10.2437C14.0963 10.5791 14.2897 10.61 14.9662 10.6052C15.6264 10.6009 16.0096 10.1087 16.0861 9.6533C16.1233 9.43177 16.1376 8.89082 15.4672 8.65381C14.6808 8.3758 13.876 8.05804 13.3161 7.6189C12.7562 7.17975 12.4998 6.42163 12.6471 5.64052C12.8067 4.79374 13.3974 4.11966 14.1887 3.88134C14.1958 3.8792 14.2028 3.87748 14.21 3.87535V3.58678C14.21 3.16636 14.5508 2.82551 14.9712 2.82551C15.3917 2.82551 15.7325 3.16636 15.7325 3.58678V3.82739C16.2496 3.95081 16.6107 4.18737 16.7573 4.29694C17.094 4.54871 17.1629 5.02572 16.9112 5.3625C16.6595 5.69929 16.1825 5.76821 15.8457 5.51638C15.6897 5.39976 15.2585 5.14905 14.6278 5.33911C14.2593 5.45015 14.1637 5.81373 14.1432 5.92249C14.1029 6.1362 14.1481 6.33652 14.2557 6.42087C14.6438 6.72527 15.3424 6.99481 15.9746 7.21827C17.1403 7.63031 17.7885 8.7103 17.5876 9.90569C17.4889 10.4922 17.1939 11.0364 16.7567 11.4381C16.4589 11.7117 16.1122 11.9068 15.7325 12.0182V12.3639C15.7325 12.7843 15.3917 13.1251 14.9712 13.1251C14.5508 13.1251 14.21 12.7843 14.21 12.3639V12.0941C13.7177 12.0344 13.3045 11.8805 12.7501 11.5178C12.3984 11.2877 12.2997 10.8159 12.5299 10.464Z" fill="white"/>
<path d="M2.88377 18.5078H1.14798C0.727563 18.5078 0.386719 18.8487 0.386719 19.2691V25.2369C0.386719 25.6573 0.727563 25.9982 1.14798 25.9982H2.88382V18.5078H2.88377Z" fill="white"/>
<path d="M25.3867 18.4553C23.9599 17.0285 21.6382 17.0284 20.2114 18.4553L17.931 20.7357L16.9963 21.6704C16.6186 22.0482 16.1062 22.2604 15.572 22.2604H11.027C10.6166 22.2604 10.2633 21.9449 10.244 21.5349C10.2234 21.0971 10.5722 20.7357 11.0055 20.7357H15.6251C16.554 20.7357 17.3596 20.0745 17.5192 19.1595C17.5559 18.9494 17.5751 18.7333 17.5751 18.5128C17.5751 18.0917 17.2339 17.7499 16.8127 17.7499H14.2814C13.4542 17.7499 12.6598 17.3747 11.8187 16.9773C10.9365 16.5606 10.0243 16.1296 8.95765 16.0587C8.02475 15.9965 7.08971 16.0987 6.17837 16.3618C5.20258 16.6436 4.50115 17.5105 4.4161 18.5114C4.41285 18.5112 4.40955 18.5111 4.40625 18.5109V25.9962L17.5217 25.9998C18.4234 25.9998 19.2713 25.6486 19.909 25.011L25.3866 19.5334C25.6844 19.2358 25.6844 18.753 25.3867 18.4553Z" fill="white"/>
</g>
<defs>
<clipPath id="clip0">
<rect width="26" height="26" fill="white"/>
</clipPath>
</defs>
</svg>
