<svg width="23" height="23" viewBox="0 0 23 23" fill="none" xmlns="http://www.w3.org/2000/svg">
<path d="M15.7406 5.33008C15.4016 4.35675 14.7297 3.53445 13.8434 3.00828C12.9572 2.48211 11.9136 2.28589 10.8967 2.45425C9.87989 2.62262 8.95521 3.14474 8.28585 3.92849C7.61649 4.71223 7.24547 5.70722 7.23828 6.73788L7.23828 8.8165" stroke="#936EE3" stroke-width="1.5" stroke-miterlimit="10" stroke-linecap="round" stroke-linejoin="round"/>
<path d="M15.2691 20.1249H7.9465C6.98262 20.1246 6.0583 19.7415 5.37682 19.0599C4.69534 18.3782 4.3125 17.4538 4.3125 16.4899L4.3125 12.3806C4.3125 11.4167 4.69534 10.4923 5.37682 9.8106C6.0583 9.12894 6.98262 8.74586 7.9465 8.74561H15.2691C16.233 8.74586 17.1573 9.12894 17.8388 9.8106C18.5203 10.4923 18.9031 11.4167 18.9031 12.3806V16.4899C18.9031 17.4538 18.5203 18.3782 17.8388 19.0599C17.1573 19.7415 16.233 20.1246 15.2691 20.1249Z" stroke="#936EE3" stroke-width="1.5" stroke-miterlimit="10" stroke-linecap="round" stroke-linejoin="round"/>
<path d="M11.6074 13.3716V15.501" stroke="#936EE3" stroke-width="1.5" stroke-miterlimit="10" stroke-linecap="round" stroke-linejoin="round"/>
</svg>
