<svg width="24" height="24" viewBox="0 0 24 24" fill="none" xmlns="http://www.w3.org/2000/svg">
<path d="M18.7031 9.1875V6.70312C18.7031 3.00698 15.6961 0 12 0C8.30386 0 5.29688 3.00698 5.29688 6.70312V9.1875H3.09375V15.0938C3.09375 20.0047 7.08905 24 12 24C16.911 24 20.9062 20.0047 20.9062 15.0938V9.1875H18.7031ZM6.70312 6.70312C6.70312 3.78239 9.07927 1.40625 12 1.40625C14.9207 1.40625 17.2969 3.78239 17.2969 6.70312V9.1875H6.70312V6.70312ZM19.5 15.0938C19.5 19.2292 16.1355 22.5938 12 22.5938C7.86445 22.5938 4.5 19.2292 4.5 15.0938V10.5938H19.5V15.0938Z" fill="#363853"/>
<path d="M11.2969 17.5275V19.7187H12.7031V17.5275C13.7841 17.2208 14.5781 16.2248 14.5781 15.0469C14.5781 13.6253 13.4216 12.4688 12 12.4688C10.5784 12.4688 9.42188 13.6253 9.42188 15.0469C9.42188 16.2248 10.2159 17.2208 11.2969 17.5275ZM12 13.875C12.6462 13.875 13.1719 14.4007 13.1719 15.0469C13.1719 15.693 12.6462 16.2188 12 16.2188C11.3538 16.2188 10.8281 15.693 10.8281 15.0469C10.8281 14.4007 11.3538 13.875 12 13.875Z" fill="#363853"/>
</svg>
