<svg width="24" height="24" viewBox="0 0 24 24" fill="none" xmlns="http://www.w3.org/2000/svg">
<g clip-path="url(#clip0)">
<path d="M0.878676 9.87869C2.05024 8.70712 3.94974 8.70712 5.12131 9.87869C6.29288 11.0503 6.29288 12.9498 5.12131 14.1213C3.94974 15.2929 2.05024 15.2929 0.878676 14.1213C-0.292892 12.9498 -0.292892 11.0503 0.878676 9.87869Z" fill="#363853"/>
<path d="M9.87867 9.87869C11.0502 8.70712 12.9497 8.70712 14.1213 9.87869C15.2929 11.0503 15.2929 12.9498 14.1213 14.1213C12.9497 15.2929 11.0502 15.2929 9.87867 14.1213C8.70711 12.9498 8.70711 11.0503 9.87867 9.87869Z" fill="#363853"/>
<path d="M18.8787 9.87869C20.0502 8.70712 21.9497 8.70712 23.1213 9.87869C24.2929 11.0503 24.2929 12.9498 23.1213 14.1213C21.9497 15.2929 20.0502 15.2929 18.8787 14.1213C17.7071 12.9498 17.7071 11.0503 18.8787 9.87869Z" fill="#363853"/>
</g>
<defs>
<clipPath id="clip0">
<rect width="24" height="24" fill="white" transform="translate(0 24) rotate(-90)"/>
</clipPath>
</defs>
</svg>
