<svg width="17" height="26" viewBox="0 0 17 26" fill="none" xmlns="http://www.w3.org/2000/svg">
<path d="M14.6818 0H2.31818C1.04009 0 0 1.02527 0 2.28516V23.7148C0 24.9747 1.04009 26 2.31818 26H14.6818C15.9599 26 17 24.9747 17 23.7148V2.28516C17 1.02527 15.9599 0 14.6818 0ZM8.5 22.9531C8.07345 22.9531 7.72727 22.6119 7.72727 22.1914C7.72727 21.7709 8.07345 21.4297 8.5 21.4297C8.92655 21.4297 9.27273 21.7709 9.27273 22.1914C9.27273 22.6119 8.92655 22.9531 8.5 22.9531ZM10.0455 4.57031H6.95455C6.528 4.57031 6.18182 4.22906 6.18182 3.80859C6.18182 3.38812 6.528 3.04688 6.95455 3.04688H10.0455C10.472 3.04688 10.8182 3.38812 10.8182 3.80859C10.8182 4.22906 10.472 4.57031 10.0455 4.57031Z" fill="white"/>
</svg>
