<svg width="19" height="23" viewBox="0 0 19 23" fill="none" xmlns="http://www.w3.org/2000/svg">
<path d="M6.11031 18.5593L6.19248 17.8138L5.2956 17.715L5.36237 18.6148L6.11031 18.5593ZM12.8897 18.5593L13.6376 18.6148L13.7044 17.715L12.8075 17.8138L12.8897 18.5593ZM12.7868 19.1969L13.5143 19.3794H13.5143L12.7868 19.1969ZM12.6939 19.5673L11.9665 19.3848H11.9665L12.6939 19.5673ZM10.2977 21.9077L10.469 22.6379H10.469L10.2977 21.9077ZM8.70227 21.9077L8.53102 22.6379H8.53102L8.70227 21.9077ZM6.30606 19.5673L5.5786 19.7497V19.7498L6.30606 19.5673ZM6.21317 19.1969L6.94064 19.0144H6.94063L6.21317 19.1969ZM2.7315 8.25843L3.4544 8.45822L2.7315 8.25843ZM7.41283 3.44692L7.63998 4.16169L7.41283 3.44692ZM2.0625 10.6791L1.3396 10.4793L1.33479 10.4967L1.33083 10.5143L2.0625 10.6791ZM1.53289 13.0306L2.26456 13.1954V13.1954L1.53289 13.0306ZM3.02594 18.0635L3.17283 17.328L3.02594 18.0635ZM3.44254 18.1467L3.58944 17.4112H3.58944L3.44254 18.1467ZM15.5575 18.1467L15.4106 17.4112L15.5575 18.1467ZM15.9741 18.0635L15.8272 17.328L15.9741 18.0635ZM17.4671 13.0306L16.7354 13.1954V13.1954L17.4671 13.0306ZM16.9375 10.6791L17.6692 10.5143L17.6659 10.4997L17.662 10.4852L16.9375 10.6791ZM16.2765 8.20927L15.552 8.40316L16.2765 8.20927ZM11.7293 3.45375L11.9604 2.74022L11.7293 3.45375ZM17.9692 15.2326L18.7098 15.1144L17.9692 15.2326ZM1.03082 15.2326L0.290199 15.1144L1.03082 15.2326ZM10.25 2C10.25 1.58579 9.91421 1.25 9.5 1.25C9.08579 1.25 8.75 1.58579 8.75 2H10.25ZM8.75 3.11638C8.75 3.53059 9.08579 3.86638 9.5 3.86638C9.91421 3.86638 10.25 3.53059 10.25 3.11638H8.75ZM6.02815 19.3048C8.3355 19.5591 10.6645 19.5591 12.9719 19.3048L12.8075 17.8138C10.6094 18.0561 8.39061 18.0561 6.19248 17.8138L6.02815 19.3048ZM13.5143 19.3794C13.5773 19.1283 13.6185 18.8725 13.6376 18.6148L12.1417 18.5038C12.129 18.6758 12.1014 18.8466 12.0594 19.0144L13.5143 19.3794ZM13.4214 19.7498L13.5143 19.3794L12.0594 19.0144L11.9665 19.3848L13.4214 19.7498ZM10.469 22.6379C11.9181 22.2981 13.0609 21.1871 13.4214 19.7498L11.9665 19.3848C11.7449 20.2684 11.0383 20.9637 10.1265 21.1776L10.469 22.6379ZM8.53102 22.6379C9.16815 22.7874 9.83185 22.7874 10.469 22.6379L10.1265 21.1776C9.71463 21.2741 9.28537 21.2741 8.87352 21.1776L8.53102 22.6379ZM5.5786 19.7498C5.9391 21.1871 7.08189 22.2981 8.53102 22.6379L8.87352 21.1776C7.96165 20.9637 7.25513 20.2684 7.03353 19.3848L5.5786 19.7498ZM5.4857 19.3794L5.5786 19.7497L7.03353 19.3848L6.94064 19.0144L5.4857 19.3794ZM5.36237 18.6148C5.38149 18.8725 5.42272 19.1283 5.4857 19.3794L6.94063 19.0144C6.89855 18.8466 6.87102 18.6758 6.85826 18.5038L5.36237 18.6148ZM3.4544 8.45822C4.01322 6.43622 5.59879 4.81038 7.63998 4.16169L7.18568 2.73214C4.67457 3.53017 2.70625 5.53431 2.0086 8.05864L3.4544 8.45822ZM2.7854 10.8789L3.4544 8.45822L2.0086 8.05864L1.3396 10.4793L2.7854 10.8789ZM2.26456 13.1954L2.79417 10.8439L1.33083 10.5143L0.801217 12.8658L2.26456 13.1954ZM1.75 15.6226C1.75 15.5297 1.75737 15.439 1.77144 15.3509L0.290199 15.1144C0.263694 15.2804 0.25 15.4502 0.25 15.6226H1.75ZM3.17283 17.328C2.33721 17.1611 1.75 16.4421 1.75 15.6226H0.25C0.25 17.1726 1.35722 18.495 2.87904 18.799L3.17283 17.328ZM3.58944 17.4112L3.17283 17.328L2.87904 18.799L3.29565 18.8822L3.58944 17.4112ZM15.4106 17.4112C11.5099 18.1903 7.4901 18.1903 3.58944 17.4112L3.29565 18.8822C7.39025 19.7 11.6097 19.7 15.7043 18.8822L15.4106 17.4112ZM15.8272 17.328L15.4106 17.4112L15.7043 18.8822L16.121 18.799L15.8272 17.328ZM17.25 15.6226C17.25 16.4421 16.6628 17.1611 15.8272 17.328L16.121 18.799C17.6428 18.495 18.75 17.1726 18.75 15.6226H17.25ZM17.2286 15.3509C17.2426 15.439 17.25 15.5297 17.25 15.6226H18.75C18.75 15.4502 18.7363 15.2804 18.7098 15.1144L17.2286 15.3509ZM16.2058 10.8439L16.7354 13.1954L18.1988 12.8658L17.6692 10.5143L16.2058 10.8439ZM15.552 8.40316L16.213 10.873L17.662 10.4852L17.001 8.01539L15.552 8.40316ZM11.4983 4.16728C13.4959 4.81406 15.0189 6.41093 15.552 8.40316L17.001 8.01539C16.3344 5.52427 14.4344 3.54127 11.9604 2.74022L11.4983 4.16728ZM7.63998 4.16169C8.89146 3.76398 10.2524 3.76388 11.4983 4.16728L11.9604 2.74022C10.4134 2.23934 8.73204 2.24071 7.18568 2.73214L7.63998 4.16169ZM18.7098 15.1144C18.5887 14.3562 18.3451 13.5156 18.1988 12.8658L16.7354 13.1954C16.9153 13.994 17.1156 14.6434 17.2286 15.3509L18.7098 15.1144ZM0.801217 12.8658C0.654853 13.5156 0.411254 14.3562 0.290199 15.1144L1.77144 15.3509C1.8844 14.6434 2.08467 13.994 2.26456 13.1954L0.801217 12.8658ZM8.75 2V3.11638H10.25V2H8.75Z" fill="#363853"/>
<circle cx="15" cy="5" r="4" fill="#FF3333"/>
</svg>
