<svg width="19" height="22" viewBox="0 0 19 22" fill="none" xmlns="http://www.w3.org/2000/svg">
<path d="M6.11031 17.5593L6.19248 16.8138L5.2956 16.715L5.36237 17.6148L6.11031 17.5593ZM12.8897 17.5593L13.6376 17.6148L13.7044 16.715L12.8075 16.8138L12.8897 17.5593ZM12.7868 18.1969L13.5143 18.3794H13.5143L12.7868 18.1969ZM12.6939 18.5673L11.9665 18.3848H11.9665L12.6939 18.5673ZM10.2977 20.9077L10.469 21.6379H10.469L10.2977 20.9077ZM8.70227 20.9077L8.53102 21.6379H8.53102L8.70227 20.9077ZM6.30606 18.5673L5.5786 18.7497V18.7498L6.30606 18.5673ZM6.21317 18.1969L6.94064 18.0144H6.94063L6.21317 18.1969ZM2.7315 7.25843L3.4544 7.45822L2.7315 7.25843ZM7.41283 2.44692L7.63998 3.16169L7.41283 2.44692ZM2.0625 9.67912L1.3396 9.47933L1.33479 9.49672L1.33083 9.51433L2.0625 9.67912ZM1.53289 12.0306L2.26456 12.1954V12.1954L1.53289 12.0306ZM3.02594 17.0635L3.17283 16.328L3.02594 17.0635ZM3.44254 17.1467L3.58944 16.4112H3.58944L3.44254 17.1467ZM15.5575 17.1467L15.4106 16.4112L15.5575 17.1467ZM15.9741 17.0635L15.8272 16.328L15.9741 17.0635ZM17.4671 12.0306L16.7354 12.1954V12.1954L17.4671 12.0306ZM16.9375 9.67912L17.6692 9.51433L17.6659 9.49971L17.662 9.48523L16.9375 9.67912ZM16.2765 7.20927L15.552 7.40316L16.2765 7.20927ZM11.7293 2.45375L11.9604 1.74022L11.7293 2.45375ZM17.9692 14.2326L18.7098 14.1144L17.9692 14.2326ZM1.03082 14.2326L0.290199 14.1144L1.03082 14.2326ZM10.25 1C10.25 0.585786 9.91421 0.25 9.5 0.25C9.08579 0.25 8.75 0.585786 8.75 1H10.25ZM8.75 2.11638C8.75 2.53059 9.08579 2.86638 9.5 2.86638C9.91421 2.86638 10.25 2.53059 10.25 2.11638H8.75ZM6.02815 18.3048C8.3355 18.5591 10.6645 18.5591 12.9719 18.3048L12.8075 16.8138C10.6094 17.0561 8.39061 17.0561 6.19248 16.8138L6.02815 18.3048ZM13.5143 18.3794C13.5773 18.1283 13.6185 17.8725 13.6376 17.6148L12.1417 17.5038C12.129 17.6758 12.1014 17.8466 12.0594 18.0144L13.5143 18.3794ZM13.4214 18.7498L13.5143 18.3794L12.0594 18.0144L11.9665 18.3848L13.4214 18.7498ZM10.469 21.6379C11.9181 21.2981 13.0609 20.1871 13.4214 18.7498L11.9665 18.3848C11.7449 19.2684 11.0383 19.9637 10.1265 20.1776L10.469 21.6379ZM8.53102 21.6379C9.16815 21.7874 9.83185 21.7874 10.469 21.6379L10.1265 20.1776C9.71463 20.2741 9.28537 20.2741 8.87352 20.1776L8.53102 21.6379ZM5.5786 18.7498C5.9391 20.1871 7.08189 21.2981 8.53102 21.6379L8.87352 20.1776C7.96165 19.9637 7.25513 19.2684 7.03353 18.3848L5.5786 18.7498ZM5.4857 18.3794L5.5786 18.7497L7.03353 18.3848L6.94064 18.0144L5.4857 18.3794ZM5.36237 17.6148C5.38149 17.8725 5.42272 18.1283 5.4857 18.3794L6.94063 18.0144C6.89855 17.8466 6.87102 17.6758 6.85826 17.5038L5.36237 17.6148ZM3.4544 7.45822C4.01322 5.43622 5.59879 3.81038 7.63998 3.16169L7.18568 1.73214C4.67457 2.53017 2.70625 4.53431 2.0086 7.05864L3.4544 7.45822ZM2.7854 9.87891L3.4544 7.45822L2.0086 7.05864L1.3396 9.47933L2.7854 9.87891ZM2.26456 12.1954L2.79417 9.84391L1.33083 9.51433L0.801217 11.8658L2.26456 12.1954ZM1.75 14.6226C1.75 14.5297 1.75737 14.439 1.77144 14.3509L0.290199 14.1144C0.263694 14.2804 0.25 14.4502 0.25 14.6226H1.75ZM3.17283 16.328C2.33721 16.1611 1.75 15.4421 1.75 14.6226H0.25C0.25 16.1726 1.35722 17.495 2.87904 17.799L3.17283 16.328ZM3.58944 16.4112L3.17283 16.328L2.87904 17.799L3.29565 17.8822L3.58944 16.4112ZM15.4106 16.4112C11.5099 17.1903 7.4901 17.1903 3.58944 16.4112L3.29565 17.8822C7.39025 18.7 11.6097 18.7 15.7043 17.8822L15.4106 16.4112ZM15.8272 16.328L15.4106 16.4112L15.7043 17.8822L16.121 17.799L15.8272 16.328ZM17.25 14.6226C17.25 15.4421 16.6628 16.1611 15.8272 16.328L16.121 17.799C17.6428 17.495 18.75 16.1726 18.75 14.6226H17.25ZM17.2286 14.3509C17.2426 14.439 17.25 14.5297 17.25 14.6226H18.75C18.75 14.4502 18.7363 14.2804 18.7098 14.1144L17.2286 14.3509ZM16.2058 9.84391L16.7354 12.1954L18.1988 11.8658L17.6692 9.51433L16.2058 9.84391ZM15.552 7.40316L16.213 9.87301L17.662 9.48523L17.001 7.01539L15.552 7.40316ZM11.4983 3.16728C13.4959 3.81406 15.0189 5.41093 15.552 7.40316L17.001 7.01539C16.3344 4.52427 14.4344 2.54127 11.9604 1.74022L11.4983 3.16728ZM7.63998 3.16169C8.89146 2.76398 10.2524 2.76388 11.4983 3.16728L11.9604 1.74022C10.4134 1.23934 8.73204 1.24071 7.18568 1.73214L7.63998 3.16169ZM18.7098 14.1144C18.5887 13.3562 18.3451 12.5156 18.1988 11.8658L16.7354 12.1954C16.9153 12.994 17.1156 13.6434 17.2286 14.3509L18.7098 14.1144ZM0.801217 11.8658C0.654853 12.5156 0.411254 13.3562 0.290199 14.1144L1.77144 14.3509C1.8844 13.6434 2.08467 12.994 2.26456 12.1954L0.801217 11.8658ZM8.75 1V2.11638H10.25V1H8.75Z" fill="#363853"/>
</svg>
