<svg width="96" height="96" viewBox="0 0 96 96" fill="none" xmlns="http://www.w3.org/2000/svg">
<path d="M78 96H18C8.058 96 0 87.942 0 78V18C0 8.058 8.058 0 18 0H78C87.942 0 96 8.058 96 18V78C96 87.942 87.942 96 78 96Z" fill="#EAEAEB"/>
<path d="M44.0004 72C47.6214 72 50.6514 69.42 51.3474 66H36.6504C37.3494 69.42 40.3764 72 44.0004 72Z" fill="#916AE6" fill-opacity="0.72"/>
<path d="M59.151 52.992C59.1 52.992 59.049 53.001 58.998 53.001C50.175 53.001 42.999 45.822 42.999 37.002C42.999 33.537 44.118 30.333 45.999 27.711V26.001C45.999 24.894 45.105 24 44.001 24C42.897 24 42 24.894 42 26.001V28.161C35.226 29.136 30 34.962 30 42V47.577C30 51.534 28.266 55.269 25.224 57.843C24.447 58.509 24 59.478 24 60.501C24 62.43 25.569 64.002 27.501 64.002H60.501C62.43 64.002 64.002 62.433 64.002 60.501C64.002 59.478 63.555 58.509 62.76 57.828C61.179 56.493 59.964 54.834 59.151 52.992Z" fill="#936EE3"/>
<circle cx="59" cy="37" r="13" fill="#916AE6" fill-opacity="0.72"/>
<path d="M58.1348 40.7217H54.7314C54.5986 40.7217 54.5544 40.6553 54.5986 40.5225C54.6097 40.5003 54.6208 40.4782 54.6318 40.4561L58.2012 35.293C58.179 34.3522 57.6921 33.8763 56.7402 33.8652H52.9883V35.1436H56.1592C56.292 35.1436 56.3473 35.1989 56.3252 35.3096C56.3141 35.3428 56.3031 35.3704 56.292 35.3926L52.6396 40.7051C52.6618 41.5573 53.1156 41.9889 54.001 42H58.1182L58.1348 40.7217ZM64.1777 40.7217H60.7744C60.6416 40.7217 60.5973 40.6553 60.6416 40.5225C60.6527 40.5003 60.6637 40.4782 60.6748 40.4561L64.2441 35.293C64.222 34.3522 63.735 33.8763 62.7832 33.8652H59.0312V35.1436H62.2021C62.335 35.1436 62.3903 35.1989 62.3682 35.3096C62.3571 35.3428 62.346 35.3704 62.335 35.3926L58.6826 40.7051C58.7048 41.5573 59.1585 41.9889 60.0439 42H64.1611L64.1777 40.7217Z" fill="white"/>
</svg>
