<svg width="22" height="23" viewBox="0 0 22 23" fill="none" xmlns="http://www.w3.org/2000/svg">
<path d="M8.06541 0H1.90474C0.854444 0 0 0.893283 0 1.99132V8.43202C0 9.53005 0.854444 10.4233 1.90474 10.4233H8.06541C9.1157 10.4233 9.97015 9.53005 9.97015 8.43202V1.99132C9.97022 0.893283 9.1157 0 8.06541 0ZM8.42089 8.43202C8.42089 8.63693 8.26141 8.80366 8.06541 8.80366H1.90474C1.70874 8.80366 1.54926 8.63693 1.54926 8.43202V1.99132C1.54926 1.78641 1.70874 1.61968 1.90474 1.61968H8.06541C8.26141 1.61968 8.42089 1.78641 8.42089 1.99132V8.43202Z" fill="white"/>
<path d="M20.0947 0H13.934C12.8837 0 12.0293 0.893283 12.0293 1.99132V8.43202C12.0293 9.53005 12.8837 10.4233 13.934 10.4233H20.0947C21.145 10.4233 21.9995 9.53005 21.9995 8.43202V1.99132C21.9995 0.893283 21.145 0 20.0947 0ZM20.4502 8.43202C20.4502 8.63693 20.2907 8.80366 20.0947 8.80366H13.934C13.738 8.80366 13.5786 8.63693 13.5786 8.43202V1.99132C13.5786 1.78641 13.738 1.61968 13.934 1.61968H20.0947C20.2907 1.61968 20.4502 1.78641 20.4502 1.99132V8.43202Z" fill="white"/>
<path d="M8.06541 12.5765H1.90474C0.854444 12.5765 0 13.4699 0 14.5679V21.0086C0 22.1067 0.854444 23 1.90474 23H8.06541C9.1157 23 9.97015 22.1067 9.97015 21.0086V14.5679C9.97022 13.4699 9.1157 12.5765 8.06541 12.5765ZM8.42089 21.0086C8.42089 21.2135 8.26141 21.3803 8.06541 21.3803H1.90474C1.70874 21.3803 1.54926 21.2135 1.54926 21.0086V14.5679C1.54926 14.363 1.70874 14.1963 1.90474 14.1963H8.06541C8.26141 14.1963 8.42089 14.363 8.42089 14.5679V21.0086Z" fill="white"/>
<path d="M20.0947 12.5765H13.934C12.8837 12.5765 12.0293 13.4698 12.0293 14.5679V21.0086C12.0293 22.1066 12.8837 22.9999 13.934 22.9999H20.0947C21.145 22.9999 21.9995 22.1067 21.9995 21.0086V14.5679C21.9995 13.4699 21.145 12.5765 20.0947 12.5765ZM20.4502 21.0086C20.4502 21.2135 20.2907 21.3803 20.0947 21.3803H13.934C13.738 21.3803 13.5786 21.2135 13.5786 21.0086V14.5679C13.5786 14.363 13.738 14.1963 13.934 14.1963H20.0947C20.2907 14.1963 20.4502 14.363 20.4502 14.5679V21.0086Z" fill="white"/>
</svg>
