<svg width="23" height="23" viewBox="0 0 23 23" fill="none" xmlns="http://www.w3.org/2000/svg">
<path d="M8.35545 0H1.75207C0.786459 0 0.000976562 0.785482 0.000976562 1.75109V8.35447C0.000976562 9.32008 0.786459 10.1056 1.75207 10.1056H8.35545C9.32106 10.1056 10.1065 9.32008 10.1065 8.35447V1.75109C10.1064 0.785482 9.32106 0 8.35545 0Z" fill="white"/>
<path d="M21.249 0H14.6456C13.68 0 12.8945 0.785482 12.8945 1.75109V8.35447C12.8945 9.32008 13.68 10.1056 14.6456 10.1056H21.249C22.2146 10.1056 23.0001 9.32008 23.0001 8.35447V1.75109C23.0001 0.785482 22.2146 0 21.249 0Z" fill="white"/>
<path d="M8.35447 12.8945H1.75109C0.785482 12.8945 0 13.6799 0 14.6455V21.2489C0 22.2145 0.785482 23 1.75109 23H8.35447C9.32008 23 10.1056 22.2145 10.1056 21.2489V14.6455C10.1054 13.6799 9.32008 12.8945 8.35447 12.8945Z" fill="white"/>
<path d="M21.249 12.8945H14.6456C13.68 12.8945 12.8945 13.68 12.8945 14.6456V21.249C12.8945 22.2146 13.68 23.0001 14.6456 23.0001H21.249C22.2146 23 23.0001 22.2145 23.0001 21.2489V14.6455C23.0001 13.6799 22.2146 12.8945 21.249 12.8945Z" fill="white"/>
</svg>
