<svg width="23" height="26" viewBox="0 0 23 26" fill="none" xmlns="http://www.w3.org/2000/svg">
<path d="M6.07624 26C4.45938 25.9911 2.91198 25.3416 1.77306 24.1939C0.634145 23.0462 -0.00342261 21.4939 4.22981e-05 19.877V5.863C-0.00583968 4.31636 0.601953 2.83052 1.6901 1.73141C2.77826 0.632289 4.25792 0.00962742 5.80454 0L12.6776 0C12.8353 0.00103137 12.9862 0.064573 13.0971 0.176683C13.2079 0.288793 13.2698 0.440314 13.2691 0.598V4.784C13.2694 5.9283 13.7213 7.02625 14.5265 7.83927C15.3318 8.65229 16.4253 9.1147 17.5695 9.126C18.1194 9.126 18.6017 9.126 19.0281 9.1338C19.3622 9.1338 19.6534 9.1338 19.9121 9.1338C20.0954 9.1338 20.332 9.1338 20.5894 9.1338C20.8871 9.1338 21.2212 9.1273 21.5202 9.1273C21.6745 9.12799 21.8221 9.18983 21.9308 9.29926C22.0395 9.40869 22.1004 9.55676 22.1 9.711V20.163C22.1059 21.703 21.5007 23.1824 20.4171 24.2767C19.3336 25.3709 17.8602 25.9907 16.3202 26H6.07624ZM6.08924 17.7333C6.09124 17.9897 6.19336 18.2352 6.37382 18.4173C6.55427 18.5995 6.79877 18.7039 7.05514 18.7083H14.0569C14.3133 18.7039 14.5578 18.5995 14.7383 18.4173C14.9187 18.2352 15.0208 17.9897 15.0228 17.7333C15.0227 17.6066 14.9976 17.4812 14.9489 17.3643C14.9003 17.2473 14.8291 17.1411 14.7394 17.0516C14.6497 16.9622 14.5433 16.8912 14.4262 16.8429C14.3091 16.7946 14.1836 16.7698 14.0569 16.77H7.05384C6.79846 16.77 6.55351 16.8713 6.37268 17.0516C6.19186 17.2319 6.08993 17.4766 6.08924 17.732V17.7333ZM6.08924 11.2463C6.08993 11.5019 6.19204 11.7468 6.37314 11.9272C6.55425 12.1075 6.79954 12.2086 7.05514 12.2083H11.4036C11.6592 12.2086 11.9045 12.1075 12.0856 11.9272C12.2667 11.7468 12.3689 11.5019 12.3695 11.2463C12.3675 10.9899 12.2654 10.7444 12.085 10.5623C11.9045 10.3801 11.66 10.2757 11.4036 10.2713H7.05384C6.79792 10.276 6.55394 10.3804 6.3738 10.5623C6.19366 10.7441 6.09157 10.989 6.08924 11.245V11.2463ZM17.7424 7.228C17.051 7.22183 16.3899 6.9429 15.903 6.45186C15.4161 5.96083 15.1428 5.29741 15.1424 4.6059V1.1778C15.1408 1.05446 15.1763 0.933484 15.2443 0.830586C15.3124 0.727687 15.4098 0.647625 15.5239 0.600801C15.638 0.553977 15.7635 0.542556 15.8842 0.568022C16.0049 0.593488 16.1152 0.654663 16.2006 0.7436L21.3824 6.1867C21.4657 6.27414 21.5217 6.38401 21.5435 6.50281C21.5652 6.62161 21.5518 6.74417 21.5048 6.85545C21.4579 6.96673 21.3795 7.06188 21.2792 7.12922C21.179 7.19655 21.0612 7.23314 20.9404 7.2345H20.0421C19.2309 7.2371 18.3937 7.2332 17.7424 7.2267V7.228Z" fill="white"/>
</svg>
