<svg width="22" height="22" viewBox="0 0 22 22" fill="none" xmlns="http://www.w3.org/2000/svg">
<g clip-path="url(#clip0)">
<path d="M18.8275 0.565217C18.493 0.411133 18.099 0.471092 17.8254 0.717585L16.3821 1.99555C16.3428 2.0305 16.2836 2.03029 16.2445 1.99514L14.2807 0.238692C13.9255 -0.0795641 13.3878 -0.0795641 13.0326 0.238692L11.0706 1.99352C11.0311 2.02878 10.9715 2.02878 10.932 1.99352L8.96973 0.238692C8.61455 -0.0795121 8.07684 -0.0795121 7.72166 0.238692L5.75757 1.99514C5.71826 2.03029 5.65887 2.03045 5.61935 1.9955L4.17471 0.717585C3.79145 0.37676 3.20445 0.411133 2.86362 0.794393C2.71079 0.966262 2.62717 1.18873 2.62893 1.41869V20.5814C2.6255 21.0951 3.03913 21.5142 3.55281 21.5177C3.78293 21.5192 4.00539 21.4354 4.17731 21.2825L5.62065 20.0045C5.65991 19.9696 5.71914 19.9698 5.7582 20.0049L7.72203 21.7614C8.0772 22.0796 8.61491 22.0796 8.97009 21.7614L10.9324 20.0065C10.9718 19.9713 11.0315 19.9713 11.0709 20.0065L13.0332 21.7613C13.3884 22.0794 13.9261 22.0794 14.2813 21.7613L16.2455 20.0049C16.2848 19.9697 16.3442 19.9696 16.3837 20.0045L17.8283 21.2824C18.2117 21.6231 18.7987 21.5885 19.1394 21.205C19.2919 21.0333 19.3755 20.8111 19.3738 20.5814V1.41869C19.3787 1.05056 19.1638 0.714881 18.8275 0.565217ZM6.07188 7.46384H11.2506C11.4804 7.46384 11.6666 7.65012 11.6666 7.87986C11.6666 8.10961 11.4804 8.29589 11.2506 8.29589H6.07188C5.84213 8.29589 5.65585 8.10961 5.65585 7.87986C5.65585 7.65012 5.84213 7.46384 6.07188 7.46384ZM15.9309 14.5362H6.07188C5.84213 14.5362 5.65585 14.3499 5.65585 14.1202C5.65585 13.8904 5.84213 13.7042 6.07188 13.7042H15.9309C16.1606 13.7042 16.3469 13.8904 16.3469 14.1202C16.3469 14.3499 16.1606 14.5362 15.9309 14.5362ZM15.9309 11.416H6.07188C5.84213 11.416 5.65585 11.2298 5.65585 11C5.65585 10.7703 5.84213 10.584 6.07188 10.584H15.9309C16.1606 10.584 16.3469 10.7703 16.3469 11C16.3469 11.2298 16.1606 11.416 15.9309 11.416Z" fill="white"/>
</g>
<defs>
<clipPath id="clip0">
<rect width="22" height="22" fill="white"/>
</clipPath>
</defs>
</svg>
