<svg width="18" height="30" viewBox="0 0 18 30" fill="none" xmlns="http://www.w3.org/2000/svg">
<path d="M5.375 2.1625H12.625C12.9011 2.1625 13.125 1.93863 13.125 1.6625V0.375C13.125 0.167875 12.9571 0 12.75 0H5.25C5.04287 0 4.875 0.167875 4.875 0.375V1.6625C4.875 1.93863 5.09887 2.1625 5.375 2.1625Z" fill="white"/>
<path d="M0.625 27.8749V27.9999C0.625 29.1045 1.52044 29.9999 2.625 29.9999H15.375C16.4796 29.9999 17.375 29.1045 17.375 27.9999V27.8749C17.375 27.6678 17.2071 27.4999 17 27.4999H1C0.792875 27.4999 0.625 27.6678 0.625 27.8749Z" fill="white"/>
<path d="M11.9375 17.9375H13V19H11.9375V17.9375Z" fill="white"/>
<path d="M17.375 26.125V2C17.375 0.895437 16.4796 0 15.375 0H14.5C14.2929 0 14.125 0.167875 14.125 0.375V1.6625C14.125 2.49094 13.4534 3.1625 12.625 3.1625H5.375C4.54656 3.1625 3.875 2.49094 3.875 1.6625V0.375C3.875 0.167875 3.70713 0 3.5 0H2.625C1.52044 0 0.625 0.895437 0.625 2V26.125C0.625 26.3321 0.792875 26.5 1 26.5H17C17.2071 26.5 17.375 26.3321 17.375 26.125ZM9.5 19.5C9.5 19.7761 9.27613 20 9 20C8.72388 20 8.5 19.7761 8.5 19.5V17.9375H6.875C6.59888 17.9375 6.375 17.7136 6.375 17.4375C6.375 17.1614 6.59888 16.9375 6.875 16.9375H9C9.27613 16.9375 9.5 17.1614 9.5 17.4375V19.5ZM14 19.5C14 19.7761 13.7761 20 13.5 20H11.4375C11.1614 20 10.9375 19.7761 10.9375 19.5V17.4375C10.9375 17.1614 11.1614 16.9375 11.4375 16.9375H13.5C13.7761 16.9375 14 17.1614 14 17.4375V19.5ZM11.4375 10H13.5C13.7761 10 14 10.2239 14 10.5V12.5625C14 12.8386 13.7761 13.0625 13.5 13.0625C13.2239 13.0625 13 12.8386 13 12.5625V11H11.4375C11.1614 11 10.9375 10.7761 10.9375 10.5C10.9375 10.2239 11.1614 10 11.4375 10ZM8.5 10.5C8.5 10.2239 8.72388 10 9 10C9.27613 10 9.5 10.2239 9.5 10.5V12.3125H11.25C11.5261 12.3125 11.75 12.5364 11.75 12.8125C11.75 13.0886 11.5261 13.3125 11.25 13.3125H9C8.72388 13.3125 8.5 13.0886 8.5 12.8125V10.5ZM9 14.5H13.5C13.7761 14.5 14 14.7239 14 15C14 15.2761 13.7761 15.5 13.5 15.5H9C8.72388 15.5 8.5 15.2761 8.5 15C8.5 14.7239 8.72388 14.5 9 14.5ZM4 10.5C4 10.2239 4.22388 10 4.5 10H6.5625C6.83863 10 7.0625 10.2239 7.0625 10.5C7.0625 10.7761 6.83863 11 6.5625 11H5V12.5625C5 12.8386 4.77613 13.0625 4.5 13.0625C4.22388 13.0625 4 12.8386 4 12.5625V10.5ZM4.5 14.5H6.4395C6.71563 14.5 6.9395 14.7239 6.9395 15C6.9395 15.2761 6.71563 15.5 6.4395 15.5H4.5C4.22388 15.5 4 15.2761 4 15C4 14.7239 4.22388 14.5 4.5 14.5ZM4 17.4375C4 17.1614 4.22388 16.9375 4.5 16.9375C4.77613 16.9375 5 17.1614 5 17.4375V19H6.5625C6.83863 19 7.0625 19.2239 7.0625 19.5C7.0625 19.7761 6.83863 20 6.5625 20H4.5C4.22388 20 4 19.7761 4 19.5V17.4375Z" fill="white"/>
</svg>
