<svg width="24" height="26" viewBox="0 0 24 26" fill="none" xmlns="http://www.w3.org/2000/svg">
<g clip-path="url(#clip0)">
<path d="M15.6859 16.6243C15.686 16.624 15.686 16.624 15.6855 16.6237C15.5381 16.4759 15.3413 16.3945 15.1323 16.3945C14.9232 16.3945 14.7264 16.4759 14.579 16.6237C14.4307 16.7721 14.3491 16.9687 14.3491 17.1777C14.3491 17.3867 14.4307 17.5833 14.5786 17.7311C14.8743 18.0279 15.3908 18.0274 15.6855 17.7316C15.8338 17.5833 15.9154 17.3867 15.9154 17.1777C15.9154 16.9687 15.8338 16.7721 15.6859 16.6243Z" fill="white"/>
<path d="M9.94332 7.75708C9.94332 7.7568 9.94332 7.7568 9.9428 7.75656C9.79547 7.60872 9.59865 7.52734 9.38958 7.52734C9.18052 7.52734 8.98374 7.60867 8.83637 7.75656C8.68801 7.90492 8.60645 8.10147 8.60645 8.31048C8.60645 8.51978 8.68805 8.71633 8.8359 8.86445C9.13163 9.16023 9.64758 9.16023 9.94332 8.8645C10.0912 8.71637 10.1728 8.51983 10.1728 8.31053C10.1728 8.10151 10.0912 7.90497 9.94332 7.75708Z" fill="white"/>
<path d="M20.4888 4.51062C15.8075 -0.170206 8.19147 -0.170206 3.51013 4.51062C-1.17069 9.19144 -1.17069 16.8077 3.51013 21.4888C5.85078 23.8292 8.92516 24.9996 11.9995 24.9996C15.0738 24.9996 18.1482 23.8292 20.4888 21.4888C25.1697 16.808 25.1697 9.19172 20.4888 4.51062ZM7.72788 6.64713C8.17094 6.20355 8.76138 5.95905 9.38898 5.95905C10.0166 5.95905 10.607 6.20355 11.0506 6.64759C11.4942 7.09117 11.7384 7.68109 11.7384 8.30846C11.7384 8.93607 11.4942 9.52599 11.0501 9.9698C10.6065 10.4136 10.0166 10.6579 9.38898 10.6579C8.76138 10.6579 8.17146 10.4137 7.72788 9.9698C7.28379 9.52594 7.03957 8.93607 7.03957 8.30846C7.03957 7.68086 7.28379 7.09098 7.72788 6.64713ZM8.12303 17.9836C7.97008 18.1365 7.76969 18.213 7.56935 18.213C7.36901 18.213 7.16857 18.1365 7.01566 17.9836C6.70966 17.6779 6.70966 17.1818 7.01562 16.8762L15.8759 8.01587C16.1818 7.70997 16.6775 7.70997 16.9834 8.01587C17.2893 8.32149 17.2893 8.81762 16.9834 9.12329L8.12303 17.9836ZM16.7931 18.8379C16.3501 19.2814 15.7596 19.5259 15.132 19.5259C14.5044 19.5259 13.914 19.2814 13.4704 18.8374C13.0268 18.3941 12.7826 17.8042 12.7826 17.1765C12.7826 16.5489 13.0268 15.959 13.4709 15.5152C13.914 15.0716 14.5044 14.8271 15.132 14.8271C15.7596 14.8271 16.3501 15.0716 16.7937 15.5157C17.2372 15.9592 17.4815 16.5492 17.4815 17.1765C17.4815 17.8041 17.2372 18.394 16.7931 18.8379Z" fill="white"/>
</g>
<defs>
<clipPath id="clip0">
<rect width="24" height="24" fill="white" transform="translate(0 1)"/>
</clipPath>
</defs>
</svg>
