<svg width="23" height="23" viewBox="0 0 23 23" fill="none" xmlns="http://www.w3.org/2000/svg">
<g clip-path="url(#clip0)">
<path d="M22.1598 7.17375C21.5993 5.78666 20.7569 4.48617 19.6353 3.36474C18.5138 2.24317 17.2133 1.40066 15.8262 0.840174C14.439 0.279504 12.9652 0 11.492 0C10.0209 0 8.54976 0.280717 7.16535 0.842016C5.78113 1.40309 4.48374 2.24546 3.36465 3.36474C2.24542 4.48379 1.403 5.78118 0.841926 7.16544C0.280717 8.54976 0 10.0209 0 11.492C0 12.9651 0.279504 14.4389 0.840084 15.8262C1.40057 17.2133 2.24304 18.5139 3.36465 19.6353C4.48608 20.7569 5.78657 21.5994 7.17366 22.1599C8.56094 22.7205 10.0347 23 11.5079 23C12.979 23 14.4502 22.7192 15.8346 22.158C17.2188 21.5969 18.5162 20.7545 19.6353 19.6353C20.7545 18.5162 21.597 17.2188 22.158 15.8346C22.7193 14.4502 23 12.9791 23 11.5079C23 10.0348 22.7205 8.56099 22.1598 7.17375ZM20.7365 15.2582C20.2503 16.4569 19.5227 17.5784 18.5506 18.5506C17.5783 19.5227 16.4569 20.2503 15.2582 20.7365C14.0597 21.2224 12.784 21.4661 11.508 21.4661C10.2287 21.4661 8.94979 21.2232 7.74853 20.7377C6.54714 20.2519 5.42337 19.5245 4.44942 18.5507C3.47556 17.5767 2.74805 16.453 2.2624 15.2515C1.77688 14.0503 1.53404 12.7713 1.53408 11.492C1.53408 10.216 1.77774 8.94031 2.26366 7.74184C2.74976 6.54319 3.47736 5.42171 4.44951 4.44947C5.42176 3.47736 6.54323 2.74976 7.74193 2.26361C8.9404 1.77765 10.2161 1.53404 11.4922 1.53404C12.7714 1.53404 14.0504 1.77684 15.2516 2.2624C16.453 2.74814 17.5768 3.47561 18.5507 4.44942C19.5246 5.42342 20.252 6.54714 20.7377 7.74853C21.2233 8.94979 21.4661 10.2287 21.4661 11.508C21.4661 12.784 21.2225 14.0596 20.7365 15.2582Z" fill="white"/>
<path d="M16.2759 6.72371C15.9828 6.43064 15.5076 6.43064 15.2145 6.72371L6.72371 15.2145C6.43064 15.5076 6.43064 15.9828 6.72371 16.2759C7.01682 16.569 7.49196 16.569 7.78508 16.2759L16.2759 7.78503C16.569 7.49196 16.569 7.01673 16.2759 6.72371Z" fill="white"/>
<path d="M11.0847 6.15857C10.9748 5.88706 10.8086 5.63168 10.5902 5.41336C10.3719 5.1949 10.1165 5.02883 9.84498 4.91881C9.57329 4.80871 9.28557 4.75391 8.99811 4.75391C8.71066 4.75391 8.42293 4.80871 8.15124 4.91881C7.87974 5.02878 7.62436 5.1949 7.40604 5.41336C7.18758 5.63159 7.0215 5.88702 6.91149 6.15857C6.80139 6.43026 6.74658 6.71798 6.74658 7.00544C6.74658 7.29289 6.80139 7.58061 6.91149 7.8523C7.02146 8.12381 7.18763 8.37919 7.40604 8.59751C7.62431 8.81597 7.87969 8.98204 8.15124 9.09206C8.42293 9.20216 8.71066 9.25696 8.99811 9.25696C9.28557 9.25696 9.57329 9.20216 9.84498 9.09206C10.1165 8.98209 10.3719 8.81597 10.5902 8.59751C10.8086 8.37924 10.9747 8.12385 11.0847 7.8523C11.1948 7.58061 11.2496 7.29289 11.2496 7.00544C11.2496 6.71798 11.1949 6.43026 11.0847 6.15857ZM9.69373 7.28822C9.65716 7.37806 9.60348 7.4613 9.52882 7.53614C9.45402 7.6108 9.37078 7.66448 9.28094 7.70105C9.19123 7.73748 9.09483 7.75594 8.99816 7.75594C8.90144 7.75594 8.80508 7.73744 8.71537 7.70105C8.62553 7.66448 8.54229 7.6108 8.46749 7.53614C8.39283 7.46135 8.33915 7.37811 8.30259 7.28826C8.26615 7.19855 8.24769 7.10215 8.24769 7.00548C8.24765 6.90876 8.26615 6.81236 8.30254 6.72265C8.33911 6.63281 8.39279 6.54957 8.46745 6.47477C8.54229 6.40011 8.62548 6.34639 8.71537 6.30986C8.80508 6.27343 8.90148 6.25497 8.99816 6.25497C9.09487 6.25497 9.19123 6.27348 9.28094 6.30986C9.37078 6.34643 9.45402 6.40011 9.52882 6.47477C9.60348 6.54957 9.65716 6.63281 9.69373 6.72265C9.73016 6.81236 9.74862 6.90876 9.74862 7.00544C9.74862 7.10211 9.73011 7.19851 9.69373 7.28822Z" fill="white"/>
<path d="M16.5881 14.6547C16.4782 14.3832 16.312 14.1278 16.0936 13.9095C15.8754 13.691 15.6199 13.5249 15.3484 13.4149C15.0767 13.3048 14.789 13.25 14.5015 13.25C14.2141 13.25 13.9263 13.3048 13.6547 13.4149C13.3832 13.5249 13.1278 13.691 12.9095 13.9095C12.691 14.1277 12.5249 14.3831 12.4149 14.6547C12.3048 14.9264 12.25 15.2141 12.25 15.5015C12.25 15.789 12.3048 16.0767 12.4149 16.3484C12.5249 16.6199 12.691 16.8753 12.9095 17.0936C13.1277 17.3121 13.3831 17.4781 13.6547 17.5882C13.9263 17.6983 14.2141 17.7531 14.5015 17.7531C14.789 17.7531 15.0767 17.6983 15.3484 17.5882C15.6199 17.4782 15.8753 17.3121 16.0936 17.0936C16.3121 16.8753 16.4781 16.6199 16.5881 16.3484C16.6983 16.0767 16.7531 15.789 16.7531 15.5015C16.7531 15.2141 16.6983 14.9264 16.5881 14.6547ZM15.1972 15.7842C15.1606 15.8741 15.1069 15.9573 15.0323 16.0321C14.9575 16.1068 14.8742 16.1604 14.7844 16.197C14.6947 16.2334 14.5983 16.2519 14.5016 16.2519C14.4049 16.2519 14.3085 16.2334 14.2188 16.197C14.129 16.1604 14.0458 16.1068 13.971 16.0321C13.8963 15.9573 13.8426 15.8741 13.806 15.7842C13.7696 15.6945 13.7511 15.5981 13.7512 15.5014C13.7512 15.4047 13.7697 15.3084 13.806 15.2187C13.8426 15.1288 13.8963 15.0456 13.971 14.9708C14.0458 14.8961 14.129 14.8424 14.2189 14.8059C14.3086 14.7694 14.405 14.751 14.5017 14.751C14.5984 14.751 14.6947 14.7695 14.7844 14.8059C14.8742 14.8424 14.9574 14.8961 15.0323 14.9708C15.1069 15.0456 15.1606 15.1288 15.1972 15.2187C15.2336 15.3084 15.2521 15.4048 15.2521 15.5014C15.2521 15.5982 15.2336 15.6946 15.1972 15.7842Z" fill="white"/>
</g>
<defs>
<clipPath id="clip0">
<rect width="23" height="23" fill="white"/>
</clipPath>
</defs>
</svg>
