<svg width="24" height="24" viewBox="0 0 24 24" fill="none" xmlns="http://www.w3.org/2000/svg">
<path d="M13.4531 0C13.0645 0 12.75 0.314484 12.75 0.703125V10.5938C12.75 10.9824 13.0645 11.2969 13.4531 11.2969H23.2969C23.6855 11.2969 24 10.9824 24 10.5938C24 4.77787 19.269 0 13.4531 0Z" fill="white"/>
<path d="M14.7557 22.4235L11.3438 13.2785V3.5625C11.3438 3.17386 11.0293 2.85938 10.6406 2.85938C4.82475 2.85938 0 7.59037 0 13.4062C0 19.2221 4.82475 24 10.6406 24C11.9137 24 13.1599 23.7741 14.3444 23.3291C14.7076 23.1925 14.8917 22.7873 14.7557 22.4235Z" fill="white"/>
<path d="M23.297 12.7031H13.4533C13.2225 12.7031 13.007 12.8164 12.8751 13.0059C12.744 13.1955 12.7138 13.4371 12.7948 13.6534L16.2513 22.9178C16.3172 23.0923 16.4491 23.2337 16.6194 23.3106C16.7898 23.3881 16.9818 23.3947 17.1577 23.3285C21.2501 21.7883 24.0002 17.7733 24.0002 13.4063C24.0002 13.0176 23.6857 12.7031 23.297 12.7031Z" fill="white"/>
</svg>
