<svg width="18" height="24" viewBox="0 0 18 24" fill="none" xmlns="http://www.w3.org/2000/svg">
<path d="M9 0C4.16188 0 0.22583 4.00679 0.22583 8.93181C0.22583 11.6867 1.61915 15.0304 4.3672 18.8701C6.37823 21.6802 8.35992 23.6843 8.44332 23.7683C8.5966 23.9226 8.79825 24 9.00014 24C9.19618 24 9.39235 23.927 9.54441 23.7805C9.62799 23.7 11.6147 21.777 13.6295 19.0058C16.3798 15.2229 17.7743 11.8336 17.7743 8.93177C17.7742 4.00679 13.838 0 9 0ZM9 12.7878C6.63469 12.7878 4.71042 10.8635 4.71042 8.49822C4.71042 6.13295 6.63473 4.20863 9 4.20863C11.3653 4.20863 13.2896 6.13295 13.2896 8.49822C13.2896 10.8635 11.3652 12.7878 9 12.7878Z" fill="#936EE3"/>
</svg>
