<svg width="23" height="23" viewBox="0 0 23 23" fill="none" xmlns="http://www.w3.org/2000/svg">
<path d="M7.74738 20.954C7.16353 20.9554 6.58527 20.8401 6.04657 20.6149C5.50787 20.3898 5.01958 20.0593 4.61036 19.6428C4.20114 19.2264 3.87925 18.7324 3.66356 18.1898C3.44788 17.6473 3.34277 17.0671 3.35438 16.4833V6.22055C3.35592 5.6536 3.47208 5.0928 3.69589 4.57189C3.91971 4.05098 4.24654 3.58071 4.65676 3.18934C5.48223 2.3807 6.59183 1.92791 7.74738 1.92818H13.7446C13.8286 1.91326 13.9146 1.91326 13.9986 1.92818H14.1232C14.2199 1.92838 14.3157 1.94799 14.4047 1.98585C14.4938 2.02371 14.5743 2.07905 14.6416 2.14859L19.4946 7.20476C19.6235 7.33871 19.6956 7.51725 19.6959 7.70309V16.4833C19.7033 17.6403 19.2588 18.7545 18.4572 19.5888C17.6555 20.423 16.5599 20.9115 15.4035 20.9501L7.74738 20.954ZM7.74738 3.36568C6.97987 3.36257 6.24147 3.65923 5.68943 4.19246C5.1374 4.7257 4.81535 5.45339 4.79188 6.22055V16.4833C4.7824 17.2852 5.08797 18.0588 5.64288 18.6377C5.91721 18.9181 6.24538 19.1401 6.60769 19.2905C6.97 19.4408 7.35896 19.5164 7.75122 19.5126H15.4073C15.7853 19.5057 16.1579 19.4217 16.5023 19.2658C16.8466 19.1099 17.1556 18.8854 17.4103 18.606C17.9516 18.0311 18.2559 17.273 18.2622 16.4833V8.60872H17.4237H16.335C15.5225 8.60683 14.7414 8.2945 14.1515 7.73566C13.5617 7.17681 13.2077 6.41368 13.162 5.60243L13.1572 5.42226V3.36472L7.74738 3.36568ZM14.5908 5.42322C14.5908 5.88615 14.7745 6.33018 15.1015 6.65789C15.4284 6.98559 15.8721 7.1702 16.335 7.17122H17.4706L14.5899 4.17163L14.5908 5.42322ZM8.51692 15.6275C8.33498 15.627 8.16001 15.5575 8.02731 15.433C7.89461 15.3085 7.81405 15.1384 7.8019 14.9568C7.78974 14.7753 7.84688 14.5959 7.96179 14.4548C8.07671 14.3138 8.24084 14.2216 8.42109 14.1968L8.51692 14.191H13.6919C13.8739 14.1915 14.0488 14.2611 14.1815 14.3855C14.3142 14.51 14.3948 14.6802 14.407 14.8617C14.4191 15.0433 14.362 15.2227 14.2471 15.3637C14.1321 15.5048 13.968 15.597 13.7878 15.6218L13.6919 15.6275H8.51692ZM8.51692 10.8819C8.33498 10.8813 8.16001 10.8118 8.02731 10.6874C7.89461 10.5629 7.81405 10.3927 7.8019 10.2112C7.78974 10.0296 7.84688 9.85024 7.96179 9.70918C8.07671 9.56812 8.24084 9.47589 8.42109 9.45109L8.51692 9.44438H11.7331C11.915 9.44492 12.09 9.51444 12.2227 9.63891C12.3554 9.76339 12.436 9.93356 12.4481 10.1151C12.4603 10.2966 12.4031 10.476 12.2882 10.6171C12.1733 10.7581 12.0092 10.8504 11.8289 10.8752L11.7331 10.8819H8.51692Z" fill="#936EE3"/>
</svg>
