<svg width="22" height="22" viewBox="0 0 22 22" fill="none" xmlns="http://www.w3.org/2000/svg">
<path d="M10.4148 10.7147L9.44328 12.6833L7.27067 12.9991C7.02779 13.0343 6.82604 13.2043 6.75034 13.4376C6.67447 13.6709 6.73775 13.9271 6.91332 14.0984L8.48537 15.6307L8.11427 17.7946C8.07281 18.0365 8.17217 18.2809 8.37074 18.425C8.56913 18.5692 8.83231 18.5883 9.04951 18.4742L10.9927 17.4525L12.9358 18.4742C13.0302 18.5237 13.1332 18.5482 13.2358 18.5482C13.2365 18.5482 13.237 18.5482 13.2376 18.5482C13.5931 18.5477 13.8812 18.2594 13.8812 17.9037C13.8812 17.8542 13.8756 17.806 13.865 17.7597L13.5 15.6307L15.072 14.0984C15.2478 13.9271 15.311 13.6709 15.2352 13.4376C15.1593 13.2043 14.9576 13.0343 14.7148 12.9991L12.5422 12.6835L11.5707 10.7147C11.4621 10.4948 11.2381 10.3555 10.9928 10.3555C10.7474 10.3555 10.5234 10.4948 10.4148 10.7147ZM11.5363 13.5578C11.6302 13.748 11.8118 13.8799 12.0216 13.9103L13.2371 14.0869L12.3576 14.9442C12.2057 15.0923 12.1364 15.3056 12.1721 15.5147L12.3799 16.7254L11.2928 16.1537C11.105 16.0552 10.8806 16.055 10.6929 16.1537L9.60559 16.7254L9.81338 15.5147C9.84913 15.3056 9.77981 15.0923 9.62791 14.9442L8.74839 14.0869L9.96394 13.9103C10.1739 13.8799 10.3554 13.748 10.4492 13.5578L10.9928 12.4564L11.5363 13.5578Z" fill="#936EE3"/>
<path d="M17.5499 3.45193H14.8257C14.9929 3.12732 15.0879 2.7599 15.0879 2.3705C15.0879 1.06331 14.0244 0 12.7174 0C12.0376 0 11.4241 0.288025 10.9914 0.748093C10.5589 0.288025 9.94542 0 9.26564 0C7.95845 0 6.89514 1.06331 6.89514 2.3705C6.89514 2.7599 6.99014 3.12732 7.15732 3.45193H4.433C3.12581 3.45193 2.0625 4.51524 2.0625 5.82227V7.54807C2.0625 7.90407 2.35103 8.1926 2.70703 8.1926H2.75285V19.6295C2.75285 20.9367 3.81616 22 5.12335 22H16.8595C18.1665 22 19.23 20.9367 19.23 19.6295V8.1926H19.2758C19.6319 8.1926 19.9204 7.90407 19.9204 7.54807V5.82227C19.9204 4.51524 18.8571 3.45193 17.5499 3.45193ZM18.6313 5.82227V6.90353H11.636V4.741H17.5499C18.1462 4.741 18.6313 5.22607 18.6313 5.82227ZM12.7174 1.28906C13.3136 1.28906 13.7988 1.77414 13.7988 2.3705C13.7988 2.96686 13.3136 3.45193 12.7174 3.45193H11.636V2.3705C11.636 1.77414 12.121 1.28906 12.7174 1.28906ZM8.1842 2.3705C8.1842 1.77414 8.66928 1.28906 9.26564 1.28906C9.86183 1.28906 10.3469 1.77414 10.3469 2.3705V3.45193H9.26564C8.66928 3.45193 8.1842 2.96686 8.1842 2.3705ZM3.35156 5.82227C3.35156 5.22607 3.83664 4.741 4.433 4.741H10.3469V6.90353H3.35156V5.82227ZM17.941 19.6295C17.941 20.2259 17.4557 20.7109 16.8595 20.7109H5.12335C4.52716 20.7109 4.04192 20.2259 4.04192 19.6295V8.1926H17.941V19.6295Z" fill="#936EE3"/>
</svg>
