<svg width="20" height="20" viewBox="0 0 20 20" fill="none" xmlns="http://www.w3.org/2000/svg">
<g clip-path="url(#clip0)">
<path d="M19.4137 7.78944H17.5615C17.4343 7.37288 17.2728 6.96776 17.0786 6.57805L18.5316 5.125C18.6415 5.01505 18.7033 4.86595 18.7033 4.71047C18.7033 4.55495 18.6416 4.40588 18.5316 4.29593L15.9462 1.71052C15.7173 1.48156 15.346 1.48156 15.1171 1.71052L13.7099 3.11761C13.3143 2.90682 12.9015 2.73036 12.4759 2.58993V0.592618C12.4759 0.268841 12.2134 0.00634766 11.8896 0.00634766H8.23331C7.90953 0.00634766 7.64704 0.268841 7.64704 0.592618V2.54736C7.20116 2.68572 6.7685 2.8636 6.35349 3.07911L5.08695 1.81257C4.85803 1.58361 4.48681 1.58365 4.25785 1.81257L1.67247 4.39794C1.44352 4.62686 1.44352 4.99809 1.67247 5.22705L2.94875 6.50336C2.73706 6.9166 2.56267 7.34677 2.42732 7.78944H0.586271C0.262493 7.78944 0 8.05194 0 8.37571V12.032C0 12.3558 0.262493 12.6183 0.586271 12.6183H2.49118C2.62981 13.0324 2.80265 13.4341 3.008 13.8196L1.64695 15.1806C1.53701 15.2906 1.47521 15.4397 1.47521 15.5952C1.47521 15.7507 1.53697 15.8998 1.64695 16.0097L4.23233 18.5951C4.46125 18.8241 4.83247 18.8241 5.06143 18.5951L6.46832 17.1882C6.82489 17.366 7.19413 17.5164 7.57282 17.6381V19.4073C7.57282 19.731 7.83531 19.9935 8.15909 19.9935H11.8154C12.1392 19.9935 12.4017 19.731 12.4017 19.4073V17.6426C12.8119 17.5116 13.2111 17.3469 13.5954 17.15L15.0533 18.6079C15.2822 18.8368 15.6534 18.8368 15.8824 18.6079L18.4678 16.0225C18.5778 15.9125 18.6396 15.7634 18.6396 15.6079C18.6396 15.4524 18.5778 15.3033 18.4678 15.1934L17.0196 13.7452C17.208 13.3823 17.3678 13.0055 17.4976 12.6182H19.4137C19.7375 12.6182 20 12.3557 20 12.032V8.37567C20 8.05194 19.7375 7.78944 19.4137 7.78944ZM18.8275 11.4457H17.0629C16.7984 11.4457 16.5667 11.6228 16.4972 11.8781C16.338 12.4633 16.0995 13.0248 15.7885 13.5469C15.6512 13.7775 15.6879 14.0718 15.8777 14.2615L17.2241 15.6079L15.4678 17.3642L14.1135 16.01C13.9247 15.8212 13.6322 15.7838 13.4021 15.919C12.8592 16.2378 12.2765 16.4782 11.67 16.6333C11.4105 16.6997 11.2291 16.9335 11.2291 17.2013V18.8209H8.74532V17.1976C8.74532 16.9303 8.5644 16.6968 8.3055 16.63C7.72802 16.481 7.17177 16.2547 6.6523 15.9574C6.42275 15.826 6.1336 15.8647 5.94654 16.0518L4.64682 17.3514L2.89051 15.5952L4.15342 14.3323C4.34489 14.1409 4.38034 13.8432 4.23913 13.6121C3.90914 13.072 3.65755 12.4885 3.49144 11.8781C3.42202 11.6228 3.19025 11.4457 2.92573 11.4457H1.17254V8.96194H2.87452C3.14523 8.96194 3.38071 8.7766 3.44438 8.51349C3.59845 7.87637 3.8459 7.26508 4.17976 6.69663C4.31499 6.46642 4.27759 6.17395 4.08881 5.98517L2.91611 4.81248L4.67242 3.05621L5.83726 4.22101C6.02698 4.41076 6.32125 4.44746 6.55181 4.31016C7.12034 3.97153 7.73334 3.71971 8.37382 3.56165C8.63561 3.49704 8.81958 3.26214 8.81958 2.99246V1.17889H11.3033V3.02666C11.3033 3.29216 11.4818 3.52456 11.7383 3.59307C12.3598 3.75911 12.9533 4.01339 13.5025 4.34889C13.7335 4.49003 14.0312 4.45462 14.2227 4.26314L15.5316 2.95419L17.288 4.71047L15.9421 6.05631C15.755 6.24337 15.7164 6.53248 15.8478 6.76206C16.1615 7.31015 16.3958 7.89947 16.5444 8.51356C16.6081 8.77664 16.8436 8.96198 17.1143 8.96198H18.8275V11.4457Z" fill="#936EE3"/>
<path d="M5.56486 9.24014C5.68528 9.42872 5.94254 9.56008 6.20089 9.49063L7.23929 9.2283C7.55322 9.14899 7.74341 8.83022 7.6641 8.51629C7.59602 8.24676 7.35123 8.06893 7.08475 8.07412C7.71957 7.12929 8.79823 6.52703 9.98066 6.52703C11.5003 6.52703 12.8336 7.49805 13.2985 8.94325C13.3976 9.25147 13.7277 9.42106 14.0361 9.32186C14.3444 9.22271 14.5139 8.89248 14.4147 8.58426C13.7934 6.65246 12.0115 5.35449 9.9807 5.35449C8.29923 5.35449 6.77403 6.26571 5.95415 7.67089C5.77025 7.43822 5.43659 7.37748 5.18054 7.53987C4.9071 7.71329 4.82604 8.07557 4.99946 8.34897L5.5622 9.23623C5.56306 9.23756 5.564 9.23881 5.56486 9.24014Z" fill="#936EE3"/>
<path d="M14.443 10.7721C14.3232 10.5808 14.0718 10.4362 13.7988 10.5089L12.7604 10.7712C12.4465 10.8505 12.2563 11.1693 12.3356 11.4832C12.4027 11.7489 12.6414 11.926 12.9035 11.926C12.9073 11.926 12.911 11.9258 12.9147 11.9257C12.2799 12.8704 11.2013 13.4725 10.019 13.4725C8.4994 13.4725 7.1661 12.5014 6.70119 11.0562C6.60203 10.748 6.27176 10.5784 5.96354 10.6777C5.65532 10.7768 5.48581 11.107 5.58496 11.4153C6.20633 13.3471 7.98825 14.645 10.019 14.645C11.7004 14.645 13.2256 13.7338 14.0455 12.3287C14.2294 12.5614 14.5631 12.6221 14.8191 12.4597C15.0926 12.2862 15.1736 11.924 15.0002 11.6506L14.443 10.7721Z" fill="#936EE3"/>
</g>
<defs>
<clipPath id="clip0">
<rect width="20" height="20" fill="white"/>
</clipPath>
</defs>
</svg>
