<svg width="110" height="110" viewBox="0 0 110 110" fill="none" xmlns="http://www.w3.org/2000/svg">
<path d="M12.8906 36.5234H23.6328C30.7407 36.5234 36.5234 30.7407 36.5234 23.6328V12.8906C36.5234 5.78273 30.7407 0 23.6328 0H12.8906C5.78273 0 0 5.78273 0 12.8906V23.6328C0 30.7407 5.78273 36.5234 12.8906 36.5234ZM8.59375 12.8906C8.59375 10.5213 10.5213 8.59375 12.8906 8.59375H23.6328C26.0021 8.59375 27.9297 10.5213 27.9297 12.8906V23.6328C27.9297 26.0021 26.0021 27.9297 23.6328 27.9297H12.8906C10.5213 27.9297 8.59375 26.0021 8.59375 23.6328V12.8906Z" fill="#363853"/>
<path d="M94.5312 76.2695H85.9375V84.8633H94.5312V76.2695Z" fill="#363853"/>
<path d="M110 76.2695H101.406V93.457H110V76.2695Z" fill="#363853"/>
<path d="M85.9375 84.8633H77.3438V93.457H85.9375V84.8633Z" fill="#363853"/>
<path d="M60.1562 110V101.406H68.5352V110H77.1289V101.406H68.75V92.8125H51.5625V110H60.1562Z" fill="#363853"/>
<path d="M94.5312 110V102.051H101.406V93.457H85.9375V110H94.5312Z" fill="#363853"/>
<path d="M22.5586 13.9648H13.9648V22.5586H22.5586V13.9648Z" fill="#363853"/>
<path d="M22.5586 87.4414H13.9648V96.0352H22.5586V87.4414Z" fill="#363853"/>
<path d="M51.5625 76.4844H42.9688V92.8125H51.5625V76.4844Z" fill="#363853"/>
<path d="M77.3438 59.5117H68.75V68.1055H77.3438V59.5117Z" fill="#363853"/>
<path d="M23.6328 73.4766H12.8906C5.78273 73.4766 0 79.2593 0 86.3672V97.1094C0 104.217 5.78273 110 12.8906 110H23.6328C30.7407 110 36.5234 104.217 36.5234 97.1094V86.3672C36.5234 79.2593 30.7407 73.4766 23.6328 73.4766ZM27.9297 97.1094C27.9297 99.4787 26.0021 101.406 23.6328 101.406H12.8906C10.5213 101.406 8.59375 99.4787 8.59375 97.1094V86.3672C8.59375 83.9979 10.5213 82.0703 12.8906 82.0703H23.6328C26.0021 82.0703 27.9297 83.9979 27.9297 86.3672V97.1094Z" fill="#363853"/>
<path d="M51.5625 25.1367V33.7305H42.9688V42.3242H60.1562V25.1367H51.5625Z" fill="#363853"/>
<path d="M60.1562 0H51.5625V8.59375H60.1562V0Z" fill="#363853"/>
<path d="M68.75 16.543H60.1562V25.1367H68.75V16.543Z" fill="#363853"/>
<path d="M101.406 42.3242H85.7227V50.918H77.3438V59.5117H85.9375V67.8906H110V50.7031H101.406V42.3242ZM101.406 59.2969H85.9375V50.918H101.406V59.2969Z" fill="#363853"/>
<path d="M68.75 42.3242H60.1562V59.5117H68.75V42.3242Z" fill="#363853"/>
<path d="M97.1094 0H86.3672C79.2593 0 73.4766 5.78273 73.4766 12.8906V23.6328C73.4766 30.7407 79.2593 36.5234 86.3672 36.5234H97.1094C104.217 36.5234 110 30.7407 110 23.6328V12.8906C110 5.78273 104.217 0 97.1094 0ZM101.406 23.6328C101.406 26.0021 99.4787 27.9297 97.1094 27.9297H86.3672C83.9979 27.9297 82.0703 26.0021 82.0703 23.6328V12.8906C82.0703 10.5213 83.9979 8.59375 86.3672 8.59375H97.1094C99.4787 8.59375 101.406 10.5213 101.406 12.8906V23.6328Z" fill="#363853"/>
<path d="M96.0352 13.9648H87.4414V22.5586H96.0352V13.9648Z" fill="#363853"/>
<path d="M17.1875 42.3242H8.59375V50.918H17.1875V42.3242Z" fill="#363853"/>
<path d="M8.59375 50.918H0V68.1055H8.59375V50.918Z" fill="#363853"/>
<path d="M17.1875 59.5117H25.5664V68.1055H34.1602V59.5117H25.7812V50.918H17.1875V59.5117Z" fill="#363853"/>
<path d="M51.5625 8.59375H42.9688V25.1367H51.5625V8.59375Z" fill="#363853"/>
<path d="M51.5625 68.1055V76.4844H60.1562V84.8633H77.3438V76.2695H60.1562V67.8906H51.5625V50.918H42.9688V68.1055H51.5625Z" fill="#363853"/>
<path d="M42.9688 42.3242H25.7812V50.918H42.9688V42.3242Z" fill="#363853"/>
</svg>
