<svg width="19" height="13" viewBox="0 0 19 13" fill="none" xmlns="http://www.w3.org/2000/svg">
<path d="M0.115967 6.61327L6.05347 12.5508C6.16713 12.6637 6.33605 12.6981 6.48486 12.6366C6.63293 12.5755 6.72915 12.4309 6.72915 12.2709V11.4793C6.72915 11.3741 6.68741 11.2736 6.61319 11.1994L2.53887 7.12508L18.6042 7.12508C18.823 7.12504 19 6.94803 19 6.72924V5.93758C19 5.71879 18.823 5.54174 18.6042 5.54174L2.53887 5.54174L6.61319 1.46743C6.68741 1.39321 6.72915 1.29272 6.72915 1.18755V0.395893C6.72915 0.235841 6.63289 0.0912991 6.48486 0.0302172C6.43577 0.0097332 6.38437 4.76837e-05 6.33335 4.76837e-05C6.23052 4.76837e-05 6.12924 0.0402374 6.05347 0.116014L0.115967 6.05351C-0.0386677 6.20815 -0.0386677 6.45863 0.115967 6.61327Z" fill="#85BDB7"/>
</svg>
