<svg width="18" height="12" viewBox="0 0 18 12" fill="none" xmlns="http://www.w3.org/2000/svg">
<path d="M0.109873 6.26514L5.73487 11.8901C5.84255 11.9971 6.00258 12.0297 6.14356 11.9714C6.28383 11.9136 6.37499 11.7766 6.37499 11.625L6.37499 10.875C6.37499 10.7754 6.33544 10.6802 6.26513 10.6099L2.40526 6.75001L17.625 6.75001C17.8323 6.74998 18 6.58228 18 6.375L18 5.62502C18 5.41774 17.8323 5.25001 17.625 5.25001L2.40526 5.25001L6.26513 1.39014C6.33544 1.31983 6.37499 1.22463 6.37499 1.125L6.37499 0.37501C6.37499 0.223382 6.2838 0.0864487 6.14356 0.0285816C6.09705 0.0091753 6.04836 0 6.00002 0C5.9026 0 5.80666 0.0380745 5.73487 0.109863L0.109873 5.73485C-0.0366249 5.88134 -0.0366249 6.11865 0.109873 6.26514Z" fill="#FE5C4C"/>
</svg>
