<svg width="22" height="22" viewBox="0 0 22 22" fill="none" xmlns="http://www.w3.org/2000/svg">
<path d="M11 0C4.93455 0 0 4.93455 0 11C0 17.0655 4.93455 22 11 22C17.0654 22 21.9999 17.0655 21.9999 11C22 4.93455 17.0655 0 11 0ZM17.6372 13.4379C17.4242 13.7573 17.0776 13.948 16.7102 13.948C16.3427 13.948 15.9961 13.7573 15.7832 13.4379L14.4046 11.3705C14.1252 10.9516 14.2384 10.3856 14.6572 10.1063C14.9913 9.8835 15.4184 9.91103 15.7196 10.1434C15.311 7.81551 13.2759 6.04038 10.8327 6.04038C8.0961 6.04038 5.86973 8.26681 5.86973 11.0034C5.86973 13.7399 8.0961 15.9663 10.8327 15.9663C11.3362 15.9663 11.7443 16.3745 11.7443 16.8779C11.7443 17.3813 11.3362 17.7895 10.8327 17.7895C7.09079 17.7895 4.04653 14.7452 4.04653 11.0034C4.04653 7.2615 7.09079 4.2173 10.8327 4.2173C14.3229 4.2173 17.2057 6.86587 17.5778 10.2585C17.8753 9.92446 18.3803 9.85099 18.7631 10.1064C19.182 10.3857 19.2951 10.9517 19.0158 11.3706L17.6372 13.4379Z" fill="white"/>
</svg>
