<svg width="21" height="24" viewBox="0 0 21 24" fill="none" xmlns="http://www.w3.org/2000/svg">
<path d="M20.1406 6.17955C20.1283 5.53158 20.1165 4.91946 20.1165 4.32727C20.1165 3.86333 19.7405 3.48721 19.2765 3.48721C15.6838 3.48721 12.9485 2.45472 10.6684 0.237863C10.3423 -0.0793436 9.82322 -0.0792316 9.49717 0.237863C7.21736 2.45472 4.48246 3.48721 0.890034 3.48721C0.426098 3.48721 0.0499752 3.86333 0.0499752 4.32727C0.0499752 4.91957 0.0383263 5.53192 0.0258935 6.17999C-0.0892507 12.2101 -0.246957 20.4685 9.80766 23.9536C9.89681 23.9845 9.98978 24 10.0827 24C10.1757 24 10.2688 23.9845 10.3578 23.9536C20.4132 20.4684 20.2558 12.2097 20.1406 6.17955ZM10.0829 22.2685C1.45971 19.1359 1.59008 12.2738 1.70579 6.21203C1.71273 5.84823 1.71945 5.49563 1.72416 5.14997C5.08887 5.00794 7.77953 3.98833 10.0829 1.98183C12.3864 3.98833 15.0775 5.00806 18.4425 5.14997C18.4472 5.49551 18.4539 5.84789 18.4608 6.21147C18.5764 12.2734 18.7067 19.1358 10.0829 22.2685Z" fill="#363853"/>
</svg>
