<svg width="19" height="13" viewBox="0 0 19 13" fill="none" xmlns="http://www.w3.org/2000/svg">
<path d="M18.884 6.05348L12.9465 0.115981C12.8329 0.00309479 12.6639 -0.0313057 12.5151 0.0301474C12.3671 0.0912294 12.2708 0.235808 12.2708 0.395823V1.18748C12.2708 1.29261 12.3126 1.39314 12.3868 1.46736L16.4611 5.54167H0.395846C0.177049 5.5417 0 5.71872 0 5.93751V6.72917C0 6.94796 0.177049 7.12501 0.395846 7.12501H16.4611L12.3868 11.1993C12.3126 11.2735 12.2708 11.374 12.2708 11.4792V12.2709C12.2708 12.4309 12.3671 12.5754 12.5151 12.6365C12.5642 12.657 12.6156 12.6667 12.6667 12.6667C12.7695 12.6667 12.8708 12.6265 12.9465 12.5507L18.884 6.61324C19.0387 6.4586 19.0387 6.20811 18.884 6.05348Z" fill="#FD8080"/>
</svg>
