<svg width="18" height="18" viewBox="0 0 18 18" fill="none" xmlns="http://www.w3.org/2000/svg">
<path d="M7.47213 14.6541C7.24532 14.4273 6.87771 14.4273 6.6509 14.6541L5.12963 16.1754C4.90282 16.4019 4.90282 16.7698 5.12963 16.9963C5.35484 17.2222 5.72289 17.2243 5.95087 16.9963L7.47213 15.475C7.69895 15.2482 7.69895 14.8806 7.47213 14.6541ZM3.34562 10.5276C3.11917 10.3008 2.75156 10.3008 2.52474 10.5276L1.00348 12.0489C0.776665 12.2757 0.776665 12.6433 1.00348 12.8701C1.22992 13.0965 1.59696 13.0975 1.82435 12.8701L3.34562 11.3488C3.57243 11.1221 3.57243 10.7544 3.34562 10.5276ZM6.09675 11.903C5.86994 11.6762 5.50232 11.6766 5.27551 11.903L1.42008 15.7584C1.19327 15.9853 1.19327 16.3529 1.42008 16.5797C1.64682 16.8057 2.01371 16.8066 2.24132 16.5797L6.09675 12.7243C6.32356 12.4974 6.32356 12.1298 6.09675 11.903ZM17.9708 0.761323L12.4685 17.5998C12.313 18.0751 11.6671 18.1444 11.4147 17.7112L7.71455 11.3478C7.5977 11.1471 7.61185 10.8963 7.75011 10.7098L9.07868 8.92109L7.28996 10.2497C7.10343 10.3879 6.85267 10.4021 6.65199 10.2852L0.288567 6.58507C-0.143137 6.33398 -0.0767264 5.68723 0.399977 5.53122L17.2384 0.0289579C17.6885 -0.117907 18.1183 0.309369 17.9708 0.761323Z" fill="#936EE3"/>
</svg>
