<svg width="22" height="22" viewBox="0 0 22 22" fill="none" xmlns="http://www.w3.org/2000/svg">
<path d="M16.9246 13.5385C15.4269 13.5385 14.1187 14.3212 13.3673 15.4948L8.83704 12.9055C9.12895 12.3302 9.30919 11.6896 9.30919 11C9.30919 10.5744 9.2271 10.1716 9.11033 9.78406L13.8243 7.09074C14.5968 7.92846 15.6951 8.46154 16.9246 8.46154C19.2608 8.46154 21.1553 6.56698 21.1553 4.23077C21.1553 1.89456 19.2608 0 16.9246 0C14.5884 0 12.6938 1.89456 12.6938 4.23077C12.6938 4.6564 12.7759 5.05914 12.8926 5.44671L8.17873 8.14086C7.40618 7.30231 6.30787 6.76923 5.07842 6.76923C2.74221 6.76923 0.847656 8.66292 0.847656 11C0.847656 13.3362 2.74221 15.2308 5.07842 15.2308C6.04304 15.2308 6.92135 14.8957 7.63295 14.3516L12.7395 17.3114C12.7234 17.4646 12.6938 17.6127 12.6938 17.7692C12.6938 20.1054 14.5884 22 16.9246 22C19.2608 22 21.1553 20.1054 21.1553 17.7692C21.1553 15.433 19.2608 13.5385 16.9246 13.5385Z" fill="white"/>
</svg>
