<svg width="22" height="22" viewBox="0 0 22 22" fill="none" xmlns="http://www.w3.org/2000/svg">
<g clip-path="url(#clip0_12144_89535)">
<path d="M22 9.16687C22 9.09995 21.9927 9.03324 21.978 8.96795L20.7863 3.58895C20.5649 2.568 19.9992 1.65422 19.1841 1.00082C18.369 0.347415 17.354 -0.00586961 16.3093 0.000198968H5.69067C4.64663 -0.00502631 3.6325 0.348644 2.81814 1.00197C2.00377 1.65531 1.43861 2.56862 1.21733 3.58895L0.0220013 8.96795C0.00734202 9.03324 -3.63549e-05 9.09995 1.25528e-06 9.16687V10.0835C-0.000738318 10.976 0.325346 11.8378 0.916668 12.5063V17.4169C0.918123 18.632 1.40148 19.7969 2.2607 20.6562C3.11993 21.5154 4.28487 21.9987 5.5 22.0002H16.5C17.7151 21.9987 18.8801 21.5154 19.7393 20.6562C20.5985 19.7969 21.0819 18.632 21.0833 17.4169V12.5063C21.6747 11.8378 22.0007 10.976 22 10.0835V9.16687ZM1.83333 9.26678L3.00667 3.98678C3.13962 3.37468 3.47877 2.82681 3.96735 2.43484C4.45593 2.04288 5.0643 1.8306 5.69067 1.83353H6.41667V4.58353C6.41667 4.82665 6.51325 5.05981 6.68515 5.23171C6.85706 5.40362 7.09022 5.5002 7.33333 5.5002C7.57645 5.5002 7.80961 5.40362 7.98152 5.23171C8.15342 5.05981 8.25 4.82665 8.25 4.58353V1.83353H13.75V4.58353C13.75 4.82665 13.8466 5.05981 14.0185 5.23171C14.1904 5.40362 14.4236 5.5002 14.6667 5.5002C14.9098 5.5002 15.1429 5.40362 15.3149 5.23171C15.4868 5.05981 15.5833 4.82665 15.5833 4.58353V1.83353H16.3093C16.9357 1.8306 17.5441 2.04288 18.0327 2.43484C18.5212 2.82681 18.8604 3.37468 18.9933 3.98678L20.1667 9.26678V10.0835C20.1667 10.5698 19.9735 11.0361 19.6297 11.3799C19.2859 11.7237 18.8196 11.9169 18.3333 11.9169H17.4167C16.9304 11.9169 16.4641 11.7237 16.1203 11.3799C15.7765 11.0361 15.5833 10.5698 15.5833 10.0835C15.5833 9.84042 15.4868 9.60726 15.3149 9.43535C15.1429 9.26344 14.9098 9.16687 14.6667 9.16687C14.4236 9.16687 14.1904 9.26344 14.0185 9.43535C13.8466 9.60726 13.75 9.84042 13.75 10.0835C13.75 10.5698 13.5568 11.0361 13.213 11.3799C12.8692 11.7237 12.4029 11.9169 11.9167 11.9169H10.0833C9.59711 11.9169 9.13079 11.7237 8.78697 11.3799C8.44316 11.0361 8.25 10.5698 8.25 10.0835C8.25 9.84042 8.15342 9.60726 7.98152 9.43535C7.80961 9.26344 7.57645 9.16687 7.33333 9.16687C7.09022 9.16687 6.85706 9.26344 6.68515 9.43535C6.51325 9.60726 6.41667 9.84042 6.41667 10.0835C6.41667 10.5698 6.22351 11.0361 5.8797 11.3799C5.53588 11.7237 5.06957 11.9169 4.58333 11.9169H3.66667C3.18044 11.9169 2.71412 11.7237 2.37031 11.3799C2.02649 11.0361 1.83333 10.5698 1.83333 10.0835V9.26678ZM16.5 20.1669H5.5C4.77066 20.1669 4.07118 19.8771 3.55546 19.3614C3.03973 18.8457 2.75 18.1462 2.75 17.4169V13.6338C3.04938 13.7113 3.35741 13.7504 3.66667 13.7502H4.58333C5.10383 13.7505 5.61839 13.6397 6.09263 13.4251C6.56687 13.2106 6.98986 12.8974 7.33333 12.5063C7.67681 12.8974 8.0998 13.2106 8.57404 13.4251C9.04828 13.6397 9.56284 13.7505 10.0833 13.7502H11.9167C12.4372 13.7505 12.9517 13.6397 13.426 13.4251C13.9002 13.2106 14.3232 12.8974 14.6667 12.5063C15.0101 12.8974 15.4331 13.2106 15.9074 13.4251C16.3816 13.6397 16.8962 13.7505 17.4167 13.7502H18.3333C18.6426 13.7504 18.9506 13.7113 19.25 13.6338V17.4169C19.25 18.1462 18.9603 18.8457 18.4445 19.3614C17.9288 19.8771 17.2293 20.1669 16.5 20.1669Z" fill="#936EE3"/>
</g>
<defs>
<clipPath id="clip0_12144_89535">
<rect width="22" height="22" fill="white"/>
</clipPath>
</defs>
</svg>
