<svg width="32" height="32" viewBox="0 0 32 32" fill="none" xmlns="http://www.w3.org/2000/svg">
<g clip-path="url(#clip0)">
<rect x="-2.47545" y="6.66664" width="16.381" height="29.3333" rx="2.47619" fill="#0A84FF" fill-opacity="0.1" stroke="#007AFF" stroke-width="1.14286"/>
<path d="M14.4766 12.1904H14.8575C15.0679 12.1904 15.2385 12.361 15.2385 12.5714V18.6666C15.2385 18.877 15.0679 19.0476 14.8575 19.0476H14.4766V12.1904Z" fill="#007AFF"/>
<path d="M9.77873 6.89995L9.78854 6.6877C9.79246 6.60292 9.83554 6.52478 9.90513 6.4762H-1.52344V8.76191H7.91677C8.9451 8.76191 9.77873 7.92828 9.77873 6.89995Z" fill="#007AFF"/>
<path d="M17.9043 15.6217C17.9043 15.4089 17.9954 15.1857 18.137 15.0456L21.42 11.6777C21.5819 11.5116 21.7691 11.4286 21.9562 11.4286C22.4014 11.4286 22.7049 11.7451 22.7049 12.1655C22.7049 12.4042 22.6037 12.5858 22.4621 12.7259L21.3138 13.9091L20.2667 14.9003L21.3593 14.8381H26.253C26.7285 14.8381 27.0472 15.1546 27.0472 15.6217C27.0472 16.0887 26.7285 16.4001 26.253 16.4001H21.3593L20.2667 16.343L21.3138 17.329L22.4621 18.507C22.6037 18.6523 22.7049 18.8339 22.7049 19.0675C22.7049 19.4878 22.4014 19.8095 21.9562 19.8095C21.7691 19.8095 21.5819 19.7265 21.4251 19.5656L18.137 16.1925C17.9954 16.0524 17.9043 15.8292 17.9043 15.6217Z" fill="#007AFF"/>
</g>
<rect x="0.761905" y="0.761905" width="30.4762" height="30.4762" rx="15.2381" stroke="#007AFF" stroke-width="1.52381"/>
<defs>
<clipPath id="clip0">
</clipPath>
</defs>
</svg>
