<svg width="143" height="143" viewBox="0 0 143 143" fill="none" xmlns="http://www.w3.org/2000/svg">
<path d="M1.50507 44.8806C3.88781 21.8969 21.913 3.98791 44.8948 1.58372C53.7036 0.663162 62.9933 0 71.5 0C80.0085 0 89.2963 0.661375 98.1034 1.58372C121.087 3.98791 139.112 21.8951 141.495 44.8806C142.376 53.3676 143 62.3337 143 70.6867C143 79.3328 142.331 88.7851 141.402 97.7423C139.001 120.905 120.914 139.051 97.7512 141.454C89.0479 142.355 79.8941 143 71.5 143C63.1059 143 53.9521 142.357 45.2488 141.454C22.0863 139.05 3.99864 120.905 1.59802 97.7405C0.668525 88.7851 0 79.3328 0 70.6867C0 62.3337 0.625625 53.3658 1.50507 44.8806Z" fill="white"/>
<path fill-rule="evenodd" clip-rule="evenodd" d="M72.4833 41.7056C71.0712 46.2105 71.2184 51.078 72.9001 55.4843C74.7562 60.1891 78.2877 63.9917 82.7767 66.1187C83.5463 66.4973 84.3801 67.6497 83.883 68.6539C83.6149 69.084 83.2026 69.3986 82.7241 69.5381C82.2456 69.6776 81.7339 69.6324 81.2856 69.4111C75.9904 66.8779 71.8339 62.3689 69.6614 56.8012C67.8177 51.9899 67.531 46.6971 68.8437 41.7056H59.5604C54.2854 41.7056 48.5454 45.3437 45.1303 49.2287C41.3228 53.4752 39.2257 59.0464 39.2621 64.8182V98.7629H51.4475V81.1156C51.3944 79.5901 51.7917 78.0838 52.5871 76.7941C53.3825 75.5045 54.5389 74.4918 55.9047 73.8888C56.8436 73.4795 57.851 73.2615 58.8709 73.2468C59.8949 73.2401 60.9096 73.4473 61.8531 73.8559C63.1921 74.4844 64.3146 75.5142 65.0729 76.8099C65.8312 78.1057 66.19 79.6067 66.102 81.1156V98.8287H78.3355V81.8399C78.2866 80.2813 78.6824 78.7419 79.4743 77.4112C80.2662 76.0804 81.4196 75.0163 82.7927 74.3497C83.7442 73.9049 84.7776 73.6747 85.8231 73.6748C86.8789 73.6746 87.9227 73.9046 88.8854 74.3497C90.2644 75.0907 91.4034 76.2277 92.1636 77.6221C92.9237 79.0164 93.2722 80.6079 93.1663 82.2021V84.5562C94.5066 84.8809 95.8778 85.052 97.2549 85.0665C100.365 85.0577 103.441 84.4025 106.298 83.1404C109.116 81.9343 111.661 80.1405 113.769 77.8726C114.125 77.5311 114.59 77.3344 115.077 77.3193C115.564 77.3041 116.039 77.4716 116.415 77.7903C116.675 78.1718 116.804 78.6317 116.781 79.097C116.757 79.5622 116.583 80.0062 116.286 80.3584C113.843 82.9718 110.901 85.0397 107.645 86.4328L106.282 86.9925V101.068C106.282 101.412 106.148 101.743 105.911 101.987C105.673 102.231 105.351 102.368 105.015 102.368H90.9377C90.6031 102.364 90.2833 102.225 90.0467 101.982C89.81 101.739 89.6752 101.411 89.6711 101.068V89.8405C90.7628 90.3821 91.9542 90.6795 93.1663 90.713V98.7793H102.786V87.9967C100.979 88.3925 99.1353 88.5912 97.2869 88.5894C94.0467 88.5026 90.8524 87.7819 87.8753 86.4658C85.7532 85.5714 83.7362 84.4338 81.8628 83.0746V101.183C81.8649 101.353 81.8341 101.522 81.7723 101.679C81.7104 101.837 81.6186 101.98 81.5022 102.101C81.3859 102.222 81.2473 102.318 81.0945 102.384C80.9417 102.45 80.7778 102.483 80.6122 102.483H63.8733C63.5374 102.483 63.2152 102.346 62.9777 102.102C62.7401 101.859 62.6067 101.528 62.6067 101.183V81.1156C62.68 80.309 62.5141 79.4985 62.1306 78.7904C61.7472 78.0824 61.1642 77.51 60.4582 77.1483C59.9506 76.9297 59.4054 76.8177 58.8549 76.819C58.3049 76.8373 57.7622 76.9543 57.2515 77.1647C56.5343 77.5126 55.9353 78.0737 55.5322 78.7752C55.1291 79.4767 54.9405 80.2863 54.9908 81.0992V101.051C54.9866 101.393 54.8513 101.72 54.6142 101.96C54.3771 102.2 54.0574 102.335 53.7242 102.335H36.9693C36.6432 102.327 36.3333 102.187 36.1056 101.948C35.878 101.708 35.7507 101.386 35.7508 101.051V64.8347C35.7009 58.171 38.1129 51.7355 42.5008 46.8252C46.6054 42.1994 53.2753 38.1333 59.5283 38.1333H82.2476C88.5167 38.1333 94.7376 41.9031 98.9223 46.496C103.429 51.2413 106.014 57.5662 106.153 64.1927V80.3584C105.079 81.0348 103.904 81.5243 102.674 81.807V64.1927C102.534 58.4778 100.288 53.0303 96.3891 48.9488C92.8617 45.0967 87.5386 41.7056 82.2476 41.7056H72.4833ZM89.7031 83.3709V82.1363C89.8002 81.2258 89.6383 80.3061 89.2371 79.4881C88.8359 78.6701 88.2126 77.9889 87.4424 77.5269C86.9447 77.2752 86.3933 77.1563 85.8391 77.1812C85.1673 77.184 84.5072 77.3623 83.921 77.6993C83.3348 78.0362 82.8417 78.5207 82.4881 79.1072C84.5026 80.7776 86.7443 82.1364 89.142 83.1404L89.6711 83.3709H89.7031ZM90.6972 55.5007C91.2313 55.4975 91.7543 55.6573 92.1997 55.9599C92.6451 56.2626 92.9928 56.6943 93.1987 57.2004C93.4045 57.7064 93.4592 58.2638 93.3558 58.8018C93.2524 59.3398 92.9955 59.8341 92.6179 60.2219C92.2402 60.6096 91.7588 60.8734 91.2348 60.9796C90.7108 61.0858 90.1679 61.0296 89.675 60.8182C89.1822 60.6069 88.7617 60.2499 88.4669 59.7925C88.1721 59.3352 88.0165 58.7983 88.0196 58.2499C88.0238 57.5221 88.3073 56.8253 88.8085 56.3107C89.3098 55.7961 89.9884 55.505 90.6972 55.5007ZM91.4508 56.3403C91.6893 56.3403 91.9224 56.4132 92.1205 56.5496C92.3186 56.686 92.4727 56.8798 92.5632 57.1063C92.6537 57.3329 92.6766 57.582 92.6289 57.8219C92.5812 58.0619 92.465 58.2818 92.2952 58.4538C92.1255 58.6258 91.9097 58.7421 91.6754 58.7878C91.4411 58.8336 91.1988 58.8068 90.9794 58.7108C90.76 58.6148 90.5733 58.454 90.4431 58.2488C90.3129 58.0436 90.2451 57.8033 90.2483 57.5585C90.2483 57.3971 90.2795 57.2373 90.3401 57.0885C90.4007 56.9396 90.4896 56.8045 90.6014 56.6912C90.7133 56.5779 90.846 56.4885 90.9918 56.4282C91.1376 56.368 91.2936 56.3381 91.4508 56.3403Z" fill="#7F54DF"/>
</svg>
