<svg width="24" height="24" viewBox="0 0 24 24" fill="none" xmlns="http://www.w3.org/2000/svg">
<path d="M12.8244 1.53861L15.5059 7.23313C15.5722 7.37479 15.67 7.49738 15.791 7.5904C15.912 7.68342 16.0526 7.74411 16.2006 7.76726L22.204 8.68273C22.4466 8.71724 22.6664 8.8517 22.8153 9.05675C22.9504 9.24228 23.0152 9.47429 22.997 9.70751C22.9788 9.94072 22.8789 10.1584 22.7169 10.3181L18.3658 14.7598C18.2573 14.8675 18.1764 15.0025 18.1307 15.1521C18.0849 15.3017 18.0758 15.4611 18.1041 15.6154L19.1462 21.8832C19.1812 22.1331 19.1217 22.3876 18.9804 22.5917C18.8391 22.7957 18.6275 22.9328 18.3912 22.9734C18.1873 23.0063 17.9787 22.9722 17.7938 22.8756L12.4469 19.9178C12.3151 19.842 12.1674 19.8024 12.0173 19.8024C11.8673 19.8024 11.7196 19.842 11.5878 19.9178L6.20151 22.8928C5.9846 23.0088 5.73351 23.0317 5.50099 22.9565C5.26847 22.8812 5.0726 22.7138 4.95452 22.4894C4.86138 22.3018 4.82847 22.0873 4.86073 21.8783L5.90279 15.6105C5.92838 15.4562 5.91792 15.2976 5.87233 15.1485C5.82673 14.9994 5.74736 14.8643 5.64112 14.7549L1.2668 10.3145C1.18222 10.2252 1.11512 10.1193 1.06934 10.0027C1.02356 9.88609 1 9.7611 1 9.63488C1 9.50865 1.02356 9.38367 1.06934 9.26706C1.11512 9.15046 1.18222 9.04452 1.2668 8.9553C1.41356 8.81463 1.59497 8.72057 1.79014 8.68396L7.7947 7.76359C7.94249 7.73914 8.08262 7.67781 8.20344 7.5847C8.32427 7.49159 8.4223 7.36938 8.4894 7.22824L11.1686 1.53861C11.2219 1.42406 11.2962 1.32184 11.3872 1.23791C11.4783 1.15397 11.5842 1.09 11.6989 1.0497C11.9318 0.968177 12.1858 0.987519 12.4052 1.10348C12.585 1.19806 12.7318 1.35041 12.8244 1.53861Z" fill="white" stroke="#363853" stroke-width="1.5" stroke-miterlimit="10" stroke-linecap="round" stroke-linejoin="round"/>
</svg>
