<svg width="23" height="23" viewBox="0 0 23 23" fill="none" xmlns="http://www.w3.org/2000/svg">
<path d="M7.0122 19.9792L6.96811 19.9639C6.96571 19.9628 6.96359 19.9613 6.96192 19.9593C6.96026 19.9573 6.95909 19.9549 6.95853 19.9524L6.30495 19.5815C6.22113 19.5478 6.13172 19.5303 6.04141 19.5297C6.00529 19.5292 5.96925 19.5331 5.93407 19.5412C5.25408 19.7857 4.55915 19.9864 3.85353 20.1421L3.72416 20.1574H3.68486C3.52747 20.1665 3.37002 20.1407 3.22375 20.0819C3.07748 20.0231 2.94599 19.9327 2.83866 19.8172C2.63924 19.5678 2.53708 19.2546 2.55116 18.9356L2.57032 18.7784C2.74243 18.0628 2.95912 17.3586 3.21911 16.6701C3.2564 16.5418 3.24159 16.4041 3.17791 16.2867L3.00157 15.9436C2.23755 14.4809 1.864 12.8457 1.91707 11.1963C1.97014 9.5469 2.44802 7.93911 3.30449 6.5285C4.16095 5.11789 5.36701 3.95221 6.80595 3.14426C8.2449 2.3363 9.86802 1.91341 11.5183 1.91652H11.5557C13.0065 1.92826 14.4358 2.2693 15.7357 2.91391C17.0356 3.55852 18.1722 4.48988 19.0596 5.63774C19.9471 6.78561 20.5624 8.12001 20.859 9.5403C21.1557 10.9606 21.1259 12.4297 20.7721 13.8368C20.4182 15.244 19.7494 16.5524 18.8162 17.6634C17.883 18.7744 16.7097 19.659 15.3848 20.2504C14.0599 20.8419 12.6179 21.1248 11.1678 21.0778C9.71758 21.0309 8.297 20.6552 7.01316 19.9792H7.0122ZM6.84832 18.3615C6.93649 18.4037 7.04861 18.4641 7.20291 18.5532L7.60732 18.7861H7.61307L7.88811 18.926C9.30897 19.6117 10.8963 19.8768 12.4628 19.69C14.0294 19.5032 15.5099 18.8723 16.7297 17.8718L16.9405 17.6926C18.1944 16.5882 19.0833 15.129 19.4895 13.5082C19.8956 11.8873 19.7999 10.1814 19.2149 8.61618C18.6299 7.05099 17.5833 5.7004 16.2137 4.74326C14.8441 3.78611 13.216 3.26756 11.5451 3.25627H11.2758C9.87647 3.29319 8.50959 3.68593 7.30407 4.39745C6.09855 5.10896 5.09412 6.11581 4.38551 7.32304C3.67689 8.53027 3.28745 9.8981 3.2539 11.2975C3.22035 12.697 3.54379 14.0819 4.19374 15.3217L4.3672 15.66C4.48188 15.8795 4.55162 16.1197 4.57235 16.3666C4.59309 16.6134 4.56439 16.8619 4.48795 17.0975C4.2429 17.7487 4.03807 18.4144 3.87461 19.0908L3.9647 18.7381L4.34803 18.6423C4.62116 18.5666 4.87799 18.489 5.13386 18.4046L5.53445 18.2666C5.70336 18.2203 5.87774 18.1967 6.05291 18.1967C6.3262 18.1989 6.59643 18.2545 6.84832 18.3606V18.3615ZM14.7067 11.4999C14.7067 11.2836 14.7708 11.0722 14.8909 10.8924C15.0111 10.7125 15.1819 10.5724 15.3817 10.4896C15.5815 10.4069 15.8013 10.3852 16.0134 10.4274C16.2255 10.4696 16.4204 10.5737 16.5733 10.7267C16.7262 10.8796 16.8304 11.0744 16.8726 11.2865C16.9148 11.4986 16.8931 11.7185 16.8103 11.9183C16.7276 12.1181 16.5874 12.2889 16.4076 12.409C16.2278 12.5292 16.0164 12.5933 15.8001 12.5933C15.5104 12.5928 15.2328 12.4774 15.0282 12.2724C14.8235 12.0674 14.7086 11.7895 14.7086 11.4999H14.7067ZM10.4564 11.4999C10.4564 11.2836 10.5206 11.0722 10.6407 10.8924C10.7609 10.7125 10.9317 10.5724 11.1315 10.4896C11.3313 10.4069 11.5511 10.3852 11.7632 10.4274C11.9753 10.4696 12.1702 10.5737 12.3231 10.7267C12.476 10.8796 12.5802 11.0744 12.6224 11.2865C12.6645 11.4986 12.6429 11.7185 12.5601 11.9183C12.4774 12.1181 12.3372 12.2889 12.1574 12.409C11.9776 12.5292 11.7662 12.5933 11.5499 12.5933C11.2599 12.5933 10.9818 12.4781 10.7767 12.273C10.5717 12.068 10.4564 11.7899 10.4564 11.4999ZM6.20432 11.4999C6.20432 11.2836 6.26845 11.0722 6.3886 10.8924C6.50875 10.7125 6.67953 10.5724 6.87933 10.4896C7.07914 10.4069 7.29899 10.3852 7.5111 10.4274C7.72321 10.4696 7.91805 10.5737 8.07097 10.7267C8.2239 10.8796 8.32804 11.0744 8.37023 11.2865C8.41242 11.4986 8.39077 11.7185 8.308 11.9183C8.22524 12.1181 8.08509 12.2889 7.90527 12.409C7.72546 12.5292 7.51405 12.5933 7.29778 12.5933C7.00778 12.5933 6.72965 12.4781 6.52459 12.273C6.31953 12.068 6.20432 11.7899 6.20432 11.4999Z" fill="#936EE3"/>
</svg>
