<svg width="20" height="20" viewBox="0 0 20 20" fill="none" xmlns="http://www.w3.org/2000/svg">
<path d="M0.832031 10C0.832031 8.18705 1.36965 6.41477 2.37689 4.90732C3.38414 3.39987 4.81578 2.22495 6.49077 1.53115C8.16576 0.837346 10.0089 0.655815 11.787 1.00951C13.5652 1.36321 15.1985 2.23625 16.4805 3.51823C17.7625 4.80021 18.6355 6.43356 18.9892 8.21172C19.3429 9.98988 19.1614 11.833 18.4676 13.508C17.7738 15.183 16.5989 16.6146 15.0914 17.6218C13.584 18.6291 11.8117 19.1667 9.9987 19.1667C7.56837 19.164 5.23834 18.1974 3.51983 16.4789C1.80133 14.7604 0.8347 12.4304 0.832031 10H0.832031ZM2.15936 10C2.15936 11.5505 2.61913 13.0662 3.48053 14.3553C4.34193 15.6445 5.56626 16.6493 6.99872 17.2426C8.43117 17.836 10.0074 17.9912 11.5281 17.6887C13.0488 17.3863 14.4456 16.6396 15.5419 15.5433C16.6383 14.4469 17.3849 13.0501 17.6874 11.5294C17.9899 10.0087 17.8346 8.43251 17.2413 7.00006C16.648 5.56761 15.6432 4.34327 14.354 3.48188C13.0648 2.62048 11.5492 2.16071 9.9987 2.16071C7.92032 2.16314 5.92777 2.98984 4.45813 4.45948C2.9885 5.92911 2.16179 7.92167 2.15936 10ZM6.5062 13.3477C6.4444 13.264 6.40343 13.1668 6.38669 13.0642C6.36996 12.9615 6.37793 12.8563 6.40995 12.7574L7.81887 8.25838C7.85088 8.15528 7.9075 8.06152 7.98384 7.98519C8.06017 7.90885 8.15394 7.85223 8.25703 7.82021L12.7597 6.41129C12.825 6.3908 12.893 6.38029 12.9614 6.38013C13.0654 6.38119 13.1678 6.40662 13.2603 6.45437C13.3528 6.50213 13.4328 6.57088 13.4939 6.65513C13.5556 6.73871 13.5965 6.83571 13.6134 6.93816C13.6303 7.04061 13.6226 7.14561 13.5911 7.24454L12.1794 11.7417C12.1471 11.8439 12.0907 11.9368 12.0149 12.0126C11.9391 12.0883 11.8462 12.1448 11.744 12.1771L7.24137 13.5897C7.17608 13.6101 7.1081 13.6206 7.0397 13.6209C6.93563 13.6201 6.83319 13.595 6.74056 13.5476C6.64792 13.5001 6.56767 13.4317 6.5062 13.3477ZM8.9812 8.98254L8.05445 11.9434L11.0162 11.0175L11.942 8.05579L8.9812 8.98254Z" fill="#936EE3"/>
</svg>
