<svg width="20" height="22" viewBox="0 0 20 22" fill="none" xmlns="http://www.w3.org/2000/svg">
<path d="M7.61096 21.7906C9.11096 21.5703 10.4938 20.8812 11.586 19.8031C12.9266 18.4766 13.6672 16.7188 13.6766 14.8438L13.6578 6.50469C14.2953 6.99688 14.9938 7.40938 15.7485 7.72344C16.9156 8.21563 18.1531 8.46875 19.4235 8.46875V5.76406C18.0125 5.49219 16.7844 4.70469 15.9453 3.59844C14.8391 2.76406 14.0422 1.53594 13.7656 0.125H11.0797V10.3109L11.075 15.8891C11.075 17.3797 10.0953 18.6453 8.73596 19.0906C8.34221 19.2219 7.91565 19.2828 7.47033 19.2547C6.34533 19.1938 5.36565 18.5891 4.78908 17.7031C3.8094 17.1219 3.14377 16.0672 3.12502 14.8578C3.0969 12.9734 4.6344 11.4359 6.53752 11.4359C6.91252 11.4359 7.27346 11.4969 7.61096 11.6047V8.82969C5.71721 8.84375 3.94065 9.57969 2.60471 10.9062C1.27815 12.2234 0.518772 14.0234 0.523459 15.8891C0.523459 17.5484 1.10002 19.1234 2.16408 20.3844C3.41096 21.3453 4.9344 21.8656 6.53752 21.8656C6.89846 21.8703 7.2594 21.8422 7.61096 21.7906Z" fill="black"/>
</svg>
