<svg width="24" height="24" viewBox="0 0 24 24" fill="none" xmlns="http://www.w3.org/2000/svg">
<g clip-path="url(#clip0)">
<path d="M23 18H20V15C20 14.7348 19.8946 14.4804 19.7071 14.2929C19.5196 14.1054 19.2652 14 19 14C18.7348 14 18.4804 14.1054 18.2929 14.2929C18.1054 14.4804 18 14.7348 18 15V18H15C14.7348 18 14.4804 18.1054 14.2929 18.2929C14.1054 18.4804 14 18.7348 14 19C14 19.2652 14.1054 19.5196 14.2929 19.7071C14.4804 19.8946 14.7348 20 15 20H18V23C18 23.2652 18.1054 23.5196 18.2929 23.7071C18.4804 23.8946 18.7348 24 19 24C19.2652 24 19.5196 23.8946 19.7071 23.7071C19.8946 23.5196 20 23.2652 20 23V20H23C23.2652 20 23.5196 19.8946 23.7071 19.7071C23.8946 19.5196 24 19.2652 24 19C24 18.7348 23.8946 18.4804 23.7071 18.2929C23.5196 18.1054 23.2652 18 23 18Z" fill="white"/>
<path d="M14.7277 21.6234C12.6011 22.2227 10.3359 22.0998 8.28665 21.274C6.23742 20.4481 4.51998 18.9659 3.4033 17.0595C2.28663 15.153 1.83378 12.9301 2.11568 10.7388C2.39759 8.54743 3.39833 6.51149 4.96117 4.94978C6.524 3.38808 8.56068 2.38881 10.7522 2.1085C12.9437 1.82818 15.1664 2.28264 17.072 3.4007C18.9776 4.51876 20.4585 6.23727 21.2829 8.2871C22.1073 10.3369 22.2286 12.6023 21.6277 14.7284C21.587 14.8562 21.5725 14.9909 21.585 15.1245C21.5974 15.258 21.6366 15.3877 21.7002 15.5058C21.7638 15.6239 21.8506 15.7279 21.9552 15.8118C22.0599 15.8957 22.1804 15.9577 22.3095 15.9941C22.4386 16.0304 22.5737 16.0405 22.7067 16.0235C22.8398 16.0066 22.9681 15.9631 23.084 15.8956C23.1999 15.8281 23.301 15.7379 23.3814 15.6305C23.4617 15.5231 23.5196 15.4006 23.5517 15.2704C24.2731 12.7172 24.1272 9.99676 23.1368 7.53534C22.1465 5.07393 20.3676 3.01055 18.0789 1.66847C15.7902 0.326378 13.121 -0.218604 10.4893 0.118896C7.8577 0.456395 5.41236 1.65731 3.53639 3.53351C1.66042 5.4097 0.459799 7.85519 0.122618 10.4869C-0.214564 13.1185 0.330741 15.7877 1.67311 18.0763C3.01547 20.3648 5.07906 22.1434 7.54059 23.1335C10.0021 24.1235 12.7226 24.2691 15.2757 23.5474C15.4048 23.5142 15.526 23.4555 15.6321 23.3748C15.7383 23.294 15.8272 23.1929 15.8936 23.0773C15.9601 22.9617 16.0028 22.834 16.0191 22.7017C16.0355 22.5694 16.0253 22.4351 15.989 22.3068C15.9527 22.1785 15.8911 22.0587 15.8079 21.9546C15.7246 21.8504 15.6214 21.764 15.5043 21.7003C15.3871 21.6366 15.2584 21.597 15.1257 21.5838C14.9931 21.5706 14.8591 21.584 14.7317 21.6234H14.7277Z" fill="white"/>
</g>
<defs>
<clipPath id="clip0">
<rect width="24" height="24" fill="white"/>
</clipPath>
</defs>
</svg>
