<svg width="24" height="24" viewBox="0 0 24 24" fill="none" xmlns="http://www.w3.org/2000/svg">
<g clip-path="url(#clip0_11742:105449)">
<path d="M23 18.001H20V15.001C20 14.7358 19.8946 14.4814 19.7071 14.2939C19.5196 14.1063 19.2652 14.001 19 14.001C18.7348 14.001 18.4804 14.1063 18.2929 14.2939C18.1054 14.4814 18 14.7358 18 15.001V18.001H15C14.7348 18.001 14.4804 18.1063 14.2929 18.2939C14.1054 18.4814 14 18.7358 14 19.001C14 19.2662 14.1054 19.5205 14.2929 19.7081C14.4804 19.8956 14.7348 20.001 15 20.001H18V23.001C18 23.2662 18.1054 23.5205 18.2929 23.7081C18.4804 23.8956 18.7348 24.001 19 24.001C19.2652 24.001 19.5196 23.8956 19.7071 23.7081C19.8946 23.5205 20 23.2662 20 23.001V20.001H23C23.2652 20.001 23.5196 19.8956 23.7071 19.7081C23.8946 19.5205 24 19.2662 24 19.001C24 18.7358 23.8946 18.4814 23.7071 18.2939C23.5196 18.1063 23.2652 18.001 23 18.001Z" fill="#936EE3"/>
<path d="M14.7296 21.6244C12.6031 22.2237 10.3378 22.1008 8.2886 21.2749C6.23938 20.4491 4.52194 18.9668 3.40526 17.0604C2.28858 15.154 1.83573 12.9311 2.11764 10.7397C2.39954 8.54841 3.40028 6.51246 4.96312 4.95076C6.52596 3.38905 8.56263 2.38979 10.7542 2.10947C12.9457 1.82916 15.1683 2.28362 17.0739 3.40167C18.9795 4.51973 20.4605 6.23825 21.2849 8.28807C22.1093 10.3379 22.2305 12.6033 21.6296 14.7294C21.589 14.8572 21.5744 14.9919 21.5869 15.1254C21.5994 15.259 21.6386 15.3887 21.7022 15.5068C21.7658 15.6248 21.8525 15.7289 21.9572 15.8128C22.0618 15.8967 22.1823 15.9587 22.3114 15.995C22.4405 16.0314 22.5756 16.0414 22.7087 16.0245C22.8418 16.0076 22.9701 15.9641 23.086 15.8966C23.2019 15.829 23.303 15.7389 23.3833 15.6315C23.4637 15.5241 23.5216 15.4016 23.5536 15.2714C24.275 12.7181 24.1292 9.99774 23.1388 7.53632C22.1484 5.0749 20.3696 3.01153 18.0809 1.66944C15.7922 0.327355 13.1229 -0.217627 10.4913 0.119872C7.85965 0.457372 5.41431 1.65829 3.53834 3.53448C1.66237 5.41068 0.461753 7.85616 0.124571 10.4878C-0.212611 13.1195 0.332694 15.7887 1.67506 18.0772C3.01742 20.3658 5.08101 22.1444 7.54255 23.1345C10.0041 24.1245 12.7245 24.2701 15.2776 23.5484C15.4068 23.5152 15.528 23.4565 15.6341 23.3757C15.7402 23.295 15.8291 23.1939 15.8956 23.0783C15.962 22.9627 16.0047 22.835 16.0211 22.7027C16.0375 22.5703 16.0272 22.4361 15.9909 22.3078C15.9546 22.1795 15.8931 22.0597 15.8098 21.9555C15.7266 21.8514 15.6234 21.7649 15.5062 21.7013C15.3891 21.6376 15.2604 21.598 15.1277 21.5848C14.995 21.5716 14.861 21.585 14.7336 21.6244H14.7296Z" fill="#936EE3"/>
</g>
<defs>
<clipPath id="clip0_11742:105449">
<rect width="24" height="24" fill="white"/>
</clipPath>
</defs>
</svg>
