<svg width="30" height="29" viewBox="0 0 30 29" fill="none" xmlns="http://www.w3.org/2000/svg">
<path opacity="0.5" d="M1.47169 10.6907C1.77828 10.8107 2.19151 10.6774 2.33815 10.2642C4.4443 4.18564 9.60304 1.2397 14.8151 1.2397C17.3212 1.2397 19.2274 1.79956 20.7203 2.71934C21.0802 2.94595 21.5068 2.90596 21.6534 2.54604C21.8267 2.15947 21.6268 1.91953 21.3335 1.73291C19.5206 0.573193 17.4678 0 14.8151 0C8.98985 0 3.51119 3.15923 1.15177 9.66431C0.965147 10.1842 1.15177 10.5574 1.47169 10.6907ZM28.785 15.3163C29.1316 15.3163 29.3982 15.023 29.3582 14.6364C28.825 9.50434 26.9588 5.93188 23.9729 3.38584C23.6663 3.11924 23.2797 3.15923 23.0797 3.38584C22.8531 3.61245 22.8398 3.99902 23.1597 4.27895C25.8657 6.74502 27.7319 9.95757 28.1718 14.6631C28.1985 15.023 28.4251 15.3163 28.785 15.3163ZM3.64449 22.3412C3.84444 22.6345 4.27101 22.7011 4.5776 22.4345C5.5107 21.6614 5.97726 20.3684 5.96393 19.1153C5.9506 17.2491 5.16412 16.3693 5.16412 13.9966C5.16412 8.8645 9.50973 4.5189 14.6551 4.5189C21.0802 4.5189 25.0793 9.67764 25.1059 17.1825C25.1192 19.9685 24.6794 22.1146 24.1195 23.5409C23.9729 23.9008 24.1195 24.2607 24.4128 24.394C24.706 24.5273 25.1192 24.4207 25.2525 24.0475C25.8257 22.4479 26.3323 20.1151 26.3323 17.1691C26.3323 8.97114 21.8267 3.30586 14.6551 3.30586C8.82989 3.30586 3.93775 8.198 3.93775 13.9966C3.93775 16.2094 4.76422 17.7023 4.77755 19.1153C4.77755 20.0084 4.41764 20.9016 3.77779 21.4614C3.51119 21.688 3.4712 22.0746 3.64449 22.3412ZM9.3631 17.8223C8.98985 16.8492 8.46998 15.6095 8.46998 14.1699C8.46998 10.5041 11.1627 7.81143 14.8151 7.81143C16.1348 7.81143 16.8279 8.03804 17.921 8.63789C18.2676 8.81118 18.5875 8.70454 18.7208 8.4646C18.8808 8.18467 18.8408 7.7981 18.4142 7.54482C17.4678 6.9583 16.1481 6.58506 14.8151 6.58506C10.4828 6.58506 7.24361 9.82427 7.24361 14.1699C7.24361 15.6229 7.64352 16.9825 8.17672 18.2889C8.33668 18.6621 8.66993 18.8221 9.04317 18.6754C9.3631 18.5421 9.4964 18.1822 9.3631 17.8223ZM19.9205 10.3708C21.2002 12.237 21.8267 14.9164 21.8267 17.9556C21.8267 21.1948 20.9469 24.3141 19.4673 26.2469C19.2673 26.5135 19.2274 26.9001 19.4673 27.14C19.7206 27.3933 20.1871 27.3933 20.4137 27.1C22.0533 24.8739 23.0398 21.4481 23.0398 17.9156C23.0398 14.2499 22.24 11.6771 21.0136 9.73096C20.7736 9.34439 20.3871 9.2644 20.0938 9.42437C19.7739 9.59766 19.6806 9.99756 19.9205 10.3708ZM9.33644 26.4869C11.4559 24.7806 12.629 22.0613 12.6156 19.022C12.589 16.7426 11.7758 15.3163 11.7758 14.0099C11.7758 12.277 13.0022 11.1173 14.7484 11.1173C17.3611 11.1173 18.3876 13.9033 18.4409 17.7823C18.5209 21.968 17.0146 25.3938 15.0417 27.1667C14.7884 27.3933 14.7351 27.7266 14.9217 27.9932C15.1217 28.2731 15.5483 28.3397 15.8415 28.0731C17.9477 26.1536 19.6139 22.1146 19.6006 17.7023C19.5873 13.1035 18.2143 9.90425 14.7484 9.90425C12.3757 9.90425 10.5761 11.5039 10.5761 13.9166C10.5761 15.3562 11.3626 17.1691 11.3893 19.022C11.4026 21.688 10.3895 24.0341 8.57662 25.5138C8.2567 25.767 8.23004 26.127 8.41666 26.3936C8.62994 26.7001 9.02984 26.7535 9.33644 26.4869ZM1.9649 18.4888C2.28482 18.3822 2.45812 18.0623 2.35148 17.6624C2.00489 16.3693 1.84493 14.7431 1.88492 12.9568C1.88492 12.5703 1.67164 12.3437 1.33839 12.3303C0.911827 12.3037 0.685216 12.5703 0.658556 12.9035C0.578575 14.4365 0.711876 16.3427 1.1651 18.0089C1.28507 18.4088 1.63165 18.5821 1.9649 18.4888ZM16.0015 20.395C16.388 18.6888 16.2148 16.2894 15.5349 14.4098C15.375 13.9699 15.055 13.8366 14.7085 13.9433C14.3885 14.0499 14.2019 14.3698 14.3219 14.7431C14.9884 16.5693 15.135 18.6354 14.7884 20.2351C14.7218 20.5683 14.8551 20.8749 15.2283 20.9416C15.5882 21.0082 15.9082 20.7949 16.0015 20.395ZM6.57711 24.754C7.55021 24.2474 8.89654 22.5412 9.24313 21.1415C9.33644 20.8083 9.16315 20.4617 8.82989 20.355C8.5233 20.2617 8.20338 20.435 8.08341 20.7949C7.7235 22.0746 6.97701 22.9944 6.01725 23.6476C5.61734 23.9275 5.57735 24.2874 5.71066 24.5407C5.84396 24.8073 6.19054 24.9539 6.57711 24.754ZM12.3624 27.5533C13.4154 26.7801 14.6285 25.2205 15.255 23.3276C15.335 23.0344 15.2683 22.6478 14.9217 22.5412C14.5752 22.4212 14.2419 22.5812 14.1353 22.8877C13.4154 24.7806 12.5357 25.8737 11.6159 26.5668C11.3359 26.7801 11.256 27.1534 11.4426 27.4333C11.6292 27.7532 12.0424 27.7932 12.3624 27.5533Z" fill="#FF2D55"/>
</svg>
