<svg width="22" height="22" viewBox="0 0 22 22" fill="none" xmlns="http://www.w3.org/2000/svg">
<g clip-path="url(#clip0_12144_89438)">
<path d="M15.4385 6.7156L5.27209 0.846069V4.07608H-3.38281V9.26902H5.27209V12.5852L15.4385 6.7156ZM-1.65183 7.53804V5.80706H7.00307V3.84413L11.9765 6.7156L7.00307 9.58706V7.53804H-1.65183Z" fill="#936EE3"/>
<path d="M17.389 12.7307V9.41455L7.22266 15.2841L17.389 21.1537V17.9236H26.044V12.7307H17.389ZM24.313 16.1927H15.6581V18.1556L10.6846 15.2841L15.6581 12.4127V14.4617H24.313V16.1927Z" fill="#936EE3"/>
</g>
<defs>
<clipPath id="clip0_12144_89438">
<path d="M0 11C0 4.92487 4.92487 0 11 0C17.0751 0 22 4.92487 22 11V22H0V11Z" fill="white"/>
</clipPath>
</defs>
</svg>
