<svg width="16" height="18" viewBox="0 0 16 18" fill="none" xmlns="http://www.w3.org/2000/svg">
<path d="M5.43171 0.18821L0.585507 4.68829C0.31518 4.93938 0.315261 5.34642 0.585669 5.59744C0.715478 5.71794 0.89145 5.78563 1.07501 5.78567H3.15195L3.15195 10.2857C3.15195 10.6408 3.46191 10.9286 3.84427 10.9286C4.22664 10.9286 4.5366 10.6408 4.5366 10.2857V5.14279C4.5366 4.78773 4.22664 4.49991 3.84427 4.49991H2.74621L5.92117 1.55171L9.09613 4.49991H7.99811C7.61574 4.49991 7.30578 4.78773 7.30578 5.14279L7.30578 12.2143H5.22884C4.84648 12.2144 4.5366 12.5023 4.53668 12.8573C4.53672 13.0277 4.60962 13.1912 4.73938 13.3117L9.58559 17.8118C9.85596 18.0627 10.2942 18.0627 10.5645 17.8118L15.4107 13.3117C15.5406 13.1911 15.6135 13.0277 15.6136 12.8572C15.6139 12.7727 15.596 12.689 15.561 12.611C15.4537 12.3708 15.2013 12.2143 14.9213 12.2143H12.8443V7.71427C12.8443 7.35921 12.5344 7.07139 12.152 7.07139C11.7696 7.07139 11.4597 7.35921 11.4597 7.71427V12.8572C11.4597 13.2122 11.7696 13.5001 12.152 13.5001H13.25L10.075 16.4483L6.90009 13.5001H7.99811C8.38048 13.5001 8.69044 13.2122 8.69044 12.8572V5.78567H10.7674C11.1497 5.78559 11.4596 5.4977 11.4595 5.14268C11.4595 4.97227 11.3866 4.80882 11.2568 4.68829L6.41063 0.18821C6.14026 -0.0627346 5.70204 -0.0627346 5.43171 0.18821Z" fill="#936EE3"/>
</svg>
