<svg width="22" height="22" viewBox="0 0 22 22" fill="none" xmlns="http://www.w3.org/2000/svg">
<g clip-path="url(#clip0_12144_89505)">
<path d="M17.4167 22H16.5C16.2569 22 16.0237 21.9034 15.8518 21.7315C15.6799 21.5596 15.5833 21.3264 15.5833 21.0833C15.5833 20.8402 15.6799 20.6071 15.8518 20.4352C16.0237 20.2632 16.2569 20.1667 16.5 20.1667H17.4167C18.146 20.1667 18.8455 19.8769 19.3612 19.3612C19.8769 18.8455 20.1667 18.146 20.1667 17.4167V16.5C20.1667 16.2569 20.2632 16.0237 20.4352 15.8518C20.6071 15.6799 20.8402 15.5833 21.0833 15.5833C21.3264 15.5833 21.5596 15.6799 21.7315 15.8518C21.9034 16.0237 22 16.2569 22 16.5V17.4167C21.9985 18.6318 21.5152 19.7967 20.656 20.656C19.7967 21.5152 18.6318 21.9985 17.4167 22ZM22 5.5V4.58333C21.9985 3.3682 21.5152 2.20326 20.656 1.34403C19.7967 0.484808 18.6318 0.00145554 17.4167 0L16.5 0C16.2569 0 16.0237 0.0965771 15.8518 0.268485C15.6799 0.440394 15.5833 0.673552 15.5833 0.916667C15.5833 1.15978 15.6799 1.39294 15.8518 1.56485C16.0237 1.73676 16.2569 1.83333 16.5 1.83333H17.4167C18.146 1.83333 18.8455 2.12306 19.3612 2.63879C19.8769 3.15451 20.1667 3.85399 20.1667 4.58333V5.5C20.1667 5.74312 20.2632 5.97627 20.4352 6.14818C20.6071 6.32009 20.8402 6.41667 21.0833 6.41667C21.3264 6.41667 21.5596 6.32009 21.7315 6.14818C21.9034 5.97627 22 5.74312 22 5.5ZM6.41667 21.0833C6.41667 20.8402 6.32009 20.6071 6.14818 20.4352C5.97627 20.2632 5.74312 20.1667 5.5 20.1667H4.58333C3.85399 20.1667 3.15451 19.8769 2.63879 19.3612C2.12306 18.8455 1.83333 18.146 1.83333 17.4167V16.5C1.83333 16.2569 1.73676 16.0237 1.56485 15.8518C1.39294 15.6799 1.15978 15.5833 0.916667 15.5833C0.673552 15.5833 0.440394 15.6799 0.268485 15.8518C0.0965771 16.0237 0 16.2569 0 16.5L0 17.4167C0.00145554 18.6318 0.484808 19.7967 1.34403 20.656C2.20326 21.5152 3.3682 21.9985 4.58333 22H5.5C5.74312 22 5.97627 21.9034 6.14818 21.7315C6.32009 21.5596 6.41667 21.3264 6.41667 21.0833ZM1.83333 5.5V4.58333C1.83333 3.85399 2.12306 3.15451 2.63879 2.63879C3.15451 2.12306 3.85399 1.83333 4.58333 1.83333H5.5C5.74312 1.83333 5.97627 1.73676 6.14818 1.56485C6.32009 1.39294 6.41667 1.15978 6.41667 0.916667C6.41667 0.673552 6.32009 0.440394 6.14818 0.268485C5.97627 0.0965771 5.74312 0 5.5 0L4.58333 0C3.3682 0.00145554 2.20326 0.484808 1.34403 1.34403C0.484808 2.20326 0.00145554 3.3682 0 4.58333L0 5.5C0 5.74312 0.0965771 5.97627 0.268485 6.14818C0.440394 6.32009 0.673552 6.41667 0.916667 6.41667C1.15978 6.41667 1.39294 6.32009 1.56485 6.14818C1.73676 5.97627 1.83333 5.74312 1.83333 5.5ZM14.6667 11C14.6667 10.2748 14.4516 9.56589 14.0487 8.96291C13.6458 8.35993 13.0732 7.88996 12.4032 7.61244C11.7332 7.33492 10.9959 7.26231 10.2847 7.40379C9.57341 7.54527 8.92007 7.89448 8.40728 8.40728C7.89448 8.92007 7.54527 9.57341 7.40379 10.2847C7.26231 10.9959 7.33492 11.7332 7.61244 12.4032C7.88996 13.0732 8.35993 13.6458 8.96291 14.0487C9.56589 14.4516 10.2748 14.6667 11 14.6667C11.9725 14.6667 12.9051 14.2804 13.5927 13.5927C14.2804 12.9051 14.6667 11.9725 14.6667 11ZM12.8333 11C12.8333 11.3626 12.7258 11.7171 12.5244 12.0185C12.3229 12.32 12.0366 12.555 11.7016 12.6938C11.3666 12.8325 10.998 12.8688 10.6423 12.7981C10.2867 12.7274 9.96003 12.5528 9.70364 12.2964C9.44724 12.04 9.27263 11.7133 9.20189 11.3577C9.13115 11.002 9.16746 10.6334 9.30622 10.2984C9.44498 9.96342 9.67997 9.67709 9.98145 9.47564C10.2829 9.27419 10.6374 9.16667 11 9.16667C11.4862 9.16667 11.9525 9.35982 12.2964 9.70364C12.6402 10.0475 12.8333 10.5138 12.8333 11Z" fill="#936EE3"/>
</g>
<defs>
<clipPath id="clip0_12144_89505">
<rect width="22" height="22" fill="white"/>
</clipPath>
</defs>
</svg>
