<svg width="20" height="13" viewBox="0 0 20 13" fill="none" xmlns="http://www.w3.org/2000/svg">
<path d="M19.8779 6.21276L13.6279 0.119033C13.5083 0.00317623 13.3305 -0.0321295 13.1738 0.0309407C13.018 0.0936299 12.9167 0.242012 12.9167 0.406238V1.21872C12.9167 1.32662 12.9606 1.42979 13.0387 1.50597L17.3275 5.68748H0.416679C0.186367 5.68752 0 5.86919 0 6.09375V6.90623C0 7.13078 0.186367 7.31249 0.416679 7.31249H17.3275L13.0387 11.494C12.9606 11.5702 12.9167 11.6733 12.9167 11.7813V12.5937C12.9167 12.758 13.018 12.9063 13.1738 12.969C13.2255 12.9901 13.2796 13 13.3333 13C13.4416 13 13.5482 12.9588 13.6279 12.881L19.8779 6.78725C20.0407 6.62855 20.0407 6.37147 19.8779 6.21276Z" fill="white"/>
</svg>
