<svg width="18" height="18" viewBox="0 0 18 18" fill="none" xmlns="http://www.w3.org/2000/svg">
<g clip-path="url(#clip0)">
<path d="M9.00002 2.24994C4.9773 2.24994 1.37263 4.88945 0.0300805 8.81823C-0.0100268 8.93634 -0.0100268 9.06378 0.0300805 9.18188C1.37263 13.1107 4.9773 15.7502 9.00002 15.7502C13.0227 15.7502 16.6274 13.1107 17.97 9.18188C18.0101 9.06378 18.0101 8.93634 17.97 8.81823C16.6274 4.88945 13.0227 2.24994 9.00002 2.24994ZM9.00002 14.6251C5.52061 14.6251 2.39328 12.3724 1.15893 9.00006C2.39328 5.62774 5.52057 3.37497 9.00002 3.37497C12.4794 3.37497 15.6068 5.62774 16.8411 9.00006C15.6068 12.3724 12.4794 14.6251 9.00002 14.6251Z" fill="#191C1F"/>
<path d="M8.99976 5.62494C7.13865 5.62494 5.62469 7.13889 5.62469 9C5.62469 10.8611 7.13865 12.3751 8.99976 12.3751C10.8609 12.3751 12.3748 10.8611 12.3748 9C12.3748 7.13886 10.8609 5.62494 8.99976 5.62494ZM8.99976 11.25C7.75881 11.25 6.74973 10.2409 6.74973 9C6.74973 7.75906 7.75885 6.74997 8.99976 6.74997C10.2407 6.74997 11.2498 7.75909 11.2498 9C11.2498 10.2409 10.2407 11.25 8.99976 11.25Z" fill="#191C1F"/>
</g>
<defs>
<clipPath id="clip0">
<rect width="18" height="18" fill="white"/>
</clipPath>
</defs>
</svg>
