<svg width="24" height="24" viewBox="0 0 24 24" fill="none" xmlns="http://www.w3.org/2000/svg">
<path d="M17.4139 23.9897H6.58557C4.81277 24.093 3.07447 23.4179 1.7458 22.11C1.15283 21.4135 0.693123 20.5907 0.394473 19.6913C0.0958228 18.7919 -0.0355723 17.8346 0.00822862 16.8772V7.12297C-0.0355723 6.16556 0.0958228 5.20823 0.394473 4.30883C0.693123 3.40943 1.15283 2.58663 1.7458 1.89018C3.07447 0.582253 4.81277 -0.0928798 6.58557 0.0104812H17.4151C19.1893 -0.0938934 20.9288 0.584573 22.2549 1.89818C22.8492 2.60362 23.3093 3.43501 23.6077 4.34261C23.906 5.2502 24.0365 6.21534 23.9913 7.18026H18.9176V7.22555C17.7922 7.22127 16.7102 7.70774 15.9042 8.58037C15.5089 9.00277 15.1944 9.50942 14.9795 10.07C14.7646 10.6306 14.6537 11.2336 14.6535 11.8429C14.6689 13.0831 15.1266 14.2658 15.926 15.1317C16.7254 15.9975 17.8013 16.4758 18.9176 16.4615H23.9913V16.8758C24.0351 17.8332 23.9037 18.7906 23.605 19.69C23.3064 20.5894 22.8467 21.4122 22.2537 22.1086C20.9252 23.417 19.1869 24.0927 17.4139 23.9897ZM5.68981 5.19531C5.45191 5.19277 5.22261 5.29408 5.05127 5.47745C4.87993 5.66082 4.78024 5.91159 4.77365 6.1758C4.77743 6.44319 4.87553 6.69826 5.04687 6.88612C5.21821 7.07397 5.44908 7.17959 5.68981 7.18026H12.459C12.6959 7.18026 12.9232 7.07569 13.0907 6.88957C13.2583 6.70344 13.3524 6.451 13.3524 6.18779C13.3524 5.92457 13.2583 5.67213 13.0907 5.486C12.9232 5.29988 12.6959 5.19531 12.459 5.19531H5.68981ZM23.0955 14.4766H18.9776C18.411 14.4828 17.8591 14.2766 17.4111 13.8913C16.963 13.506 16.645 12.964 16.5085 12.3531C16.4415 11.9665 16.4534 11.5681 16.5432 11.1872C16.6331 10.8064 16.7987 10.4527 17.0278 10.1523C17.2604 9.8467 17.5497 9.60041 17.8759 9.43028C18.202 9.26016 18.5573 9.17019 18.9176 9.16653H23.0955C23.3297 9.16368 23.5554 9.26396 23.7233 9.44544C23.8911 9.62692 23.9875 9.87485 23.9913 10.135V13.5068C23.9841 13.7657 23.8867 14.0115 23.7196 14.1921C23.5524 14.3728 23.3287 14.4743 23.0955 14.4753V14.4766ZM19.0867 10.7238C18.8498 10.7222 18.6217 10.8236 18.4512 11.0063C18.3664 11.0966 18.2989 11.205 18.2526 11.3249C18.2062 11.4448 18.182 11.5738 18.1814 11.7043C18.1851 11.972 18.2834 12.2272 18.455 12.4151C18.6266 12.603 18.8578 12.7085 19.0987 12.7088H19.4932C19.7302 12.7088 19.9574 12.6042 20.1249 12.4181C20.2925 12.232 20.3866 11.9795 20.3866 11.7163C20.3866 11.4531 20.2925 11.2007 20.1249 11.0145C19.9574 10.8284 19.7302 10.7238 19.4932 10.7238H19.0867Z" fill="white"/>
</svg>
