<svg width="24" height="23" viewBox="0 0 24 23" fill="none" xmlns="http://www.w3.org/2000/svg">
<path d="M22.997 14.5433H18.3438C17.5233 14.5433 16.7364 14.2064 16.1562 13.6066C15.576 13.0068 15.25 12.1934 15.25 11.3452C15.25 10.4969 15.576 9.68347 16.1562 9.0837C16.7364 8.48392 17.5233 8.14697 18.3438 8.14697H22.997" stroke="#936EE3" stroke-width="1.5" stroke-miterlimit="10" stroke-linecap="round" stroke-linejoin="round"/>
<path d="M18.8743 11.2703H18.5156" stroke="#936EE3" stroke-width="1.5" stroke-miterlimit="10" stroke-linecap="round" stroke-linejoin="round"/>
<path d="M7.0325 1H16.9675C18.5674 1 20.1018 1.657 21.2331 2.82647C22.3644 3.99594 23 5.58208 23 7.23595V15.764C23 16.583 22.844 17.3939 22.5408 18.1504C22.2376 18.907 21.7933 19.5945 21.2331 20.1735C20.673 20.7526 20.0079 21.2119 19.276 21.5253C18.5441 21.8387 17.7597 22 16.9675 22H7.0325C5.43258 22 3.89819 21.343 2.76688 20.1735C1.63557 19.0041 1 17.4179 1 15.764L1 7.23595C1 5.58208 1.63557 3.99594 2.76688 2.82647C3.89819 1.657 5.43258 1 7.0325 1V1Z" stroke="#936EE3" stroke-width="1.5" stroke-miterlimit="10" stroke-linecap="round" stroke-linejoin="round"/>
<path d="M6.21484 6.39355H12.4221" stroke="#936EE3" stroke-width="1.5" stroke-miterlimit="10" stroke-linecap="round" stroke-linejoin="round"/>
</svg>
