<svg width="26" height="24" viewBox="0 0 26 24" fill="none" xmlns="http://www.w3.org/2000/svg">
<path d="M25.0474 14.9949H19.9874C19.0951 14.9949 18.2394 14.6404 17.6084 14.0095C16.9775 13.3785 16.623 12.5228 16.623 11.6305C16.623 10.7382 16.9775 9.88246 17.6084 9.25152C18.2394 8.62057 19.0951 8.26611 19.9874 8.26611H25.0474" stroke="white" stroke-width="1.5" stroke-miterlimit="10" stroke-linecap="round" stroke-linejoin="round"/>
<path d="M20.5619 11.5537H20.1719" stroke="white" stroke-width="1.5" stroke-miterlimit="10" stroke-linecap="round" stroke-linejoin="round"/>
<path d="M7.685 0.75H18.4887C20.2286 0.75 21.8971 1.44114 23.1274 2.67138C24.3576 3.90162 25.0487 5.57018 25.0487 7.31V16.2813C25.0487 17.1427 24.8791 17.9958 24.5494 18.7917C24.2197 19.5875 23.7365 20.3107 23.1274 20.9199C22.5182 21.529 21.795 22.0122 20.9992 22.3419C20.2033 22.6716 19.3502 22.8413 18.4887 22.8413H7.685C5.94518 22.8413 4.27662 22.1501 3.04638 20.9199C1.81614 19.6896 1.125 18.0211 1.125 16.2813L1.125 7.31C1.125 5.57018 1.81614 3.90162 3.04638 2.67138C4.27662 1.44114 5.94518 0.75 7.685 0.75V0.75Z" stroke="white" stroke-width="1.5" stroke-miterlimit="10" stroke-linecap="round" stroke-linejoin="round"/>
<path d="M6.79492 6.42236H13.5449" stroke="white" stroke-width="1.5" stroke-miterlimit="10" stroke-linecap="round" stroke-linejoin="round"/>
</svg>
