<svg width="20" height="20" viewBox="0 0 20 20" fill="none" xmlns="http://www.w3.org/2000/svg">
<g clip-path="url(#clip0)">
<path d="M18.2692 0H1.7308C0.776367 0 0 0.776367 0 1.7308V3.65387H20V1.7308C20 0.776367 19.2236 0 18.2692 0Z" fill="white"/>
<path d="M0 4.99988C0 5.95416 0.776367 6.73068 1.7308 6.73068H2.5V4.80762H0V4.99988Z" fill="white"/>
<path d="M17.5 6.73068H18.2692C19.2236 6.73068 20 5.95416 20 4.99988V4.80762H17.5V6.73068Z" fill="white"/>
<path d="M3.65234 4.80762V19.4229C3.65234 19.7414 3.91083 19.9999 4.22928 19.9999H15.7677C16.0861 19.9999 16.3446 19.7414 16.3446 19.4229V4.80762H3.65234ZM9.03687 17.4999C9.03687 17.8185 8.77869 18.0768 8.46008 18.0768C8.14133 18.0768 7.88315 17.8185 7.88315 17.4999V16.346C7.88315 16.0279 7.62421 15.7691 7.30621 15.7691H6.15234C5.83374 15.7691 5.57541 15.5107 5.57541 15.1921C5.57541 14.8735 5.83374 14.6152 6.15234 14.6152H7.30621C8.2605 14.6152 9.03687 15.3917 9.03687 16.346V17.4999ZM10.5754 9.03827V11.5383C10.5754 11.857 10.3171 12.1152 9.99847 12.1152H9.22928C8.34 12.1152 7.60544 11.4409 7.50946 10.5768H6.53687C6.21826 10.5768 5.96008 10.3185 5.96008 9.99988C5.96008 9.68127 6.21826 9.42294 6.53687 9.42294H7.49847V8.46149C7.49847 8.14273 7.75681 7.88455 8.07541 7.88455C8.39401 7.88455 8.65234 8.14273 8.65234 8.46149V10.3846C8.65234 10.7025 8.91113 10.9615 9.22928 10.9615H9.42154V8.46149C9.42154 8.14273 9.67987 7.88455 9.99847 7.88455H10.7677C11.657 7.88455 12.3915 8.55884 12.4875 9.42294H13.4601C13.7787 9.42294 14.0369 9.68127 14.0369 9.99988C14.0369 10.3185 13.7787 10.5768 13.4601 10.5768H12.4985V11.5383C12.4985 11.857 12.2401 12.1152 11.9215 12.1152C11.6029 12.1152 11.3446 11.857 11.3446 11.5383V9.6152C11.3446 9.29721 11.0858 9.03827 10.7677 9.03827H10.5754ZM13.8446 15.7691H12.6907C12.3727 15.7691 12.1138 16.0279 12.1138 16.346V17.4999C12.1138 17.8185 11.8556 18.0768 11.5369 18.0768C11.2183 18.0768 10.9601 17.8185 10.9601 17.4999V16.346C10.9601 15.3917 11.7365 14.6152 12.6907 14.6152H13.8446C14.1632 14.6152 14.4215 14.8735 14.4215 15.1921C14.4215 15.5107 14.1632 15.7691 13.8446 15.7691Z" fill="white"/>
</g>
<defs>
<clipPath id="clip0">
<rect width="20" height="20" fill="white"/>
</clipPath>
</defs>
</svg>
