<svg width="20" height="20" viewBox="0 0 20 20" fill="none" xmlns="http://www.w3.org/2000/svg">
<path d="M10 0.000976562C4.486 0.000976562 0 4.48679 0 10.0004C0 15.5142 4.486 19.9999 10 19.9999C15.514 19.9999 20 15.5142 20 10.0004C20 4.48679 15.514 0.000976562 10 0.000976562ZM10 18.1818C5.48855 18.1818 1.81818 14.5117 1.81818 10.0005C1.81818 5.48928 5.48855 1.81916 10 1.81916C14.5115 1.81916 18.1818 5.48928 18.1818 10.0004C18.1818 14.5118 14.5115 18.1818 10 18.1818Z" fill="#F0AD4E"/>
<path d="M9.99894 7.87988C9.49687 7.87988 9.08984 8.28691 9.08984 8.78897V14.8485C9.08984 15.3506 9.49687 15.7576 9.99894 15.7576C10.501 15.7576 10.908 15.3506 10.908 14.8485V8.78897C10.908 8.28697 10.501 7.87988 9.99894 7.87988Z" fill="#F0AD4E"/>
<path d="M9.99894 4.24316C9.75954 4.24316 9.52554 4.34013 9.3559 4.50922C9.18681 4.67832 9.08984 4.91286 9.08984 5.15225C9.08984 5.39165 9.18681 5.62559 9.3559 5.79529C9.525 5.96438 9.75954 6.06135 9.99894 6.06135C10.2383 6.06135 10.4723 5.96438 10.6419 5.79529C10.811 5.62559 10.908 5.39165 10.908 5.15225C10.908 4.91286 10.811 4.67832 10.6419 4.50922C10.4723 4.34007 10.2383 4.24316 9.99894 4.24316Z" fill="#F0AD4E"/>
</svg>
