<svg width="41" height="43" viewBox="0 0 41 43" fill="none" xmlns="http://www.w3.org/2000/svg">
<path fill-rule="evenodd" clip-rule="evenodd" d="M16.144 41.3167C8.516 41.3167 2 40.1627 2 35.5427C2 30.9227 8.474 26.7207 16.144 26.7207C23.772 26.7207 30.288 30.8827 30.288 35.5007C30.288 40.1187 23.814 41.3167 16.144 41.3167Z" stroke="#007AFF" stroke-width="3" stroke-linecap="round" stroke-linejoin="round"/>
<path fill-rule="evenodd" clip-rule="evenodd" d="M16.1442 20.132C21.1502 20.132 25.2102 16.072 25.2102 11.066C25.2102 6.058 21.1502 2 16.1442 2C11.1382 2 7.07818 6.058 7.07818 11.066C7.06024 16.054 11.0922 20.114 16.0802 20.132H16.1442Z" stroke="#007AFF" stroke-width="3" stroke-linecap="round" stroke-linejoin="round"/>
<path d="M34.5615 13.9583V21.9783" stroke="#007AFF" stroke-width="3" stroke-linecap="round" stroke-linejoin="round"/>
<path d="M38.6546 17.9678H30.4746" stroke="#007AFF" stroke-width="3" stroke-linecap="round" stroke-linejoin="round"/>
</svg>
