<svg width="138" height="83" viewBox="0 0 138 83" fill="none" xmlns="http://www.w3.org/2000/svg">
<path d="M5.61601 74.8889L11.0281 80.0193L11.0743 80.0517L14.2052 81.7603C14.2376 81.7787 14.2742 81.7882 14.3114 81.788H18.2966C18.3511 81.7887 18.4038 81.7689 18.4444 81.7326L20.721 79.7377C20.7444 79.7167 20.763 79.6911 20.7758 79.6625C20.7885 79.6338 20.795 79.6028 20.7949 79.5714V76.1542C20.7954 76.1155 20.7853 76.0775 20.7658 76.0441C20.7463 76.0108 20.718 75.9834 20.684 75.9649L18.1304 74.5426L14.5285 72.3306V69.7031L17.5901 66.9324L28.2989 57.2949L27.2044 70.9868C27.1998 71.0112 27.1998 71.0363 27.2044 71.0607L28.3451 75.6139C28.3504 75.642 28.3618 75.6686 28.3786 75.6917C28.3953 75.7149 28.417 75.734 28.442 75.7478L32.1363 78.0291C32.1684 78.0487 32.2049 78.0598 32.2425 78.0614L47.0196 78.6201L47.1535 78.8187L47.5137 78.574L50.8386 77.1886C50.8662 77.1774 50.8912 77.1605 50.9119 77.139C50.9326 77.1176 50.9485 77.092 50.9587 77.0639L51.813 74.7873C51.8338 74.7355 51.8338 74.6776 51.813 74.6257L50.6723 71.7765C50.6565 71.7355 50.6285 71.7004 50.5923 71.6757C50.556 71.6509 50.5131 71.6378 50.4692 71.638H48.2018L42.6142 71.3563L41.021 68.9642L42.1386 64.5034C42.1386 64.5034 42.1386 64.5034 42.1386 64.4803L43.293 56.8793L45.7082 54.9998L49.8642 55.8357H49.9473L58.1994 55.5494L63.4453 55.8264L64.5305 59.6269L63.3945 76.3943C63.3904 76.4434 63.4035 76.4924 63.4315 76.5329L65.2786 79.1927L65.3894 79.456L65.4541 79.4283C65.4665 79.4417 65.4826 79.4513 65.5003 79.456L70.6261 81.7372C70.6552 81.7415 70.6847 81.7415 70.7138 81.7372H80.1573L85.8557 80.5966C85.9018 80.587 85.9436 80.5631 85.9751 80.5282C86.0067 80.4934 86.0263 80.4494 86.0312 80.4026L86.3129 77.5534C86.3168 77.5255 86.3147 77.497 86.3067 77.4699C86.2988 77.4429 86.2851 77.4178 86.2667 77.3964L83.9901 74.5472C83.9694 74.5218 83.9433 74.5012 83.9138 74.4868C83.8843 74.4725 83.8521 74.4647 83.8193 74.4641H80.9977L77.9961 73.6467L76.9294 71.25L78.8966 64.5034L84.6736 50.188L88.1693 58.8003L88.2108 58.865L94.7405 66.0134L99.289 73.402L102.129 77.6596C102.15 77.6894 102.177 77.7138 102.21 77.7307C102.242 77.7476 102.277 77.7564 102.314 77.7566H119.686C119.721 77.7574 119.756 77.7494 119.788 77.7332C119.819 77.7171 119.846 77.6934 119.866 77.6642L121.861 74.815C121.885 74.7785 121.897 74.736 121.897 74.6927C121.897 74.6493 121.885 74.6068 121.861 74.5703L119.866 71.4394C119.849 71.4112 119.825 71.3875 119.797 71.3699C119.769 71.3523 119.737 71.3413 119.705 71.3378L112.778 70.5943L112.722 70.5435C112.683 70.5112 112.634 70.4936 112.584 70.4936C112.533 70.4936 112.484 70.5112 112.445 70.5435L112.399 70.5758L111.85 70.5204L106.77 62.0836L101.409 49.029L100.845 42.3008L103.016 38.7774L108.52 39.3315L112.404 42.0006L112.367 42.2176L112.801 42.2869L113.027 42.4439L113.083 42.4716L123.62 45.8888H123.676L129.374 46.1751C129.414 46.1753 129.454 46.1658 129.49 46.1474L136.878 42.1622C136.929 42.1325 136.967 42.0847 136.985 42.0283C137.005 41.9748 137.005 41.9156 136.985 41.8621L131.342 31.398L133.013 26.9326C133.032 26.8834 133.032 26.8293 133.013 26.7802L130.45 19.9365L130.423 19.8811L123.884 11.0795L122.757 8.53969L122.72 8.48428L121.011 6.49399C120.978 6.45253 120.93 6.42465 120.877 6.41548L116.906 5.84749C116.877 5.84341 116.847 5.8454 116.818 5.85335C116.79 5.86129 116.763 5.87501 116.74 5.89367L114.316 7.77775L114.112 7.68539L114.071 7.77775L110.64 7.00657L99.8201 4.42981L91.8589 1.8669H91.8081L80.1296 1.00337C80.0974 0.998878 80.0648 0.998878 80.0326 1.00337L72.367 4.1435L64.1565 5.27487L46.5255 3.85258L37.1282 2.99828C37.0875 2.9866 37.0443 2.9866 37.0035 2.99828L29.0285 7.29749L28.9869 7.3252L20.1576 15.0139C20.1446 15.0222 20.1336 15.0332 20.1253 15.0462L15.5675 21.0494C15.5537 21.067 15.5442 21.0876 15.5398 21.1095L10.9819 33.6192C10.9727 33.6493 10.9727 33.6815 10.9819 33.7116L11.5499 41.3726L9.8552 52.1183L3.88894 59.7701L1.03973 63.7553C1.00697 63.8024 0.993726 63.8603 1.00278 63.9169L1.85708 69.6153C1.86318 69.6497 1.87572 69.6826 1.89403 69.7123L2.05565 69.9386L2.02794 70.0817L2.18495 70.1141L5.61601 74.8381V74.8889ZM17.9087 74.9212L20.3562 76.2835V79.4744L18.2135 81.3493H14.5192V72.8247L17.9087 74.9212ZM48.2064 72.1044H50.3352L51.3881 74.7319L50.5938 76.8423L47.3106 78.2276H47.269L42.9375 71.8596L48.2064 72.1044ZM46.7148 78.1676L32.3118 77.6227L28.7699 75.4431L42.4064 71.8273L46.7148 78.1676ZM42.1478 71.4394L28.6544 75.0275L27.6431 70.9868L28.7422 57.258L40.6378 69.1535L42.1478 71.4394ZM42.9328 56.593C42.889 56.6274 42.8594 56.6767 42.8497 56.7315L41.7137 64.411L40.6701 68.5671L29.0377 56.9301L44.8954 55.083L42.9328 56.593ZM63.3714 55.3924L58.1763 55.1199L49.9427 55.4062L45.6943 54.5704H45.625L29.3748 56.4683L40.9194 48.1562L65.0523 31.8506L63.3714 55.3924ZM44.4383 30.7885L40.9056 17.369L64.8907 31.4257L41.1273 47.4543L44.4429 30.8901C44.4483 30.8562 44.4468 30.8217 44.4383 30.7885ZM43.9996 30.8531L40.6793 47.4774L22.1571 27.6899L40.4115 17.2074L43.9996 30.8531ZM80.91 74.9212H83.713L85.8696 77.6181L85.611 80.2179L80.2681 81.2846L78.1578 74.1639L80.91 74.9212ZM79.8202 81.3262H70.76L65.9944 79.2066L77.696 74.1547L79.8202 81.3262ZM77.5436 73.7391L65.6018 78.8972L63.8009 76.3528L64.923 60.1118L76.5138 71.4255L77.5436 73.7391ZM84.5812 49.4446C84.556 49.4555 84.5332 49.4714 84.5142 49.4912C84.4952 49.511 84.4803 49.5344 84.4704 49.56L78.4672 64.3741L76.5739 70.8391L64.9138 59.4607L63.8009 55.6002L65.491 31.7074L99.9956 42.2823L84.5812 49.4446ZM119.575 71.7811L121.422 74.7042L119.677 77.2209L113.313 71.1115L119.575 71.7811ZM112.533 71.0284H112.593L119.16 77.3317H103.593L112.533 71.0284ZM111.54 70.8344C111.558 70.8635 111.582 70.8882 111.611 70.9066C111.64 70.925 111.673 70.9367 111.706 70.9407H111.868L102.831 77.3364H102.448L99.6769 73.1803L95.1191 65.7918L95.0914 65.7594L88.982 59.0959L106.465 62.3745L111.54 70.8344ZM100.975 49.0936C100.97 49.1149 100.97 49.1369 100.975 49.1583L106.234 61.8851L88.5202 58.5648L84.9414 49.754L100.43 42.564L100.975 49.0936ZM103.011 38.2925L92.4315 20.6523L113.771 33.2359L113.276 36.3853L103.011 38.2925ZM112.478 41.525L108.723 38.9436C108.694 38.9214 108.659 38.9086 108.622 38.9067L104.466 38.4864L113.24 36.8609L112.478 41.525ZM123.731 45.4548L113.253 42.056L112.879 41.802L113.637 36.9441L128.506 45.6949L123.731 45.4548ZM136.495 41.8805L133.096 43.7277L134.482 38.1586L136.495 41.8805ZM130.894 31.338C130.88 31.3661 130.873 31.3969 130.873 31.428C130.873 31.4592 130.88 31.49 130.894 31.5181L134.154 37.5536L132.607 43.8939L132.699 43.917L129.374 45.6903L113.674 36.4546L114.168 33.2867L132.404 27.205L130.894 31.338ZM130.049 20.1259L132.524 26.7202L114.135 32.8665L106.941 9.40785L112.371 11.9384L113.212 16.3577C113.217 16.3933 113.231 16.4269 113.252 16.4553C113.274 16.4837 113.303 16.5058 113.337 16.5193L116.467 17.9416C116.498 17.9484 116.529 17.9484 116.56 17.9416C116.615 17.9398 116.667 17.9185 116.708 17.8816L123.634 11.4951L130.049 20.1259ZM114.32 8.27647C114.361 8.27206 114.399 8.25603 114.431 8.2303L116.906 6.29542L120.72 6.84032L122.351 8.74749L123.413 11.1349L116.532 17.4845L113.637 16.1638L112.815 11.786L114.32 8.27647ZM99.7 4.85003L110.524 7.41294L113.858 8.18412L112.473 11.4628L95.0729 3.36309L99.7 4.85003ZM92.0113 2.42104L106.424 9.13539L113.632 32.6448L92.0113 19.895V2.42104ZM72.6164 4.51755L80.1481 1.46515L91.5726 2.30098V20.0197C91.5718 20.0605 91.5831 20.1006 91.6049 20.1351L102.642 38.5326L100.522 41.9775L65.5695 31.2641L72.6164 4.51755ZM20.4624 15.3187L29.2363 7.65768L37.1328 3.42774L46.4886 4.29127L64.1472 5.71357C64.1625 5.71585 64.1781 5.71585 64.1934 5.71357L72.113 4.61914L65.1862 31.0794L40.7717 16.7641L37.3175 3.73251L36.8927 3.84334L40.296 16.7733L21.8477 27.3574L16.0293 21.1464L20.4624 15.3187ZM11.4114 33.7254L15.8261 21.5713L21.4552 27.5745L11.6469 33.2175L11.864 33.6007L21.7785 27.9162L40.49 47.9022L28.4466 56.5838L17.3038 66.5768L14.4777 69.1489L11.9748 41.368L11.4114 33.7254ZM2.28193 69.4953L1.45995 63.94L4.23066 60.0333L10.2339 52.34C10.2565 52.3116 10.2723 52.2784 10.28 52.243L11.7116 43.1689L14.1128 69.8739V72.1829L2.44355 69.7215L2.28193 69.4953ZM14.099 72.6077V81.1738L11.3283 79.6545L5.9485 74.5749L2.8453 70.2711L14.099 72.6077Z" fill="white" stroke="white" stroke-width="2"/>
</svg>
