<svg width="136" height="81" viewBox="0 0 136 81" fill="none" xmlns="http://www.w3.org/2000/svg">
<mask id="path-1-inside-1" fill="white">
<path d="M4.61601 73.8889L10.0281 79.0193L10.0743 79.0517L13.2052 80.7603C13.2376 80.7787 13.2742 80.7882 13.3114 80.788H17.2966C17.3511 80.7887 17.4038 80.7689 17.4444 80.7326L19.721 78.7377C19.7444 78.7167 19.763 78.6911 19.7758 78.6625C19.7885 78.6338 19.795 78.6028 19.7949 78.5714V75.1542C19.7954 75.1155 19.7853 75.0775 19.7658 75.0441C19.7463 75.0108 19.718 74.9834 19.684 74.9649L17.1304 73.5426L13.5285 71.3306V68.7031L16.5901 65.9324L27.2989 56.2949L26.2044 69.9868C26.1998 70.0112 26.1998 70.0363 26.2044 70.0607L27.3451 74.6139C27.3504 74.642 27.3618 74.6686 27.3786 74.6917C27.3953 74.7149 27.417 74.734 27.442 74.7478L31.1363 77.0291C31.1684 77.0487 31.2049 77.0598 31.2425 77.0614L46.0196 77.6201L46.1535 77.8187L46.5137 77.574L49.8386 76.1886C49.8662 76.1774 49.8912 76.1605 49.9119 76.139C49.9326 76.1176 49.9485 76.092 49.9587 76.0639L50.813 73.7873C50.8338 73.7355 50.8338 73.6776 50.813 73.6257L49.6723 70.7765C49.6565 70.7355 49.6285 70.7004 49.5923 70.6757C49.556 70.6509 49.5131 70.6378 49.4692 70.638H47.2018L41.6142 70.3563L40.021 67.9642L41.1386 63.5034C41.1386 63.5034 41.1386 63.5034 41.1386 63.4803L42.293 55.8793L44.7082 53.9998L48.8642 54.8357H48.9473L57.1994 54.5494L62.4453 54.8264L63.5305 58.6269L62.3945 75.3943C62.3904 75.4434 62.4035 75.4924 62.4315 75.5329L64.2786 78.1927L64.3894 78.456L64.4541 78.4283C64.4665 78.4417 64.4826 78.4513 64.5003 78.456L69.6261 80.7372C69.6552 80.7415 69.6847 80.7415 69.7138 80.7372H79.1573L84.8557 79.5966C84.9018 79.587 84.9436 79.5631 84.9751 79.5282C85.0067 79.4934 85.0263 79.4494 85.0312 79.4026L85.3129 76.5534C85.3168 76.5255 85.3147 76.497 85.3067 76.4699C85.2988 76.4429 85.2851 76.4178 85.2667 76.3964L82.9901 73.5472C82.9694 73.5218 82.9433 73.5012 82.9138 73.4868C82.8843 73.4725 82.8521 73.4647 82.8193 73.4641H79.9977L76.9961 72.6467L75.9294 70.25L77.8966 63.5034L83.6736 49.188L87.1693 57.8003L87.2108 57.865L93.7405 65.0134L98.289 72.402L101.129 76.6596C101.15 76.6894 101.177 76.7138 101.21 76.7307C101.242 76.7476 101.277 76.7564 101.314 76.7566H118.686C118.721 76.7574 118.756 76.7494 118.788 76.7332C118.819 76.7171 118.846 76.6934 118.866 76.6642L120.861 73.815C120.885 73.7785 120.897 73.736 120.897 73.6927C120.897 73.6493 120.885 73.6068 120.861 73.5703L118.866 70.4394C118.849 70.4112 118.825 70.3875 118.797 70.3699C118.769 70.3523 118.737 70.3413 118.705 70.3378L111.778 69.5943L111.722 69.5435C111.683 69.5112 111.634 69.4936 111.584 69.4936C111.533 69.4936 111.484 69.5112 111.445 69.5435L111.399 69.5758L110.85 69.5204L105.77 61.0836L100.409 48.029L99.8453 41.3008L102.016 37.7774L107.52 38.3315L111.404 41.0006L111.367 41.2176L111.801 41.2869L112.027 41.4439L112.083 41.4716L122.62 44.8888H122.676L128.374 45.1751C128.414 45.1753 128.454 45.1658 128.49 45.1474L135.878 41.1622C135.929 41.1325 135.967 41.0847 135.985 41.0283C136.005 40.9748 136.005 40.9156 135.985 40.8621L130.342 30.398L132.013 25.9326C132.032 25.8834 132.032 25.8293 132.013 25.7802L129.45 18.9365L129.423 18.8811L122.884 10.0795L121.757 7.53969L121.72 7.48428L120.011 5.49399C119.978 5.45253 119.93 5.42465 119.877 5.41548L115.906 4.84749C115.877 4.84341 115.847 4.8454 115.818 4.85335C115.79 4.86129 115.763 4.87501 115.74 4.89367L113.316 6.77775L113.112 6.68539L113.071 6.77775L109.64 6.00657L98.8201 3.42981L90.8589 0.866903H90.8081L79.1296 0.0033656C79.0974 -0.00112187 79.0648 -0.00112187 79.0326 0.0033656L71.367 3.1435L63.1565 4.27487L45.5255 2.85258L36.1282 1.99828C36.0875 1.9866 36.0443 1.9866 36.0035 1.99828L28.0285 6.29749L27.9869 6.3252L19.1576 14.0139C19.1446 14.0222 19.1336 14.0332 19.1253 14.0462L14.5675 20.0494C14.5537 20.067 14.5442 20.0876 14.5398 20.1095L9.98195 32.6192C9.97269 32.6493 9.97269 32.6815 9.98195 32.7116L10.5499 40.3726L8.8552 51.1183L2.88894 58.7701L0.0397252 62.7553C0.00696759 62.8024 -0.00627391 62.8603 0.00278246 62.9169L0.857084 68.6153C0.863181 68.6497 0.875715 68.6826 0.894027 68.7123L1.05565 68.9386L1.02794 69.0817L1.18495 69.1141L4.61601 73.8381V73.8889ZM16.9087 73.9212L19.3562 75.2835V78.4744L17.2135 80.3493H13.5192V71.8247L16.9087 73.9212ZM47.2064 71.1044H49.3352L50.3881 73.7319L49.5938 75.8423L46.3106 77.2276H46.269L41.9375 70.8596L47.2064 71.1044ZM45.7148 77.1676L31.3118 76.6227L27.7699 74.4431L41.4064 70.8273L45.7148 77.1676ZM41.1478 70.4394L27.6544 74.0275L26.6431 69.9868L27.7422 56.258L39.6378 68.1535L41.1478 70.4394ZM41.9328 55.593C41.889 55.6274 41.8594 55.6767 41.8497 55.7315L40.7137 63.411L39.6701 67.5671L28.0377 55.9301L43.8954 54.083L41.9328 55.593ZM62.3714 54.3924L57.1763 54.1199L48.9427 54.4062L44.6943 53.5704H44.625L28.3748 55.4683L39.9194 47.1562L64.0523 30.8506L62.3714 54.3924ZM43.4383 29.7885L39.9056 16.369L63.8907 30.4257L40.1273 46.4543L43.4429 29.8901C43.4483 29.8562 43.4468 29.8217 43.4383 29.7885ZM42.9996 29.8531L39.6793 46.4774L21.1571 26.6899L39.4115 16.2074L42.9996 29.8531ZM79.91 73.9212H82.713L84.8696 76.6181L84.611 79.2179L79.2681 80.2846L77.1578 73.1639L79.91 73.9212ZM78.8202 80.3262H69.76L64.9944 78.2066L76.696 73.1547L78.8202 80.3262ZM76.5436 72.7391L64.6018 77.8972L62.8009 75.3528L63.923 59.1118L75.5138 70.4255L76.5436 72.7391ZM83.5812 48.4446C83.556 48.4555 83.5332 48.4714 83.5142 48.4912C83.4952 48.511 83.4803 48.5344 83.4704 48.56L77.4672 63.3741L75.5739 69.8391L63.9138 58.4607L62.8009 54.6002L64.491 30.7074L98.9956 41.2823L83.5812 48.4446ZM118.575 70.7811L120.422 73.7042L118.677 76.2209L112.313 70.1115L118.575 70.7811ZM111.533 70.0284H111.593L118.16 76.3317H102.593L111.533 70.0284ZM110.54 69.8344C110.558 69.8635 110.582 69.8882 110.611 69.9066C110.64 69.925 110.673 69.9367 110.706 69.9407H110.868L101.831 76.3364H101.448L98.6769 72.1803L94.1191 64.7918L94.0914 64.7594L87.982 58.0959L105.465 61.3745L110.54 69.8344ZM99.9746 48.0936C99.9702 48.1149 99.9702 48.1369 99.9746 48.1583L105.234 60.8851L87.5202 57.5648L83.9414 48.754L99.4296 41.564L99.9746 48.0936ZM102.011 37.2925L91.4315 19.6523L112.771 32.2359L112.276 35.3853L102.011 37.2925ZM111.478 40.525L107.723 37.9436C107.694 37.9214 107.659 37.9086 107.622 37.9067L103.466 37.4864L112.24 35.8609L111.478 40.525ZM122.731 44.4548L112.253 41.056L111.879 40.802L112.637 35.9441L127.506 44.6949L122.731 44.4548ZM135.495 40.8805L132.096 42.7277L133.482 37.1586L135.495 40.8805ZM129.894 30.338C129.88 30.3661 129.873 30.3969 129.873 30.428C129.873 30.4592 129.88 30.49 129.894 30.5181L133.154 36.5536L131.607 42.8939L131.699 42.917L128.374 44.6903L112.674 35.4546L113.168 32.2867L131.404 26.205L129.894 30.338ZM129.049 19.1259L131.524 25.7202L113.135 31.8665L105.941 8.40785L111.371 10.9384L112.212 15.3577C112.217 15.3933 112.231 15.4269 112.252 15.4553C112.274 15.4837 112.303 15.5058 112.337 15.5193L115.467 16.9416C115.498 16.9484 115.529 16.9484 115.56 16.9416C115.615 16.9398 115.667 16.9185 115.708 16.8816L122.634 10.4951L129.049 19.1259ZM113.32 7.27647C113.361 7.27206 113.399 7.25603 113.431 7.2303L115.906 5.29542L119.72 5.84032L121.351 7.74749L122.413 10.1349L115.532 16.4845L112.637 15.1638L111.815 10.786L113.32 7.27647ZM98.7 3.85003L109.524 6.41294L112.858 7.18412L111.473 10.4628L94.0729 2.36309L98.7 3.85003ZM91.0113 1.42104L105.424 8.13539L112.632 31.6448L91.0113 18.895V1.42104ZM71.6164 3.51755L79.1481 0.46515L90.5726 1.30098V19.0197C90.5718 19.0605 90.5831 19.1006 90.6049 19.1351L101.642 37.5326L99.522 40.9775L64.5695 30.2641L71.6164 3.51755ZM19.4624 14.3187L28.2363 6.65768L36.1328 2.42774L45.4886 3.29127L63.1472 4.71357C63.1625 4.71585 63.1781 4.71585 63.1934 4.71357L71.113 3.61914L64.1862 30.0794L39.7717 15.7641L36.3175 2.73251L35.8927 2.84334L39.296 15.7733L20.8477 26.3574L15.0293 20.1464L19.4624 14.3187ZM10.4114 32.7254L14.8261 20.5713L20.4552 26.5745L10.6469 32.2175L10.864 32.6007L20.7785 26.9162L39.49 46.9022L27.4466 55.5838L16.3038 65.5768L13.4777 68.1489L10.9748 40.368L10.4114 32.7254ZM1.28193 68.4953L0.459949 62.94L3.23066 59.0333L9.23386 51.34C9.25652 51.3116 9.27232 51.2784 9.28004 51.243L10.7116 42.1689L13.1128 68.8739V71.1829L1.44355 68.7215L1.28193 68.4953ZM13.099 71.6077V80.1738L10.3283 78.6545L4.9485 73.5749L1.8453 69.2711L13.099 71.6077Z"/>
</mask>
<path d="M4.61601 73.8889L10.0281 79.0193L10.0743 79.0517L13.2052 80.7603C13.2376 80.7787 13.2742 80.7882 13.3114 80.788H17.2966C17.3511 80.7887 17.4038 80.7689 17.4444 80.7326L19.721 78.7377C19.7444 78.7167 19.763 78.6911 19.7758 78.6625C19.7885 78.6338 19.795 78.6028 19.7949 78.5714V75.1542C19.7954 75.1155 19.7853 75.0775 19.7658 75.0441C19.7463 75.0108 19.718 74.9834 19.684 74.9649L17.1304 73.5426L13.5285 71.3306V68.7031L16.5901 65.9324L27.2989 56.2949L26.2044 69.9868C26.1998 70.0112 26.1998 70.0363 26.2044 70.0607L27.3451 74.6139C27.3504 74.642 27.3618 74.6686 27.3786 74.6917C27.3953 74.7149 27.417 74.734 27.442 74.7478L31.1363 77.0291C31.1684 77.0487 31.2049 77.0598 31.2425 77.0614L46.0196 77.6201L46.1535 77.8187L46.5137 77.574L49.8386 76.1886C49.8662 76.1774 49.8912 76.1605 49.9119 76.139C49.9326 76.1176 49.9485 76.092 49.9587 76.0639L50.813 73.7873C50.8338 73.7355 50.8338 73.6776 50.813 73.6257L49.6723 70.7765C49.6565 70.7355 49.6285 70.7004 49.5923 70.6757C49.556 70.6509 49.5131 70.6378 49.4692 70.638H47.2018L41.6142 70.3563L40.021 67.9642L41.1386 63.5034C41.1386 63.5034 41.1386 63.5034 41.1386 63.4803L42.293 55.8793L44.7082 53.9998L48.8642 54.8357H48.9473L57.1994 54.5494L62.4453 54.8264L63.5305 58.6269L62.3945 75.3943C62.3904 75.4434 62.4035 75.4924 62.4315 75.5329L64.2786 78.1927L64.3894 78.456L64.4541 78.4283C64.4665 78.4417 64.4826 78.4513 64.5003 78.456L69.6261 80.7372C69.6552 80.7415 69.6847 80.7415 69.7138 80.7372H79.1573L84.8557 79.5966C84.9018 79.587 84.9436 79.5631 84.9751 79.5282C85.0067 79.4934 85.0263 79.4494 85.0312 79.4026L85.3129 76.5534C85.3168 76.5255 85.3147 76.497 85.3067 76.4699C85.2988 76.4429 85.2851 76.4178 85.2667 76.3964L82.9901 73.5472C82.9694 73.5218 82.9433 73.5012 82.9138 73.4868C82.8843 73.4725 82.8521 73.4647 82.8193 73.4641H79.9977L76.9961 72.6467L75.9294 70.25L77.8966 63.5034L83.6736 49.188L87.1693 57.8003L87.2108 57.865L93.7405 65.0134L98.289 72.402L101.129 76.6596C101.15 76.6894 101.177 76.7138 101.21 76.7307C101.242 76.7476 101.277 76.7564 101.314 76.7566H118.686C118.721 76.7574 118.756 76.7494 118.788 76.7332C118.819 76.7171 118.846 76.6934 118.866 76.6642L120.861 73.815C120.885 73.7785 120.897 73.736 120.897 73.6927C120.897 73.6493 120.885 73.6068 120.861 73.5703L118.866 70.4394C118.849 70.4112 118.825 70.3875 118.797 70.3699C118.769 70.3523 118.737 70.3413 118.705 70.3378L111.778 69.5943L111.722 69.5435C111.683 69.5112 111.634 69.4936 111.584 69.4936C111.533 69.4936 111.484 69.5112 111.445 69.5435L111.399 69.5758L110.85 69.5204L105.77 61.0836L100.409 48.029L99.8453 41.3008L102.016 37.7774L107.52 38.3315L111.404 41.0006L111.367 41.2176L111.801 41.2869L112.027 41.4439L112.083 41.4716L122.62 44.8888H122.676L128.374 45.1751C128.414 45.1753 128.454 45.1658 128.49 45.1474L135.878 41.1622C135.929 41.1325 135.967 41.0847 135.985 41.0283C136.005 40.9748 136.005 40.9156 135.985 40.8621L130.342 30.398L132.013 25.9326C132.032 25.8834 132.032 25.8293 132.013 25.7802L129.45 18.9365L129.423 18.8811L122.884 10.0795L121.757 7.53969L121.72 7.48428L120.011 5.49399C119.978 5.45253 119.93 5.42465 119.877 5.41548L115.906 4.84749C115.877 4.84341 115.847 4.8454 115.818 4.85335C115.79 4.86129 115.763 4.87501 115.74 4.89367L113.316 6.77775L113.112 6.68539L113.071 6.77775L109.64 6.00657L98.8201 3.42981L90.8589 0.866903H90.8081L79.1296 0.0033656C79.0974 -0.00112187 79.0648 -0.00112187 79.0326 0.0033656L71.367 3.1435L63.1565 4.27487L45.5255 2.85258L36.1282 1.99828C36.0875 1.9866 36.0443 1.9866 36.0035 1.99828L28.0285 6.29749L27.9869 6.3252L19.1576 14.0139C19.1446 14.0222 19.1336 14.0332 19.1253 14.0462L14.5675 20.0494C14.5537 20.067 14.5442 20.0876 14.5398 20.1095L9.98195 32.6192C9.97269 32.6493 9.97269 32.6815 9.98195 32.7116L10.5499 40.3726L8.8552 51.1183L2.88894 58.7701L0.0397252 62.7553C0.00696759 62.8024 -0.00627391 62.8603 0.00278246 62.9169L0.857084 68.6153C0.863181 68.6497 0.875715 68.6826 0.894027 68.7123L1.05565 68.9386L1.02794 69.0817L1.18495 69.1141L4.61601 73.8381V73.8889ZM16.9087 73.9212L19.3562 75.2835V78.4744L17.2135 80.3493H13.5192V71.8247L16.9087 73.9212ZM47.2064 71.1044H49.3352L50.3881 73.7319L49.5938 75.8423L46.3106 77.2276H46.269L41.9375 70.8596L47.2064 71.1044ZM45.7148 77.1676L31.3118 76.6227L27.7699 74.4431L41.4064 70.8273L45.7148 77.1676ZM41.1478 70.4394L27.6544 74.0275L26.6431 69.9868L27.7422 56.258L39.6378 68.1535L41.1478 70.4394ZM41.9328 55.593C41.889 55.6274 41.8594 55.6767 41.8497 55.7315L40.7137 63.411L39.6701 67.5671L28.0377 55.9301L43.8954 54.083L41.9328 55.593ZM62.3714 54.3924L57.1763 54.1199L48.9427 54.4062L44.6943 53.5704H44.625L28.3748 55.4683L39.9194 47.1562L64.0523 30.8506L62.3714 54.3924ZM43.4383 29.7885L39.9056 16.369L63.8907 30.4257L40.1273 46.4543L43.4429 29.8901C43.4483 29.8562 43.4468 29.8217 43.4383 29.7885ZM42.9996 29.8531L39.6793 46.4774L21.1571 26.6899L39.4115 16.2074L42.9996 29.8531ZM79.91 73.9212H82.713L84.8696 76.6181L84.611 79.2179L79.2681 80.2846L77.1578 73.1639L79.91 73.9212ZM78.8202 80.3262H69.76L64.9944 78.2066L76.696 73.1547L78.8202 80.3262ZM76.5436 72.7391L64.6018 77.8972L62.8009 75.3528L63.923 59.1118L75.5138 70.4255L76.5436 72.7391ZM83.5812 48.4446C83.556 48.4555 83.5332 48.4714 83.5142 48.4912C83.4952 48.511 83.4803 48.5344 83.4704 48.56L77.4672 63.3741L75.5739 69.8391L63.9138 58.4607L62.8009 54.6002L64.491 30.7074L98.9956 41.2823L83.5812 48.4446ZM118.575 70.7811L120.422 73.7042L118.677 76.2209L112.313 70.1115L118.575 70.7811ZM111.533 70.0284H111.593L118.16 76.3317H102.593L111.533 70.0284ZM110.54 69.8344C110.558 69.8635 110.582 69.8882 110.611 69.9066C110.64 69.925 110.673 69.9367 110.706 69.9407H110.868L101.831 76.3364H101.448L98.6769 72.1803L94.1191 64.7918L94.0914 64.7594L87.982 58.0959L105.465 61.3745L110.54 69.8344ZM99.9746 48.0936C99.9702 48.1149 99.9702 48.1369 99.9746 48.1583L105.234 60.8851L87.5202 57.5648L83.9414 48.754L99.4296 41.564L99.9746 48.0936ZM102.011 37.2925L91.4315 19.6523L112.771 32.2359L112.276 35.3853L102.011 37.2925ZM111.478 40.525L107.723 37.9436C107.694 37.9214 107.659 37.9086 107.622 37.9067L103.466 37.4864L112.24 35.8609L111.478 40.525ZM122.731 44.4548L112.253 41.056L111.879 40.802L112.637 35.9441L127.506 44.6949L122.731 44.4548ZM135.495 40.8805L132.096 42.7277L133.482 37.1586L135.495 40.8805ZM129.894 30.338C129.88 30.3661 129.873 30.3969 129.873 30.428C129.873 30.4592 129.88 30.49 129.894 30.5181L133.154 36.5536L131.607 42.8939L131.699 42.917L128.374 44.6903L112.674 35.4546L113.168 32.2867L131.404 26.205L129.894 30.338ZM129.049 19.1259L131.524 25.7202L113.135 31.8665L105.941 8.40785L111.371 10.9384L112.212 15.3577C112.217 15.3933 112.231 15.4269 112.252 15.4553C112.274 15.4837 112.303 15.5058 112.337 15.5193L115.467 16.9416C115.498 16.9484 115.529 16.9484 115.56 16.9416C115.615 16.9398 115.667 16.9185 115.708 16.8816L122.634 10.4951L129.049 19.1259ZM113.32 7.27647C113.361 7.27206 113.399 7.25603 113.431 7.2303L115.906 5.29542L119.72 5.84032L121.351 7.74749L122.413 10.1349L115.532 16.4845L112.637 15.1638L111.815 10.786L113.32 7.27647ZM98.7 3.85003L109.524 6.41294L112.858 7.18412L111.473 10.4628L94.0729 2.36309L98.7 3.85003ZM91.0113 1.42104L105.424 8.13539L112.632 31.6448L91.0113 18.895V1.42104ZM71.6164 3.51755L79.1481 0.46515L90.5726 1.30098V19.0197C90.5718 19.0605 90.5831 19.1006 90.6049 19.1351L101.642 37.5326L99.522 40.9775L64.5695 30.2641L71.6164 3.51755ZM19.4624 14.3187L28.2363 6.65768L36.1328 2.42774L45.4886 3.29127L63.1472 4.71357C63.1625 4.71585 63.1781 4.71585 63.1934 4.71357L71.113 3.61914L64.1862 30.0794L39.7717 15.7641L36.3175 2.73251L35.8927 2.84334L39.296 15.7733L20.8477 26.3574L15.0293 20.1464L19.4624 14.3187ZM10.4114 32.7254L14.8261 20.5713L20.4552 26.5745L10.6469 32.2175L10.864 32.6007L20.7785 26.9162L39.49 46.9022L27.4466 55.5838L16.3038 65.5768L13.4777 68.1489L10.9748 40.368L10.4114 32.7254ZM1.28193 68.4953L0.459949 62.94L3.23066 59.0333L9.23386 51.34C9.25652 51.3116 9.27232 51.2784 9.28004 51.243L10.7116 42.1689L13.1128 68.8739V71.1829L1.44355 68.7215L1.28193 68.4953ZM13.099 71.6077V80.1738L10.3283 78.6545L4.9485 73.5749L1.8453 69.2711L13.099 71.6077Z" fill="white" stroke="white" stroke-width="40" mask="url(#path-1-inside-1)"/>
</svg>
