<svg width="31" height="25" viewBox="0 0 31 25" fill="none" xmlns="http://www.w3.org/2000/svg">
<path d="M30.0833 9.58334V3.75001C30.0833 2.13126 28.7708 0.833344 27.1667 0.833344H3.83334C2.22917 0.833344 0.931255 2.13126 0.931255 3.75001V9.58334C2.53542 9.58334 3.83334 10.8958 3.83334 12.5C3.83334 14.1042 2.53542 15.4167 0.916672 15.4167V21.25C0.916672 22.8542 2.22917 24.1667 3.83334 24.1667H27.1667C28.7708 24.1667 30.0833 22.8542 30.0833 21.25V15.4167C28.4792 15.4167 27.1667 14.1042 27.1667 12.5C27.1667 10.8958 28.4792 9.58334 30.0833 9.58334ZM27.1667 7.45418C25.4313 8.46043 24.25 10.3563 24.25 12.5C24.25 14.6438 25.4313 16.5396 27.1667 17.5458V21.25H3.83334V17.5458C5.56876 16.5396 6.75001 14.6438 6.75001 12.5C6.75001 10.3417 5.58334 8.46043 3.84792 7.45418L3.83334 3.75001H27.1667V7.45418ZM14.0417 16.875H16.9583V19.7917H14.0417V16.875ZM14.0417 11.0417H16.9583V13.9583H14.0417V11.0417ZM14.0417 5.20834H16.9583V8.12501H14.0417V5.20834Z" fill="white"/>
</svg>
