<svg width="35" height="42" viewBox="0 0 35 42" fill="none" xmlns="http://www.w3.org/2000/svg">
<path fill-rule="evenodd" clip-rule="evenodd" d="M23.4016 0C30.1856 0 34.0776 3.358 34.0776 9.208V38.28C34.0776 39.5 33.4496 40.598 32.3936 41.212C31.3416 41.828 30.0736 41.84 29.0096 41.24L17.0896 34.506L5.0596 41.254C4.5396 41.546 3.9696 41.694 3.3976 41.694C2.8076 41.694 2.2176 41.536 1.6816 41.22C0.627603 40.606 -0.000396729 39.508 -0.000396729 38.29V8.842C-0.000396729 3.222 3.8936 0 10.6836 0H23.4016ZM23.4016 3H10.6836C5.5856 3 2.9996 4.964 2.9996 8.842V38.29C2.9996 38.478 3.1076 38.58 3.1976 38.632C3.2876 38.688 3.4296 38.728 3.5936 38.636L16.3576 31.476C16.8136 31.222 17.3716 31.22 17.8296 31.478L30.4836 38.626C30.6496 38.722 30.7916 38.678 30.8816 38.624C30.9716 38.57 31.0776 38.468 31.0776 38.28L31.0769 8.98009C31.0617 7.25875 30.7287 3 23.4016 3ZM24.2792 13.457C25.1072 13.457 25.7792 14.129 25.7792 14.957C25.7792 15.785 25.1072 16.457 24.2792 16.457H9.6432C8.8152 16.457 8.1432 15.785 8.1432 14.957C8.1432 14.129 8.8152 13.457 9.6432 13.457H24.2792Z" fill="black"/>
</svg>
