<svg width="13" height="16" viewBox="0 0 13 16" fill="none" xmlns="http://www.w3.org/2000/svg">
<path d="M8.85566 0C11.0236 0 12.7755 0.855967 12.7995 3.03188V15.1754C12.7995 15.3114 12.7675 15.4474 12.7035 15.5674C12.5995 15.7594 12.4235 15.9034 12.2075 15.9674C11.9995 16.0314 11.7675 15.9994 11.5756 15.8874L6.39175 13.2955L1.19995 15.8874C1.08076 15.9506 0.943963 15.9914 0.807969 15.9914C0.359986 15.9914 0 15.6234 0 15.1754V3.03188C0 0.855967 1.75993 0 3.91985 0H8.85566ZM9.39964 4.83181H3.37587C3.03188 4.83181 2.75189 5.1118 2.75189 5.46379C2.75189 5.81497 3.03188 6.09576 3.37587 6.09576H9.39964C9.74362 6.09576 10.0236 5.81497 10.0236 5.46379C10.0236 5.1118 9.74362 4.83181 9.39964 4.83181Z" fill="black"/>
</svg>
