<svg width="14" height="10" viewBox="0 0 14 10" fill="none" xmlns="http://www.w3.org/2000/svg">
<path d="M6.6034 0C8.21808 0 9.34543 1.11269 9.34543 2.70728V7.29272C9.34543 8.88731 8.21808 10 6.6034 10H2.74203C1.12734 10 0 8.88731 0 7.29272V2.70728C0 1.11269 1.12734 0 2.74203 0H6.6034ZM11.972 1.58599C12.2647 1.43709 12.608 1.45266 12.8873 1.62863C13.1667 1.80393 13.3333 2.10849 13.3333 2.44149V7.55892C13.3333 7.89259 13.1667 8.19648 12.8873 8.37178C12.7347 8.46721 12.564 8.51594 12.392 8.51594C12.2487 8.51594 12.1053 8.4821 11.9713 8.41374L10.984 7.9156C10.6186 7.73015 10.392 7.3579 10.392 6.94437V3.05536C10.392 2.64115 10.6186 2.2689 10.984 2.08481L11.972 1.58599Z" fill="#C4C4C4"/>
</svg>
