<svg width="20" height="20" viewBox="0 0 20 20" fill="none" xmlns="http://www.w3.org/2000/svg">
<path fill-rule="evenodd" clip-rule="evenodd" d="M19.0008 4.6738C19.0008 6.7024 17.3556 8.3476 15.327 8.3476C13.2984 8.3476 11.6541 6.7024 11.6541 4.6738C11.6541 2.6452 13.2984 1 15.327 1C17.3556 1 19.0008 2.6452 19.0008 4.6738Z" stroke="white" stroke-width="1.5" stroke-linecap="round" stroke-linejoin="round"/>
<path fill-rule="evenodd" clip-rule="evenodd" d="M8.3467 4.6738C8.3467 6.7024 6.7024 8.3476 4.6729 8.3476C2.6452 8.3476 1 6.7024 1 4.6738C1 2.6452 2.6452 1 4.6729 1C6.7024 1 8.3467 2.6452 8.3467 4.6738Z" stroke="white" stroke-width="1.5" stroke-linecap="round" stroke-linejoin="round"/>
<path fill-rule="evenodd" clip-rule="evenodd" d="M19.0008 15.2619C19.0008 17.2905 17.3556 18.9348 15.327 18.9348C13.2984 18.9348 11.6541 17.2905 11.6541 15.2619C11.6541 13.2333 13.2984 11.5881 15.327 11.5881C17.3556 11.5881 19.0008 13.2333 19.0008 15.2619Z" stroke="white" stroke-width="1.5" stroke-linecap="round" stroke-linejoin="round"/>
<path fill-rule="evenodd" clip-rule="evenodd" d="M8.3467 15.2619C8.3467 17.2905 6.7024 18.9348 4.6729 18.9348C2.6452 18.9348 1 17.2905 1 15.2619C1 13.2333 2.6452 11.5881 4.6729 11.5881C6.7024 11.5881 8.3467 13.2333 8.3467 15.2619Z" stroke="white" stroke-width="1.5" stroke-linecap="round" stroke-linejoin="round"/>
</svg>
