<svg width="25" height="31" viewBox="0 0 25 31" fill="none" xmlns="http://www.w3.org/2000/svg">
<path d="M21.25 0.916656H9.58334L0.833336 9.66666V27.1667C0.833336 28.7708 2.14584 30.0833 3.75 30.0833H21.25C22.8542 30.0833 24.1667 28.7708 24.1667 27.1667V3.83332C24.1667 2.22916 22.8542 0.916656 21.25 0.916656ZM21.25 3.83332V27.1667H3.75V10.8771L10.7938 3.83332H21.25ZM5.20834 22.7917H8.125V25.7083H5.20834V22.7917ZM16.875 22.7917H19.7917V25.7083H16.875V22.7917ZM5.20834 14.0417H8.125V19.875H5.20834V14.0417ZM11.0417 19.875H13.9583V25.7083H11.0417V19.875ZM11.0417 14.0417H13.9583V16.9583H11.0417V14.0417ZM16.875 14.0417H19.7917V19.875H16.875V14.0417Z" fill="white"/>
</svg>
