<svg width="19" height="14" viewBox="0 0 19 14" fill="none" xmlns="http://www.w3.org/2000/svg">
<path d="M9.12419 8.78302C11.9835 8.78302 14.425 9.23632 14.425 11.0503C14.425 12.8635 11.9992 13.3333 9.12419 13.3333C6.26487 13.3333 3.82341 12.88 3.82341 11.0668C3.82341 9.25283 6.2492 8.78302 9.12419 8.78302ZM13.6959 7.69073C14.789 7.67047 15.9642 7.82057 16.3985 7.92714C17.3185 8.10801 17.9237 8.47726 18.1744 9.01387C18.3863 9.45442 18.3863 9.96551 18.1744 10.4053C17.7909 11.2376 16.5545 11.5048 16.0739 11.5738C15.9747 11.5889 15.8949 11.5025 15.9053 11.4027C16.1508 9.09643 14.1981 8.00294 13.6929 7.75152C13.6713 7.74026 13.6668 7.723 13.669 7.7125C13.6705 7.70499 13.6795 7.69298 13.6959 7.69073ZM4.43215 7.68918L4.638 7.69103C4.65441 7.69328 4.66262 7.70529 4.66411 7.71205C4.66635 7.7233 4.66188 7.73981 4.64098 7.75182C4.13508 8.00324 2.18236 9.09673 2.42785 11.4023C2.43829 11.5028 2.3592 11.5884 2.25996 11.5741C1.77943 11.5051 0.543024 11.2379 0.159494 10.4056C-0.0531645 9.96506 -0.0531645 9.45472 0.159494 9.01417C0.410206 8.47756 1.0146 8.10831 1.93463 7.92669C2.36965 7.82087 3.54412 7.67077 4.638 7.69103L4.43215 7.68918ZM9.12419 0C11.0709 0 12.6319 1.56856 12.6319 3.52738C12.6319 5.48545 11.0709 7.0555 9.12419 7.0555C7.17744 7.0555 5.61645 5.48545 5.61645 3.52738C5.61645 1.56856 7.17744 0 9.12419 0ZM13.8862 0.588246C15.7665 0.588246 17.2432 2.36769 16.7403 4.34978C16.4008 5.68418 15.1718 6.57053 13.8026 6.5345C13.6653 6.53075 13.5302 6.51799 13.3997 6.49548C13.3049 6.47896 13.2571 6.37164 13.3109 6.29209C13.8332 5.51907 14.1309 4.58919 14.1309 3.59102C14.1309 2.54932 13.8056 1.57816 13.2407 0.781877C13.2228 0.75711 13.2094 0.718834 13.2273 0.690315C13.2422 0.667049 13.2698 0.655041 13.2959 0.649037C13.4862 0.610011 13.6817 0.588246 13.8862 0.588246ZM4.44661 0.588171C4.65106 0.588171 4.84655 0.609936 5.03757 0.648962C5.06294 0.654966 5.0913 0.667725 5.10622 0.69024C5.12338 0.718759 5.1107 0.757035 5.09279 0.781802C4.52794 1.57809 4.20261 2.54924 4.20261 3.59094C4.20261 4.58912 4.50033 5.51899 5.02265 6.29201C5.07637 6.37157 5.02862 6.47889 4.93386 6.4954C4.80253 6.51867 4.66822 6.53067 4.53092 6.53443C3.1617 6.57045 1.93276 5.6841 1.59326 4.34971C1.08959 2.36762 2.56626 0.588171 4.44661 0.588171Z" fill="#020202"/>
</svg>
