<svg width="22" height="22" viewBox="0 0 22 22" fill="none" xmlns="http://www.w3.org/2000/svg">
<path d="M11 0C4.93436 0 0 4.93436 0 11C0 17.0656 4.93436 22 11 22C17.0656 22 22 17.0656 22 11C22 4.93436 17.0656 0 11 0ZM15.0508 13.7545C15.4092 14.1131 15.4092 14.6923 15.0508 15.0508C14.8721 15.2296 14.6374 15.3194 14.4026 15.3194C14.1679 15.3194 13.9333 15.2296 13.7545 15.0508L11 12.2961L8.24547 15.0508C8.06671 15.2296 7.83206 15.3194 7.59741 15.3194C7.36259 15.3194 7.12794 15.2296 6.94919 15.0508C6.59084 14.6923 6.59084 14.1131 6.94919 13.7545L9.70389 11L6.94919 8.24547C6.59084 7.88695 6.59084 7.30771 6.94919 6.94919C7.30771 6.59084 7.88695 6.59084 8.24547 6.94919L11 9.70389L13.7545 6.94919C14.1131 6.59084 14.6923 6.59084 15.0508 6.94919C15.4092 7.30771 15.4092 7.88695 15.0508 8.24547L12.2961 11L15.0508 13.7545Z" fill="#936EE3"/>
</svg>
