<svg width="12" height="14" viewBox="0 0 12 14" fill="none" xmlns="http://www.w3.org/2000/svg">
<path d="M10.626 4.46476C10.759 4.46476 10.8796 4.52276 10.9749 4.62075C11.0637 4.72542 11.1084 4.85542 11.0955 4.99275C11.0955 5.03808 10.7402 9.53137 10.5372 11.4227C10.4101 12.5833 9.66192 13.288 8.53959 13.3073C7.67662 13.3267 6.83309 13.3333 6.00253 13.3333C5.12075 13.3333 4.25842 13.3267 3.42137 13.3073C2.33665 13.2813 1.58779 12.564 1.46719 11.4227C1.25842 9.52471 0.909596 5.03808 0.903112 4.99275C0.896628 4.85542 0.940718 4.72542 1.03019 4.62075C1.11837 4.52276 1.24545 4.46476 1.37901 4.46476H10.626ZM7.37649 0C7.96585 0 8.49233 0.411329 8.64469 0.99799L8.75362 1.48465C8.8418 1.88131 9.18543 2.16198 9.58094 2.16198H11.5247C11.7841 2.16198 12 2.37731 12 2.65131V2.90464C12 3.17197 11.7841 3.39397 11.5247 3.39397H0.475902C0.215907 3.39397 0 3.17197 0 2.90464V2.65131C0 2.37731 0.215907 2.16198 0.475902 2.16198H2.41971C2.81457 2.16198 3.1582 1.88131 3.24703 1.48532L3.34882 1.03066C3.50702 0.411329 4.02766 0 4.62351 0H7.37649Z" fill="#C4C4C4"/>
</svg>
