<svg width="18" height="18" viewBox="0 0 18 18" fill="none" xmlns="http://www.w3.org/2000/svg">
<g clip-path="url(#clip0_11742:101292)">
<path d="M17.1398 0.861454C16.6299 0.352351 15.9388 0.0664063 15.2183 0.0664062C14.4977 0.0664063 13.8066 0.352351 13.2968 0.861454L1.09876 13.0595C0.74945 13.4068 0.472483 13.82 0.283885 14.275C0.0952868 14.7301 -0.00119848 15.2181 1.12359e-05 15.7107V17.2505C1.12359e-05 17.4494 0.0790289 17.6401 0.219681 17.7808C0.360333 17.9214 0.551099 18.0005 0.750011 18.0005H2.28976C2.78233 18.0018 3.27029 17.9055 3.72538 17.717C4.18047 17.5286 4.59365 17.2517 4.94101 16.9025L17.1398 4.7037C17.6486 4.19385 17.9344 3.50293 17.9344 2.78258C17.9344 2.06223 17.6486 1.37131 17.1398 0.861454V0.861454ZM3.88051 15.842C3.45751 16.2621 2.88598 16.4987 2.28976 16.5005H1.50001V15.7107C1.49925 15.4151 1.55713 15.1223 1.67029 14.8493C1.78345 14.5762 1.94965 14.3283 2.15926 14.12L11.4165 4.8627L13.1415 6.5877L3.88051 15.842ZM16.0785 3.6432L14.199 5.52345L12.474 3.8022L14.3543 1.92195C14.4675 1.80893 14.6019 1.71933 14.7498 1.65826C14.8977 1.59719 15.0562 1.56585 15.2162 1.56602C15.3762 1.56619 15.5346 1.59788 15.6824 1.65928C15.8301 1.72067 15.9644 1.81056 16.0774 1.92383C16.1904 2.03709 16.28 2.17151 16.3411 2.3194C16.4022 2.4673 16.4335 2.62577 16.4333 2.78578C16.4331 2.94579 16.4015 3.10419 16.3401 3.25195C16.2787 3.39971 16.1888 3.53393 16.0755 3.64695L16.0785 3.6432Z" fill="#363853"/>
</g>
<defs>
<clipPath id="clip0_11742:101292">
<rect width="18" height="18" fill="white"/>
</clipPath>
</defs>
</svg>
