<svg width="77" height="87" viewBox="0 0 77 87" fill="none" xmlns="http://www.w3.org/2000/svg">
<path fill-rule="evenodd" clip-rule="evenodd" d="M43.206 0.0596251C52.6248 -0.482563 63.1182 2.66083 68.9057 9.986C74.4242 16.9707 69.8718 27.0373 71.4058 35.7519C72.6212 42.6564 77.684 48.5618 76.9223 55.5288C76.0506 63.5028 72.8364 71.3222 66.9141 76.8379C60.5056 82.8065 52.0041 87.6419 43.206 86.9303C34.6114 86.2352 29.3255 77.9541 22.1724 73.2191C14.642 68.2343 2.22744 67.1919 0.234719 58.485C-1.79651 49.6097 9.9247 43.6627 13.4863 35.2664C16.5946 27.939 14.4465 18.9334 19.6037 12.824C25.4818 5.86071 34.0171 0.588576 43.206 0.0596251Z" fill="#C4C4C4" fill-opacity="0.1"/>
<g clip-path="url(#clip0)">
<path d="M54.2847 62.2708L55.7734 62.7194H63.9767L64.1628 59.4575L62.5754 58.7837C62.5754 58.7837 62.8694 56.2639 63.3458 53.5631L64.4345 53.5299L66.7459 44.4844L65.432 43.9214L66.383 40.9253H67.8103L69.3326 36.7219C69.3326 36.7219 63.8632 34.5602 60.6027 34.2741L57.6884 34.7633L57.4837 38.5365L55.1035 38.8485L54.6345 42.9098L56.328 43.1977L55.2393 51.8371L52.7959 52.5183L52.3697 58.468L54.4968 58.9055L54.2847 62.2708Z" fill="#0075F5"/>
<path opacity="0.6" d="M66.3885 40.929L65.4376 43.9251L66.7514 44.4881L64.4382 53.5336L63.3514 53.5668C62.875 56.2675 62.5809 58.7874 62.5809 58.7874L64.1665 59.4612L63.9804 62.7231H55.7827L54.2828 62.2745L54.4987 58.9055L52.3697 58.4735L52.7847 52.6697L52.7959 52.5238L55.2393 51.8426L56.328 43.2033L54.6345 42.9153L55.1053 38.854L57.4837 38.5421L57.6884 34.7633L60.6102 34.2759C63.8706 34.5639 69.34 36.7256 69.34 36.7256L67.8178 40.929H66.3885Z" fill="white"/>
<path opacity="0.4" d="M64.1666 59.4575L56.0545 59.6827L54.4987 58.9055L56.2815 59.2341L62.581 58.7837L64.1666 59.4575Z" fill="white"/>
<path opacity="0.4" d="M63.3514 53.5631L57.4818 53.5816L52.7847 52.6697L52.7958 52.5238L55.2393 51.8427L57.8224 53.3785L63.3514 53.5631Z" fill="white"/>
<path opacity="0.2" d="M65.4376 43.9251L58.1983 43.2217L56.328 43.2033L54.6345 42.9153L58.0941 42.5221L65.4376 43.9251Z" fill="black"/>
<path opacity="0.2" d="M67.8159 40.929H66.3885L60.6771 38.3409L57.4818 38.5366L60.8521 38.1046L67.8159 40.929Z" fill="black"/>
<path opacity="0.2" d="M60.6083 34.2759L60.8521 38.1046L57.4818 38.5365L57.6865 34.7633L60.6083 34.2759Z" fill="white"/>
<path opacity="0.2" d="M58.0941 42.5221L59.0246 38.5365L55.1054 38.8485L54.6345 42.9153L58.0941 42.5221Z" fill="white"/>
<path opacity="0.2" d="M56.3281 43.2033L59.8732 43.3842L57.8224 53.3785L55.2394 51.8427L56.3281 43.2033Z" fill="white"/>
<path opacity="0.2" d="M52.7847 52.6697L57.4818 53.5816L56.5345 59.2157L52.3678 58.4736L52.7847 52.6697Z" fill="white"/>
<path opacity="0.2" d="M56.0544 59.6827L55.7827 62.7194L54.2828 62.2708L54.4968 58.9073L56.0544 59.6827Z" fill="white"/>
<path d="M53.142 53.9286L57.2678 54.8609L62.1287 54.6486L57.4819 55.6824L53.142 53.9286Z" fill="#0075F5"/>
<path d="M54.4354 59.8876L55.9539 60.8125H59.6238L55.1686 61.1669L53.6761 60.1553L54.4354 59.8876Z" fill="#0075F5"/>
<path d="M57.5563 61.7133H64.0418L64.7918 62.2708L57.5563 61.7133Z" fill="#0075F5"/>
<path d="M56.2257 56.3451L52.593 55.3372L51.9435 55.6824L56.2257 56.3451Z" fill="#0075F5"/>
<path d="M57.3125 57.761L62.7726 57.2958L63.3514 57.5284L57.3125 57.761Z" fill="#0075F5"/>
<path d="M59.0246 51.8426L64.9239 51.6322L65.4376 52.0623L59.0246 51.8426Z" fill="#0075F5"/>
<path d="M63.3514 50.6132L58.5017 50.0668L55.5111 48.961H54.4987L58.0681 50.4452L63.3514 50.6132Z" fill="#0075F5"/>
<path d="M56.65 46.2972L59.0972 47.1704L66.7291 47.7814L66.0387 47.2737L59.0246 46.8362L56.65 46.2972Z" fill="#0075F5"/>
<path d="M57.4818 41.241L54.0837 41.409L54.9267 41.8132L57.4818 41.241Z" fill="#0075F5"/>
<path d="M56.0545 39.8583L58.6394 39.5168L65.2999 41.8132L58.6041 40.0927L56.0545 39.8583Z" fill="#0075F5"/>
<path d="M64.3154 38.5366L60.3385 36.4062L56.395 37.632L57.5563 37.9421L60.8521 37.4714L64.3154 38.5366Z" fill="#0075F5"/>
<path d="M63.0908 37.0597L69.0739 39.5168H68.3276L63.0908 37.0597Z" fill="#0075F5"/>
<path d="M61.1871 35.2045L64.1795 35.5423L68.832 38.1046C68.832 38.1046 62.8192 35.5091 61.1871 35.2045Z" fill="#0075F5"/>
<path d="M56.1568 44.3091L57.6344 44.6801L55.5464 44.4937L56.1568 44.3091Z" fill="#0075F5"/>
<path opacity="0.7" d="M53.142 53.9286L57.2678 54.8609L62.1287 54.6486L57.4819 55.6824L53.142 53.9286Z" fill="white"/>
<path opacity="0.7" d="M54.4354 59.8876L55.9539 60.8125H59.6238L55.1686 61.1669L53.6761 60.1553L54.4354 59.8876Z" fill="white"/>
<path opacity="0.7" d="M57.5563 61.7133H64.0418L64.7918 62.2708L57.5563 61.7133Z" fill="white"/>
<path opacity="0.7" d="M56.2257 56.3451L52.593 55.3372L51.9435 55.6824L56.2257 56.3451Z" fill="white"/>
<path opacity="0.7" d="M57.3125 57.761L62.7726 57.2958L63.3514 57.5284L57.3125 57.761Z" fill="white"/>
<path opacity="0.7" d="M59.0246 51.8426L64.9239 51.6322L65.4376 52.0623L59.0246 51.8426Z" fill="white"/>
<path opacity="0.7" d="M63.3514 50.6132L58.5017 50.0668L55.5111 48.961H54.4987L58.0681 50.4452L63.3514 50.6132Z" fill="white"/>
<path opacity="0.7" d="M56.65 46.2972L59.0972 47.1704L66.7291 47.7814L66.0387 47.2737L59.0246 46.8362L56.65 46.2972Z" fill="white"/>
<path opacity="0.7" d="M57.4818 41.241L54.0837 41.409L54.9267 41.8132L57.4818 41.241Z" fill="white"/>
<path opacity="0.7" d="M56.0545 39.8583L58.6394 39.5168L65.2999 41.8132L58.6041 40.0927L56.0545 39.8583Z" fill="white"/>
<path opacity="0.7" d="M64.3154 38.5366L60.3385 36.4062L56.395 37.632L57.5563 37.9421L60.8521 37.4714L64.3154 38.5366Z" fill="white"/>
<path opacity="0.7" d="M63.0908 37.0597L69.0739 39.5168H68.3276L63.0908 37.0597Z" fill="white"/>
<path opacity="0.7" d="M61.1871 35.2045L64.1795 35.5423L68.832 38.1046C68.832 38.1046 62.8192 35.5091 61.1871 35.2045Z" fill="white"/>
<path opacity="0.7" d="M56.1568 44.3091L57.6344 44.6801L55.5464 44.4937L56.1568 44.3091Z" fill="white"/>
<path opacity="0.1" d="M57.3125 45.2524L59.3317 45.7582L65.0133 46.2972L59.3317 46.0203L57.3125 45.2524Z" fill="black"/>
<path opacity="0.1" d="M56.65 43.7682L59.8732 43.9251L65.9121 44.9496L59.6834 44.309L56.65 43.7682Z" fill="black"/>
<path opacity="0.1" d="M55.7828 41.9812L58.3137 41.5862L64.723 43.0612L58.2598 41.8132L55.7828 41.9812Z" fill="black"/>
<path opacity="0.1" d="M56.395 40.7259L58.5277 40.665L65.0133 42.3227L58.4663 40.929L56.395 40.7259Z" fill="black"/>
<path opacity="0.1" d="M55.0272 39.5168L58.2653 39.1494L55.0272 39.7568V39.5168Z" fill="black"/>
<path opacity="0.1" d="M54.9266 40.3936H56.0544L54.9266 40.665V40.3936Z" fill="black"/>
<path opacity="0.1" d="M57.6345 35.725L60.6679 35.2045L64.723 36.6554L60.7051 35.5423L57.6345 35.93V35.725Z" fill="black"/>
<path opacity="0.1" d="M68.0913 40.1666L63.4649 38.7341L67.9611 40.5284L68.0913 40.1666Z" fill="black"/>
<path opacity="0.1" d="M60.037 36.0813L60.7144 35.93L68.0914 38.2873L60.746 36.1718L60.037 36.0813Z" fill="black"/>
<path opacity="0.1" d="M69.2173 37.0597L66.5691 36.1256L69.074 37.296L69.2173 37.0597Z" fill="black"/>
<path opacity="0.1" d="M56.0545 47.342L58.8851 48.2004L65.2999 48.7136L58.8237 48.4976L56.0545 47.342Z" fill="black"/>
<path opacity="0.1" d="M55.444 49.9948L58.2932 51.0858L64.7229 51.2316H58.2634L55.444 49.9948Z" fill="black"/>
<path opacity="0.1" d="M63.5561 52.9392L58.0681 52.3337L55.7828 51.4106L57.9676 52.6696L63.5561 52.9392Z" fill="black"/>
<path opacity="0.1" d="M65.4655 49.5185C65.4134 49.5001 61.04 49.3875 61.04 49.3875L65.3966 49.788L65.4655 49.5185Z" fill="black"/>
<path opacity="0.1" d="M52.7009 53.098L57.3925 54.1133H60.6771L57.359 54.3126L52.7847 53.3786L52.7009 53.098Z" fill="black"/>
<path opacity="0.1" d="M63.0425 55.4368L58.4793 55.9519L63.0034 55.699L63.0425 55.4368Z" fill="black"/>
<path opacity="0.1" d="M53.6761 55.1193C53.6147 55.0898 56.5086 55.6898 56.5086 55.6898C56.5086 55.6898 54.7108 55.6307 53.6761 55.1193Z" fill="black"/>
<path opacity="0.1" d="M52.5204 56.3451L56.5085 57.2958L52.5204 56.6478V56.3451Z" fill="black"/>
<path opacity="0.1" d="M53.2686 57.761L56.65 58.5252L61.6895 58.4237L56.65 58.7837L53.2686 57.761Z" fill="black"/>
<path opacity="0.1" d="M57.8447 56.8214H61.3806L58.4793 56.9635L57.8447 56.8214Z" fill="black"/>
<path opacity="0.1" d="M54.9266 59.6827L56.0135 60.1534C56.0135 60.1534 61.7937 60.1073 61.6895 60.1534C61.5853 60.1996 55.9911 60.4026 55.9911 60.4026L54.9266 59.6827Z" fill="black"/>
<path opacity="0.1" d="M63.3514 61.1669C63.3514 61.1669 57.9545 61.3016 58.0681 61.3016H62.5344L63.3514 61.1669Z" fill="black"/>
<path opacity="0.1" d="M64.1665 60.0427C64.1665 60.0427 63.2826 59.9541 63.3514 60.0427C63.4203 60.1313 64.1237 60.2476 64.1237 60.2476L64.1665 60.0427Z" fill="black"/>
<path opacity="0.1" d="M54.9266 61.7133L55.8553 61.9053L60.8539 62.2708L55.8348 62.1527L54.9266 61.7133Z" fill="black"/>
<path d="M54.186 30.4768L57.9899 29C57.9899 29 62.3 31.5014 65.0393 31.9149L60.2938 32.8397C60.2938 32.8397 55.1705 31.8263 54.186 30.4768Z" fill="#0075F5"/>
<path d="M31.1526 42.5904L34.0427 40.006C34.0427 40.006 38.9799 40.7444 42.8322 42.5904L38.8087 45.0401C38.8087 45.0401 35.0197 43.1295 31.1526 42.5904Z" fill="#0075F5"/>
<path d="M8 45.8929L11.7108 44.6229C11.7108 44.6229 14.9303 48.0362 17.4911 48.0362L13.235 50.0668C13.235 50.0668 8.70718 48.3407 8 45.8929Z" fill="#0075F5"/>
<path d="M22.2366 33.1037C22.2366 33.1037 27.0752 32.5406 30.5125 35.1934L28.7408 37.3551C28.7408 37.3551 24.4903 35.5718 20.7683 36.6167L22.2366 33.1037Z" fill="#0075F5"/>
<path d="M65.9177 53.2918L70.5851 54.0819C70.5851 54.0819 66.5337 56.7476 63.1244 57.2386L59.4415 56.0553C59.4415 56.0553 63.8743 55.5956 65.9177 53.2918Z" fill="#0075F5"/>
<path d="M64.4364 45.2745C64.4364 45.2745 68.9232 45.0345 72.0962 46.3397L74 44.538C74 44.538 69.0182 42.3726 65.8117 43.4543L64.4364 45.2745Z" fill="#0075F5"/>
<path d="M33.7672 62.293C33.7672 62.293 36.0004 59.9504 41.6076 59.3394L45.002 60.8568C45.002 60.8568 39.9401 61.9478 37.6343 63.0074L33.7672 62.293Z" fill="#0075F5"/>
<path opacity="0.6" d="M54.186 30.4768L57.9899 29C57.9899 29 62.3 31.5014 65.0393 31.9149L60.2938 32.8397C60.2938 32.8397 55.1705 31.8263 54.186 30.4768Z" fill="white"/>
<path opacity="0.6" d="M31.1526 42.5904L34.0427 40.006C34.0427 40.006 38.9799 40.7444 42.8322 42.5904L38.8087 45.0401C38.8087 45.0401 35.0197 43.1295 31.1526 42.5904Z" fill="white"/>
<path opacity="0.6" d="M8 45.8929L11.7108 44.6229C11.7108 44.6229 14.9303 48.0362 17.4911 48.0362L13.235 50.0668C13.235 50.0668 8.70718 48.3407 8 45.8929Z" fill="white"/>
<path opacity="0.4" d="M22.2366 33.1037C22.2366 33.1037 27.0752 32.5406 30.5125 35.1934L28.7408 37.3551C28.7408 37.3551 24.4903 35.5718 20.7683 36.6167L22.2366 33.1037Z" fill="white"/>
<path opacity="0.8" d="M65.9177 53.2918L70.5851 54.0819C70.5851 54.0819 66.5337 56.7476 63.1244 57.2386L59.4415 56.0553C59.4415 56.0553 63.8743 55.5956 65.9177 53.2918Z" fill="white"/>
<path opacity="0.4" d="M64.4364 45.2745C64.4364 45.2745 68.9232 45.0345 72.0962 46.3397L74 44.538C74 44.538 69.0182 42.3726 65.8117 43.4543L64.4364 45.2745Z" fill="white"/>
<path opacity="0.4" d="M33.7672 62.293C33.7672 62.293 36.0004 59.9504 41.6076 59.3394L45.002 60.8568C45.002 60.8568 39.9401 61.9478 37.6343 63.0074L33.7672 62.293Z" fill="white"/>
</g>
<defs>
<clipPath id="clip0">
<rect width="66" height="34" fill="white" transform="translate(8 29)"/>
</clipPath>
</defs>
</svg>
