<svg width="77" height="87" viewBox="0 0 77 87" fill="none" xmlns="http://www.w3.org/2000/svg">
<path fill-rule="evenodd" clip-rule="evenodd" d="M43.206 0.0596251C52.6248 -0.482563 63.1182 2.66083 68.9057 9.986C74.4242 16.9707 69.8718 27.0373 71.4058 35.7519C72.6212 42.6564 77.684 48.5618 76.9223 55.5288C76.0506 63.5028 72.8364 71.3222 66.9141 76.8379C60.5056 82.8065 52.0041 87.6419 43.206 86.9303C34.6114 86.2352 29.3255 77.9541 22.1724 73.2191C14.642 68.2343 2.22744 67.1919 0.234719 58.485C-1.79651 49.6097 9.9247 43.6627 13.4863 35.2664C16.5946 27.939 14.4465 18.9334 19.6037 12.824C25.4818 5.86071 34.0171 0.588576 43.206 0.0596251Z" fill="#C4C4C4" fill-opacity="0.1"/>
<path d="M35.2185 37.1307L31.3313 57.2724L30.8226 59.9092L56.7595 59.7796C57.923 59.774 58.9569 58.7315 59.3293 57.1838L63.9307 38.1677C64.2141 36.9922 63.5912 35.7669 62.7067 35.7669L36.4567 35.7957C35.8777 35.799 35.3701 36.3441 35.2185 37.1307Z" fill="#66AFFF"/>
<g opacity="0.5">
<path opacity="0.5" d="M35.2185 37.1307L31.3313 57.2724L30.8226 59.9092L56.7595 59.7796C57.923 59.774 58.9569 58.7315 59.3293 57.1838L63.9307 38.1677C64.2141 36.9922 63.5912 35.7669 62.7067 35.7669L36.4567 35.7957C35.8777 35.799 35.3701 36.3441 35.2185 37.1307Z" fill="black"/>
</g>
<path d="M54.2733 55.9074L51.5266 33.5932C51.4145 32.6791 50.6926 32 49.8401 32L43.8181 32.0199C43.5943 32.0225 43.3734 32.0711 43.169 32.163C42.9645 32.2548 42.7809 32.3879 42.6293 32.554L39.7727 35.6184L23.0264 35.707C21.9992 35.7104 21.2125 36.6864 21.3487 37.7832L23.8977 58.4079C24.0076 59.3209 24.7316 60.0022 25.5831 60L54.7699 59.9424C58.0209 60.01 58.3308 59.0417 58.3308 59.0417C54.6062 59.8748 54.2744 55.9096 54.2733 55.9074Z" fill="#66AFFF"/>
<g opacity="0.5">
<path opacity="0.5" d="M41.6887 51.4415L40.7043 52.5073L33.1233 45.6306L34.1077 44.5648L41.6887 51.4415Z" fill="#020202"/>
<path opacity="0.5" d="M40.2913 44.3276L41.3801 45.3148L34.5198 52.7444L33.4321 51.7572L40.2913 44.3276Z" fill="#020202"/>
</g>
</svg>
