<svg width="77" height="87" viewBox="0 0 77 87" fill="none" xmlns="http://www.w3.org/2000/svg">
<path fill-rule="evenodd" clip-rule="evenodd" d="M43.206 0.0596251C52.6248 -0.482563 63.1182 2.66083 68.9057 9.986C74.4242 16.9707 69.8718 27.0373 71.4058 35.7519C72.6212 42.6564 77.684 48.5618 76.9223 55.5288C76.0506 63.5028 72.8364 71.3222 66.9141 76.8379C60.5056 82.8065 52.0041 87.6419 43.206 86.9303C34.6114 86.2352 29.3255 77.9541 22.1724 73.2191C14.642 68.2343 2.22744 67.1919 0.234719 58.485C-1.79651 49.6097 9.9247 43.6627 13.4863 35.2664C16.5946 27.939 14.4465 18.9334 19.6037 12.824C25.4818 5.86071 34.0171 0.588576 43.206 0.0596251Z" fill="#C4C4C4" fill-opacity="0.1"/>
<path d="M37 59.0001C54.6731 59.0001 69 57.4547 69 55.5483C69 53.642 54.6731 52.0966 37 52.0966C19.3269 52.0966 5 53.642 5 55.5483C5 57.4547 19.3269 59.0001 37 59.0001Z" fill="#EBEBEB"/>
<path d="M59.4672 56.2909H25.4651L30.3822 28.8431H64.3842L59.4672 56.2909Z" fill="#FF5C5C"/>
<path d="M42.0186 26H30.8911L30.3822 28.8431H42.2909L42.0186 26Z" fill="#FF5C5C"/>
<g opacity="0.1">
<path opacity="0.1" d="M59.4672 56.2909H25.4651L30.3822 28.8431H64.3842L59.4672 56.2909Z" fill="black"/>
<path opacity="0.1" d="M42.0186 26H30.891L30.3821 28.8431H42.2909L42.0186 26Z" fill="black"/>
</g>
<path d="M29.6903 27.1601C29.6509 27.0035 29.6321 26.8425 29.6345 26.6811C29.6315 26.5201 29.6503 26.3594 29.6903 26.2032C29.7297 26.3595 29.7485 26.5201 29.7461 26.6811C29.7478 26.8425 29.7291 27.0034 29.6903 27.1601V27.1601Z" fill="#263238"/>
<path d="M28.7015 27.4413C28.5878 27.3253 28.4899 27.1954 28.4102 27.0546C28.3263 26.9171 28.2611 26.7694 28.216 26.6152C28.3296 26.7312 28.4275 26.8612 28.5073 27.0019C28.5907 27.1397 28.6559 27.2873 28.7015 27.4413V27.4413Z" fill="#263238"/>
<path d="M27.9895 28.1719C27.8327 28.1265 27.6827 28.0611 27.5431 27.9774C27.4002 27.8993 27.2681 27.8033 27.1503 27.6918C27.4637 27.7863 27.7509 27.9505 27.9895 28.1719Z" fill="#263238"/>
<path d="M27.7406 29.1551C27.5819 29.1939 27.4187 29.2124 27.2552 29.21C27.0916 29.2129 26.9284 29.1945 26.7697 29.1551C27.0891 29.0818 27.4213 29.0818 27.7406 29.1551V29.1551Z" fill="#263238"/>
<path d="M28.0275 30.1284C27.9096 30.2403 27.7776 30.3367 27.6346 30.4151C27.4949 30.4977 27.3448 30.5619 27.1882 30.6063C27.4285 30.3865 27.7161 30.2231 28.0297 30.1284H28.0275Z" fill="#263238"/>
<path d="M28.7707 30.8337C28.7246 30.9877 28.659 31.1353 28.5754 31.2731C28.496 31.4138 28.3985 31.5438 28.2852 31.6598C28.3307 31.5058 28.3959 31.3582 28.4794 31.2204C28.5591 31.0796 28.657 30.9496 28.7707 30.8337V30.8337Z" fill="#263238"/>
<path d="M29.7684 31.0743C29.8078 31.2306 29.8266 31.3912 29.8242 31.5522C29.8271 31.7132 29.8084 31.8739 29.7684 32.0301C29.694 31.7157 29.694 31.3887 29.7684 31.0743V31.0743Z" fill="#263238"/>
<path d="M30.7571 30.792C30.9815 31.0277 31.1476 31.3111 31.2426 31.6203C31.1293 31.5043 31.0318 31.3743 30.9524 31.2336C30.8681 31.0954 30.8024 30.9469 30.7571 30.792V30.792Z" fill="#263238"/>
<path d="M31.4703 30.0647C31.6268 30.1099 31.7768 30.1745 31.9167 30.257C32.0599 30.3351 32.192 30.4315 32.3095 30.5437C32.153 30.4986 32.003 30.434 31.8631 30.3515C31.7203 30.2727 31.5883 30.1763 31.4703 30.0647V30.0647Z" fill="#263238"/>
<path d="M31.718 29.076C31.8769 29.0377 32.04 29.0193 32.2035 29.0211C32.3671 29.0182 32.5303 29.0366 32.6889 29.076C32.5302 29.1148 32.367 29.1333 32.2035 29.1309C32.04 29.1328 31.8769 29.1143 31.718 29.076V29.076Z" fill="#263238"/>
<path d="M31.4312 28.1049C31.6707 27.884 31.9586 27.7205 32.2727 27.627C32.1548 27.7388 32.0228 27.8352 31.8798 27.9137C31.7394 27.9964 31.5886 28.0607 31.4312 28.1049Z" fill="#263238"/>
<path d="M30.6891 27.4029C30.735 27.2488 30.8006 27.1012 30.8844 26.9634C30.9637 26.8225 31.0617 26.6924 31.1757 26.5768C31.1293 26.7306 31.0637 26.8782 30.9804 27.0162C30.9006 27.1569 30.8027 27.2869 30.6891 27.4029V27.4029Z" fill="#263238"/>
<path d="M59.417 56.2909H25.3423L20.5045 29.8395H54.5791L59.417 56.2909Z" fill="#FF5C5C"/>
<path d="M32.3118 46.0094C33.0939 46.0094 33.728 45.3852 33.728 44.6153C33.728 43.8453 33.0939 43.2212 32.3118 43.2212C31.5296 43.2212 30.8956 43.8453 30.8956 44.6153C30.8956 45.3852 31.5296 46.0094 32.3118 46.0094Z" fill="#263238"/>
<path d="M43.5085 46.0094C44.2906 46.0094 44.9247 45.3852 44.9247 44.6153C44.9247 43.8453 44.2906 43.2212 43.5085 43.2212C42.7263 43.2212 42.0923 43.8453 42.0923 44.6153C42.0923 45.3852 42.7263 46.0094 43.5085 46.0094Z" fill="#263238"/>
<path d="M39.944 46.2313L39.867 46.0852C39.8592 46.072 39.1282 44.7416 37.6551 44.7416C36.3159 44.7416 35.9811 45.9951 35.9722 46.0478L35.9331 46.2082L35.6083 46.1302L35.6474 45.9709C35.6474 45.9556 36.0458 44.4121 37.6562 44.4121C39.3302 44.4121 40.1315 45.871 40.1638 45.9325L40.242 46.0786L39.944 46.2313Z" fill="#263238"/>
</svg>
