<svg width="77" height="87" viewBox="0 0 77 87" fill="none" xmlns="http://www.w3.org/2000/svg">
<path fill-rule="evenodd" clip-rule="evenodd" d="M43.206 0.0596251C52.6248 -0.482563 63.1182 2.66083 68.9057 9.986C74.4242 16.9707 69.8718 27.0373 71.4058 35.7519C72.6212 42.6564 77.684 48.5618 76.9223 55.5288C76.0506 63.5028 72.8364 71.3222 66.9141 76.8379C60.5056 82.8065 52.0041 87.6419 43.206 86.9303C34.6114 86.2352 29.3255 77.9541 22.1724 73.2191C14.642 68.2343 2.22744 67.1919 0.234719 58.485C-1.79651 49.6097 9.9247 43.6627 13.4863 35.2664C16.5946 27.939 14.4465 18.9334 19.6037 12.824C25.4818 5.86071 34.0171 0.588576 43.206 0.0596251Z" fill="#C4C4C4" fill-opacity="0.1"/>
</svg>
