<svg width="19" height="20" viewBox="0 0 19 20" fill="none" xmlns="http://www.w3.org/2000/svg">
<path d="M15.8097 2.47C15.7297 2.47 15.6497 2.45 15.5797 2.41C13.6597 1.42 11.9997 1 10.0097 1C8.02974 1 6.14974 1.47 4.43974 2.41C4.19974 2.54 3.89974 2.45 3.75974 2.21C3.62974 1.97 3.71974 1.66 3.95974 1.53C5.81974 0.52 7.85974 0 10.0097 0C12.1397 0 13.9997 0.47 16.0397 1.52C16.2897 1.65 16.3797 1.95 16.2497 2.19C16.1597 2.37 15.9897 2.47 15.8097 2.47ZM1.49974 7.72C1.39974 7.72 1.29974 7.69 1.20974 7.63C0.979741 7.47 0.929741 7.16 1.08974 6.93C2.07974 5.53 3.33974 4.43 4.83974 3.66C7.97974 2.04 11.9997 2.03 15.1497 3.65C16.6497 4.42 17.9097 5.51 18.8997 6.9C19.0597 7.12 19.0097 7.44 18.7797 7.6C18.5497 7.76 18.2397 7.71 18.0797 7.48C17.1797 6.22 16.0397 5.23 14.6897 4.54C11.8197 3.07 8.14974 3.07 5.28974 4.55C3.92974 5.25 2.78974 6.25 1.88974 7.51C1.80974 7.65 1.65974 7.72 1.49974 7.72ZM7.74974 19.79C7.61974 19.79 7.48974 19.74 7.39974 19.64C6.52974 18.77 6.05974 18.21 5.38974 17C4.69974 15.77 4.33974 14.27 4.33974 12.66C4.33974 9.69 6.87974 7.27 9.99974 7.27C13.1197 7.27 15.6597 9.69 15.6597 12.66C15.6597 12.94 15.4397 13.16 15.1597 13.16C14.8797 13.16 14.6597 12.94 14.6597 12.66C14.6597 10.24 12.5697 8.27 9.99974 8.27C7.42974 8.27 5.33974 10.24 5.33974 12.66C5.33974 14.1 5.65974 15.43 6.26974 16.51C6.90974 17.66 7.34974 18.15 8.11974 18.93C8.30974 19.13 8.30974 19.44 8.11974 19.64C8.00974 19.74 7.87974 19.79 7.74974 19.79ZM14.9197 17.94C13.7297 17.94 12.6797 17.64 11.8197 17.05C10.3297 16.04 9.43974 14.4 9.43974 12.66C9.43974 12.38 9.65974 12.16 9.93974 12.16C10.2197 12.16 10.4397 12.38 10.4397 12.66C10.4397 14.07 11.1597 15.4 12.3797 16.22C13.0897 16.7 13.9197 16.93 14.9197 16.93C15.1597 16.93 15.5597 16.9 15.9597 16.83C16.2297 16.78 16.4897 16.96 16.5397 17.24C16.5897 17.51 16.4097 17.77 16.1297 17.82C15.5597 17.93 15.0597 17.94 14.9197 17.94ZM12.9097 20C12.8697 20 12.8197 19.99 12.7797 19.98C11.1897 19.54 10.1497 18.95 9.05974 17.88C7.65974 16.49 6.88974 14.64 6.88974 12.66C6.88974 11.04 8.26974 9.72 9.96974 9.72C11.6697 9.72 13.0497 11.04 13.0497 12.66C13.0497 13.73 13.9797 14.6 15.1297 14.6C16.2797 14.6 17.2097 13.73 17.2097 12.66C17.2097 8.89 13.9597 5.83 9.95974 5.83C7.11974 5.83 4.51974 7.41 3.34974 9.86C2.95974 10.67 2.75974 11.62 2.75974 12.66C2.75974 13.44 2.82974 14.67 3.42974 16.27C3.52974 16.53 3.39974 16.82 3.13974 16.91C2.87974 17.01 2.58974 16.87 2.49974 16.62C2.00974 15.31 1.76974 14.01 1.76974 12.66C1.76974 11.46 1.99974 10.37 2.44974 9.42C3.77974 6.63 6.72974 4.82 9.95974 4.82C14.5097 4.82 18.2097 8.33 18.2097 12.65C18.2097 14.27 16.8297 15.59 15.1297 15.59C13.4297 15.59 12.0497 14.27 12.0497 12.65C12.0497 11.58 11.1197 10.71 9.96974 10.71C8.81974 10.71 7.88974 11.58 7.88974 12.65C7.88974 14.36 8.54974 15.96 9.75974 17.16C10.7097 18.1 11.6197 18.62 13.0297 19.01C13.2997 19.08 13.4497 19.36 13.3797 19.62C13.3297 19.85 13.1197 20 12.9097 20Z" fill="#007AFF"/>
</svg>
