<svg width="16" height="16" viewBox="0 0 16 16" fill="none" xmlns="http://www.w3.org/2000/svg">
<path d="M8 16L7.77619 15.9969C3.46354 15.8783 0 12.3412 0 8C0 3.592 3.584 0 8 0C12.408 0 16 3.592 16 8C16 12.416 12.408 16 8 16ZM6.416 11.2C6.656 11.44 7.032 11.44 7.264 11.2L10.056 8.424C10.168 8.312 10.232 8.16 10.232 8C10.232 7.84 10.168 7.688 10.056 7.576L7.264 4.8C7.152 4.68 7 4.624 6.848 4.624C6.688 4.624 6.536 4.68 6.416 4.8C6.184 5.04 6.184 5.416 6.424 5.648L8.784 8L6.424 10.352C6.184 10.584 6.184 10.968 6.416 11.2Z" fill="#CDDAF6"/>
</svg>
