<svg width="16" height="16" viewBox="0 0 16 16" fill="none" xmlns="http://www.w3.org/2000/svg">
<path d="M8 0L8.22381 0.00307537C12.5365 0.121731 16 3.65885 16 8C16 12.408 12.416 16 8 16C3.592 16 0 12.408 0 8C0 3.584 3.592 0 8 0ZM9.584 4.8C9.344 4.56 8.968 4.56 8.736 4.8L5.944 7.576C5.832 7.688 5.768 7.84 5.768 8C5.768 8.16 5.832 8.312 5.944 8.424L8.736 11.2C8.848 11.32 9 11.376 9.152 11.376C9.312 11.376 9.464 11.32 9.584 11.2C9.816 10.96 9.816 10.584 9.576 10.352L7.216 8L9.576 5.648C9.816 5.416 9.816 5.032 9.584 4.8Z" fill="#E3E3E3"/>
</svg>
