<svg width="218" height="47" viewBox="0 0 218 47" fill="none" xmlns="http://www.w3.org/2000/svg">
<path d="M12.36 46H0.84V1.2H12.36V18.8H18.12L28.104 1.2H40.264L27.72 23.28L40.2 46H28.04L18.12 27.76H12.36V46ZM78.01 36.4C78.01 39.6 77.0927 42.1173 75.258 43.952C73.466 45.744 70.97 46.64 67.77 46.64H53.05C49.85 46.64 47.3327 45.744 45.498 43.952C43.706 42.1173 42.81 39.6 42.81 36.4V21.68C42.81 18.48 43.706 15.984 45.498 14.192C47.3327 12.3573 49.85 11.44 53.05 11.44H67.77C70.97 11.44 73.466 12.3573 75.258 14.192C77.0927 15.984 78.01 18.48 78.01 21.68V36.4ZM66.81 22.64C66.81 20.9333 65.9567 20.08 64.25 20.08H56.57C54.8633 20.08 54.01 20.9333 54.01 22.64V35.44C54.01 37.1467 54.8633 38 56.57 38H64.25C65.9567 38 66.81 37.1467 66.81 35.44V22.64ZM107.763 46L107.123 42.8C105.117 44.1227 103.048 45.104 100.915 45.744C98.8238 46.3413 97.0532 46.64 95.6025 46.64H92.7225C89.8212 46.64 87.4958 45.7653 85.7465 44.016C83.9972 42.2667 83.1225 39.9413 83.1225 37.04V22.32C83.1225 19.12 84.0185 16.624 85.8105 14.832C87.6452 12.9973 90.1625 12.08 93.3625 12.08H106.483V1.2H117.683V46H107.763ZM98.8025 37.36C101.064 37.36 103.624 36.9333 106.483 36.08V20.72H96.8825C95.1758 20.72 94.3225 21.5733 94.3225 23.28V35.12C94.3225 35.76 94.5358 36.2933 94.9625 36.72C95.3892 37.1467 95.9225 37.36 96.5625 37.36H98.8025ZM138.155 13.36V46H126.955V22H122.155V13.36H138.155ZM126.955 0.559998H138.155V9.52H126.955V0.559998ZM158.015 37.68C160.276 37.68 162.836 37.2533 165.695 36.4V32.56H156.415C155.775 32.56 155.242 32.7733 154.815 33.2C154.388 33.6267 154.175 34.16 154.175 34.8V35.44C154.175 36.08 154.388 36.6133 154.815 37.04C155.242 37.4667 155.775 37.68 156.415 37.68H158.015ZM146.175 12.72C153.983 11.8667 161.023 11.44 167.295 11.44C170.196 11.44 172.522 12.3147 174.271 14.064C176.02 15.8133 176.895 18.1387 176.895 21.04V46H166.975L166.335 42.8C164.33 44.1227 162.26 45.104 160.127 45.744C158.036 46.3413 156.266 46.64 154.815 46.64H152.575C149.674 46.64 147.348 45.7653 145.599 44.016C143.85 42.2667 142.975 39.9413 142.975 37.04V34.16C142.975 31.2587 143.85 28.9333 145.599 27.184C147.348 25.4347 149.674 24.56 152.575 24.56H165.695V22C165.695 21.36 165.482 20.8267 165.055 20.4C164.628 19.9733 164.095 19.76 163.455 19.76C160.682 19.76 157.61 19.888 154.239 20.144C150.911 20.4 148.223 20.592 146.175 20.72V12.72ZM193.838 32.56V46H182.638V1.2H193.838V23.92H198.958L205.998 12.08H217.838L208.238 28.4L217.838 46H205.998L198.638 32.56H193.838Z" fill="white"/>
</svg>
