<svg id="Layer_1" enable-background="new 0 0 510 510" height="512" viewBox="0 0 510 510" width="512" xmlns="http://www.w3.org/2000/svg"><g><path d="m255 0c-140.931 0-255 114.05-255 255 0 140.931 114.05 255 255 255 140.931 0 255-114.05 255-255 0-140.931-114.05-255-255-255zm0 480c-124.065 0-225-100.935-225-225s100.935-225 225-225 225 100.935 225 225-100.935 225-225 225z"/><path d="m270 135.838v-30.838h-30v30.838c-67.405 7.486-120 64.793-120 134.162v90h30v-90c0-52.805 39.184-96.623 90-103.924v163.924h30v-163.924c50.816 7.301 90 51.119 90 103.924v90h30v-90c0-69.369-52.595-126.676-120-134.162z"/></g></svg>