<svg width="40" height="40" viewBox="0 0 40 40" fill="none" xmlns="http://www.w3.org/2000/svg">
<rect width="40" height="40" rx="20" fill="#FAFAFA"/>
<g clip-path="url(#clip0_12144:94504)">
<path d="M30.4 27.4H28.6V25.6C28.6 25.4409 28.5368 25.2883 28.4243 25.1757C28.3117 25.0632 28.1591 25 28 25C27.8409 25 27.6883 25.0632 27.5757 25.1757C27.4632 25.2883 27.4 25.4409 27.4 25.6V27.4H25.6C25.4409 27.4 25.2883 27.4632 25.1757 27.5757C25.0632 27.6883 25 27.8409 25 28C25 28.1591 25.0632 28.3117 25.1757 28.4243C25.2883 28.5368 25.4409 28.6 25.6 28.6H27.4V30.4C27.4 30.5591 27.4632 30.7117 27.5757 30.8243C27.6883 30.9368 27.8409 31 28 31C28.1591 31 28.3117 30.9368 28.4243 30.8243C28.5368 30.7117 28.6 30.5591 28.6 30.4V28.6H30.4C30.5591 28.6 30.7117 28.5368 30.8243 28.4243C30.9368 28.3117 31 28.1591 31 28C31 27.8409 30.9368 27.6883 30.8243 27.5757C30.7117 27.4632 30.5591 27.4 30.4 27.4Z" fill="#363853"/>
<path d="M22.7296 29.6244C20.6031 30.2237 18.3378 30.1008 16.2886 29.2749C14.2394 28.4491 12.5219 26.9668 11.4053 25.0604C10.2886 23.154 9.83573 20.9311 10.1176 18.7397C10.3995 16.5484 11.4003 14.5125 12.9631 12.9508C14.526 11.3891 16.5626 10.3898 18.7542 10.1095C20.9457 9.82916 23.1683 10.2836 25.0739 11.4017C26.9795 12.5197 28.4605 14.2382 29.2849 16.2881C30.1093 18.3379 30.2305 20.6033 29.6296 22.7294C29.589 22.8572 29.5744 22.9919 29.5869 23.1254C29.5994 23.259 29.6386 23.3887 29.7022 23.5068C29.7658 23.6248 29.8525 23.7289 29.9572 23.8128C30.0618 23.8967 30.1823 23.9587 30.3114 23.995C30.4405 24.0314 30.5756 24.0414 30.7087 24.0245C30.8418 24.0076 30.9701 23.9641 31.086 23.8966C31.2019 23.829 31.303 23.7389 31.3833 23.6315C31.4637 23.5241 31.5216 23.4016 31.5536 23.2714C32.275 20.7181 32.1292 17.9977 31.1388 15.5363C30.1484 13.0749 28.3696 11.0115 26.0809 9.66944C23.7922 8.32735 21.1229 7.78237 18.4913 8.11987C15.8597 8.45737 13.4143 9.65829 11.5383 11.5345C9.66237 13.4107 8.46175 15.8562 8.12457 18.4878C7.78739 21.1195 8.33269 23.7887 9.67506 26.0772C11.0174 28.3658 13.081 30.1444 15.5425 31.1345C18.0041 32.1245 20.7245 32.2701 23.2776 31.5484C23.4068 31.5152 23.528 31.4565 23.6341 31.3757C23.7402 31.295 23.8291 31.1939 23.8956 31.0783C23.962 30.9627 24.0047 30.835 24.0211 30.7027C24.0375 30.5703 24.0272 30.4361 23.9909 30.3078C23.9546 30.1795 23.8931 30.0597 23.8098 29.9555C23.7266 29.8514 23.6234 29.7649 23.5062 29.7013C23.3891 29.6376 23.2604 29.598 23.1277 29.5848C22.995 29.5716 22.861 29.585 22.7336 29.6244H22.7296Z" fill="#363853"/>
<path d="M16 24V19.535C16 18.745 16.18 18.04 16.54 17.42C16.91 16.79 17.415 16.3 18.055 15.95C18.695 15.59 19.42 15.41 20.23 15.41C21.04 15.41 21.765 15.59 22.405 15.95C23.045 16.3 23.545 16.79 23.905 17.42C24.275 18.04 24.46 18.745 24.46 19.535V24H22.84V19.67C22.84 19.16 22.72 18.705 22.48 18.305C22.24 17.895 21.92 17.57 21.52 17.33C21.13 17.09 20.7 16.97 20.23 16.97C19.73 16.97 19.275 17.09 18.865 17.33C18.465 17.57 18.145 17.895 17.905 18.305C17.665 18.705 17.545 19.16 17.545 19.67V24H16ZM19.495 22.205V14H20.95V22.205H19.495Z" fill="#363853"/>
</g>
<defs>
<clipPath id="clip0_12144:94504">
<rect width="24" height="24" fill="white" transform="translate(8 8)"/>
</clipPath>
</defs>
</svg>
