<svg width="24" height="24" viewBox="0 0 24 24" fill="none" xmlns="http://www.w3.org/2000/svg">
<rect x="0.375" y="0.375" width="23.25" height="23.25" rx="3.625" fill="white" stroke="#CDDAF6" stroke-width="0.75"/>
<path fill-rule="evenodd" clip-rule="evenodd" d="M18.6685 14.0319C18.9614 14.0539 19.1806 14.31 19.1586 14.6029L19.0238 16.3823C18.9125 17.8504 17.6735 19 16.2019 19H7.97495C6.50333 19 5.26432 17.8504 5.15298 16.3823L5.01823 14.6029C4.99624 14.31 5.2161 14.0539 5.509 14.0319C5.80333 14.0213 6.05723 14.2291 6.07992 14.5227L6.21397 16.3014C6.28347 17.2177 7.05651 17.9362 7.97495 17.9362H16.2019C17.1203 17.9362 17.894 17.2177 17.9628 16.3014L18.0976 14.5227C18.1203 14.2291 18.3806 14.0206 18.6685 14.0319ZM13.0034 5C14.0693 5 14.9524 5.79877 15.0854 6.82909L16.4822 6.82971C17.9687 6.82971 19.1772 8.04176 19.1772 9.53253V11.9715C19.1772 12.1609 19.0765 12.3354 18.9141 12.4304C17.1635 13.4556 14.946 14.0535 12.6202 14.1333L12.6205 15.4089C12.6205 15.7025 12.3822 15.9408 12.0885 15.9408C11.7949 15.9408 11.5566 15.7025 11.5566 15.4089L11.5562 14.1334C9.23273 14.0544 7.01499 13.4563 5.26312 12.4304C5.1 12.3354 5 12.1609 5 11.9715V9.52544C5 8.03892 6.21205 6.82971 7.70211 6.82971L9.09169 6.82909C9.22469 5.79877 10.1077 5 11.1737 5H13.0034ZM16.4822 7.89353H7.70211C6.79857 7.89353 6.06382 8.62544 6.06382 9.52544V11.6616C7.7473 12.5763 9.86964 13.0776 12.0787 13.0786L12.0885 13.0777L12.0964 13.078L12.4341 13.0745C14.5233 13.0247 16.5163 12.529 18.1134 11.6616V9.53253C18.1134 8.62828 17.3822 7.89353 16.4822 7.89353ZM13.0034 6.06382H11.1737C10.6961 6.06382 10.293 6.38884 10.1739 6.82927H14.0032C13.8841 6.38884 13.481 6.06382 13.0034 6.06382Z" fill="#556182"/>
</svg>
