<svg width="35" height="35" viewBox="0 0 35 35" fill="none" xmlns="http://www.w3.org/2000/svg">
<path d="M32.0833 4.375H10.2083C9.20208 4.375 8.41458 4.88542 7.88958 5.65833L0 17.5L7.88958 29.3271C8.41458 30.1 9.30417 30.625 10.3104 30.625H32.0833C33.6875 30.625 35 29.3125 35 27.7083V7.29167C35 5.6875 33.6875 4.375 32.0833 4.375ZM32.0833 27.7083H10.3104L3.5 17.5L10.2958 7.29167H32.0833V27.7083Z" fill="white"/>
<path d="M13.125 19.6875C14.3331 19.6875 15.3125 18.7081 15.3125 17.5C15.3125 16.2919 14.3331 15.3125 13.125 15.3125C11.9169 15.3125 10.9375 16.2919 10.9375 17.5C10.9375 18.7081 11.9169 19.6875 13.125 19.6875Z" fill="white"/>
<path d="M20.4167 19.6875C21.6248 19.6875 22.6042 18.7081 22.6042 17.5C22.6042 16.2919 21.6248 15.3125 20.4167 15.3125C19.2085 15.3125 18.2292 16.2919 18.2292 17.5C18.2292 18.7081 19.2085 19.6875 20.4167 19.6875Z" fill="white"/>
<path d="M27.7083 19.6875C28.9165 19.6875 29.8958 18.7081 29.8958 17.5C29.8958 16.2919 28.9165 15.3125 27.7083 15.3125C26.5002 15.3125 25.5208 16.2919 25.5208 17.5C25.5208 18.7081 26.5002 19.6875 27.7083 19.6875Z" fill="white"/>
</svg>
