<svg width="30" height="30" viewBox="0 0 30 30" fill="none" xmlns="http://www.w3.org/2000/svg">
<path d="M5.3189 27.8149L21.4331 20.3434L9.9189 8.8291L2.44747 24.9362C2.34032 25.1934 1.93319 26.2291 3.04032 27.2149C4.24032 28.2791 5.06175 27.922 5.3189 27.8149Z" fill="url(#paint0_linear)"/>
<path d="M8.3045 12.3066L7.1045 14.9138C6.71879 15.8495 13.5617 22.7566 17.4259 22.1995L21.4331 20.3424C16.6831 22.5353 7.71879 13.578 8.3045 12.3066Z" fill="url(#paint1_linear)"/>
<path d="M5.87598 17.5645L5.59741 18.1573L4.65455 20.1858C4.64741 20.9858 8.76884 25.1001 11.3474 25.0145L14.6189 23.5001C11.076 24.1145 5.46884 18.4287 5.87598 17.5645Z" fill="url(#paint2_linear)"/>
<path d="M2.52588 24.779C2.86874 25.4648 4.54732 27.1361 5.94017 27.529L9.39732 25.929L9.41874 25.9148C7.29017 26.8933 3.69017 23.2648 3.62588 22.4219L2.52588 24.779Z" fill="url(#paint3_linear)"/>
<path opacity="0.75" d="M5.3189 27.8149L21.4331 20.3434L9.9189 8.8291L2.44747 24.9362C2.34032 25.1934 1.93319 26.2291 3.04032 27.2149C4.24032 28.2791 5.06175 27.922 5.3189 27.8149Z" fill="url(#paint4_radial)"/>
<path opacity="0.75" d="M5.3189 27.8149L21.4331 20.3434L9.9189 8.8291L2.44747 24.9362C2.34032 25.1934 1.93319 26.2291 3.04032 27.2149C4.24032 28.2791 5.06175 27.922 5.3189 27.8149Z" fill="url(#paint5_radial)"/>
<path d="M15.4262 8.88538C15.2333 9.27823 14.8547 9.33538 14.5762 9.24967L15.0333 8.34252C15.0333 8.34252 15.5475 8.45681 15.5619 8.12109L15.5833 8.59252L15.4262 8.88538Z" fill="url(#paint6_linear)"/>
<path d="M16.7048 3.88556C16.7048 3.88556 17.0333 3.73558 17.2404 3.307C17.4476 2.87843 16.4261 2.07129 16.4261 2.07129L15.9476 2.907C15.9476 2.907 16.7548 3.43556 16.5048 3.61414C16.2476 3.79271 16.7048 3.88556 16.7048 3.88556Z" fill="url(#paint7_linear)"/>
<path d="M25.0618 10.7572C25.2118 9.44287 24.326 9.00714 24.0046 9.04287C24.0046 9.04287 23.9474 8.61429 24.5189 8.47858C24.8974 8.39287 25.8618 9.25 25.6118 10.2214L25.0618 10.7572Z" fill="url(#paint8_linear)"/>
<path d="M21.5689 20.2426C20.7689 21.0426 17.5402 19.0998 14.3474 15.9141C11.1617 12.7284 9.21882 9.49265 10.0188 8.69265C10.8188 7.89265 14.0474 9.83551 17.2402 13.0213C20.426 16.2141 22.3616 19.4426 21.5689 20.2426Z" fill="url(#paint9_linear)"/>
<path d="M21.2974 19.7139C20.6903 20.321 17.7903 18.4068 14.8261 15.4354C11.8618 12.4639 9.94034 9.57105 10.5475 8.96391C11.1546 8.35677 14.0546 10.271 17.0189 13.2425C19.9832 16.2139 21.9046 19.1068 21.2974 19.7139Z" fill="url(#paint10_linear)"/>
<path d="M17.2333 3.30762C17.2333 3.30762 16.8619 4.10047 16.8119 4.18618C16.6262 4.50047 16.1047 4.60762 15.169 4.47904C14.2333 4.35047 13.9619 4.40047 13.919 4.40762C13.8762 4.4219 13.3262 3.97904 13.3262 3.97904L13.3762 3.52904C13.3762 3.52904 13.5047 3.35762 13.9333 3.41475C14.6975 3.52904 16.9475 3.90762 17.2333 3.30762Z" fill="url(#paint11_linear)"/>
<path d="M19.0904 16.5714C19.8404 15.7142 20.5404 16.3857 20.9832 15.7714L20.226 15C19.7832 15.6071 19.1404 15.0357 18.3475 15.8714L19.0904 16.5714Z" fill="url(#paint12_linear)"/>
<path d="M10.9546 6.17198C11.9903 6.78627 11.0689 7.62913 11.6546 8.10771L12.4617 7.38627C11.876 6.90771 12.7189 6.07913 11.6832 5.46484L10.9546 6.17198Z" fill="url(#paint13_linear)"/>
<path d="M21.919 9.34999C21.9476 9.34284 21.9619 9.17141 22.3833 8.87141C22.8048 8.57141 23.7548 9.0357 23.8761 9.10712C24.0048 9.17856 23.8976 10.3571 23.8976 10.3571C23.8976 10.3571 22.7119 9.09284 22.119 9.3857C21.5261 9.67141 21.919 9.34999 21.919 9.34999Z" fill="url(#paint14_linear)"/>
<path d="M22.076 12.2857C22.076 12.2857 22.0332 12.75 21.8189 12.9643C21.4332 13.3429 20.8189 12.7714 20.0403 12.9785C20.0403 12.9785 20.3974 12.0714 20.4332 12C20.4332 12 20.7474 11.8071 21.0689 11.9928C21.3974 12.1714 21.6832 12.2286 21.8832 12.1214C22.0832 12.0143 22.076 12.2857 22.076 12.2857Z" fill="url(#paint15_linear)"/>
<path d="M24.1688 10.2426C24.1688 10.2426 23.4044 10.5926 23.3044 10.6426C23.2044 10.6926 22.9759 8.914 23.5259 8.73544C24.083 8.55686 24.4616 8.49257 24.5188 8.48544C24.5759 8.47115 23.5616 8.57829 24.1688 10.2426Z" fill="#FFBF00"/>
<path d="M21.8188 12.9571C22.1331 12.6285 22.5616 12.1428 22.5403 12.0071C22.4403 11.1357 21.7331 9.21426 22.3831 8.86426C22.3831 8.86426 21.7759 9.29283 21.5903 9.4214C21.4045 9.54997 21.2688 9.89283 21.2831 10.4571C21.3188 11.4428 22.1045 12.6642 21.8188 12.9571Z" fill="#FFBF00"/>
<path d="M19.6475 5.90723C19.1261 9.5715 15.4904 13.0715 15.4904 13.0715L15.9832 13.8215C15.9832 13.8215 19.9404 9.70008 20.4475 6.0215L19.6475 5.90723Z" fill="url(#paint16_linear)"/>
<path d="M12.9402 4.379C12.8545 4.53613 13.1045 4.80042 13.7045 5.529C14.3045 6.25756 15.8617 8.18613 15.4188 8.88613L15.8973 7.90042C15.8973 7.90042 15.9045 7.11471 15.4331 6.35042C14.6902 5.15042 13.2688 3.85757 13.376 3.53613L12.9402 4.379Z" fill="url(#paint17_linear)"/>
<path d="M16.126 15.5281C16.2878 15.5281 16.4189 15.397 16.4189 15.2353C16.4189 15.0735 16.2878 14.9424 16.126 14.9424C15.9643 14.9424 15.8331 15.0735 15.8331 15.2353C15.8331 15.397 15.9643 15.5281 16.126 15.5281Z" fill="url(#paint18_linear)"/>
<path d="M20.2046 3.3572C20.3664 3.3572 20.4975 3.22607 20.4975 3.06433C20.4975 2.9026 20.3664 2.77148 20.2046 2.77148C20.0429 2.77148 19.9117 2.9026 19.9117 3.06433C19.9117 3.22607 20.0429 3.3572 20.2046 3.3572Z" fill="url(#paint19_linear)"/>
<path d="M17.4544 7.6072C17.6161 7.6072 17.7472 7.47607 17.7472 7.31433C17.7472 7.1526 17.6161 7.02148 17.4544 7.02148C17.2926 7.02148 17.1615 7.1526 17.1615 7.31433C17.1615 7.47607 17.2926 7.6072 17.4544 7.6072Z" fill="url(#paint20_linear)"/>
<path d="M19.1902 12.9715C19.352 12.9715 19.4831 12.8404 19.4831 12.6786C19.4831 12.5169 19.352 12.3857 19.1902 12.3857C19.0285 12.3857 18.8973 12.5169 18.8973 12.6786C18.8973 12.8404 19.0285 12.9715 19.1902 12.9715Z" fill="url(#paint21_linear)"/>
<path d="M26.719 12.2576C26.8806 12.2576 27.0118 12.1265 27.0118 11.9647C27.0118 11.803 26.8806 11.6719 26.719 11.6719C26.5573 11.6719 26.4261 11.803 26.4261 11.9647C26.4261 12.1265 26.5573 12.2576 26.719 12.2576Z" fill="url(#paint22_linear)"/>
<path d="M24.8546 18.4363C25.0164 18.4363 25.1475 18.3052 25.1475 18.1435C25.1475 17.9817 25.0164 17.8506 24.8546 17.8506C24.6929 17.8506 24.5618 17.9817 24.5618 18.1435C24.5618 18.3052 24.6929 18.4363 24.8546 18.4363Z" fill="url(#paint23_linear)"/>
<path d="M23.6333 14.6639C23.7951 14.6639 23.9262 14.5328 23.9262 14.371C23.9262 14.2092 23.7951 14.0781 23.6333 14.0781C23.4717 14.0781 23.3406 14.2092 23.3406 14.371C23.3406 14.5328 23.4717 14.6639 23.6333 14.6639Z" fill="url(#paint24_linear)"/>
<path d="M25.2404 6.70778C25.4021 6.70778 25.5333 6.57667 25.5333 6.41492C25.5333 6.25318 25.4021 6.12207 25.2404 6.12207C25.0786 6.12207 24.9475 6.25318 24.9475 6.41492C24.9475 6.57667 25.0786 6.70778 25.2404 6.70778Z" fill="url(#paint25_linear)"/>
<path d="M21.9545 7.66481C22.1162 7.66481 22.2474 7.53369 22.2474 7.37195C22.2474 7.21021 22.1162 7.0791 21.9545 7.0791C21.7927 7.0791 21.6616 7.21021 21.6616 7.37195C21.6616 7.53369 21.7927 7.66481 21.9545 7.66481Z" fill="url(#paint26_linear)"/>
<path d="M19.4473 19.2361C22.4329 16.7861 27.4901 16.279 27.4901 16.279L27.6544 15.1504C27.6544 15.1504 21.6687 15.8646 18.4973 18.6146C18.8401 18.8504 19.1544 19.0575 19.4473 19.2361Z" fill="url(#paint27_linear)"/>
<path d="M11.9546 12.1786C12.1546 12.4501 12.376 12.7215 12.6117 13.0072C13.2474 11.6072 13.1117 10.5072 13.1117 10.5072L12.3332 10.0215C12.4117 10.8858 12.1475 11.7143 11.9546 12.1786Z" fill="url(#paint28_linear)"/>
<defs>
<linearGradient id="paint0_linear" x1="1.50185" y1="11.0793" x2="14.2501" y2="26.1867" gradientUnits="userSpaceOnUse">
<stop offset="0.2544" stop-color="#FBE07A"/>
<stop offset="1" stop-color="#FF40BF"/>
</linearGradient>
<linearGradient id="paint1_linear" x1="8.42999" y1="12.1839" x2="19.0093" y2="22.7633" gradientUnits="userSpaceOnUse">
<stop offset="0.2544" stop-color="#9F00E8"/>
<stop offset="1" stop-color="#7000A3"/>
</linearGradient>
<linearGradient id="paint2_linear" x1="5.49768" y1="17.9441" x2="12.8349" y2="25.2812" gradientUnits="userSpaceOnUse">
<stop offset="0.2544" stop-color="#9F00E8"/>
<stop offset="1" stop-color="#7000A3"/>
</linearGradient>
<linearGradient id="paint3_linear" x1="3.27967" y1="22.7583" x2="7.92303" y2="27.4016" gradientUnits="userSpaceOnUse">
<stop offset="0.2544" stop-color="#9F00E8"/>
<stop offset="1" stop-color="#7000A3"/>
</linearGradient>
<radialGradient id="paint4_radial" cx="0" cy="0" r="1" gradientUnits="userSpaceOnUse" gradientTransform="translate(8.40962 16.1344) rotate(119.598) scale(7.3185 2.24055)">
<stop stop-color="white" stop-opacity="0.5"/>
<stop offset="1" stop-color="white" stop-opacity="0"/>
</radialGradient>
<radialGradient id="paint5_radial" cx="0" cy="0" r="1" gradientUnits="userSpaceOnUse" gradientTransform="translate(13.5525 22.6949) rotate(151.7) scale(11.6012 3.61829)">
<stop stop-color="#440063" stop-opacity="0.75"/>
<stop offset="1" stop-color="#420061" stop-opacity="0"/>
</radialGradient>
<linearGradient id="paint6_linear" x1="15.4803" y1="8.61857" x2="17.2335" y2="8.05863" gradientUnits="userSpaceOnUse">
<stop stop-color="#BD2719"/>
<stop offset="1" stop-color="#FF4E0D"/>
</linearGradient>
<linearGradient id="paint7_linear" x1="17.1104" y1="4.26843" x2="16.3254" y2="2.31818" gradientUnits="userSpaceOnUse">
<stop stop-color="#BD2719"/>
<stop offset="1" stop-color="#FF4E0D"/>
</linearGradient>
<linearGradient id="paint8_linear" x1="25.8413" y1="10.2249" x2="22.9174" y2="8.35141" gradientUnits="userSpaceOnUse">
<stop stop-color="#FFCB4B"/>
<stop offset="1" stop-color="#E81CA2"/>
</linearGradient>
<linearGradient id="paint9_linear" x1="18.3497" y1="6.40376" x2="11.8169" y2="27.0006" gradientUnits="userSpaceOnUse">
<stop offset="0.2544" stop-color="#FBE07A"/>
<stop offset="1" stop-color="#E81CA2"/>
</linearGradient>
<linearGradient id="paint10_linear" x1="20.4947" y1="11.1316" x2="10.4684" y2="18.1636" gradientUnits="userSpaceOnUse">
<stop stop-color="#FBE07A"/>
<stop offset="1" stop-color="white"/>
</linearGradient>
<linearGradient id="paint11_linear" x1="12.4244" y1="3.98543" x2="15.6625" y2="3.93637" gradientUnits="userSpaceOnUse">
<stop stop-color="#BD2719"/>
<stop offset="1" stop-color="#FF4E0D"/>
</linearGradient>
<linearGradient id="paint12_linear" x1="20.0469" y1="15.1519" x2="19.2682" y2="16.5491" gradientUnits="userSpaceOnUse">
<stop stop-color="#FF9214"/>
<stop offset="1" stop-color="#FF4E0D"/>
</linearGradient>
<linearGradient id="paint13_linear" x1="10.95" y1="4.41214" x2="12.1275" y2="7.78112" gradientUnits="userSpaceOnUse">
<stop stop-color="#80DAFE"/>
<stop offset="1" stop-color="#008EE6"/>
</linearGradient>
<linearGradient id="paint14_linear" x1="22.9833" y1="10.9582" x2="22.7136" y2="7.55975" gradientUnits="userSpaceOnUse">
<stop stop-color="#FFCB4B"/>
<stop offset="1" stop-color="#E81CA2"/>
</linearGradient>
<linearGradient id="paint15_linear" x1="20.1289" y1="12.3906" x2="22.0067" y2="12.6947" gradientUnits="userSpaceOnUse">
<stop stop-color="#FFCB4B"/>
<stop offset="1" stop-color="#E81CA2"/>
</linearGradient>
<linearGradient id="paint16_linear" x1="18.8385" y1="6.03908" x2="16.0529" y2="17.5027" gradientUnits="userSpaceOnUse">
<stop offset="0.2544" stop-color="#E100FF"/>
<stop offset="1" stop-color="#7000A3"/>
</linearGradient>
<linearGradient id="paint17_linear" x1="13.3596" y1="4.161" x2="15.4202" y2="7.59538" gradientUnits="userSpaceOnUse">
<stop stop-color="#FF9214"/>
<stop offset="1" stop-color="#FF4E0D"/>
</linearGradient>
<linearGradient id="paint18_linear" x1="15.5659" y1="13.5869" x2="16.6779" y2="16.8578" gradientUnits="userSpaceOnUse">
<stop stop-color="#FFCB4B"/>
<stop offset="1" stop-color="#E81CA2"/>
</linearGradient>
<linearGradient id="paint19_linear" x1="19.3112" y1="1.59963" x2="21.1429" y2="4.60881" gradientUnits="userSpaceOnUse">
<stop stop-color="#FBE07A"/>
<stop offset="1" stop-color="#E81CA2"/>
</linearGradient>
<linearGradient id="paint20_linear" x1="17.4107" y1="7.15227" x2="17.8686" y2="8.88582" gradientUnits="userSpaceOnUse">
<stop stop-color="#80DAFE"/>
<stop offset="1" stop-color="#008EE6"/>
</linearGradient>
<linearGradient id="paint21_linear" x1="18.9928" y1="12.1225" x2="19.2723" y2="12.9221" gradientUnits="userSpaceOnUse">
<stop stop-color="#80DAFE"/>
<stop offset="1" stop-color="#008EE6"/>
</linearGradient>
<linearGradient id="paint22_linear" x1="26.9314" y1="11.2811" x2="26.408" y2="12.9492" gradientUnits="userSpaceOnUse">
<stop stop-color="#FFCB4B"/>
<stop offset="1" stop-color="#E81CA2"/>
</linearGradient>
<linearGradient id="paint23_linear" x1="24.7684" y1="16.2722" x2="24.9319" y2="19.8375" gradientUnits="userSpaceOnUse">
<stop stop-color="#FFCB4B"/>
<stop offset="1" stop-color="#E81CA2"/>
</linearGradient>
<linearGradient id="paint24_linear" x1="23.4416" y1="13.8175" x2="23.721" y2="14.6171" gradientUnits="userSpaceOnUse">
<stop offset="0.2544" stop-color="#9F00E8"/>
<stop offset="1" stop-color="#7000A3"/>
</linearGradient>
<linearGradient id="paint25_linear" x1="25.8089" y1="5.43901" x2="24.7295" y2="7.30339" gradientUnits="userSpaceOnUse">
<stop stop-color="#80DAFE"/>
<stop offset="1" stop-color="#008EE6"/>
</linearGradient>
<linearGradient id="paint26_linear" x1="21.879" y1="6.95641" x2="22.2387" y2="8.95164" gradientUnits="userSpaceOnUse">
<stop stop-color="#FF9214"/>
<stop offset="1" stop-color="#FF4E0D"/>
</linearGradient>
<linearGradient id="paint27_linear" x1="16.4731" y1="17.0453" x2="26.9016" y2="17.2595" gradientUnits="userSpaceOnUse">
<stop stop-color="#80DAFE"/>
<stop offset="1" stop-color="#008EE6"/>
</linearGradient>
<linearGradient id="paint28_linear" x1="10.7122" y1="15.885" x2="13.2122" y2="9.67073" gradientUnits="userSpaceOnUse">
<stop stop-color="#FBE07A"/>
<stop offset="1" stop-color="#E81CA2"/>
</linearGradient>
</defs>
</svg>
