<svg width="41" height="41" viewBox="0 0 41 41" fill="none" xmlns="http://www.w3.org/2000/svg">
<path fill-rule="evenodd" clip-rule="evenodd" d="M17.8777 20.4999C17.8777 22.5459 16.2197 24.2039 14.1737 24.2039C12.1277 24.2039 10.4697 22.5459 10.4697 20.4999C10.4697 18.4539 12.1277 16.7959 14.1737 16.7959H14.1797C16.2237 16.7979 17.8777 18.4559 17.8777 20.4999Z" stroke="#007AFF" stroke-width="3" stroke-linecap="round" stroke-linejoin="round"/>
<path d="M17.8838 20.5H30.5198V24.204" stroke="#007AFF" stroke-width="3" stroke-linecap="round" stroke-linejoin="round"/>
<path d="M24.8643 24.204V20.5" stroke="#007AFF" stroke-width="3" stroke-linecap="round" stroke-linejoin="round"/>
<path fill-rule="evenodd" clip-rule="evenodd" d="M2 20.5C2 6.626 6.626 2 20.5 2C34.374 2 39 6.626 39 20.5C39 34.374 34.374 39 20.5 39C6.626 39 2 34.374 2 20.5Z" stroke="#007AFF" stroke-width="3" stroke-linecap="round" stroke-linejoin="round"/>
</svg>
