<svg width="24" height="24" viewBox="0 0 24 24" fill="none" xmlns="http://www.w3.org/2000/svg">
<path d="M12.0001 2C17.5116 2 22.0001 6.48625 22.0001 12.0058C22.0001 17.5137 17.5116 22 12.0001 22C6.48848 22 2.00006 17.5137 2.00006 12.0058C2.00006 6.48625 6.48848 2 12.0001 2ZM10.8611 8.02991C10.6487 8.02991 10.446 8.07815 10.253 8.17463C10.0116 8.3097 9.81859 8.52195 9.71242 8.77279C9.64485 8.94645 9.53867 9.46744 9.53867 9.47709C9.43249 10.0463 9.37458 10.9725 9.37458 11.9952C9.37458 12.9706 9.43249 13.8572 9.51937 14.4361C9.52902 14.4457 9.6352 15.0921 9.75103 15.314C9.96338 15.7192 10.3784 15.9701 10.8225 15.9701H10.8611C11.1506 15.9604 11.7587 15.7096 11.7587 15.7C12.7819 15.2754 14.7993 13.9537 15.6101 13.0757L15.668 13.0178C15.7742 12.9117 15.9093 12.7477 15.9383 12.7091C16.0927 12.5065 16.1699 12.2557 16.1699 12.0058C16.1699 11.725 16.0831 11.4645 15.919 11.2523C15.8804 11.2137 15.7356 11.0497 15.6004 10.9146C14.8089 10.0656 12.7433 8.67631 11.6622 8.25181C11.4981 8.18524 11.0831 8.03956 10.8611 8.02991Z" fill="#C4C4C4"/>
</svg>
