<svg width="31" height="43" viewBox="0 0 31 43" fill="none" xmlns="http://www.w3.org/2000/svg">
<path fill-rule="evenodd" clip-rule="evenodd" d="M15.6891 40.5238C8.30545 40.5238 2 39.3748 2 34.7733C2 30.1717 8.26545 25.9238 15.6891 25.9238C23.0727 25.9238 29.3782 30.1305 29.3782 34.7321C29.3782 39.3318 23.1127 40.5238 15.6891 40.5238Z" stroke="#017AFF" stroke-width="3" stroke-linecap="round" stroke-linejoin="round"/>
<path fill-rule="evenodd" clip-rule="evenodd" d="M15.6746 19.5473C20.52 19.5473 24.4473 15.62 24.4473 10.7745C24.4473 5.92909 20.52 2 15.6746 2C10.8291 2 6.89995 5.92909 6.89995 10.7745C6.88364 15.6036 10.7836 19.5309 15.6127 19.5473C15.6346 19.5473 15.6546 19.5473 15.6746 19.5473Z" stroke="#017AFF" stroke-width="3" stroke-linecap="round" stroke-linejoin="round"/>
</svg>
