<svg width="54" height="55" viewBox="0 0 54 55" fill="none" xmlns="http://www.w3.org/2000/svg">
<path d="M35.9575 54.2767H30V48.3192H35.9575V54.2767ZM30 33.4256H24.0426V48.3192H30V33.4256ZM53.8298 27.4682H47.8723V39.3831H53.8298V27.4682ZM47.8723 21.5107H41.9149V27.4682H47.8723V21.5107ZM12.1277 27.4682H6.17022V33.4256H12.1277V27.4682ZM6.17022 21.5107H0.212769V27.4682H6.17022V21.5107ZM27.0213 6.61711H32.9787V0.659668H27.0213V6.61711ZM4.68085 5.12775V14.0639H13.617V5.12775H4.68085ZM15.1064 18.532H3.19149C1.55319 18.532 0.212769 17.1916 0.212769 15.5533V3.63839C0.212769 2.00009 1.55319 0.659668 3.19149 0.659668H15.1064C16.7447 0.659668 18.0851 2.00009 18.0851 3.63839V15.5533C18.0851 17.1916 16.7447 18.532 15.1064 18.532ZM4.68085 40.8724V49.8086H13.617V40.8724H4.68085ZM15.1064 54.2767H3.19149C1.55319 54.2767 0.212769 52.9363 0.212769 51.298V39.3831C0.212769 37.7448 1.55319 36.4043 3.19149 36.4043H15.1064C16.7447 36.4043 18.0851 37.7448 18.0851 39.3831V51.298C18.0851 52.9363 16.7447 54.2767 15.1064 54.2767ZM40.4255 5.12775V14.0639H49.3617V5.12775H40.4255ZM50.8511 18.532H38.9362C37.2979 18.532 35.9575 17.1916 35.9575 15.5533V3.63839C35.9575 2.00009 37.2979 0.659668 38.9362 0.659668H50.8511C52.4894 0.659668 53.8298 2.00009 53.8298 3.63839V15.5533C53.8298 17.1916 52.4894 18.532 50.8511 18.532ZM47.8723 48.3192V39.3831H35.9575V45.3405H41.9149V54.2767H53.8298V48.3192H47.8723ZM41.9149 27.4682H30V33.4256H41.9149V27.4682ZM30 21.5107H12.1277V27.4682H18.0851V33.4256H24.0426V27.4682H30V21.5107ZM32.9787 18.532V12.5746H27.0213V6.61711H21.0638V18.532H32.9787ZM11.383 7.3618H6.9149V11.8299H11.383V7.3618ZM11.383 43.1065H6.9149V47.5746H11.383V43.1065ZM47.1277 7.3618H42.6596V11.8299H47.1277V7.3618Z" fill="#212121"/>
</svg>
