<svg width="25" height="20" viewBox="0 0 25 20" fill="none" xmlns="http://www.w3.org/2000/svg">
<path d="M23.5989 10.0458C24.0656 10.0458 24.4444 10.4174 24.4444 10.8761C24.4444 11.3337 24.0656 11.7041 23.5989 11.7041H22.4189V15.6592C22.4189 18.0541 20.4333 20 17.9933 20H16.2233C15.7556 20 15.3767 19.6285 15.3767 19.1698C15.3767 18.7121 15.7556 18.3406 16.2233 18.3406H17.9933C19.5011 18.3406 20.7278 17.1388 20.7278 15.6592V11.7041H17.8133V12.8057C17.8244 14.184 16.6967 15.3106 15.2911 15.3236H9.15333C7.74889 15.3106 6.62111 14.184 6.63222 12.8057V11.7041H3.71778V15.6636C3.71778 17.1377 4.94111 18.3373 6.44444 18.3395L8.25333 18.3406C8.72 18.3406 9.09889 18.7121 9.09889 19.1698C9.09778 19.6285 8.72 20 8.25222 20L6.44222 19.9989C4.00778 19.9967 2.02556 18.0519 2.02556 15.6636V11.7041H0.846667C0.38 11.7041 0 11.3337 0 10.8761C0 10.4174 0.38 10.0458 0.846667 10.0458H23.5989ZM15.2917 4.15851C15.9639 4.15851 16.6094 4.42327 17.0794 4.89505C17.5528 5.37118 17.815 6.01075 17.8139 6.67647V8.06021C17.8083 8.22255 17.6761 8.35439 17.5106 8.35875H6.93278C6.76833 8.3533 6.63611 8.22146 6.63268 8.06021V6.67647C6.62055 5.29818 7.74944 4.17267 9.15389 4.15851H15.2917ZM17.9929 0.000326867C20.434 0.000326867 22.4184 1.94627 22.4184 4.34003V6.40256C22.4184 6.86017 22.0407 7.2328 21.5729 7.2328C21.1062 7.2328 20.7273 6.86017 20.7273 6.40256V4.34003C20.7273 2.8615 19.5007 1.65863 17.9929 1.65863H16.2229C15.7562 1.65863 15.3773 1.28818 15.3773 0.830569C15.3773 0.371866 15.7562 0.000326867 16.2229 0.000326867H17.9929ZM8.253 0C8.71967 0 9.09855 0.371539 9.09855 0.830242C9.09855 1.28786 8.72078 1.65939 8.253 1.65939L6.443 1.66048C4.94078 1.66266 3.71856 2.86226 3.71856 4.33643V6.40223C3.71856 6.85985 3.33856 7.23247 2.87189 7.23247C2.40522 7.23247 2.02633 6.85985 2.02633 6.40223V4.33643C2.02633 1.94813 4.00744 0.00326867 6.44189 0.00108956L8.253 0Z" fill="#020202"/>
</svg>
