<svg width="18" height="18" viewBox="0 0 18 18" fill="none" xmlns="http://www.w3.org/2000/svg">
<path d="M16.5 2.25H5.25C4.7325 2.25 4.3275 2.5125 4.0575 2.91L0 9L4.0575 15.0825C4.3275 15.48 4.785 15.75 5.3025 15.75H16.5C17.325 15.75 18 15.075 18 14.25V3.75C18 2.925 17.325 2.25 16.5 2.25ZM16.5 14.25H5.3025L1.8 9L5.295 3.75H16.5V14.25Z" fill="white"/>
<path d="M6.75 10.125C7.37132 10.125 7.875 9.62132 7.875 9C7.875 8.37868 7.37132 7.875 6.75 7.875C6.12868 7.875 5.625 8.37868 5.625 9C5.625 9.62132 6.12868 10.125 6.75 10.125Z" fill="white"/>
<path d="M10.5 10.125C11.1213 10.125 11.625 9.62132 11.625 9C11.625 8.37868 11.1213 7.875 10.5 7.875C9.87868 7.875 9.375 8.37868 9.375 9C9.375 9.62132 9.87868 10.125 10.5 10.125Z" fill="white"/>
<path d="M14.25 10.125C14.8713 10.125 15.375 9.62132 15.375 9C15.375 8.37868 14.8713 7.875 14.25 7.875C13.6287 7.875 13.125 8.37868 13.125 9C13.125 9.62132 13.6287 10.125 14.25 10.125Z" fill="white"/>
</svg>
