<svg width="414" height="896" viewBox="0 0 414 896" fill="none" xmlns="http://www.w3.org/2000/svg">
<defs>
<linearGradient id="paint0_linear_13721_84515" x1="329.401" y1="936.69" x2="562.343" y2="936.69" gradientUnits="userSpaceOnUse">
<stop stop-color="#AB85EC" stop-opacity="0.85"/>
<stop offset="1" stop-color="#AB85EC" stop-opacity="0.15"/>
</linearGradient>
<linearGradient id="paint1_linear_13721_84515" x1="-28.877" y1="908.256" x2="78.1953" y2="908.256" gradientUnits="userSpaceOnUse">
<stop stop-color="#AB85EC" stop-opacity="0.85"/>
<stop offset="1" stop-color="#AB85EC" stop-opacity="0.15"/>
</linearGradient>
<linearGradient id="paint2_linear_13721_84515" x1="41.2354" y1="941.081" x2="104.963" y2="941.081" gradientUnits="userSpaceOnUse">
<stop stop-color="#AB85EC" stop-opacity="0.85"/>
<stop offset="1" stop-color="#AB85EC" stop-opacity="0.15"/>
</linearGradient>
<linearGradient id="paint3_linear_13721_84515" x1="297.432" y1="585.261" x2="485.548" y2="585.261" gradientUnits="userSpaceOnUse">
<stop stop-color="#AB85EC" stop-opacity="0.85"/>
<stop offset="1" stop-color="#AB85EC" stop-opacity="0.15"/>
</linearGradient>
<linearGradient id="paint4_linear_13721_84515" x1="170.88" y1="245.604" x2="320.829" y2="245.604" gradientUnits="userSpaceOnUse">
<stop stop-color="#AB85EC" stop-opacity="0.85"/>
<stop offset="1" stop-color="#AB85EC" stop-opacity="0.15"/>
</linearGradient>
<linearGradient id="paint5_linear_13721_84515" x1="300.479" y1="196.134" x2="455.188" y2="196.134" gradientUnits="userSpaceOnUse">
<stop stop-color="#AB85EC" stop-opacity="0.85"/>
<stop offset="1" stop-color="#AB85EC" stop-opacity="0.15"/>
</linearGradient>
<linearGradient id="paint6_linear_13721_84515" x1="59.2686" y1="340.658" x2="221.837" y2="340.658" gradientUnits="userSpaceOnUse">
<stop stop-color="#AB85EC" stop-opacity="0.85"/>
<stop offset="1" stop-color="#AB85EC" stop-opacity="0.15"/>
</linearGradient>
<linearGradient id="paint7_linear_13721_84515" x1="301.289" y1="357.699" x2="453.992" y2="357.699" gradientUnits="userSpaceOnUse">
<stop stop-color="#AB85EC" stop-opacity="0.85"/>
<stop offset="1" stop-color="#AB85EC" stop-opacity="0.15"/>
</linearGradient>
<linearGradient id="paint8_linear_13721_84515" x1="186.934" y1="787.079" x2="387.972" y2="787.079" gradientUnits="userSpaceOnUse">
<stop stop-color="#AB85EC" stop-opacity="0.85"/>
<stop offset="1" stop-color="#AB85EC" stop-opacity="0.15"/>
</linearGradient>
<linearGradient id="paint9_linear_13721_84515" x1="76.7705" y1="532.096" x2="157.664" y2="532.096" gradientUnits="userSpaceOnUse">
<stop stop-color="#AB85EC" stop-opacity="0.85"/>
<stop offset="1" stop-color="#AB85EC" stop-opacity="0.15"/>
</linearGradient>
<linearGradient id="paint10_linear_13721_84515" x1="45.874" y1="171.605" x2="179.417" y2="171.605" gradientUnits="userSpaceOnUse">
<stop stop-color="#AB85EC" stop-opacity="0.85"/>
<stop offset="1" stop-color="#AB85EC" stop-opacity="0.15"/>
</linearGradient>
<linearGradient id="paint11_linear_13721_84515" x1="-17.7598" y1="340.928" x2="37.0849" y2="340.928" gradientUnits="userSpaceOnUse">
<stop stop-color="#AB85EC" stop-opacity="0.85"/>
<stop offset="1" stop-color="#AB85EC" stop-opacity="0.15"/>
</linearGradient>
<linearGradient id="paint12_linear_13721_84515" x1="178.213" y1="464.033" x2="304.787" y2="464.033" gradientUnits="userSpaceOnUse">
<stop stop-color="#AB85EC" stop-opacity="0.85"/>
<stop offset="1" stop-color="#AB85EC" stop-opacity="0.15"/>
</linearGradient>
<linearGradient id="paint13_linear_13721_84515" x1="176.902" y1="65.3498" x2="327.957" y2="65.3498" gradientUnits="userSpaceOnUse">
<stop stop-color="#AB85EC" stop-opacity="0.85"/>
<stop offset="1" stop-color="#AB85EC" stop-opacity="0.15"/>
</linearGradient>
<linearGradient id="paint14_linear_13721_84515" x1="-96.4648" y1="185.367" x2="5.85933" y2="185.367" gradientUnits="userSpaceOnUse">
<stop stop-color="#AB85EC" stop-opacity="0.85"/>
<stop offset="1" stop-color="#AB85EC" stop-opacity="0.15"/>
</linearGradient>
<linearGradient id="paint15_linear_13721_84515" x1="-94.9131" y1="90.7697" x2="10.9432" y2="90.7697" gradientUnits="userSpaceOnUse">
<stop stop-color="#AB85EC" stop-opacity="0.85"/>
<stop offset="1" stop-color="#AB85EC" stop-opacity="0.15"/>
</linearGradient>
<linearGradient id="paint16_linear_13721_84515" x1="80.5654" y1="742.414" x2="165.193" y2="742.414" gradientUnits="userSpaceOnUse">
<stop stop-color="#AB85EC" stop-opacity="0.85"/>
<stop offset="1" stop-color="#AB85EC" stop-opacity="0.15"/>
</linearGradient>
<linearGradient id="paint17_linear_13721_84515" x1="156.158" y1="937.425" x2="301.125" y2="937.425" gradientUnits="userSpaceOnUse">
<stop stop-color="#AB85EC" stop-opacity="0.85"/>
<stop offset="1" stop-color="#AB85EC" stop-opacity="0.15"/>
</linearGradient>
<linearGradient id="paint18_linear_13721_84515" x1="149.643" y1="391.793" x2="270.839" y2="391.793" gradientUnits="userSpaceOnUse">
<stop stop-color="#AB85EC" stop-opacity="0.85"/>
<stop offset="1" stop-color="#AB85EC" stop-opacity="0.15"/>
</linearGradient>
<linearGradient id="paint19_linear_13721_84515" x1="231.766" y1="865.803" x2="368.127" y2="865.803" gradientUnits="userSpaceOnUse">
<stop stop-color="#AB85EC" stop-opacity="0.85"/>
<stop offset="1" stop-color="#AB85EC" stop-opacity="0.15"/>
</linearGradient>
<linearGradient id="paint20_linear_13721_84515" x1="321.196" y1="22.4418" x2="405.975" y2="22.4418" gradientUnits="userSpaceOnUse">
<stop stop-color="#AB85EC" stop-opacity="0.85"/>
<stop offset="1" stop-color="#AB85EC" stop-opacity="0.15"/>
</linearGradient>
<linearGradient id="paint21_linear_13721_84515" x1="189.152" y1="709.593" x2="259.343" y2="709.593" gradientUnits="userSpaceOnUse">
<stop stop-color="#AB85EC" stop-opacity="0.85"/>
<stop offset="1" stop-color="#AB85EC" stop-opacity="0.15"/>
</linearGradient>
<linearGradient id="paint22_linear_13721_84515" x1="362.532" y1="57.1564" x2="420.726" y2="57.1564" gradientUnits="userSpaceOnUse">
<stop stop-color="#AB85EC" stop-opacity="0.85"/>
<stop offset="1" stop-color="#AB85EC" stop-opacity="0.15"/>
</linearGradient>
<linearGradient id="paint23_linear_13721_84515" x1="19.4912" y1="72.6989" x2="129.126" y2="72.6989" gradientUnits="userSpaceOnUse">
<stop stop-color="#AB85EC" stop-opacity="0.85"/>
<stop offset="1" stop-color="#AB85EC" stop-opacity="0.15"/>
</linearGradient>
<linearGradient id="paint24_linear_13721_84515" x1="57.7812" y1="645.997" x2="176.018" y2="645.997" gradientUnits="userSpaceOnUse">
<stop stop-color="#AB85EC" stop-opacity="0.85"/>
<stop offset="1" stop-color="#AB85EC" stop-opacity="0.15"/>
</linearGradient>
<linearGradient id="paint25_linear_13721_84515" x1="5.22168" y1="-13.1435" x2="102.519" y2="-13.1435" gradientUnits="userSpaceOnUse">
<stop stop-color="#AB85EC" stop-opacity="0.85"/>
<stop offset="1" stop-color="#AB85EC" stop-opacity="0.15"/>
</linearGradient>
<linearGradient id="paint26_linear_13721_84515" x1="-34.8994" y1="483.764" x2="38.2287" y2="483.764" gradientUnits="userSpaceOnUse">
<stop stop-color="#AB85EC" stop-opacity="0.85"/>
<stop offset="1" stop-color="#AB85EC" stop-opacity="0.15"/>
</linearGradient>
<linearGradient id="paint27_linear_13721_84515" x1="-62.5312" y1="576.836" x2="19.3725" y2="576.836" gradientUnits="userSpaceOnUse">
<stop stop-color="#AB85EC" stop-opacity="0.85"/>
<stop offset="1" stop-color="#AB85EC" stop-opacity="0.15"/>
</linearGradient>
<linearGradient id="paint28_linear_13721_84515" x1="120.032" y1="29.7352" x2="182.924" y2="29.7352" gradientUnits="userSpaceOnUse">
<stop stop-color="#AB85EC" stop-opacity="0.85"/>
<stop offset="1" stop-color="#AB85EC" stop-opacity="0.15"/>
</linearGradient>
<linearGradient id="paint29_linear_13721_84515" x1="-28.9189" y1="610.284" x2="44.665" y2="610.284" gradientUnits="userSpaceOnUse">
<stop stop-color="#AB85EC" stop-opacity="0.85"/>
<stop offset="1" stop-color="#AB85EC" stop-opacity="0.15"/>
</linearGradient>
<linearGradient id="paint30_linear_13721_84515" x1="-31.8662" y1="12.1483" x2="36.8264" y2="12.1483" gradientUnits="userSpaceOnUse">
<stop stop-color="#AB85EC" stop-opacity="0.85"/>
<stop offset="1" stop-color="#AB85EC" stop-opacity="0.15"/>
</linearGradient>
<linearGradient id="paint31_linear_13721_84515" x1="281.398" y1="732.365" x2="333.361" y2="732.365" gradientUnits="userSpaceOnUse">
<stop stop-color="#AB85EC" stop-opacity="0.85"/>
<stop offset="1" stop-color="#AB85EC" stop-opacity="0.15"/>
</linearGradient>
<linearGradient id="paint32_linear_13721_84515" x1="57.6426" y1="238.205" x2="106.922" y2="238.205" gradientUnits="userSpaceOnUse">
<stop stop-color="#AB85EC" stop-opacity="0.85"/>
<stop offset="1" stop-color="#AB85EC" stop-opacity="0.15"/>
</linearGradient>
<linearGradient id="paint33_linear_13721_84515" x1="195.05" y1="597.011" x2="209.965" y2="597.011" gradientUnits="userSpaceOnUse">
<stop stop-color="#AB85EC" stop-opacity="0.85"/>
<stop offset="1" stop-color="#AB85EC" stop-opacity="0.15"/>
</linearGradient>
<linearGradient id="paint34_linear_13721_84515" x1="-87.4053" y1="713.573" x2="10.9944" y2="713.573" gradientUnits="userSpaceOnUse">
<stop stop-color="#AB85EC" stop-opacity="0.85"/>
<stop offset="1" stop-color="#AB85EC" stop-opacity="0.15"/>
</linearGradient>
<linearGradient id="paint35_linear_13721_84515" x1="220.591" y1="594.998" x2="235.329" y2="594.998" gradientUnits="userSpaceOnUse">
<stop stop-color="#AB85EC" stop-opacity="0.85"/>
<stop offset="1" stop-color="#AB85EC" stop-opacity="0.15"/>
</linearGradient>
<linearGradient id="paint36_linear_13721_84515" x1="329.475" y1="274.189" x2="371.857" y2="274.189" gradientUnits="userSpaceOnUse">
<stop stop-color="#AB85EC" stop-opacity="0.85"/>
<stop offset="1" stop-color="#AB85EC" stop-opacity="0.15"/>
</linearGradient>
<linearGradient id="paint37_linear_13721_84515" x1="100.814" y1="843.149" x2="152.357" y2="843.149" gradientUnits="userSpaceOnUse">
<stop stop-color="#AB85EC" stop-opacity="0.85"/>
<stop offset="1" stop-color="#AB85EC" stop-opacity="0.15"/>
</linearGradient>
<linearGradient id="paint38_linear_13721_84515" x1="-4.9834" y1="125.484" x2="30.0762" y2="125.484" gradientUnits="userSpaceOnUse">
<stop stop-color="#AB85EC" stop-opacity="0.85"/>
<stop offset="1" stop-color="#AB85EC" stop-opacity="0.15"/>
</linearGradient>
<linearGradient id="paint39_linear_13721_84515" x1="59.5332" y1="455.391" x2="95.5826" y2="455.391" gradientUnits="userSpaceOnUse">
<stop stop-color="#AB85EC" stop-opacity="0.85"/>
<stop offset="1" stop-color="#AB85EC" stop-opacity="0.15"/>
</linearGradient>
<linearGradient id="paint40_linear_13721_84515" x1="9.87109" y1="738.873" x2="44.9519" y2="738.873" gradientUnits="userSpaceOnUse">
<stop stop-color="#AB85EC" stop-opacity="0.85"/>
<stop offset="1" stop-color="#AB85EC" stop-opacity="0.15"/>
</linearGradient>
<linearGradient id="paint41_linear_13721_84515" x1="32.1855" y1="666.889" x2="63.2411" y2="666.889" gradientUnits="userSpaceOnUse">
<stop stop-color="#AB85EC" stop-opacity="0.85"/>
<stop offset="1" stop-color="#AB85EC" stop-opacity="0.15"/>
</linearGradient>
<linearGradient id="paint42_linear_13721_84515" x1="378.703" y1="399.321" x2="424.152" y2="399.321" gradientUnits="userSpaceOnUse">
<stop stop-color="#AB85EC" stop-opacity="0.85"/>
<stop offset="1" stop-color="#AB85EC" stop-opacity="0.15"/>
</linearGradient>
<linearGradient id="paint43_linear_13721_84515" x1="283.408" y1="32.1438" x2="312.494" y2="32.1438" gradientUnits="userSpaceOnUse">
<stop stop-color="#AB85EC" stop-opacity="0.85"/>
<stop offset="1" stop-color="#AB85EC" stop-opacity="0.15"/>
</linearGradient>
<linearGradient id="paint44_linear_13721_84515" x1="244.781" y1="129.61" x2="280.039" y2="129.61" gradientUnits="userSpaceOnUse">
<stop stop-color="#AB85EC" stop-opacity="0.85"/>
<stop offset="1" stop-color="#AB85EC" stop-opacity="0.15"/>
</linearGradient>
<linearGradient id="paint45_linear_13721_84515" x1="50.3818" y1="735.737" x2="64.8732" y2="735.737" gradientUnits="userSpaceOnUse">
<stop stop-color="#AB85EC" stop-opacity="0.85"/>
<stop offset="1" stop-color="#AB85EC" stop-opacity="0.15"/>
</linearGradient>
<linearGradient id="paint46_linear_13721_84515" x1="254.591" y1="614.332" x2="267.266" y2="614.332" gradientUnits="userSpaceOnUse">
<stop stop-color="#AB85EC" stop-opacity="0.85"/>
<stop offset="1" stop-color="#AB85EC" stop-opacity="0.15"/>
</linearGradient>
<linearGradient id="paint47_linear_13721_84515" x1="199.124" y1="141.621" x2="225.612" y2="141.621" gradientUnits="userSpaceOnUse">
<stop stop-color="#AB85EC" stop-opacity="0.85"/>
<stop offset="1" stop-color="#AB85EC" stop-opacity="0.15"/>
</linearGradient>
<linearGradient id="paint48_linear_13721_84515" x1="301.046" y1="464.157" x2="325.421" y2="464.157" gradientUnits="userSpaceOnUse">
<stop stop-color="#AB85EC" stop-opacity="0.85"/>
<stop offset="1" stop-color="#AB85EC" stop-opacity="0.15"/>
</linearGradient>
<linearGradient id="paint49_linear_13721_84515" x1="120.867" y1="255.057" x2="154.556" y2="255.057" gradientUnits="userSpaceOnUse">
<stop stop-color="#AB85EC" stop-opacity="0.85"/>
<stop offset="1" stop-color="#AB85EC" stop-opacity="0.15"/>
</linearGradient>
<linearGradient id="paint50_linear_13721_84515" x1="179.535" y1="78.2367" x2="210.704" y2="78.2367" gradientUnits="userSpaceOnUse">
<stop stop-color="#AB85EC" stop-opacity="0.85"/>
<stop offset="1" stop-color="#AB85EC" stop-opacity="0.15"/>
</linearGradient>
<linearGradient id="paint51_linear_13721_84515" x1="118.683" y1="904.798" x2="130.862" y2="904.798" gradientUnits="userSpaceOnUse">
<stop stop-color="#AB85EC" stop-opacity="0.85"/>
<stop offset="1" stop-color="#AB85EC" stop-opacity="0.15"/>
</linearGradient>
<linearGradient id="paint52_linear_13721_84515" x1="91.5039" y1="108.697" x2="122.007" y2="108.697" gradientUnits="userSpaceOnUse">
<stop stop-color="#AB85EC" stop-opacity="0.85"/>
<stop offset="1" stop-color="#AB85EC" stop-opacity="0.15"/>
</linearGradient>
<linearGradient id="paint53_linear_13721_84515" x1="270.862" y1="675.573" x2="286.514" y2="675.573" gradientUnits="userSpaceOnUse">
<stop stop-color="#AB85EC" stop-opacity="0.85"/>
<stop offset="1" stop-color="#AB85EC" stop-opacity="0.15"/>
</linearGradient>
<linearGradient id="paint54_linear_13721_84515" x1="386.001" y1="331.401" x2="401.415" y2="331.401" gradientUnits="userSpaceOnUse">
<stop stop-color="#AB85EC" stop-opacity="0.85"/>
<stop offset="1" stop-color="#AB85EC" stop-opacity="0.15"/>
</linearGradient>
<linearGradient id="paint55_linear_13721_84515" x1="163.919" y1="687.428" x2="176.987" y2="687.428" gradientUnits="userSpaceOnUse">
<stop stop-color="#AB85EC" stop-opacity="0.85"/>
<stop offset="1" stop-color="#AB85EC" stop-opacity="0.15"/>
</linearGradient>
<linearGradient id="paint56_linear_13721_84515" x1="371.836" y1="824.236" x2="385.651" y2="824.236" gradientUnits="userSpaceOnUse">
<stop stop-color="#AB85EC" stop-opacity="0.85"/>
<stop offset="1" stop-color="#AB85EC" stop-opacity="0.15"/>
</linearGradient>
<linearGradient id="paint57_linear_13721_84515" x1="98.041" y1="693.338" x2="114.942" y2="693.338" gradientUnits="userSpaceOnUse">
<stop stop-color="#AB85EC" stop-opacity="0.85"/>
<stop offset="1" stop-color="#AB85EC" stop-opacity="0.15"/>
</linearGradient>
<linearGradient id="paint58_linear_13721_84515" x1="399.068" y1="746.605" x2="412.279" y2="746.605" gradientUnits="userSpaceOnUse">
<stop stop-color="#AB85EC" stop-opacity="0.85"/>
<stop offset="1" stop-color="#AB85EC" stop-opacity="0.15"/>
</linearGradient>
<linearGradient id="paint59_linear_13721_84515" x1="124.905" y1="823.663" x2="136.94" y2="823.663" gradientUnits="userSpaceOnUse">
<stop stop-color="#AB85EC" stop-opacity="0.85"/>
<stop offset="1" stop-color="#AB85EC" stop-opacity="0.15"/>
</linearGradient>
<linearGradient id="paint60_linear_13721_84515" x1="139.7" y1="898.056" x2="151.383" y2="898.056" gradientUnits="userSpaceOnUse">
<stop stop-color="#AB85EC" stop-opacity="0.85"/>
<stop offset="1" stop-color="#AB85EC" stop-opacity="0.15"/>
</linearGradient>
<linearGradient id="paint61_linear_13721_84515" x1="405.566" y1="38.9724" x2="418.245" y2="38.9724" gradientUnits="userSpaceOnUse">
<stop stop-color="#AB85EC" stop-opacity="0.85"/>
<stop offset="1" stop-color="#AB85EC" stop-opacity="0.15"/>
</linearGradient>
<linearGradient id="paint62_linear_13721_84515" x1="114.11" y1="233.33" x2="125.331" y2="233.33" gradientUnits="userSpaceOnUse">
<stop stop-color="#AB85EC" stop-opacity="0.85"/>
<stop offset="1" stop-color="#AB85EC" stop-opacity="0.15"/>
</linearGradient>
<linearGradient id="paint63_linear_13721_84515" x1="275.683" y1="7.95069" x2="285.117" y2="7.95069" gradientUnits="userSpaceOnUse">
<stop stop-color="#AB85EC" stop-opacity="0.85"/>
<stop offset="1" stop-color="#AB85EC" stop-opacity="0.15"/>
</linearGradient>
<linearGradient id="paint64_linear_13721_84515" x1="380.521" y1="454.001" x2="389.349" y2="454.001" gradientUnits="userSpaceOnUse">
<stop stop-color="#AB85EC" stop-opacity="0.85"/>
<stop offset="1" stop-color="#AB85EC" stop-opacity="0.15"/>
</linearGradient>
<linearGradient id="paint65_linear_13721_84515" x1="54.6465" y1="461.312" x2="62.4718" y2="461.312" gradientUnits="userSpaceOnUse">
<stop stop-color="#AB85EC" stop-opacity="0.85"/>
<stop offset="1" stop-color="#AB85EC" stop-opacity="0.15"/>
</linearGradient>
<linearGradient id="paint66_linear_13721_84515" x1="21.1523" y1="453.498" x2="27.906" y2="453.498" gradientUnits="userSpaceOnUse">
<stop stop-color="#AB85EC" stop-opacity="0.85"/>
<stop offset="1" stop-color="#AB85EC" stop-opacity="0.15"/>
</linearGradient>
<linearGradient id="paint67_linear_13721_84515" x1="263.676" y1="661.33" x2="267.962" y2="661.33" gradientUnits="userSpaceOnUse">
<stop stop-color="#AB85EC" stop-opacity="0.85"/>
<stop offset="1" stop-color="#AB85EC" stop-opacity="0.15"/>
</linearGradient>
</defs>
<mask id="mask0_13721_84515" style="mask-type:alpha" maskUnits="userSpaceOnUse" x="-189" y="0" width="827" height="896">
<rect x="-188.406" width="825.813" height="896" rx="20" fill="#A57EE8"/>
</mask>
<g mask="url(#mask0_13721_84515)">
<g opacity="0.5">
<path d="M524.368 1011.56C519.141 990.558 520.175 969.683 526.76 949.234C531.377 934.897 537.093 920.922 542.219 906.752C543.678 902.718 544.767 898.563 546.033 894.464C546.707 892.276 545.986 890.773 543.733 890.31C536.77 888.872 529.844 886.693 522.816 886.285C505.27 885.283 487.816 884.013 470.871 878.931C468.543 878.235 466.198 877.586 463.852 876.937C463.723 876.9 463.547 877.02 463.16 877.132C463.612 878.05 464.074 878.912 464.471 879.802C466.9 885.348 469.781 890.745 471.628 896.477C474.232 904.6 470.196 911.073 461.931 913.095C454.553 914.903 447.248 913.92 440.008 912.214C429.508 909.738 419.553 905.704 409.782 901.188C409.034 900.844 408.277 900.52 406.956 899.926C407.511 901.392 407.861 902.365 408.259 903.32C410.124 907.827 412.303 912.232 413.809 916.86C416.828 926.124 412.442 933.506 402.847 934.647C397.953 935.222 392.679 934.999 387.914 933.794C374.431 930.353 361.133 926.226 347.761 922.359C346.903 922.109 346.053 921.831 344.585 921.367C345.296 922.656 345.674 923.444 346.136 924.177C350.827 931.67 357.144 937.512 364.476 942.279C380.212 952.508 397.611 958.387 415.877 961.958C438.743 966.428 461.414 965.584 483.975 959.816C486.995 959.046 490.301 958.712 493.367 959.046C498.252 959.584 500.006 964.74 496.506 968.208C494.558 970.137 491.963 971.741 489.368 972.641C480.031 975.877 470.307 977.269 460.491 977.936C434.532 979.689 409.007 977.51 384.34 968.626C369.574 963.302 356.137 955.689 344.963 944.412C335.913 935.277 330.769 924.242 329.476 911.509C328.71 903.979 333.9 900.344 341.066 902.801C358.132 908.653 375.198 914.532 392.92 918.168C395.034 918.603 397.195 918.807 399.855 919.197C399.412 917.416 399.135 916.072 398.747 914.755C396.77 908.059 394.748 901.373 392.79 894.668C392.532 893.787 392.467 892.841 392.421 891.923C392.116 885.942 396.069 882.019 401.997 882.881C405.534 883.401 409.007 884.523 412.405 885.682C421.132 888.677 429.73 892.081 438.521 894.835C442.954 896.226 447.71 896.616 452.346 897.348C453.629 897.552 454.977 897.376 456.741 897.376C456.261 895.354 456.058 893.769 455.504 892.322C453.666 887.527 451.644 882.807 449.797 878.022C448.956 875.833 448.134 873.589 447.7 871.289C446.722 866.115 449.547 861.951 454.793 861.83C459.946 861.71 465.145 862.424 470.27 863.156C480.973 864.686 491.603 866.829 502.343 868.034C509.989 868.897 517.765 868.452 525.467 868.925C533.889 869.444 542.071 871.28 549.911 874.479C560.55 878.81 564.133 885.738 561.529 896.968C560.901 899.667 560.042 902.328 559.165 904.962C552.682 924.297 546.716 943.8 542.837 963.84C540.519 975.803 540.159 987.97 541.997 1000.07C542.588 1003.96 543.973 1007.72 544.989 1011.53C538.128 1011.56 531.248 1011.56 524.368 1011.56Z" fill="url(#paint0_linear_13721_84515)"/>
<path d="M23.4712 1011.56C23.7206 1003.67 23.5728 995.742 24.2931 987.887C25.6876 972.706 27.6454 957.59 29.2153 942.418C29.9171 935.667 29.8894 928.906 26.6111 922.665C25.5398 920.625 24.1638 918.733 23.0187 916.906C20.6639 919.624 18.7707 922.313 16.3881 924.455C6.37761 933.451 -6.57884 932.801 -15.2319 922.517C-26.3321 909.33 -30.4231 893.796 -28.3638 876.798C-26.5907 862.155 -9.70943 847.688 8.74172 854.523C13.6639 856.349 18.4106 858.816 22.991 861.422C33.6849 867.506 45.1453 870.445 57.3722 870.64C58.5451 870.659 59.7179 870.649 60.8907 870.622C61.2139 870.612 61.5464 870.529 61.8326 870.482C61.9342 870.278 62.0912 870.093 62.0543 869.991C59.3208 862.656 56.5596 855.339 53.8353 848.003C50.7416 839.638 45.2746 833.546 37.2773 829.521C28.3657 825.032 19.2509 821.332 9.25887 820.201C4.56758 819.672 -0.086759 819.635 -4.67646 821.165C-7.58542 822.139 -9.76484 821.434 -11.2239 819.431C-12.683 817.437 -12.9601 814.405 -11.0577 812.392C-9.10917 810.324 -6.66194 808.414 -4.06696 807.329C3.12696 804.315 10.7087 804.547 18.2259 805.919C30.1942 808.099 41.1097 813.004 51.2957 819.561C58.3511 824.105 63.5041 830.457 66.7179 838.127C70.2271 846.501 73.173 855.116 76.2759 863.648C76.9777 865.586 77.3563 867.654 77.8458 869.676C78.8616 873.886 77.7073 877.391 73.801 879.292C70.5411 880.878 66.921 882.139 63.3379 882.548C46.4567 884.486 30.425 881.704 15.6309 872.921C12.4541 871.039 9.27733 869.11 5.93433 867.58C-3.27278 863.388 -13.902 868.897 -15.1395 879.005C-16.7279 891.914 -13.4126 903.766 -4.99968 913.865C-1.67515 917.862 1.5478 918.335 6.23908 916.1C9.30504 914.644 12.1124 912.835 14.0333 909.256C11.5306 907.911 9.03723 906.631 6.60848 905.249C5.31561 904.517 3.8842 903.803 2.95149 902.708C1.01218 900.436 2.20347 896.857 5.1032 896.375C6.94093 896.068 9.16652 895.966 10.7734 896.736C17.6625 900.019 24.3208 903.729 29.8617 909.191C37.619 916.841 41.3221 926.199 40.9712 936.956C40.648 946.628 39.6322 956.273 38.9118 965.936C37.7944 981.126 35.4303 996.252 36.1045 1011.55C31.8565 1011.56 27.6638 1011.56 23.4712 1011.56Z" fill="url(#paint1_linear_13721_84515)"/>
<path d="M45.6165 1011.56C45.6165 990.361 48.4793 969.412 50.8896 948.426C52.0347 938.429 51.573 928.413 50.5294 918.426C50.16 914.902 48.9226 911.916 45.6073 910.135C44.9516 909.783 44.416 909.217 43.8527 908.707C39.9002 905.155 40.4542 899.749 45.3117 897.588C48.0914 896.354 51.2405 895.872 54.2695 895.288C60.189 894.138 66.2563 893.563 72.0558 892.005C84.255 888.722 93.5729 880.673 102.614 872.308C103.076 871.881 103.288 871.167 103.611 870.592C104.017 870.75 104.424 870.908 104.83 871.065C104.83 872.345 105.163 873.745 104.775 874.895C103.251 879.328 102.014 883.993 99.7233 888.017C91.9937 901.613 80.4318 909.681 64.631 911.072C63.883 911.137 63.1349 911.229 62.3869 911.331C62.2392 911.35 62.1006 911.48 62.0914 911.489C62.9964 916.469 64.0584 921.375 64.7603 926.327C66.4318 938.169 65.3698 950.012 64.7141 961.873C63.8275 978.092 63.4305 994.34 62.8117 1010.57C62.8025 1010.9 62.7563 1011.24 62.7194 1011.57C57.0307 1011.56 51.3236 1011.56 45.6165 1011.56Z" fill="url(#paint2_linear_13721_84515)"/>
<path d="M342.553 498.189C340.936 492.412 339.302 486.866 337.88 481.265C337.473 479.67 337.473 477.898 337.658 476.248C337.954 473.521 339.431 471.546 342.155 470.748C344.584 470.034 347.272 470.85 348.731 473.28C350.162 475.663 351.086 478.353 352.231 480.912C352.508 481.524 352.674 482.192 353.016 482.758C356.525 488.656 360.053 494.545 363.571 500.443C363.95 500.341 364.319 500.248 364.698 500.146C365.039 497.716 365.63 495.296 365.677 492.866C365.797 487.311 365.658 481.747 365.612 476.183C365.584 472.918 365.52 469.552 369.093 467.938C372.677 466.316 375.364 468.374 377.913 470.572C379.122 471.62 380.212 472.844 381.56 473.66C382.521 474.245 383.823 474.615 384.931 474.523C386.797 474.374 387.12 475.172 386.907 476.73C386.399 480.402 383.361 482.628 379.427 482.146C378.55 482.034 377.673 481.83 376.583 481.636C376.961 484.928 377.608 487.997 377.599 491.067C377.589 496.269 377.793 501.583 376.804 506.637C374.68 517.553 364.91 521.076 355.989 514.455C353.727 512.777 351.787 510.653 349.322 508.381C348.435 509.429 347.539 510.514 346.607 511.58C334.574 525.352 327.038 541.516 321.894 558.885C312.983 588.978 312.826 619.016 323.132 648.849C329.836 668.268 342.1 683.3 359.729 693.566C379.353 704.992 409.274 707.134 432.629 687.687C446.121 676.456 456.141 662.963 459.641 645.362C463.713 624.867 458.32 606.672 445.835 590.341C444.468 588.552 442.75 587.003 441.042 585.528C435.372 580.613 428.898 579.445 421.741 581.541C413.651 583.915 407.187 588.802 401.646 594.923C389.345 608.518 384.257 624.858 384.46 642.96C384.543 650.221 387.775 656.37 392.993 661.248C395.08 663.195 397.795 664.67 400.473 665.718C405.368 667.637 407.824 666.756 410.77 662.361C412.118 660.357 412.876 657.956 414.169 655.915C414.917 654.738 416.339 653.003 417.216 653.143C418.583 653.347 420.411 654.691 420.873 655.971C424.705 666.775 421.002 682.929 404.721 683.987C386.021 685.192 368.447 670.392 365.242 650.889C363.571 640.753 365.224 630.904 367.985 621.186C368.512 619.331 368.364 618.218 366.785 616.901C362.278 613.108 359.729 607.989 357.873 602.49C346.865 569.921 365.363 544.724 386.713 534.913C398.986 529.265 411.897 525.055 425.296 522.931C430.893 522.041 436.664 522.319 442.362 522.013C447.044 521.763 451.782 521.8 456.399 521.067C467.509 519.305 472.8 513.982 474.527 502.835C476.217 491.939 474.546 481.589 467.693 472.649C460.222 462.903 445.447 461.048 435.75 468.69C432.971 470.878 430.847 473.939 428.556 476.711C427.337 478.177 427.605 479.735 428.676 481.357C431.733 485.966 436.452 487.552 441.448 488.619C444.043 489.175 444.329 489.481 442.963 491.827C440.774 495.602 437.394 497.614 433.091 497.874C428.168 498.171 423.588 496.946 419.469 494.22C410.355 488.183 408.341 477.796 414.843 468.996C421.769 459.62 431.308 454.779 442.778 453.277C456.002 451.543 466.484 456.096 474.527 466.594C484.612 479.772 488.13 494.35 483.605 510.579C480.742 520.854 474.093 527.559 464.258 531.296C457.48 533.865 450.406 534.968 443.267 534.662C426.755 533.958 411.453 538.613 396.308 544.4C375.299 552.421 365.122 572.749 369.121 593.643C369.952 597.974 371.088 602.249 372.085 606.552C372.381 606.552 372.686 606.561 372.981 606.561C373.415 605.708 373.877 604.864 374.293 603.992C380.683 590.731 390.167 580.27 402.773 572.768C412.395 567.037 422.766 564.431 433.913 566.712C442.593 568.493 449.344 573.575 454.691 580.483C463.889 592.354 468.959 606.005 470.916 620.777C476.199 660.719 453.573 699.251 415.914 712.837C390.62 721.962 366.323 717.65 344.159 702.812C323.944 689.282 310.877 670.086 304.284 646.799C291.382 601.182 296.258 557.893 322.67 517.859C326.752 511.664 331.517 505.97 337.492 501.453C339.2 500.155 341.112 499.107 342.553 498.189Z" fill="url(#paint3_linear_13721_84515)"/>
<path d="M228.559 247.884C232.28 253.847 234.007 259.856 234.284 266.561C235.402 266.561 236.371 266.542 237.332 266.561C245.421 266.783 252.587 269.565 257.168 276.298C266.107 289.439 268.915 303.961 262.903 319.022C257.971 331.383 248.7 339.201 234.977 340.166C231.504 340.407 227.838 339.442 224.421 338.459C221.438 337.606 219.259 335.362 218.132 332.32C216.064 326.756 219.804 321.247 225.705 321.247C228.051 321.247 230.424 321.822 232.723 321.581C235.688 321.284 238.8 320.895 241.496 319.727C247.97 316.926 251.664 311.825 251.793 304.592C251.895 298.74 251.064 292.972 248.857 287.519C245.458 279.117 238.061 276.419 230.239 280.972C227.312 282.669 224.689 285.015 222.26 287.408C219.481 290.162 219.13 293.668 220.672 297.229C221.457 299.037 220.764 299.899 219.222 300.539C215.445 302.107 211.179 300.372 208.778 296.283C205.204 290.199 206.229 282.14 211.271 276.873C214.614 273.386 218.797 271.244 223.258 269.667C225.059 269.027 225.474 268.072 225.289 266.301C224.144 255.126 213.321 244.731 202.101 244.137C197.548 243.896 190.022 248.505 188.479 252.752C188.036 253.976 187.916 255.84 188.544 256.842C191.61 261.738 194.99 266.44 198.259 271.207C198.351 271.337 198.508 271.429 198.638 271.541C199.349 272.19 200.762 273.275 200.669 273.432C199.968 274.592 199.155 275.946 198.01 276.511C195.165 277.939 192.072 277.661 189.2 276.483C181.415 273.303 175.551 267.924 172.235 260.125C169.724 254.236 170.859 248.561 174.35 243.312C180.972 233.38 195.258 228.057 206.561 231.812C210.957 233.268 214.946 235.939 219.148 237.989C219.97 238.387 221.106 238.916 221.808 238.638C229.408 235.633 237.128 236.319 244.886 237.599C254.397 239.166 263.854 241.299 273.421 242.199C291.817 243.924 304.395 234.112 308.264 215.862C311.829 199.049 304.93 182.217 290.543 172.953C287.661 171.098 284.531 169.614 281.446 168.102C269.145 162.102 257.667 164.319 246.76 171.765C242.475 174.687 239.382 178.563 237.47 183.422C234.109 191.963 237.036 202.192 244.609 207.413C249.438 210.743 254.675 211.373 260.105 208.777C260.631 208.526 261.139 208.183 261.693 208.035C262.376 207.849 263.448 207.506 263.743 207.812C264.205 208.304 264.39 209.296 264.297 210.038C263.272 218.226 256.688 224.264 248.247 224.208C238.68 224.143 230.581 220.387 224.504 212.885C210.264 195.321 214.531 170.356 234.081 159.042C250.5 149.537 267.825 148.266 285.26 156.278C291.244 159.023 297.108 162.381 302.326 166.377C318.395 178.665 323.538 195.246 319.531 214.804C317.702 223.735 313.833 231.84 308.181 239.074C300.775 248.551 291.143 253.234 279.174 253.132C268.804 253.049 258.655 251.231 248.496 249.358C243.399 248.421 238.19 248.078 233.028 247.568C231.745 247.476 230.415 247.754 228.559 247.884Z" fill="url(#paint4_linear_13721_84515)"/>
<path d="M404.545 200.489C412.081 200.016 419.395 198.477 426.432 195.611C431.224 193.654 431.234 193.682 435.426 194.341C437.199 201.769 438.548 209.188 436.987 216.894C434.53 229.043 426.422 236.629 414.159 237.973C413.512 238.047 412.856 238.122 411.517 238.27C412.662 239.105 413.3 239.717 414.048 240.078C422.147 243.918 430.227 247.794 438.381 251.503C441.817 253.061 445.437 254.184 448.928 255.612C450.313 256.177 451.68 256.901 452.871 257.81C456.278 260.397 455.872 264.644 452.021 266.666C444.513 270.616 436.59 273.139 428.075 273.797C416.606 274.678 405.469 273.834 395.024 268.372C388.218 264.82 382.529 259.98 377.45 254.258C365.86 241.21 357.235 226.316 350.734 210.236C344.62 195.11 339.098 179.744 333.548 164.396C330.186 155.104 325.744 146.526 319.095 139.172C314.82 134.442 309.962 130.51 304.19 127.765C303.285 127.339 302.325 126.893 301.623 126.216C300.201 124.853 300.025 123.332 301.549 121.83C303.996 119.41 306.915 117.861 310.341 118.223C315.143 118.723 320.037 119.168 324.655 120.485C337.306 124.102 349.025 129.972 360.264 136.77C365.408 139.886 370.856 141.666 376.804 142.278C383.36 142.946 389.095 141.23 394.119 137.039C396.243 135.267 398.118 133.162 400.343 131.53C402.052 130.278 404.056 129.045 406.06 128.767C407.26 128.6 408.83 130.158 410.012 131.196C410.797 131.883 411.314 132.968 411.73 133.96C415.922 144.031 419.099 154.38 419.921 165.342C420.891 178.158 415.571 188.396 406.928 197.253C406.06 198.143 404.998 198.848 404.019 199.636C404.185 199.905 404.36 200.192 404.545 200.489ZM406.06 139.181C404.314 140.795 403.031 141.972 401.756 143.169C387.83 156.319 368.16 157.237 354.095 147.379C352.932 146.563 351.703 145.812 350.466 145.107C346.421 142.826 342.349 140.572 338.285 138.309C342.552 145.302 346.809 152.146 351.63 158.563C353.883 161.568 356.847 164.572 360.172 166.102C365.814 168.708 371.946 170.322 377.977 172C379.99 172.557 380.479 173.401 379.528 174.857C378.771 176.034 377.524 177.231 376.24 177.639C374.458 178.214 372.408 178.399 370.542 178.177C360.375 176.934 351.833 172.603 345.47 164.35C344.805 163.487 344.168 162.597 343.521 161.716C343.374 162.671 343.577 163.376 343.826 164.081C346.901 172.9 350.087 181.682 353.043 190.548C357.05 202.566 362.314 214.019 368.206 225.194C373.156 234.57 379.676 242.814 387.082 250.326C394.368 257.717 403.298 261.946 413.586 262.966C417.668 263.374 421.823 263.031 425.951 263.031C425.97 262.808 425.998 262.595 426.016 262.372C424.151 261.454 422.267 260.573 420.42 259.627C412.099 255.352 404.453 250.196 399.595 241.905C398.145 239.429 397.157 236.554 396.538 233.735C395.837 230.508 397.333 228.329 400.491 227.401C402.652 226.771 404.933 226.548 407.149 226.094C410.594 225.389 414.131 224.972 417.428 223.849C421.87 222.329 424.428 218.795 426.081 214.094C422.387 214.975 419.155 215.828 415.895 216.495C406.152 218.471 396.603 218.109 387.895 212.814C385.281 211.228 382.945 208.78 381.227 206.22C379.214 203.225 380.137 199.747 382.871 197.364C384.192 196.214 385.771 195.361 387.165 194.285C391.007 191.299 395.024 188.508 398.561 185.188C402.911 181.098 406.087 176.099 406.955 169.988C408.378 159.88 407.426 149.836 406.06 139.181Z" fill="url(#paint5_linear_13721_84515)"/>
<path d="M197.316 378.609C199.154 383.598 202.007 385.583 206.865 385.416C210.799 385.277 214.456 384.405 217.707 381.966C218.649 381.261 220.108 381.252 221.336 380.927C221.511 382.272 221.724 383.617 221.835 384.961C221.862 385.342 221.622 385.768 221.465 386.148C218.316 394.059 207.456 399.771 198.554 398.195C190.362 396.739 182.882 388.105 182.457 379.666C182.199 374.547 184.258 370.633 188.589 368.037C190.593 366.841 192.763 365.858 194.961 365.051C197.916 363.966 199.643 361.935 199.643 358.865C199.634 354.776 199.782 350.565 198.923 346.615C193.345 320.899 165.724 298.874 145.832 295.869C124.758 292.679 105.772 297.297 89.6383 311.607C77.0143 322.8 72.6647 342.479 79.4338 357.966C81.6317 362.992 84.5222 367.972 88.1423 372.043C97.2293 382.263 109.115 385.082 122.246 382.865C124.583 382.467 127.095 381.103 128.84 379.453C136.902 371.802 138.629 361.675 139.562 350.899C138.223 350.899 137.318 350.955 136.431 350.89C129.597 350.361 122.754 349.907 115.93 349.184C114.064 348.989 112.208 348.136 110.491 347.31C106.621 345.446 104.95 341.922 106.067 338.454C107.175 335.032 110.629 333.455 114.914 334.067C121.877 335.069 128.84 336.182 135.849 336.646C140.319 336.942 144.881 336.386 149.351 335.802C154.042 335.18 157.459 332.741 158.161 327.502C160.765 327.798 161.79 329.542 162.409 331.601C163.803 336.219 161.984 341.978 157.763 344.797C155.085 346.587 151.946 347.7 148.99 349.063C148.252 349.406 147.43 349.564 146.543 349.833C149.6 357.752 149.443 365.691 147.661 373.629C144.041 389.793 132.081 400.318 115.56 401.209C97.2478 402.192 82.1212 395.654 71.6766 380.074C58.5539 360.497 55.2109 339.678 64.6859 317.477C71.7874 300.84 84.8916 290.787 101.302 284.991C120.363 278.259 139.756 278.379 158.798 285.195C164.874 287.365 170.868 290.546 175.956 294.497C183.085 300.024 190.021 306.126 195.802 313.026C207.262 326.695 212.544 342.785 211.011 360.822C210.402 368.018 206.8 373.286 200.447 376.689C199.339 377.236 198.323 377.969 197.316 378.609Z" fill="url(#paint6_linear_13721_84515)"/>
<path d="M438.06 363.26C429.453 372.135 418.417 374.936 407.105 376.883C397.224 378.58 387.389 378.181 377.757 375.038C368.393 371.987 361.3 366.144 356.452 357.557C353.183 351.77 351.022 345.557 350.292 338.972C348.972 327.121 353.598 317.977 363.415 311.383C364.652 310.549 365.862 309.621 366.924 308.564C370.119 305.392 374.183 304.966 377.867 307.525C380.573 309.417 380.555 310.224 377.84 312.042C375.125 313.859 372.484 315.807 369.741 317.578C367.552 318.988 366.749 321.037 366.407 323.495C365.28 331.646 367.488 338.972 372.437 345.278C376.787 350.824 382.873 353.569 389.78 355.09C405.406 358.549 420.08 355.108 434.569 349.73C438.632 348.218 440.793 348.589 443.388 351.881C459.725 372.608 456.871 403.962 436.989 422.528C421.687 436.809 403.734 439.777 384.073 434.853C368.984 431.069 356.073 423.363 345.269 412.077C320.796 386.528 307.341 355.665 302.022 320.991C300.471 310.901 301.449 300.811 304.321 290.972C305.467 287.049 307.036 283.201 310.361 280.697C312.106 279.38 314.526 278.452 316.696 278.341C319.503 278.193 321.295 281.197 320.011 283.72C311.026 301.497 313.427 319.627 318.589 337.655C325.645 362.231 337.04 384.413 355.75 402.33C368.716 414.738 383.759 422.519 401.823 423.585C423.783 424.883 443.878 406.716 444.82 384.942C445.18 376.966 442.64 369.9 438.06 363.26Z" fill="url(#paint7_linear_13721_84515)"/>
<path d="M270.059 776.642C268.286 782.215 266.679 787.251 265.091 792.286C261.471 803.786 257.463 815.053 251.026 825.421C246.621 832.516 240.942 836.883 232.621 837.18C227.801 837.347 222.888 837.329 218.141 836.577C212.536 835.687 207.032 834.018 201.537 832.506C197.4 831.366 194.62 828.75 194.103 824.262C193.586 819.718 195.682 815.248 199.902 813.421C206.173 810.704 211.391 806.559 216.654 802.367C219.203 800.327 222.029 798.63 224.716 796.766C225.52 796.209 226.314 795.625 227.108 795.059C227.108 794.753 227.099 794.438 227.099 794.132C220.958 792.963 214.835 791.684 208.676 790.664C205.379 790.116 201.999 790.07 198.674 789.653C197.104 789.458 195.534 789.041 194.048 788.512C188.257 786.481 186.327 782.308 187.094 776.262C187.814 770.549 187.592 764.707 187.777 758.929C187.842 756.842 187.528 754.635 188.128 752.725C188.525 751.473 190.141 750.221 191.471 749.804C192.191 749.581 193.937 750.88 194.389 751.872C195.719 754.812 197.012 757.863 197.612 760.997C198.573 766.005 198.951 771.115 199.644 776.688C201.869 776.892 204.501 777.152 207.143 777.374C214.798 778.024 222.269 779.581 229.362 782.521C232.261 783.727 235.115 785.35 237.525 787.344C240.683 789.959 240.822 793.779 238.005 796.701C234.819 800.011 231.347 803.053 227.902 806.113C225.898 807.894 223.645 809.396 221.632 811.177C218.307 814.117 215.103 817.186 211.307 820.692C215.786 821.48 219.767 822.37 223.793 822.825C226.776 823.158 229.823 822.917 232.843 822.945C235.937 822.973 238.513 821.758 240.102 819.143C242.706 814.849 245.763 810.639 247.369 805.956C251.608 793.538 255.164 780.889 259.024 768.342C259.744 766.014 260.409 763.64 261.416 761.433C264.481 754.691 271.62 753.847 276.071 759.754C280.319 765.393 284.29 771.254 288.464 776.948C291.65 781.288 294.827 785.637 298.253 789.792C314.1 808.988 342.165 810.88 360.413 793.891C368.752 786.129 375.253 777.133 376.629 765.309C377.386 758.864 376.546 752.706 371.882 747.893C370.063 746.011 367.403 744.685 364.892 743.841C363.589 743.405 361.465 744.175 360.219 745.093C358.787 746.141 357.596 746.595 356.155 745.677C354.558 744.657 354.29 743.09 355.158 741.476C356.857 738.304 359.914 737.349 363.155 737.006C369.112 736.366 374.209 738.481 378.577 742.45C386.15 749.34 388.625 758.159 387.831 768.073C385.153 801.143 356.977 824.327 324.129 820.766C307.645 818.976 294.485 811.724 284.964 798.008C280.458 791.507 276.007 784.979 271.518 778.469C271.177 777.977 270.789 777.541 270.059 776.642Z" fill="url(#paint8_linear_13721_84515)"/>
<path d="M140.402 536.158C142.489 539.626 144.623 542.761 146.35 546.099C150.533 554.205 149.12 560.075 141.732 565.407C138.897 567.447 135.84 569.182 132.562 571.268C133.818 572.075 134.843 572.743 135.877 573.401C141.307 576.842 146.285 580.801 150.247 585.93C154.467 591.383 157.053 597.494 157.579 604.44C158.623 618.072 149.97 628.348 136.422 627.995C119.375 627.559 104.248 621.494 92.4276 608.762C89.297 605.395 86.896 601.083 85.049 596.826C80.9949 587.451 78.363 577.593 77.144 567.41C75.611 554.548 78.7693 543.113 87.1268 533.051C94.2192 524.51 101.044 515.756 107.831 506.965C113.769 499.277 118.562 490.875 122.358 481.907C124.805 476.13 126.329 470.139 126.763 463.842C127.234 456.998 125.599 450.85 121.656 445.249C120.455 443.551 119.282 441.725 118.664 439.777C118.35 438.785 119.273 437.394 119.633 436.188C120.658 436.652 121.748 437.023 122.699 437.616C123.614 438.191 124.343 439.044 125.211 439.703C133.522 446.12 137.623 454.661 138.288 465.103C138.897 474.729 137.493 484.031 133.421 492.683C129.995 499.972 126.273 507.215 121.794 513.874C114.84 524.186 107.526 534.313 99.6307 543.911C91.9843 553.194 89.8049 563.237 92.8155 574.579C94.2838 580.097 95.8168 585.679 98.1532 590.854C99.8709 594.666 102.429 598.449 105.523 601.204C113.575 608.354 123.373 612.165 133.966 613.565C141.621 614.576 145.398 610.153 144.078 602.428C143.505 599.08 142.148 596.038 139.562 593.887C136.681 591.485 133.569 589.305 130.373 587.339C126.873 585.179 123.041 583.574 119.596 581.349C116.955 579.633 114.351 577.602 112.347 575.2C108.127 570.155 110.038 563.849 116.198 561.577C120.529 559.982 124.906 558.545 129.228 556.94C130.955 556.3 132.553 555.336 134.243 554.603C136.173 553.76 136.228 552.526 135.055 551.042C133.91 549.596 132.738 548.158 131.5 546.795C130.309 545.497 128.96 544.338 127.76 543.048C122.238 537.048 123.429 530.186 130.614 526.384C136.875 523.082 143.625 521.506 150.588 520.745C151.235 520.671 152.241 520.977 152.537 521.45C152.814 521.895 152.611 522.99 152.214 523.462C149.222 527.061 146.156 530.603 143.044 534.099C142.332 534.878 141.344 535.426 140.402 536.158Z" fill="url(#paint9_linear_13721_84515)"/>
<path d="M98.2265 128.413C99.1408 131.01 100.064 133.263 100.729 135.591C104.885 150.206 98.5221 164.061 84.7714 170.339C83.4878 170.924 82.1118 171.397 80.7266 171.666C78.7411 172.055 76.9865 171.443 76.0907 169.496C75.2503 167.669 75.8691 166.046 77.3005 164.71C77.7807 164.256 78.2794 163.811 78.778 163.356C77.7345 160.695 76.8295 158.07 75.7029 155.548C73.3018 150.179 69.0538 146.738 63.6791 144.707C60.4285 143.483 57.7873 144.883 57.3902 148.333C57.067 151.115 57.1501 154.092 57.7689 156.818C60.7702 169.996 72.2306 180.448 84.8453 181.44C92.8611 182.071 99.9257 179.78 105.347 173.409C107.738 170.599 109.872 167.196 112.901 165.387C116.567 163.189 117.62 160.194 118.783 156.559C125.044 136.899 149.646 128.219 166.749 139.671C169.445 141.48 172.068 144.095 173.49 146.951C175.864 151.709 177.646 156.865 178.948 162.04C180.37 167.696 178.44 172.899 174.709 177.285C171.939 180.55 168.956 183.619 165.881 186.976C166.906 188.265 167.931 189.554 168.965 190.843C172.918 195.777 175.836 201.202 176.815 207.555C178.616 219.286 170.812 227.678 159.176 225.851C153.275 224.924 147.503 222.921 141.806 221.001C137.133 219.425 132.654 217.246 128.083 215.344C125.017 214.074 123.641 211.978 124.195 209.4C124.721 206.943 127.122 205.041 130.151 205.459C133.356 205.904 136.496 206.915 139.608 207.879C145.758 209.79 151.872 211.848 158.003 213.833C158.401 213.963 158.825 214 159.241 214.055C164.902 214.834 166.86 212.59 164.883 207.109C164.025 204.726 162.455 202.519 160.875 200.488C159.13 198.244 156.914 196.361 155.067 194.182C150.468 188.757 150.625 183.99 155.695 179.075C158.585 176.265 161.642 173.613 164.828 171.156C168.439 168.373 169.565 165.016 168.152 160.723C167.755 159.526 167.358 158.321 167.054 157.097C163.997 144.624 148.889 142.825 140.956 148.083C131.869 154.111 127.529 162.142 127.51 172.778C127.51 174.828 128.194 176.896 128.711 178.918C129.209 180.865 130.151 182.738 130.419 184.704C130.585 185.956 130.271 187.904 129.449 188.488C128.461 189.183 126.282 189.35 125.331 188.701C123.114 187.162 121.267 185.066 119.393 183.072C118.672 182.312 118.294 181.217 117.629 180.058C117.093 180.633 116.595 181.032 116.244 181.542C104.746 198.466 79.1382 199.245 65.4892 189.202C54.3151 180.976 46.8071 170.274 45.9298 155.984C45.6713 151.82 46.3177 147.322 47.7306 143.409C50.4826 135.767 58.3322 132.197 66.0155 134.784C75.9799 138.151 82.9799 144.753 86.2305 155.01C86.3783 155.492 86.5445 155.965 86.72 156.438C86.7477 156.503 86.8308 156.55 87.5234 157.245C87.8005 156.661 88.0036 156.021 88.3822 155.502C94.468 147.053 93.7477 137.084 87.2741 128.589C86.8954 128.089 85.9904 127.922 85.2886 127.736C83.8295 127.356 82.3057 127.198 80.8836 126.725C78.1501 125.826 76.8387 123.702 77.2451 121.152C77.6145 118.834 79.5907 117.09 82.3057 117.109C84.559 117.118 86.8123 117.526 89.0564 117.767C94.3941 118.351 99.7134 119.065 105.07 119.473C107.563 119.659 110.296 120.039 112.19 117.443C112.402 117.155 114.101 117.507 114.692 118.036C116.29 119.455 116.179 122.608 114.018 124.018C111.497 125.659 108.542 126.79 105.633 127.634C103.361 128.274 100.849 128.163 98.2265 128.413Z" fill="url(#paint10_linear_13721_84515)"/>
<path d="M22.7498 311.354C23.2208 317.001 23.6918 322.343 24.1166 327.684C25.9359 350.442 27.829 373.19 29.5005 395.957C30.2208 405.704 30.5163 415.478 30.8949 425.243C30.9688 427.237 30.8118 429.324 30.2855 431.243C29.0111 435.843 24.5137 437.021 21.0968 433.738C19.647 432.347 18.391 430.743 17.0612 429.231C11.2433 422.591 4.82508 416.758 -3.38467 413.188C-7.15247 411.546 -8.63928 408.31 -9.34112 404.424C-12.4994 387.045 -13.2105 369.444 -14.254 351.87C-15.2422 335.131 -16.5073 318.411 -17.5509 301.681C-17.8187 297.313 -17.7817 292.927 -17.6986 288.55C-17.6709 287.075 -17.2738 285.517 -16.692 284.163C-15.8147 282.114 -14.0693 281.094 -11.8068 281.39C-9.54429 281.687 -8.23294 283.125 -7.76196 285.313C-7.60497 286.046 -7.63268 286.825 -7.59574 287.576C-6.5245 309.703 -5.80418 331.858 -4.27121 353.947C-3.14456 370.325 -0.983617 386.628 0.789467 402.949C0.891049 403.886 1.50978 405.166 2.2578 405.565C8.61135 408.866 13.9214 413.457 18.9174 418.501C19.1945 418.78 19.5084 419.002 20.1641 419.549C19.8224 413.41 19.5915 407.725 19.1852 402.05C17.2736 374.989 15.3251 347.929 13.3673 320.868C13.2565 319.273 12.9979 317.687 12.8501 316.092C12.5084 312.606 12.1298 309.601 7.68787 308.414C4.00318 307.422 2.45173 303.434 3.25516 300.068C4.06782 296.673 7.0599 294.522 11.0216 294.522C11.8435 294.522 12.6562 294.596 14.0876 294.661C11.8435 292.213 9.9227 290.154 8.04803 288.058C6.86597 286.751 5.61004 285.48 4.61268 284.033C1.29738 279.267 3.14434 273.619 8.67599 271.885C11.3818 271.032 14.2446 270.661 17.015 269.993C18.2987 269.687 19.5361 269.196 20.7459 268.797C19.9609 262.945 15.048 258.93 9.66412 259.783C6.69975 260.256 3.81849 261.229 0.89105 261.962C-0.891268 262.407 -2.66435 263.038 -4.47437 263.177C-7.53109 263.409 -8.86091 261.74 -7.9836 258.753C-7.54033 257.26 -6.78308 255.721 -5.74878 254.58C3.65226 244.203 20.081 242.469 29.5744 255.433C31.449 257.993 33.1482 260.775 34.3765 263.687C37.4055 270.883 35.0044 277.468 28.2353 281.372C27.0071 282.077 25.6958 282.642 24.1351 283.421C24.7169 284.126 25.2063 284.738 25.7327 285.322C28.3 288.216 30.9504 291.035 33.4161 294.012C34.5242 295.357 35.4477 296.924 36.1311 298.537C39.0493 305.335 35.0044 311.558 27.6351 311.697C26.2406 311.725 24.8184 311.511 22.7498 311.354Z" fill="url(#paint11_linear_13721_84515)"/>
<path d="M284.724 448.326C286.229 451.897 287.67 455.208 289.027 458.565C292.841 467.94 295.15 477.65 294.993 487.823C294.854 497.301 292.176 505.916 285.777 513.131C278.906 520.865 269.791 523.063 260.205 519.251C252.808 516.312 246.667 511.499 241.145 505.888C235.724 500.379 230.599 494.556 225.076 489.149C221.973 486.117 218.566 483.26 214.89 480.998C208.832 477.279 204.335 478.484 200.096 484.262C196.79 488.76 195.285 493.804 196.596 499.276C197.76 504.154 199.459 508.902 200.899 513.613C206.366 512.732 207.992 513.975 208.583 519.066C209.118 523.656 208.084 527.718 203.892 530.231C199.597 532.809 195.479 531.752 191.683 528.979C190.473 528.098 189.291 527.06 188.423 525.845C180.398 514.55 176.307 502.086 179.078 488.231C181.303 477.103 187.509 468.673 198.369 464.379C204.593 461.922 211.002 461.996 216.996 464.787C221.742 466.994 226.434 469.665 230.506 472.948C237.294 478.419 243.481 484.651 250.084 490.364C254.969 494.583 259.891 498.822 265.211 502.457C270.918 506.361 274.399 505.341 278.241 499.48C282.914 492.358 283.57 484.42 281.861 476.379C280.716 470.982 278.777 465.733 276.856 460.54C275.138 455.885 272.829 451.461 271.029 446.833C268.572 440.555 271.647 436.076 278.324 435.89C287.522 435.64 290.994 432.988 293.663 424.104C295.713 417.278 295.88 410.351 294.688 403.34C293.996 399.25 295.141 396.96 297.874 396.45C300.589 395.94 302.63 397.702 303.471 401.634C305.77 412.437 305.004 423.149 301.587 433.544C299.112 441.074 293.709 445.925 285.915 447.844C285.583 447.937 285.296 448.095 284.724 448.326Z" fill="url(#paint12_linear_13721_84515)"/>
<path d="M243.094 66.5584C242.715 68.6079 242.466 70.5183 242.004 72.3823C239.714 81.6096 231.633 84.6328 224.052 78.9202C217.329 73.8568 213.736 66.7439 212.545 58.5552C210.467 44.246 213.607 31.4112 224.144 20.9783C233.056 12.1591 243.048 11.4544 253.178 18.864C258.248 22.5735 261.859 27.4792 264.611 33.0712C268.924 41.8441 270.854 51.2012 271.14 60.9015C271.205 63.1364 272.036 63.8691 274.003 64.444C290.108 69.1087 306.186 73.8661 322.264 78.6327C323.621 79.0315 324.988 79.5323 326.216 80.2185C326.974 80.6451 328.036 81.6096 327.952 82.1845C327.814 83.1861 327.084 84.5957 326.253 84.911C324.582 85.5416 322.615 86.0053 320.888 85.7271C312.697 84.4473 304.478 83.2417 296.416 81.3406C288.677 79.5137 281.132 76.8522 273.504 74.5616C272.71 74.3205 271.897 74.135 270.752 73.8383C270.53 74.9325 270.318 75.8691 270.152 76.8151C268.674 84.9295 266.356 92.7101 261.471 99.5077C251.322 113.622 237.784 119.622 220.699 115.764C212.887 114.002 205.25 111.313 197.714 108.55C191.822 106.389 186.189 103.495 180.473 100.871C177.518 99.517 176.289 96.9667 177.194 94.3423C178.072 91.7735 180.731 90.3454 183.76 91.1614C186.014 91.7642 188.184 92.7101 190.335 93.6375C199.967 97.8014 209.507 102.206 219.924 104.117C221.244 104.358 222.565 104.59 223.895 104.784C234.958 106.435 245.523 103.393 252.892 88.0455C255.238 83.1583 255.782 77.3901 257.011 71.9928C257.149 71.3807 256.531 70.0731 256.032 69.9247C251.802 68.7006 247.499 67.6712 243.094 66.5584ZM257.315 59.9648C256.614 50.1255 254.822 41.2228 249.152 33.5628C248.016 32.0326 246.557 30.6694 245.024 29.538C240.757 26.3664 237.959 26.6167 234.062 30.2427C224.467 39.1825 222.685 56.0606 230.221 66.8644C230.71 67.5692 231.338 68.1813 232.086 69.0437C233.277 65.7145 233.508 63.0252 231.356 60.3358C229.63 58.175 229.962 55.4022 231.661 53.631C233.36 51.8597 236.177 51.498 238.338 53.1302C243.86 57.294 250.556 57.9154 257.315 59.9648Z" fill="url(#paint13_linear_13721_84515)"/>
<path d="M-56.7709 181.319C-58.7287 182.45 -60.7141 182.135 -61.8131 180.336C-63.3645 177.804 -64.8883 175.059 -65.5439 172.203C-69.6534 154.091 -61.9054 140.162 -47.7669 130.518C-36.916 123.117 -24.5968 125.464 -16.4794 135.822C-15.0849 137.603 -13.8383 139.532 -12.7578 141.516C-6.40423 153.192 -7.43853 163.56 -15.8884 173.826C-16.1931 174.197 -16.4609 174.605 -16.8765 175.161C-15.3805 175.866 -14.023 176.469 -12.6931 177.146C-3.35675 181.857 3.22766 188.933 5.47172 199.384C7.4295 208.481 1.79627 215.668 -7.48471 216.216C-9.81188 216.355 -12.176 216.141 -14.4939 215.835C-16.7103 215.539 -18.8805 214.917 -21.42 214.352C-21.1245 215.492 -20.9029 216.438 -20.6258 217.356C-19.4345 221.381 -19.0282 225.452 -19.9332 229.588C-21.734 237.814 -28.4385 243.897 -36.8976 244.454C-40.4437 244.686 -44.1284 244.389 -47.6192 243.666C-65.3131 240.03 -90.7457 216.902 -95.1323 196.62C-96.0927 192.169 -97.1824 187.727 -95.8341 183.155C-94.7352 179.418 -91.8631 176.784 -88.6864 176.58C-86.0452 176.413 -84.78 177.758 -85.8975 180.067C-87.2827 182.942 -86.784 185.631 -85.9713 188.404C-83.5426 196.732 -79.6547 204.29 -73.0611 209.993C-67.2431 215.038 -61.1482 219.823 -54.8316 224.219C-50.5558 227.196 -45.5321 228.911 -40.2498 229.356C-35.4108 229.764 -33.0467 227.474 -33.61 222.614C-33.9609 219.628 -34.9398 216.716 -35.6601 213.777C-36.3619 210.92 -37.3316 208.101 -37.7656 205.208C-38.5506 199.885 -34.515 195.906 -29.2419 196.843C-26.9702 197.242 -24.8554 198.447 -22.6206 199.124C-18.1509 200.487 -13.6905 201.953 -9.13774 202.982C-6.45964 203.585 -5.7301 202.667 -6.22878 199.922C-7.47548 193.161 -11.5018 188.441 -17.7076 185.937C-21.4016 184.453 -25.4556 183.869 -29.3435 182.905C-29.7498 182.803 -30.1746 182.821 -30.5902 182.756C-34.949 182.135 -37.3408 180.067 -37.5625 176.747C-37.7841 173.381 -35.854 171.044 -31.5506 169.801C-28.0691 168.799 -25.0493 167.13 -22.639 164.394C-18.7142 159.924 -17.2736 154.852 -19.4992 149.195C-20.6351 146.329 -22.0203 143.464 -23.8026 140.969C-28.3646 134.561 -34.8751 133.263 -41.7181 137.167C-47.0559 140.209 -50.8237 144.808 -53.7603 150.122C-59.2366 159.98 -58.7933 170.422 -56.7709 181.319Z" fill="url(#paint14_linear_13721_84515)"/>
<path d="M10.7093 80.2369C11.4573 82.4533 10.266 84.1783 9.17632 85.7733C6.332 89.9465 2.28715 92.6358 -2.37643 94.3422C-10.7062 97.384 -19.3315 99.044 -28.1877 99.4613C-36.5545 99.86 -44.755 98.775 -52.817 96.4937C-53.5188 96.2989 -54.2299 96.1598 -55.1903 95.9372C-55.0241 96.9666 -54.904 97.7827 -54.747 98.5803C-53.4172 105.777 -56.7325 112.018 -63.6124 114.457C-66.4106 115.449 -69.4765 115.839 -72.4502 116.107C-75.1098 116.349 -77.8156 116.08 -80.4937 115.968C-84.871 115.801 -85.2958 116.163 -84.0306 120.448C-82.6731 125.047 -80.7984 129.489 -79.5055 134.098C-78.148 138.948 -76.9106 143.873 -76.2087 148.844C-75.8578 151.301 -76.4026 154.092 -77.28 156.457C-78.8129 160.602 -83.4765 162.346 -87.5214 160.76C-89.5161 159.981 -90.7812 158.59 -90.6981 156.392C-90.615 154.315 -89.3498 152.803 -87.3644 152.479C-85.1388 152.117 -85.028 150.689 -85.4343 149.187C-86.7272 144.401 -88.1493 139.663 -89.5992 134.924C-91.0491 130.194 -93.0992 125.576 -93.9673 120.744C-95.6018 111.591 -90.7258 106.305 -81.528 106.537C-78.5913 106.611 -75.6639 106.889 -72.7272 106.889C-70.8156 106.889 -68.8578 106.741 -67.0016 106.314C-63.6032 105.526 -62.181 103.365 -62.9383 99.9527C-63.5016 97.4303 -64.4159 94.9542 -65.4594 92.5802C-65.838 91.7085 -66.9554 91.0593 -67.8697 90.5492C-75.4515 86.3483 -82.1744 81.118 -87.4475 74.1627C-93.958 65.5753 -96.276 55.9214 -94.1427 45.3216C-91.4277 31.8562 -81.3433 22.9536 -66.3275 20.5424C-47.8117 17.5748 -31.032 34.3416 -34.3012 52.5737C-35.5202 59.3713 -39.1864 64.4347 -45.6046 66.9942C-50.2589 68.8489 -55.1811 70.0266 -59.937 71.6588C-61.0544 72.039 -62.7259 72.9571 -62.8183 73.7732C-63.0122 75.6094 -62.652 77.5291 -60.4172 78.5399C-44.1639 85.8846 -27.2273 88.4812 -9.58881 85.8846C-2.88434 84.9016 3.88477 83.9094 9.85969 80.2834C10.0444 80.1813 10.3399 80.2555 10.7093 80.2369ZM-71.4528 70.4532C-70.0214 65.5289 -66.0689 63.6742 -61.7008 62.3295C-58.0161 61.1981 -54.276 60.2151 -50.6652 58.8704C-45.1336 56.8116 -43.0373 52.6385 -44.3025 46.8425C-46.7589 35.5194 -58.0808 30.7064 -69.1072 35.7605C-82.5253 41.909 -84.4739 60.753 -71.4528 70.4532Z" fill="url(#paint15_linear_13721_84515)"/>
<path d="M92.65 711.382C91.7172 710.696 91.0062 710.25 90.3874 709.694C87.8848 707.459 85.2344 705.363 82.9627 702.906C79.8875 699.576 79.8321 695.681 82.4455 693.205C85.022 690.757 88.6328 690.933 91.9019 694.049C97.7937 699.66 103.556 705.419 109.31 711.178C111.092 712.958 110.75 714.822 108.377 715.759C106.724 716.408 104.803 716.844 103.058 716.677C101.026 716.482 99.8993 717.122 99.6315 718.968C99.179 722.102 98.4494 725.32 98.7357 728.417C99.5391 737.014 101.783 745.314 105.098 753.289C109.494 763.861 117.178 771.206 127.659 775.509C136.561 779.154 142.74 776.724 146.914 768.007C148.133 765.466 148.991 762.637 149.416 759.846C150.912 750.22 150.404 740.649 147.2 731.413C146.147 728.371 144.393 725.496 142.536 722.844C140.976 720.618 139.397 720.804 137.531 722.77C130.993 729.669 130.43 738.563 136.044 746.214C136.146 746.353 136.211 746.52 136.331 746.622C137.291 747.41 139.193 747.957 138.002 749.58C136.995 750.962 135.499 752.381 133.939 752.854C131.178 753.707 128.647 752.316 126.588 750.47C119.532 744.109 116.494 736.319 118.821 726.85C120.262 720.999 123.245 715.944 127.53 711.725C134.696 704.658 145.039 704.389 152.057 711.623C155.253 714.924 158.032 719.033 159.805 723.271C165.716 737.422 166.528 752.195 163.389 767.154C162.179 772.912 159.528 778.096 155.733 782.622C148.086 791.738 138.445 795.197 126.911 792.313C111.443 788.446 99.9454 779.283 93.1117 764.798C87.5431 753.011 85.8347 740.334 86.2225 727.37C86.4072 721.416 88.0048 715.898 92.65 711.382Z" fill="url(#paint16_linear_13721_84515)"/>
<path d="M263.493 938.922C260.436 938.133 257.749 937.484 255.089 936.752C237.331 931.846 220.08 925.577 203.744 916.952C187.509 908.374 173.481 897.023 161.836 882.77C159.989 880.507 158.327 878.031 156.942 875.453C155.482 872.736 156.157 870.055 158.179 868.655C160.155 867.292 162.372 867.719 164.625 870.083C187.158 893.648 214.696 908.699 245.448 918.492C259.476 922.962 273.753 926.263 288.159 929.092C289.784 929.407 291.493 929.425 293.155 929.453C296.378 929.509 298.871 930.826 300.284 933.756C301.651 936.594 301.374 939.478 299.287 941.796C297.643 943.623 295.704 945.32 293.589 946.545C291.142 947.963 288.307 948.687 285.749 949.948C282.221 951.682 278.647 953.398 275.341 955.521C258.543 966.307 259.891 985.596 264.795 997.281C265.737 999.525 267.584 1000.51 269.763 1001.16C270.419 1001.35 271.472 1001.98 271.444 1002.36C271.398 1003.06 270.834 1003.88 270.253 1004.35C266.032 1007.74 259.642 1007.97 255.08 1004.23C252.236 1001.89 249.622 998.885 247.877 995.649C238.346 977.982 241.994 957.803 256.871 944.347C258.875 942.548 261.027 940.943 263.493 938.922Z" fill="url(#paint17_linear_13721_84515)"/>
<path d="M249.761 372.151C248.634 372.485 247.766 372.716 246.907 372.985C241.117 374.775 235.207 375.202 229.241 374.349C227.283 374.07 225.279 373.477 223.506 372.605C219.286 370.537 217.263 366.225 218.187 361.931C219.11 357.656 222.767 354.744 227.542 354.587C229.804 354.512 232.076 354.716 234.329 354.587C243.758 354.049 251.848 350.877 257.86 343.069C259.873 340.463 262.606 338.321 265.294 336.355C268.221 334.212 269.265 334.76 270.216 338.191C271.343 342.262 270.872 346.24 269.357 350.07C267.058 355.894 264.269 361.421 259.707 365.9C259.088 366.512 258.922 368.043 259.162 368.998C266.217 396.735 252.393 424.834 231.624 438.476C218.178 447.314 203.531 450.699 187.684 447.054C167.46 442.408 152.943 425.65 150.302 404.312C149.351 396.624 149.083 388.908 151.909 381.61C153.525 377.437 156.101 373.616 158.419 369.749C159.435 368.061 161.18 367.124 163.194 368.005C165.253 368.905 165.308 370.788 165.068 372.754C164.394 378.355 163.674 383.956 163.157 389.576C161.264 410.33 173.02 427.709 192.089 432.328C201.841 434.692 211.252 433.329 220.32 429.23C241.431 419.688 254.12 397.106 250.5 375.536C250.324 374.469 250.047 373.431 249.761 372.151Z" fill="url(#paint18_linear_13721_84515)"/>
<path d="M335.395 861.023C330.371 857.592 325.394 854.365 320.619 850.85C318.911 849.589 317.489 847.78 316.335 845.963C314.737 843.431 314.728 840.649 316.436 838.089C318.2 835.437 320.841 834.38 323.879 835.001C325.893 835.419 327.878 836.263 329.716 837.218C334.49 839.684 339.089 842.494 343.919 844.831C346.68 846.167 349.681 847.27 352.683 847.762C357.06 848.485 361.022 847.205 363.838 843.459C365.141 841.725 366.055 842.123 366.96 843.811C369.158 847.91 368.206 854.142 364.494 857.546C358.648 862.915 351.556 863.861 344.021 862.804C343.199 862.692 342.386 862.498 341.583 862.349C339.274 870.696 334.703 874.795 326.068 875.073C321.552 875.212 316.99 873.978 312.447 873.311C311.56 873.181 310.701 872.801 309.806 872.532C309.639 872.893 309.482 873.097 309.455 873.329C307.081 890.254 294.06 899.648 277.336 895.994C271.73 894.77 266.153 892.841 260.981 890.346C252.374 886.201 244.054 881.425 235.742 876.696C234.209 875.824 232.944 874.025 232.187 872.365C231.208 870.204 232.021 868.043 233.738 866.383C235.632 864.547 237.986 864.232 240.295 865.15C243.25 866.318 246.076 867.839 248.939 869.24C256.475 872.921 263.918 876.844 271.583 880.22C275.452 881.926 279.672 883.104 283.856 883.744C292.019 884.986 299.749 877.901 299.666 869.592C299.656 868.72 298.936 867.487 298.188 867.051C290.394 862.59 283.736 856.674 277.077 850.748C273.956 847.975 273.328 844.396 275.304 841.511C277.327 838.562 281.085 837.811 284.724 839.972C288.833 842.42 292.786 845.137 296.803 847.734C305.715 853.502 314.839 858.825 325.2 861.58C328.792 862.516 332.283 862.581 335.395 861.023Z" fill="url(#paint19_linear_13721_84515)"/>
<path d="M370.663 73.028C370.69 82.9508 361.603 89.6001 352.064 86.651C348.952 85.6866 346.994 83.229 347.114 80.4191C347.234 77.6556 348.841 76.0605 352.378 75.2352C357.697 73.9832 357.937 73.705 355.915 68.6138C354.769 65.7296 353.421 62.8826 351.777 60.2581C346.172 51.2627 340.252 42.4713 334.739 33.4202C330.805 26.975 327.287 20.2702 323.704 13.6117C322.836 12.0073 322.337 10.1711 321.875 8.38131C319.76 0.183396 322.595 -6.82753 330.26 -10.3237C335.321 -12.6328 340.843 -14.0331 346.246 -15.4798C357.992 -18.6143 369.804 -21.4799 381.569 -24.5402C383.915 -25.1522 386.196 -26.0518 388.43 -27.0163C393.75 -29.3069 396.686 -34.3981 396.169 -40.1663C395.975 -42.3178 396.806 -42.9391 398.792 -42.1323C403.529 -40.1941 406.734 -34.1756 405.82 -28.5186C404.61 -21.007 400.168 -15.7117 393.897 -11.826C388.033 -8.20003 381.467 -6.41943 374.883 -4.69453C364.18 -1.87533 353.477 0.943841 342.81 3.86504C339.56 4.75532 339.394 5.01493 340.797 7.99178C343.946 14.6874 347.234 21.3181 350.632 27.8931C355.859 37.9829 361.308 47.9428 366.498 58.0511C368.899 62.7158 370.552 67.6771 370.663 73.028Z" fill="url(#paint20_linear_13721_84515)"/>
<path d="M189.161 727.611C190.02 721.305 191.257 713.321 192.162 705.29C192.763 699.948 193.067 694.551 193.16 689.181C193.224 685.027 192.855 680.863 192.495 676.717C192.061 671.691 195.792 667.527 201.36 667.156C206.449 666.823 211.075 668.566 215.711 670.384C224.143 673.685 232.583 676.94 241.079 680.047C244.856 681.419 248.781 682.384 252.632 683.524C258.358 685.221 260.084 688.115 259.069 694.05C258.829 695.432 259.087 696.897 259.059 698.325C258.708 712.718 258.339 727.111 257.96 741.503C257.933 742.421 257.776 743.349 257.628 744.258C256.557 751.083 251.847 753.429 245.346 751.324C236.914 748.598 228.271 746.502 219.682 744.313C211.888 742.329 204.02 740.622 196.217 738.684C190.703 737.321 189.013 734.975 189.161 727.611ZM244.016 736.801C244.071 735.698 244.136 734.622 244.182 733.546C244.561 724.301 244.939 715.055 245.29 705.8C245.383 703.361 245.53 700.912 245.355 698.483C245.3 697.685 244.45 696.507 243.702 696.257C235.141 693.336 226.553 690.461 217.918 687.772C213.449 686.381 208.877 685.249 204.306 684.229C200.936 683.478 200.732 683.83 200.732 687.197C200.732 695.608 200.742 704.019 200.622 712.421C200.557 716.622 200.252 720.823 199.957 725.024C199.837 726.712 200.492 727.342 202.118 727.667C210.503 729.318 218.87 731.024 227.218 732.832C232.768 734.029 238.272 735.438 244.016 736.801Z" fill="url(#paint21_linear_13721_84515)"/>
<path d="M383.112 28.3296C386.03 32.1968 388.403 35.7485 391.192 38.9294C393.39 41.4425 396.059 43.5477 398.598 45.7549C406.531 52.6545 412.423 61.0563 416.929 70.5062C420.088 77.1183 420.863 84.0272 419.46 91.1957C416.856 104.476 408.101 112.887 394.184 114.51C386.307 115.428 378.309 115.446 370.358 115.511C365.27 115.548 362.656 113.332 362.536 109.836C362.416 106.386 364.919 104.012 369.804 103.279C376.019 102.352 382.262 101.619 388.486 100.766C389.641 100.608 390.786 100.312 391.922 100.006C402.763 97.0752 407.519 88.052 403.641 77.3594C400.704 69.2635 395.514 62.707 389.123 57.0501C386.168 54.4349 382.862 52.098 380.387 49.0841C376.684 44.5678 373.073 39.8289 370.349 34.6821C366.267 26.9757 368.502 19.5011 376.102 15.226C380.646 12.6664 385.771 11.0528 390.767 9.41136C394.812 8.07596 399.106 7.51024 403.188 6.2583C406.614 5.2011 409.92 3.73593 413.199 2.2707C414.113 1.86265 414.898 0.907418 415.443 0.0171478C416.486 -1.6892 417.437 -1.46656 418.546 -0.140432C420.799 2.57675 421.427 5.74826 419.857 8.81784C418.592 11.2939 416.791 13.6587 414.732 15.5227C409.957 19.8442 404.075 22.0885 397.878 23.5722C394.701 24.3327 391.543 25.2044 388.422 26.1504C386.916 26.5955 385.494 27.3281 383.112 28.3296Z" fill="url(#paint22_linear_13721_84515)"/>
<path d="M62.8198 60.6585C60.1325 59.7033 57.4637 58.7575 54.7948 57.8116C53.8436 57.4777 52.8832 57.1717 51.9597 56.7729C48.275 55.1686 46.4096 51.9876 46.9729 48.3524C47.5178 44.8562 50.4452 41.9907 54.2777 41.8145C56.8357 41.6939 59.5138 41.935 61.9887 42.5749C73.68 45.6074 85.3251 48.8068 96.9702 51.997C104.57 54.0835 112.171 56.2071 119.725 58.4421C121.95 59.1005 124.148 60.0371 126.152 61.2056C128.11 62.3463 129.44 64.2289 129.061 66.6771C128.664 69.2552 126.725 70.6184 124.388 71.0172C122.107 71.4067 119.725 71.4809 117.407 71.3881C103.25 70.8132 89.453 68.0496 75.804 64.4329C74.0494 63.9692 73.209 64.2475 72.2486 65.9074C69.0441 71.4253 65.3687 76.6834 62.2842 82.2661C59.7724 86.8195 57.9069 91.7346 55.6721 96.4456C54.961 97.9572 54.1484 99.478 53.0956 100.758C49.8357 104.745 44.5072 104.514 41.4967 100.331C40.9149 99.5152 40.4809 98.5878 39.9914 97.7068C33.6286 86.1425 27.2659 74.5875 20.9215 63.014C20.4413 62.133 19.9519 61.2242 19.7025 60.2597C19.1023 57.9042 19.7764 55.8826 21.7804 54.4915C23.7936 53.1005 25.9914 53.1654 27.8753 54.6399C29.0943 55.5951 30.1379 56.912 30.9598 58.2474C35.7711 66.1485 40.4993 74.1053 45.2552 82.0343C45.68 82.7484 46.1695 83.4161 46.5204 83.9447C51.9043 76.2475 57.2513 68.606 62.8198 60.6585Z" fill="url(#paint23_linear_13721_84515)"/>
<path d="M128.444 676.57C100.001 675.485 77.1351 662.725 62.341 636.49C60.1985 632.697 59.1088 628.236 57.9914 623.961C57.5204 622.143 57.899 619.88 58.5547 618.072C58.9795 616.904 60.5402 615.605 61.7499 615.438C62.7935 615.29 64.5573 616.356 65.1391 617.386C69.3225 624.805 75.4267 630.434 81.8079 635.785C99.6773 650.762 120.345 658.524 143.561 658.422C151.503 658.385 159.473 656.382 167.368 654.944C169.372 654.582 171.145 652.932 173.039 651.912C173.667 651.578 174.488 651.003 174.969 651.188C175.458 651.383 175.846 652.348 175.929 653.025C176.363 656.567 175.172 659.655 173.076 662.437C170.259 666.184 166.473 668.641 162.188 670.311C151.752 674.372 140.883 676.181 128.444 676.57Z" fill="url(#paint24_linear_13721_84515)"/>
<path d="M22.3357 6.42842C32.3554 7.30014 42.3752 8.20899 52.4042 9.01579C60.7802 9.69277 69.1746 10.0544 77.3936 7.80089C79.9609 7.0961 82.5281 6.17807 84.8923 4.96322C89.4358 2.62627 90.8672 -1.57476 88.9556 -6.35068C88.3922 -7.74172 87.7551 -9.19771 86.7854 -10.3198C81.2999 -16.6723 75.8699 -23.0803 70.0981 -29.1638C66.8936 -32.5394 62.738 -34.7372 58.1575 -35.8779C55.147 -36.6291 52.2564 -36.6661 49.5229 -34.6816C47.3805 -33.1236 44.7393 -33.4482 42.7538 -35.0804C40.5744 -36.8702 39.7617 -40.0325 40.9161 -42.9074C42.523 -46.9136 45.7644 -49.1114 49.8462 -49.2598C53.5493 -49.3896 57.3818 -48.9723 60.9833 -48.0727C66.8844 -46.5982 72.2221 -43.6956 77.0796 -39.9862C85.2986 -33.6986 92.1324 -26.085 97.8395 -17.479C101.229 -12.3693 103.085 -6.74012 102.365 -0.508243C101.386 8.05132 96.8513 14.144 89.2418 17.974C81.9648 21.6371 74.0968 23.0931 66.0902 22.9911C57.7235 22.8798 49.3567 22.1008 41.0085 21.4517C31.986 20.7469 22.9729 19.8566 13.9505 19.0312C12.7038 18.92 11.4478 18.7531 10.2196 18.4841C7.02434 17.7979 5.28821 15.9617 5.22357 13.3465C5.15892 10.7221 6.75654 8.66334 9.83173 7.80089C11.6787 7.29084 13.6088 6.96622 15.5204 6.82712C17.7737 6.66019 20.0454 6.7901 22.308 6.7901C22.3172 6.67882 22.3264 6.55825 22.3357 6.42842Z" fill="url(#paint25_linear_13721_84515)"/>
<path d="M-25.9624 512.964C-31.8911 513.011 -35.622 508.671 -34.7816 503.338C-34.4584 501.289 -33.655 499.295 -32.9162 497.338C-29.3239 487.824 -25.5283 478.374 -22.1207 468.794C-20.5046 464.25 -17.9743 460.383 -15.1023 456.664C-13.283 454.299 -9.98617 453.891 -7.40965 455.644C-6.44923 456.293 -5.60886 457.156 -4.8239 458.018C5.40827 469.443 16.3977 480.024 29.114 488.686C31.2565 490.142 33.2605 491.848 35.1444 493.629C37.7578 496.114 38.9676 499.184 37.7578 502.782C36.5296 506.436 33.5744 508.049 30.0375 508.291C24.5243 508.671 18.9742 508.522 13.461 508.903C2.51777 509.654 -8.40702 510.553 -19.3318 511.536C-21.8344 511.768 -24.2539 512.584 -25.9624 512.964ZM-8.28696 473.143C-10.568 480.72 -12.8767 488.417 -15.25 496.3C-5.76585 495.669 3.68136 495.039 12.8423 494.426C5.7869 487.323 -1.30544 480.182 -8.28696 473.143Z" fill="url(#paint26_linear_13721_84515)"/>
<path d="M-20.3745 608.211C-21.0117 606.347 -21.3811 604.326 -22.3508 602.666C-24.3455 599.262 -26.6819 596.063 -28.8428 592.771C-30.6436 590.035 -32.6661 587.401 -34.1067 584.48C-37.2004 578.192 -34.0143 572.369 -27.0421 571.655C-23.5698 571.302 -20.0236 571.673 -16.5051 571.794C-14.926 571.849 -13.3468 572.081 -11.269 572.285C-11.8416 571.432 -12.1186 570.894 -12.5065 570.458C-14.5659 568.131 -16.8099 565.942 -18.703 563.484C-21.3719 560.035 -24.0962 556.566 -26.2479 552.783C-30.8745 544.65 -27.6516 537.787 -18.4814 535.803C-16.4405 535.358 -14.3165 535.033 -12.2479 535.098C-2.27432 535.422 7.71773 535.719 17.2942 539.076C19.686 539.911 19.9631 540.495 18.3839 542.61C15.8813 545.967 12.3074 547.692 8.3457 548.35C2.97104 549.24 -2.45902 549.75 -7.87062 550.427C-8.85874 550.548 -9.83762 550.678 -11.2413 550.854C-10.678 551.883 -10.3086 552.671 -9.84686 553.395C-6.87326 558.087 -3.81653 562.724 -0.926039 567.463C4.29163 576.013 1.52118 581.605 -8.46164 582.393C-12.7835 582.737 -17.1608 582.449 -22.1661 582.449C-21.4365 583.822 -21.0671 584.601 -20.6239 585.342C-18.2782 589.33 -15.554 593.142 -13.6793 597.343C-12.1371 600.802 -11.0381 604.669 -10.7611 608.425C-10.3271 614.183 -14.5197 618.486 -20.2914 618.579C-23.0711 618.626 -26.0078 618.106 -28.6397 617.17C-40.4048 612.969 -50.7201 606.255 -60.0842 598.038C-62.79 595.664 -63.2333 592.752 -61.5064 590.415C-59.7517 588.041 -56.6119 587.661 -53.6198 589.72C-49.2702 592.724 -45.1608 596.1 -40.7003 598.928C-35.889 601.97 -30.8191 604.622 -25.7954 607.312C-24.364 608.072 -22.6925 608.378 -21.1318 608.897C-20.8825 608.675 -20.6331 608.443 -20.3745 608.211Z" fill="url(#paint27_linear_13721_84515)"/>
<path d="M168.752 7.0759C167.662 9.63543 166.12 12.1023 165.575 14.7731C164.384 20.7082 163.608 26.7268 162.823 32.7361C162.361 36.2694 161.484 37.8274 159.129 38.3282C156.543 38.8846 154.05 37.5491 152.776 34.5259C152 32.699 151.409 30.6681 151.307 28.7021C150.938 21.8303 151.834 15.0791 153.911 8.51336C155.186 4.50714 157.338 1.02022 160.708 -1.60422C166.886 -6.40797 174.154 -5.13742 177.202 2.04966C179.473 7.39128 180.785 13.2614 181.699 19.0296C183.149 28.1085 183.712 37.2894 181.108 46.3498C176.324 62.9774 163.276 68.551 148.398 59.8801C144.113 57.3855 140.133 54.0377 136.744 50.4025C128.054 41.0917 122.772 29.8984 120.389 17.3605C120.029 15.4779 119.964 13.4933 120.094 11.5829C120.334 8.20727 122.55 5.87031 125.505 5.55501C128.414 5.2397 130.787 6.88122 131.877 10.1548C133.078 13.7437 134.01 17.4253 135.285 20.9864C138.203 29.1472 142.202 36.7701 148.047 43.1597C150.956 46.3313 154.41 49.1968 158.095 51.3947C163.95 54.8816 168.641 53.0733 171.19 46.693C172.298 43.9202 173.101 40.8876 173.351 37.9201C174.117 28.7021 173.166 19.5861 170.987 10.5999C170.811 9.86731 170.562 9.14401 170.294 8.43921C170.146 8.05899 169.906 7.71583 169.703 7.35415C169.389 7.27069 169.075 7.16864 168.752 7.0759Z" fill="url(#paint28_linear_13721_84515)"/>
<path d="M44.665 570.108C42.2639 591.753 40.4631 612.118 32.9645 631.315C30.8682 636.675 28.1254 641.914 24.884 646.653C15.6123 660.23 2.25873 665.312 -13.7452 663.967C-17.2359 663.68 -20.7175 663.003 -24.1343 662.177C-27.3758 661.398 -28.9641 659.349 -28.918 656.808C-28.8718 654.239 -27.2372 652.078 -24.0605 651.475C-18.7966 650.474 -13.4681 649.797 -8.1489 649.12C4.31809 647.516 12.9065 640.588 18.5027 629.58C23.5634 619.62 26.1215 608.891 27.3312 597.883C28.3563 588.526 28.6426 579.085 29.3721 569.682C29.5938 566.761 29.9077 563.802 30.6558 560.992C31.3761 558.294 33.3708 556.541 36.3352 556.402C39.2811 556.263 41.5713 557.737 42.4486 560.38C43.5937 563.932 44.1293 567.679 44.665 570.108Z" fill="url(#paint29_linear_13721_84515)"/>
<path d="M30.2403 -9.19178C29.0767 -8.7281 27.9408 -8.10679 26.7311 -7.82858C19.5833 -6.18715 12.3894 -6.75285 5.20474 -7.60602C-0.862522 -8.32009 -6.91132 -9.14551 -13.468 -9.98941C-8.17649 4.13434 -2.9773 18.0078 2.0372 31.3618C10.487 29.9708 18.7153 28.5519 26.9712 27.2907C28.9382 26.9939 30.9975 26.9847 32.9646 27.2165C34.7746 27.4205 36.3168 28.4128 36.7324 30.4345C37.1572 32.4654 36.0952 33.9399 34.5068 34.8487C32.549 35.9616 30.4619 36.8888 28.3472 37.6678C24.8102 38.9754 21.1994 40.0976 17.6348 41.331C13.9316 42.6107 10.7549 44.6509 7.91053 47.4237C0.84591 54.314 -7.4377 52.1348 -10.2174 42.6015C-14.5485 27.7265 -18.6395 12.7866 -22.8783 -2.10682C-23.6817 -4.93528 -24.5036 -7.80073 -25.7134 -10.4623C-26.7015 -12.6416 -28.096 -14.7096 -29.6289 -16.5458C-32.15 -19.5598 -32.6395 -22.7684 -30.5893 -25.2352C-28.53 -27.7113 -25.344 -27.7669 -22.0102 -25.5319C-20.7728 -24.6973 -19.3875 -24.0482 -17.9931 -23.4825C-5.88625 -18.6046 6.65461 -15.2938 19.4633 -12.9012C23.0371 -12.2335 26.5371 -11.1392 30.0648 -10.2397C30.1295 -9.88731 30.1849 -9.54418 30.2403 -9.19178Z" fill="url(#paint30_linear_13721_84515)"/>
<path d="M281.398 711.409C281.823 707.607 282.063 704.584 282.516 701.598C283.015 698.324 285.554 696.135 289.35 695.514C293.034 694.911 296.71 695.366 299.822 697.285C303.857 699.78 308.078 702.33 311.301 705.734C323.611 718.708 331.497 733.981 333.233 752.056C333.686 756.794 332.965 761.422 330.62 765.753C329.198 768.368 327.249 769.648 324.349 769.444C319.695 769.128 315.456 767.404 311.753 764.761C293.237 751.527 283.892 733.063 281.398 711.409ZM320.849 758.074C321.126 757.879 321.413 757.694 321.69 757.499C321.69 755.682 321.911 753.836 321.653 752.056C319.289 735.4 311.319 721.87 298.64 711.066C297.144 709.796 295.241 708.887 293.385 708.201C290.781 707.236 290.024 707.857 290.255 710.667C291.732 728.482 299.489 742.94 313.508 753.92C315.706 755.635 318.393 756.702 320.849 758.074Z" fill="url(#paint31_linear_13721_84515)"/>
<path d="M75.24 215.576C78.5091 215.864 83.0342 216.133 87.5223 216.698C91.2809 217.171 94.0328 218.738 95.4919 222.865C98.7334 232.055 102.584 241.042 106.112 250.13C108.661 256.695 104.985 261.304 98.0408 260.906C89.6925 260.423 81.3165 260.368 72.9498 260.155C71.2783 260.108 69.5883 260.266 67.926 260.145C62.4221 259.746 59.6239 255.87 59.9564 250.343C60.3812 243.397 60.335 236.414 60.2981 229.449C60.2888 228.142 59.5685 226.714 58.8297 225.555C56.0778 221.233 58.3126 216.086 63.4471 215.632C66.9194 215.326 70.4656 215.576 75.24 215.576ZM88.7875 227.873C82.6925 228.225 76.6344 228.587 70.4841 228.939C71.3521 234.429 72.1371 239.817 73.1437 245.159C73.273 245.836 74.5566 246.689 75.3693 246.763C79.1094 247.125 82.8772 247.218 86.6358 247.44C88.8614 247.57 91.0777 247.756 93.5526 247.932C91.9088 241.032 90.3482 234.457 88.7875 227.873Z" fill="url(#paint32_linear_13721_84515)"/>
<path d="M196.254 592.736C195.866 580.281 195.469 567.827 195.081 555.372C195.063 554.695 195.026 554.018 195.072 553.35C195.321 549.966 197.667 547.369 200.807 546.942C203.91 546.525 206.948 548.463 207.927 551.7C208.361 553.128 208.592 554.686 208.546 556.17C208.204 565.675 207.632 575.171 207.41 584.668C207.281 590.213 207.567 595.768 207.853 601.304C208.5 614 209.257 626.686 209.949 639.373C209.986 640.124 209.959 640.894 209.866 641.636C209.488 644.594 207.632 646.662 205.064 647.061C202.349 647.487 199.69 646.105 198.701 643.24C197.889 640.884 197.298 638.343 197.196 635.867C196.818 627.039 196.633 618.21 196.476 609.373C196.374 603.818 196.457 598.263 196.457 592.708C196.383 592.736 196.319 592.736 196.254 592.736Z" fill="url(#paint33_linear_13721_84515)"/>
<path d="M-12.5249 732.915C-38.29 733.091 -60.9523 724.968 -80.4839 708.117C-82.5063 706.374 -84.4087 704.436 -86.0709 702.34C-87.9641 699.957 -87.7609 697.193 -85.9786 695.45C-84.187 693.697 -81.7029 693.873 -79.1264 695.7C-73.5208 699.669 -68.0723 703.944 -62.162 707.403C-45.9826 716.872 -28.0671 720.043 -9.66213 721.212C-4.65687 721.527 0.339165 722.13 5.28902 722.881C6.8497 723.122 8.39192 724.096 9.72173 725.06C11.4763 726.322 11.3748 728.074 9.67556 729.234C8.19799 730.244 6.44338 731.209 4.71647 731.422C-0.999877 732.099 -6.77163 732.442 -12.5249 732.915Z" fill="url(#paint34_linear_13721_84515)"/>
<path d="M234.542 597.567C234.182 608.093 233.831 618.619 233.443 629.144C233.397 630.405 233.24 631.667 232.991 632.9C232.446 635.599 230.756 637.222 228.53 637.324C226.24 637.426 224.135 635.83 223.627 633.095C223.036 629.877 222.749 626.594 222.435 623.32C220.718 605.515 220.237 587.663 220.838 569.793C220.967 565.954 221.66 562.096 222.537 558.349C222.925 556.689 224.135 554.918 225.483 553.842C228.733 551.264 233.249 553.137 234.173 557.477C234.884 560.834 235.364 564.321 235.327 567.743C235.216 577.685 234.782 587.617 234.477 597.549C234.496 597.558 234.514 597.567 234.542 597.567Z" fill="url(#paint35_linear_13721_84515)"/>
<path d="M352.082 292.223C348.795 291.453 343.503 290.322 338.285 288.921C335.598 288.198 334.213 286.399 334.444 283.274C334.564 281.632 333.714 279.87 333.105 278.238C332.144 275.641 331.018 273.11 329.956 270.55C328.737 267.62 329.873 265.181 332.929 264.671C338.304 263.771 342.866 261.369 346.818 257.651C349.755 254.887 354.733 256.13 355.619 259.95C356.718 264.661 358.962 268.733 361.816 272.498C364.605 276.179 367.55 279.731 370.432 283.348C373.138 286.751 371.872 290.386 367.643 290.906C363.201 291.444 358.704 291.676 352.082 292.223ZM348.702 268.677C346.403 269.882 344.371 270.958 342.561 271.913C343.42 275.066 344.223 278.043 345.11 281.298C348.241 281.298 351.584 281.298 355.028 281.298C353.837 279.119 352.664 277.107 351.62 275.029C350.577 272.961 349.672 270.819 348.702 268.677Z" fill="url(#paint36_linear_13721_84515)"/>
<path d="M123.789 851.858C126.421 849.502 128.637 847.462 130.918 845.496C134.732 842.213 138.555 838.93 142.452 835.74C143.468 834.905 144.706 834.228 145.943 833.793C148.224 832.986 150.681 834.052 151.761 836.083C152.86 838.142 152.472 840.887 150.32 842.139C144.724 845.394 141.095 850.634 136.653 855.057C133.864 857.839 131.047 860.649 127.954 863.06C122.662 867.178 117.638 865.759 115.071 859.508C112.707 853.749 110.666 847.861 108.348 842.093C107.739 840.572 106.621 839.255 105.772 837.827C104.285 835.313 102.512 832.902 101.441 830.222C99.8891 826.346 101.339 822.794 104.488 821.422C107.563 820.086 111.026 821.338 112.781 825.075C115.598 831.075 118.045 837.261 120.584 843.4C121.692 846.025 122.616 848.723 123.789 851.858Z" fill="url(#paint37_linear_13721_84515)"/>
<path d="M11.0036 109.362C22.3255 109.399 32.5669 122.382 29.5379 132.871C27.8849 138.593 23.2121 141.941 17.2833 141.579C16.1197 141.505 14.873 141.477 13.8295 141.022C9.31365 139.084 4.64083 137.359 0.438989 134.865C-4.20612 132.11 -5.7114 127.483 -4.66786 122.178C-3.20876 114.778 3.51419 109.344 11.0036 109.362ZM20.4324 131.628C22.7873 130.525 23.4337 128.698 23.1105 126.389C22.6764 123.31 20.4878 120.741 17.745 120.055C15.4179 119.47 13.4416 120.008 11.8994 121.9C10.8097 123.235 10.7635 124.348 12.315 125.461C15.0392 127.418 17.6527 129.505 20.4324 131.628Z" fill="url(#paint38_linear_13721_84515)"/>
<path d="M70.2831 431.447C73.2197 432.059 76.3042 432.3 79.0654 433.376C84.4585 435.462 87.349 440.025 88.3371 445.459C89.3991 451.32 89.7039 457.32 90.3503 463.265C90.5258 464.86 90.8213 466.446 90.8582 468.032C90.9229 470.656 91.7909 472.372 94.6999 472.613C95.0601 472.641 95.7158 473.985 95.5588 474.523C94.349 478.706 88.5957 480.625 84.1907 478.399C81.1986 476.888 79.4071 474.3 78.8438 471.129C77.9757 466.158 77.5416 461.123 76.8213 456.124C76.415 453.296 75.8886 450.486 75.2699 447.694C74.7804 445.487 73.3306 444.217 71.0126 444.068C69.4242 443.966 67.8358 443.855 66.2475 443.772C62.258 443.568 59.7185 441.509 59.543 438.309C59.3583 434.85 61.7963 432.402 65.9427 431.957C67.3556 431.799 68.787 431.79 70.2092 431.707C70.2277 431.623 70.2554 431.53 70.2831 431.447Z" fill="url(#paint39_linear_13721_84515)"/>
<path d="M44.9519 721.296C44.481 722.984 44.167 724.737 43.5021 726.341C38.5799 738.276 31.4507 748.802 23.0285 758.502C22.8623 758.687 22.6868 758.864 22.5021 759.049C19.1037 762.508 15.6868 763.25 12.6763 761.182C9.76729 759.179 8.98234 755.423 10.9771 751.185C12.4362 748.078 14.0615 744.99 16.0654 742.217C21.5047 734.65 27.138 727.231 32.7897 719.831C33.7871 718.523 35.1169 717.364 36.5113 716.511C40.8055 713.886 44.6934 716.186 44.9519 721.296Z" fill="url(#paint40_linear_13721_84515)"/>
<path d="M50.1503 650.258C51.2585 651.362 52.6068 652.308 53.4195 653.597C54.8047 655.785 55.7097 658.28 57.0949 660.459C57.963 661.832 59.2281 663.028 60.5302 664.02C62.3495 665.411 63.4485 667.043 63.2084 669.362C62.9683 671.662 61.4538 672.904 59.5698 674.128C56.2453 676.28 53.0316 678.673 50.0395 681.278C48.4973 682.623 47.149 683.829 45.0158 683.448C42.8364 683.059 41.8205 681.445 41.2387 679.498C39.4934 673.674 37.1754 668.138 33.5461 663.186C31.3667 660.199 31.7546 658.085 35.0791 656.481C39.4841 654.348 44.1292 652.725 48.6727 650.898C48.9775 650.777 49.3284 650.796 49.6609 650.75C49.8179 650.583 49.9841 650.416 50.1503 650.258ZM46.244 670.456C50.9168 667.099 51.1385 665.856 47.8786 661.145C46.0131 661.72 44.1385 662.305 42.273 662.889C43.6305 665.476 44.9327 667.971 46.244 670.456Z" fill="url(#paint41_linear_13721_84515)"/>
<path d="M424.152 389.742C423.478 392.069 423.044 394.582 422.037 396.855C415.601 411.359 396.226 417.136 382.919 408.604C382.217 408.15 381.543 407.64 380.933 407.065C378.772 405.043 378.163 402.66 379.188 400.49C380.176 398.385 382.161 397.467 385.163 397.902C388.062 398.32 390.944 398.885 393.834 399.377C400.336 400.462 406.375 399.516 411.593 395.194C414.437 392.848 417.189 390.391 420.024 388.045C420.929 387.293 421.991 386.718 422.979 386.06C423.34 387.201 423.7 388.341 424.152 389.742Z" fill="url(#paint42_linear_13721_84515)"/>
<path d="M312.494 41.5748C312.503 45.5346 310.656 47.2595 307.442 46.5269C301.421 45.1544 295.345 43.8282 289.545 41.7695C287.301 40.9719 285.417 38.4681 283.949 36.3444C282.647 34.4526 283.801 31.6705 286.294 30.808C291.198 29.1017 293.719 25.3365 295.806 21.0057C296.129 20.3287 296.508 19.6518 296.988 19.0768C298.918 16.7677 301.781 17.2313 303.019 19.9671C305.771 26.0784 308.578 32.1619 311.321 38.2826C311.893 39.5623 312.272 40.9349 312.494 41.5748Z" fill="url(#paint43_linear_13721_84515)"/>
<path d="M260.888 119.982C270.446 119.991 277.326 124.776 279.653 132.205C280.521 134.968 280.022 135.506 277.141 135.228C269.762 134.532 262.596 135.525 255.716 138.27C251.542 139.939 248.347 139.494 246.204 136.6C244.117 133.781 244.302 129.645 246.916 126.548C250.859 121.846 256.197 120.186 260.888 119.982Z" fill="url(#paint44_linear_13721_84515)"/>
<path d="M50.3818 736.152C50.6219 733.221 50.8436 730.281 51.1206 727.36C51.2037 726.442 51.3977 725.524 51.6562 724.643C52.5243 721.666 54.6021 719.83 57.0678 719.784C59.4781 719.737 61.7868 721.267 62.6457 724.105C64.8251 731.274 65.1852 738.674 64.6588 746.084C64.4649 748.894 62.5718 750.86 59.7459 751.499C56.9293 752.13 54.399 751.203 52.9676 748.782C51.8132 746.826 51.1576 744.47 50.742 742.207C50.3818 740.26 50.6681 738.182 50.6681 736.17C50.5665 736.152 50.4742 736.152 50.3818 736.152Z" fill="url(#paint45_linear_13721_84515)"/>
<path d="M255.459 614.65C255.459 611.284 255.45 607.918 255.468 604.551C255.478 603.8 255.533 603.031 255.672 602.289C256.263 599.099 258.137 597.068 260.538 596.947C262.939 596.827 265.331 598.663 265.922 601.742C267.483 609.902 267.741 618.147 266.393 626.363C265.802 629.943 262.829 632.066 259.809 631.677C256.66 631.278 254.563 628.746 254.591 625C254.61 621.55 254.887 618.1 255.053 614.65C255.182 614.65 255.321 614.65 255.459 614.65Z" fill="url(#paint46_linear_13721_84515)"/>
<path d="M203.928 130.043C210.577 132.463 217.263 134.791 223.829 137.406C224.753 137.768 225.63 139.53 225.612 140.624C225.593 141.589 224.485 143.063 223.534 143.388C219.036 144.964 215.509 147.663 212.48 151.326C209.903 154.451 205.785 153.496 204.252 149.722C202.765 146.068 201.186 142.46 199.791 138.779C199.329 137.564 199.099 136.173 199.126 134.875C199.182 132.12 200.973 130.59 203.697 130.701C203.771 130.488 203.854 130.265 203.928 130.043Z" fill="url(#paint47_linear_13721_84515)"/>
<path d="M325.421 451.394C323.879 457.514 318.624 459.267 314.33 462.309C315.706 464.395 317.045 466.417 318.375 468.429C318.791 469.06 319.271 469.653 319.659 470.303C320.942 472.491 320.711 474.643 319.095 476.034C317.47 477.434 315.189 477.415 313.388 475.663C309.851 472.204 306.314 468.726 303.027 465.035C299.684 461.279 300.663 455.965 305.28 454.129C311.541 451.616 318.2 450.986 325.421 451.394Z" fill="url(#paint48_linear_13721_84515)"/>
<path d="M148.493 262.66C143.46 261.705 137.614 260.611 131.778 259.47C129.561 259.034 127.326 258.608 125.166 257.94C121.906 256.938 120.336 254.305 121.028 251.421C121.684 248.722 124.334 246.895 127.502 247.609C135.342 249.39 143.136 251.374 150.903 253.479C153.747 254.249 154.957 256.586 154.44 259.071C153.969 261.288 152.011 262.669 148.493 262.66Z" fill="url(#paint49_linear_13721_84515)"/>
<path d="M204.602 86.8672C202.94 86.4684 201.038 86.1345 199.209 85.5596C194.897 84.2056 190.575 82.8517 186.336 81.2845C184.563 80.6353 182.808 79.6709 181.349 78.4653C179.317 76.7961 179.04 74.1253 180.278 72.0666C181.46 70.1006 183.824 69.062 186.179 69.8966C192.569 72.1593 198.923 74.5333 205.24 77.0001C206.606 77.5287 207.853 78.5302 208.952 79.5318C211.759 82.0913 211.122 85.0125 207.548 86.2273C206.699 86.5241 205.775 86.6168 204.602 86.8672Z" fill="url(#paint50_linear_13721_84515)"/>
<path d="M130.862 902.263C130.262 906.798 129.865 910.822 129.181 914.791C128.627 917.991 126.79 919.577 124.231 919.586C121.673 919.595 119.466 917.768 118.968 914.727C118.617 912.594 118.626 910.359 118.801 908.198C119.115 904.423 119.623 900.668 120.168 896.921C120.371 895.521 120.584 893.916 121.396 892.869C122.384 891.589 124.056 889.929 125.33 890.012C126.771 890.105 128.877 891.7 129.329 893.091C130.317 896.151 130.447 899.49 130.862 902.263Z" fill="url(#paint51_linear_13721_84515)"/>
<path d="M109.761 113.891C105.088 113.492 100.831 113.177 96.5739 112.741C93.3787 112.416 91.5225 110.654 91.504 108.16C91.4856 105.711 93.4064 103.467 96.4816 103.504C101.653 103.56 106.815 104.2 111.987 104.571C114.157 104.728 116.346 104.7 118.488 105.044C119.679 105.238 121.443 105.776 121.757 106.611C122.201 107.798 122.062 109.921 121.268 110.719C119.938 112.045 117.971 112.991 116.115 113.445C113.954 113.974 111.617 113.789 109.761 113.891Z" fill="url(#paint52_linear_13721_84515)"/>
<path d="M278.177 676.439C278.177 677.849 278.233 679.592 278.159 681.336C278.085 683.126 277.596 684.823 275.472 684.98C273.228 685.147 272.406 683.524 272.138 681.633C271.648 678.22 271.14 674.798 270.882 671.357C270.577 667.277 273.874 664.949 277.494 666.795C280.237 668.195 282.721 670.124 285.316 671.812C287.126 672.99 286.729 674.427 285.168 675.039C283.229 675.809 281.022 675.911 278.177 676.439Z" fill="url(#paint53_linear_13721_84515)"/>
<path d="M392.955 324.826C397.868 324.901 401.497 327.803 401.414 331.587C401.34 334.981 397.96 338.004 394.266 337.976C389.704 337.939 385.983 334.888 386.001 331.216C386.029 327.534 389.049 324.761 392.955 324.826Z" fill="url(#paint54_linear_13721_84515)"/>
<path d="M163.924 687.845C163.933 687.595 163.942 687.344 163.961 687.094C164.201 683.394 165.974 680.825 168.883 679.953C171.496 679.174 174.138 680.12 175.717 682.402C177.545 685.035 177.388 688.411 175.32 691.332C175.172 691.536 175.015 691.731 174.858 691.926C172.577 694.782 170.213 695.756 167.756 694.838C165.281 693.919 163.822 691.249 163.924 687.845Z" fill="url(#paint55_linear_13721_84515)"/>
<path d="M385.651 824.177C385.614 828.044 382.456 831.142 378.531 831.16C374.754 831.179 371.827 828.248 371.836 824.465C371.845 820.477 375.142 817.222 379.067 817.315C382.788 817.398 385.679 820.412 385.651 824.177Z" fill="url(#paint56_linear_13721_84515)"/>
<path d="M114.942 700.803C114.148 701.35 114.019 701.526 113.88 701.526C108.995 701.628 100.176 695.693 98.4487 691.167C97.6729 689.136 97.95 687.291 99.7508 685.993C101.579 684.676 103.685 684.917 104.95 686.605C108.404 691.195 111.581 695.99 114.942 700.803Z" fill="url(#paint57_linear_13721_84515)"/>
<path d="M404.951 740.474C409.375 740.594 412.422 743.358 412.274 747.114C412.136 750.387 409.411 752.863 406.068 752.733C402.615 752.594 399.059 748.996 399.068 745.648C399.078 742.551 401.553 740.381 404.951 740.474Z" fill="url(#paint58_linear_13721_84515)"/>
<path d="M136.94 824.79C136.912 828.082 134.945 830.327 132.073 830.336C128.749 830.354 124.815 825.885 124.907 822.203C124.99 819.263 127.373 816.935 130.235 816.991C133.652 817.065 136.977 820.942 136.94 824.79Z" fill="url(#paint59_linear_13721_84515)"/>
<path d="M139.7 894C140.578 892.803 141.233 891.041 142.406 890.559C143.625 890.058 145.592 890.374 146.802 891.079C149.526 892.683 152.066 900.417 151.216 903.422C150.625 905.499 148.926 906.445 147.19 905.314C143.274 902.763 140.116 899.592 140.31 894.343C140.097 894.222 139.894 894.111 139.7 894Z" fill="url(#paint60_linear_13721_84515)"/>
<path d="M410.65 33.2377C411.998 33.3861 413.66 33.5623 415.323 33.7663C415.646 33.8034 415.969 33.9332 416.283 34.063C418.684 35.0646 418.841 36.836 416.976 42.0571C416.172 44.3199 414.584 45.2472 412.515 44.394C409.44 43.142 407.214 40.8236 405.885 37.8375C404.73 35.2594 406.808 33.2377 410.65 33.2377Z" fill="url(#paint61_linear_13721_84515)"/>
<path d="M125.331 233.196C125.359 236.433 122.921 238.834 119.605 238.844C116.558 238.853 114.129 236.618 114.111 233.79C114.083 230.637 117.066 227.789 120.353 227.817C123.447 227.845 125.303 229.858 125.331 233.196Z" fill="url(#paint62_linear_13721_84515)"/>
<path d="M275.684 8.24646C275.748 5.3067 277.817 2.94193 280.357 2.93266C282.979 2.92338 285.223 5.22325 285.113 7.79206C284.993 10.5185 282.453 13.0502 279.923 12.9667C277.503 12.8926 275.628 10.806 275.684 8.24646Z" fill="url(#paint63_linear_13721_84515)"/>
<path d="M384.986 449.596C387.47 449.633 389.447 451.719 389.345 454.186C389.244 456.56 387.249 458.443 384.875 458.406C382.41 458.369 380.415 456.273 380.526 453.806C380.627 451.423 382.594 449.559 384.986 449.596Z" fill="url(#paint64_linear_13721_84515)"/>
<path d="M54.6477 461.214C54.7032 459.082 56.4208 457.375 58.5264 457.366C60.752 457.357 62.5435 459.184 62.4696 461.4C62.405 463.551 60.6873 465.258 58.591 465.258C56.3747 465.258 54.5923 463.431 54.6477 461.214Z" fill="url(#paint65_linear_13721_84515)"/>
<path d="M21.1523 453.916C21.2078 451.978 23.1563 450.262 25.1141 450.429C26.7024 450.559 27.8106 451.375 27.903 453.072C27.9953 454.834 26.0006 456.606 24.0151 456.578C22.2236 456.559 21.2355 455.65 21.1523 453.916Z" fill="url(#paint66_linear_13721_84515)"/>
<path d="M265.69 658.493C266.817 660.069 267.943 660.959 267.962 661.877C267.98 662.629 266.678 663.408 265.967 664.168C265.164 663.361 263.954 662.666 263.695 661.71C263.511 661.071 264.665 660.06 265.69 658.493Z" fill="url(#paint67_linear_13721_84515)"/>
</g>
</g>
</svg>
