<svg width="40" height="40" viewBox="0 0 40 40" fill="none" xmlns="http://www.w3.org/2000/svg">
<path fill-rule="evenodd" clip-rule="evenodd" d="M20 2C15.9277 2 15.5427 9.09305 13.1182 11.5991C10.6938 14.1053 3.1564 11.2398 2.10917 15.6881C1.06415 20.1385 7.84471 21.6486 8.68072 25.4669C9.52114 29.2851 5.37845 34.6498 8.91833 37.3197C12.4582 39.9873 16.2687 33.9494 20 33.9494C23.7313 33.9494 27.5418 39.9873 31.0816 37.3197C34.6215 34.6498 30.481 29.2851 31.3192 25.4669C32.1575 21.6486 38.9358 20.1385 37.8908 15.6881C36.8458 11.2398 29.3062 14.1053 26.8839 11.5991C24.4595 9.09305 24.0723 2 20 2Z" stroke="#007AFF" stroke-width="3" stroke-linecap="round" stroke-linejoin="round"/>
</svg>
