<svg width="89" height="15" viewBox="0 0 89 15" fill="none" xmlns="http://www.w3.org/2000/svg">
<path d="M7.77832 10.6426C7.77832 10.1445 7.60254 9.76367 7.25098 9.5C6.89941 9.23047 6.2666 8.94922 5.35254 8.65625C4.43848 8.35742 3.71484 8.06445 3.18164 7.77734C1.72852 6.99219 1.00195 5.93457 1.00195 4.60449C1.00195 3.91309 1.19531 3.29785 1.58203 2.75879C1.97461 2.21387 2.53418 1.78906 3.26074 1.48438C3.99316 1.17969 4.81348 1.02734 5.72168 1.02734C6.63574 1.02734 7.4502 1.19434 8.16504 1.52832C8.87988 1.85645 9.43359 2.32227 9.82617 2.92578C10.2246 3.5293 10.4238 4.21484 10.4238 4.98242H7.78711C7.78711 4.39648 7.60254 3.94238 7.2334 3.62012C6.86426 3.29199 6.3457 3.12793 5.67773 3.12793C5.0332 3.12793 4.53223 3.26563 4.1748 3.54102C3.81738 3.81055 3.63867 4.16797 3.63867 4.61328C3.63867 5.0293 3.84668 5.37793 4.2627 5.65918C4.68457 5.94043 5.30273 6.2041 6.11719 6.4502C7.61719 6.90137 8.70996 7.46094 9.39551 8.12891C10.0811 8.79688 10.4238 9.62891 10.4238 10.625C10.4238 11.7324 10.0049 12.6025 9.16699 13.2354C8.3291 13.8623 7.20117 14.1758 5.7832 14.1758C4.79883 14.1758 3.90234 13.9971 3.09375 13.6396C2.28516 13.2764 1.66699 12.7812 1.23926 12.1543C0.817383 11.5273 0.606445 10.8008 0.606445 9.97461H3.25195C3.25195 11.3867 4.0957 12.0928 5.7832 12.0928C6.41016 12.0928 6.89941 11.9668 7.25098 11.7148C7.60254 11.457 7.77832 11.0996 7.77832 10.6426ZM17.7451 13.0332C17.1182 13.7949 16.251 14.1758 15.1436 14.1758C14.124 14.1758 13.3447 13.8828 12.8057 13.2969C12.2725 12.7109 12 11.8525 11.9883 10.7217V4.49023H14.5283V10.6338C14.5283 11.624 14.9795 12.1191 15.8818 12.1191C16.7432 12.1191 17.335 11.8203 17.6572 11.2227V4.49023H20.2061V14H17.8154L17.7451 13.0332ZM26.0771 12.1279C26.5459 12.1279 26.9268 11.999 27.2197 11.7412C27.5127 11.4834 27.665 11.1406 27.6768 10.7129H30.0586C30.0527 11.3574 29.877 11.9492 29.5312 12.4883C29.1855 13.0215 28.7109 13.4375 28.1074 13.7363C27.5098 14.0293 26.8477 14.1758 26.1211 14.1758C24.7617 14.1758 23.6895 13.7451 22.9043 12.8838C22.1191 12.0166 21.7266 10.8213 21.7266 9.29785V9.13086C21.7266 7.66602 22.1162 6.49707 22.8955 5.62402C23.6748 4.75098 24.7441 4.31445 26.1035 4.31445C27.293 4.31445 28.2451 4.6543 28.96 5.33398C29.6807 6.00781 30.0469 6.90723 30.0586 8.03223H27.6768C27.665 7.54004 27.5127 7.1416 27.2197 6.83691C26.9268 6.52637 26.54 6.37109 26.0596 6.37109C25.4678 6.37109 25.0195 6.58789 24.7148 7.02148C24.416 7.44922 24.2666 8.14648 24.2666 9.11328V9.37695C24.2666 10.3555 24.416 11.0586 24.7148 11.4863C25.0137 11.9141 25.4678 12.1279 26.0771 12.1279ZM35.4639 12.1279C35.9326 12.1279 36.3135 11.999 36.6064 11.7412C36.8994 11.4834 37.0518 11.1406 37.0635 10.7129H39.4453C39.4395 11.3574 39.2637 11.9492 38.918 12.4883C38.5723 13.0215 38.0977 13.4375 37.4941 13.7363C36.8965 14.0293 36.2344 14.1758 35.5078 14.1758C34.1484 14.1758 33.0762 13.7451 32.291 12.8838C31.5059 12.0166 31.1133 10.8213 31.1133 9.29785V9.13086C31.1133 7.66602 31.5029 6.49707 32.2822 5.62402C33.0615 4.75098 34.1309 4.31445 35.4902 4.31445C36.6797 4.31445 37.6318 4.6543 38.3467 5.33398C39.0674 6.00781 39.4336 6.90723 39.4453 8.03223H37.0635C37.0518 7.54004 36.8994 7.1416 36.6064 6.83691C36.3135 6.52637 35.9268 6.37109 35.4463 6.37109C34.8545 6.37109 34.4062 6.58789 34.1016 7.02148C33.8027 7.44922 33.6533 8.14648 33.6533 9.11328V9.37695C33.6533 10.3555 33.8027 11.0586 34.1016 11.4863C34.4004 11.9141 34.8545 12.1279 35.4639 12.1279ZM45.2725 14.1758C43.8779 14.1758 42.7412 13.748 41.8623 12.8926C40.9893 12.0371 40.5527 10.8975 40.5527 9.47363V9.22754C40.5527 8.27246 40.7373 7.41992 41.1064 6.66992C41.4756 5.91406 41.9971 5.33398 42.6709 4.92969C43.3506 4.51953 44.124 4.31445 44.9912 4.31445C46.292 4.31445 47.3145 4.72461 48.0586 5.54492C48.8086 6.36523 49.1836 7.52832 49.1836 9.03418V10.0713H43.1279C43.21 10.6924 43.4561 11.1904 43.8662 11.5654C44.2822 11.9404 44.8066 12.1279 45.4395 12.1279C46.418 12.1279 47.1826 11.7734 47.7334 11.0645L48.9814 12.4619C48.6006 13.001 48.085 13.4229 47.4346 13.7275C46.7842 14.0264 46.0635 14.1758 45.2725 14.1758ZM44.9824 6.37109C44.4785 6.37109 44.0684 6.54102 43.752 6.88086C43.4414 7.2207 43.2422 7.70703 43.1543 8.33984H46.6875V8.1377C46.6758 7.5752 46.5234 7.1416 46.2305 6.83691C45.9375 6.52637 45.5215 6.37109 44.9824 6.37109ZM55.7842 11.3721C55.7842 11.0615 55.6289 10.8184 55.3184 10.6426C55.0137 10.4609 54.5215 10.2998 53.8418 10.1592C51.5801 9.68457 50.4492 8.72363 50.4492 7.27637C50.4492 6.43262 50.7979 5.72949 51.4951 5.16699C52.1982 4.59863 53.1152 4.31445 54.2461 4.31445C55.4531 4.31445 56.417 4.59863 57.1377 5.16699C57.8643 5.73535 58.2275 6.47363 58.2275 7.38184H55.6875C55.6875 7.01855 55.5703 6.71973 55.3359 6.48535C55.1016 6.24512 54.7354 6.125 54.2373 6.125C53.8096 6.125 53.4785 6.22168 53.2441 6.41504C53.0098 6.6084 52.8926 6.85449 52.8926 7.15332C52.8926 7.43457 53.0244 7.66309 53.2881 7.83887C53.5576 8.00879 54.0088 8.1582 54.6416 8.28711C55.2744 8.41016 55.8076 8.55078 56.2412 8.70898C57.583 9.20117 58.2539 10.0537 58.2539 11.2666C58.2539 12.1338 57.8818 12.8369 57.1377 13.376C56.3936 13.9092 55.4326 14.1758 54.2549 14.1758C53.458 14.1758 52.749 14.0352 52.1279 13.7539C51.5127 13.4668 51.0293 13.0771 50.6777 12.585C50.3262 12.0869 50.1504 11.5508 50.1504 10.9766H52.5586C52.582 11.4277 52.749 11.7734 53.0596 12.0137C53.3701 12.2539 53.7861 12.374 54.3076 12.374C54.7939 12.374 55.1602 12.2832 55.4062 12.1016C55.6582 11.9141 55.7842 11.6709 55.7842 11.3721ZM65.0479 11.3721C65.0479 11.0615 64.8926 10.8184 64.582 10.6426C64.2773 10.4609 63.7852 10.2998 63.1055 10.1592C60.8438 9.68457 59.7129 8.72363 59.7129 7.27637C59.7129 6.43262 60.0615 5.72949 60.7588 5.16699C61.4619 4.59863 62.3789 4.31445 63.5098 4.31445C64.7168 4.31445 65.6807 4.59863 66.4014 5.16699C67.1279 5.73535 67.4912 6.47363 67.4912 7.38184H64.9512C64.9512 7.01855 64.834 6.71973 64.5996 6.48535C64.3652 6.24512 63.999 6.125 63.501 6.125C63.0732 6.125 62.7422 6.22168 62.5078 6.41504C62.2734 6.6084 62.1562 6.85449 62.1562 7.15332C62.1562 7.43457 62.2881 7.66309 62.5518 7.83887C62.8213 8.00879 63.2725 8.1582 63.9053 8.28711C64.5381 8.41016 65.0713 8.55078 65.5049 8.70898C66.8467 9.20117 67.5176 10.0537 67.5176 11.2666C67.5176 12.1338 67.1455 12.8369 66.4014 13.376C65.6572 13.9092 64.6963 14.1758 63.5186 14.1758C62.7217 14.1758 62.0127 14.0352 61.3916 13.7539C60.7764 13.4668 60.293 13.0771 59.9414 12.585C59.5898 12.0869 59.4141 11.5508 59.4141 10.9766H61.8223C61.8457 11.4277 62.0127 11.7734 62.3232 12.0137C62.6338 12.2539 63.0498 12.374 63.5713 12.374C64.0576 12.374 64.4238 12.2832 64.6699 12.1016C64.9219 11.9141 65.0479 11.6709 65.0479 11.3721ZM69.8555 14V6.35352H68.4404V4.49023H69.8555V3.68164C69.8555 2.61523 70.1602 1.78906 70.7695 1.20312C71.3848 0.611328 72.2432 0.31543 73.3447 0.31543C73.6963 0.31543 74.127 0.374023 74.6367 0.491211L74.6104 2.45996C74.3994 2.40723 74.1416 2.38086 73.8369 2.38086C72.8818 2.38086 72.4043 2.8291 72.4043 3.72559V4.49023H74.2939V6.35352H72.4043V14H69.8555ZM81.3076 13.0332C80.6807 13.7949 79.8135 14.1758 78.7061 14.1758C77.6865 14.1758 76.9072 13.8828 76.3682 13.2969C75.835 12.7109 75.5625 11.8525 75.5508 10.7217V4.49023H78.0908V10.6338C78.0908 11.624 78.542 12.1191 79.4443 12.1191C80.3057 12.1191 80.8975 11.8203 81.2197 11.2227V4.49023H83.7686V14H81.3779L81.3076 13.0332ZM88.3652 14H85.8164V0.5H88.3652V14Z" fill="#29BB89"/>
</svg>
