<svg width="20" height="18" viewBox="0 0 20 18" fill="none" xmlns="http://www.w3.org/2000/svg">
<path opacity="0.4" d="M4.70549 9.89062C4.18938 9.89062 3.77157 10.3146 3.77157 10.8384L3.5141 15.4172C3.5141 16.0847 4.04777 16.6251 4.70549 16.6251C5.36321 16.6251 5.89571 16.0847 5.89571 15.4172L5.63941 10.8384C5.63941 10.3146 5.22161 9.89062 4.70549 9.89062Z" fill="#FF7A97"/>
<path d="M5.98037 0.673447C5.98037 0.673447 5.71236 0.397892 5.54618 0.277931C5.30509 0.0926435 5.00783 0 4.71173 0C4.37936 0 4.07039 0.104521 3.81877 0.301685C3.77313 0.348007 3.57886 0.522605 3.41852 0.685325C2.41204 1.6367 0.765393 4.12026 0.262153 5.42083C0.182571 5.618 0.0105329 6.11685 0 6.38409C0 6.63827 0.0561757 6.88294 0.170868 7.11455C0.331202 7.40436 0.582823 7.63715 0.880085 7.76424C1.08606 7.84619 1.70282 7.97328 1.71453 7.97328C2.38981 8.10156 3.48757 8.17045 4.70003 8.17045C5.85514 8.17045 6.90727 8.10156 7.59308 7.99704C7.60478 7.98516 8.37017 7.85807 8.6335 7.71792C9.11333 7.46255 9.41177 6.96371 9.41177 6.43041V6.38409C9.40006 6.03608 9.10163 5.30444 9.09109 5.30444C8.58785 4.07394 7.02079 1.64858 5.98037 0.673447Z" fill="#FF7A97"/>
<path opacity="0.4" d="M15.2945 8.10962C15.8106 8.10962 16.2284 7.68559 16.2284 7.16178L16.4847 2.58295C16.4847 1.91543 15.9522 1.375 15.2945 1.375C14.6368 1.375 14.1031 1.91543 14.1031 2.58295L14.3606 7.16178C14.3606 7.68559 14.7784 8.10962 15.2945 8.10962Z" fill="#FF7A97"/>
<path d="M19.829 10.8855C19.6686 10.5957 19.417 10.3641 19.1198 10.2358C18.9138 10.1538 18.2958 10.0268 18.2853 10.0268C17.61 9.89848 16.5123 9.82959 15.2998 9.82959C14.1447 9.82959 13.0926 9.89848 12.4068 10.003C12.3951 10.0149 11.6297 10.1432 11.3663 10.2821C10.8853 10.5375 10.5881 11.0364 10.5881 11.5709V11.6172C10.5998 11.9652 10.897 12.6957 10.9087 12.6957C11.412 13.9262 12.9779 16.3528 14.0195 17.3267C14.0195 17.3267 14.2875 17.6023 14.4537 17.7211C14.6936 17.9076 14.9908 18.0002 15.2893 18.0002C15.6205 18.0002 15.9283 17.8957 16.1811 17.6985C16.2267 17.6522 16.421 17.4776 16.5813 17.3161C17.5866 16.3635 19.2344 13.8799 19.7365 12.5804C19.8173 12.3833 19.9893 11.8832 19.9998 11.6172C19.9998 11.3618 19.9437 11.1171 19.829 10.8855Z" fill="#FF7A97"/>
</svg>
