<svg width="48" height="48" viewBox="0 0 48 48" fill="none" xmlns="http://www.w3.org/2000/svg">
<path fill-rule="evenodd" clip-rule="evenodd" d="M42.8788 27.9879C37.5568 27.9879 37.5568 19.7591 42.8788 19.7591C42.8788 10.2248 42.8788 6.82181 24.0888 6.82181C5.29883 6.82181 5.29883 10.2248 5.29883 19.7591C10.6208 19.7591 10.6208 27.9879 5.29883 27.9879C5.29883 37.5241 5.29883 40.9271 24.0888 40.9271C42.8788 40.9271 42.8788 37.5241 42.8788 27.9879Z" stroke="black" stroke-width="3" stroke-linecap="round" stroke-linejoin="round"/>
<path fill-rule="evenodd" clip-rule="evenodd" d="M24.0893 18.3422C22.7233 18.3422 22.5933 20.5211 21.7813 21.2923C20.9673 22.0616 18.4413 21.1824 18.0893 22.5485C17.7393 23.9165 20.0133 24.3807 20.2953 25.5536C20.5753 26.7264 19.1873 28.3748 20.3733 29.1971C21.5613 30.0157 22.8393 28.1607 24.0893 28.1607C25.3393 28.1607 26.6173 30.0157 27.8053 29.1971C28.9933 28.3748 27.6033 26.7264 27.8833 25.5536C28.1653 24.3807 30.4393 23.9165 30.0893 22.5485C29.7373 21.1824 27.2113 22.0616 26.3973 21.2923C25.5853 20.5211 25.4553 18.3422 24.0893 18.3422Z" stroke="black" stroke-width="3" stroke-linecap="round" stroke-linejoin="round"/>
</svg>
