<svg width="24" height="24" viewBox="0 0 24 24" fill="none" xmlns="http://www.w3.org/2000/svg">
<path fill-rule="evenodd" clip-rule="evenodd" d="M9.9221 21.8083C6.1081 21.8083 2.8501 21.2313 2.8501 18.9213C2.8501 16.6113 6.0871 14.5103 9.9221 14.5103C13.7361 14.5103 16.9941 16.5913 16.9941 18.9003C16.9941 21.2093 13.7571 21.8083 9.9221 21.8083Z" stroke="#007AFF" stroke-width="1.5" stroke-linecap="round" stroke-linejoin="round"/>
<path fill-rule="evenodd" clip-rule="evenodd" d="M9.92222 11.216C12.4252 11.216 14.4552 9.186 14.4552 6.683C14.4552 4.179 12.4252 2.15 9.92222 2.15C7.41922 2.15 5.38919 4.179 5.38919 6.683C5.38022 9.177 7.39622 11.207 9.89022 11.216H9.92222Z" stroke="#007AFF" stroke-width="1.5" stroke-linecap="round" stroke-linejoin="round"/>
<path d="M19.1309 8.1291V12.1391" stroke="#007AFF" stroke-width="1.5" stroke-linecap="round" stroke-linejoin="round"/>
<path d="M21.1774 10.1339H17.0874" stroke="#007AFF" stroke-width="1.5" stroke-linecap="round" stroke-linejoin="round"/>
</svg>
